<svg xmlns="http://www.w3.org/2000/svg" xmlns:xlink="http://www.w3.org/1999/xlink" width="500" zoomAndPan="magnify" viewBox="0 0 375 374.999991" height="500" preserveAspectRatio="xMidYMid meet" version="1.0"><path fill="#ffffff" d="M 95.265625 112.363281 C 129.933594 77.347656 120.007812 55.402344 143.730469 39.191406 C 180.226562 14.242188 248.34375 35.707031 288.535156 70.015625 C 337.753906 112.042969 363.148438 188.777344 334.222656 258.195312 C 303.414062 332.121094 222.351562 370.5 150.019531 358.933594 C 85.429688 348.605469 21.933594 297.515625 15.574219 236.238281 C 14.882812 229.597656 11.839844 193.695312 33.191406 162.738281 C 50.835938 137.15625 67.789062 140.121094 95.265625 112.363281 " fill-opacity="1" fill-rule="nonzero"/><path fill="#ac1754" d="M 242.300781 127.75 C 238.042969 128.917969 233.648438 126.40625 232.480469 122.148438 C 231.3125 117.886719 233.824219 113.488281 238.078125 112.320312 C 242.335938 111.152344 246.734375 113.664062 247.898438 117.921875 C 249.0625 122.183594 246.558594 126.582031 242.300781 127.75 Z M 256.09375 117.289062 L 255.273438 114.292969 L 251.882812 114.445312 C 251.570312 113.785156 251.207031 113.160156 250.792969 112.574219 L 252.589844 109.699219 L 250.382812 107.515625 L 247.523438 109.34375 C 246.929688 108.9375 246.300781 108.578125 245.644531 108.273438 L 245.765625 104.882812 L 242.761719 104.09375 L 241.203125 107.101562 C 240.488281 107.046875 239.765625 107.054688 239.039062 107.117188 L 237.445312 104.121094 L 234.449219 104.941406 L 234.601562 108.332031 C 233.945312 108.648438 233.320312 109.011719 232.734375 109.421875 L 229.863281 107.625 L 227.679688 109.835938 L 229.503906 112.695312 C 229.097656 113.289062 228.738281 113.917969 228.4375 114.574219 L 225.046875 114.457031 L 224.257812 117.460938 L 227.265625 119.023438 C 227.210938 119.734375 227.214844 120.457031 227.28125 121.1875 L 224.289062 122.78125 L 225.109375 125.78125 L 228.496094 125.625 C 228.808594 126.285156 229.171875 126.910156 229.582031 127.492188 L 227.789062 130.371094 L 230 132.554688 L 232.855469 130.726562 C 233.449219 131.136719 234.078125 131.492188 234.730469 131.796875 L 234.617188 135.1875 L 237.617188 135.976562 L 239.179688 132.964844 C 239.886719 133.023438 240.613281 133.019531 241.339844 132.953125 L 242.933594 135.949219 L 245.925781 135.125 L 245.773438 131.738281 C 246.433594 131.425781 247.058594 131.058594 247.644531 130.648438 L 250.519531 132.441406 L 252.699219 130.234375 L 250.871094 127.375 C 251.28125 126.777344 251.640625 126.148438 251.941406 125.496094 L 255.332031 125.613281 L 256.121094 122.605469 L 253.113281 121.046875 C 253.167969 120.332031 253.164062 119.613281 253.097656 118.882812 L 256.09375 117.289062 " fill-opacity="1" fill-rule="nonzero"/><path fill="#000000" d="M 57.003906 90.113281 C 56.9375 90.113281 56.863281 90.101562 56.796875 90.074219 C 56.484375 89.960938 56.324219 89.613281 56.441406 89.300781 L 57.523438 86.386719 C 57.640625 86.074219 57.988281 85.917969 58.296875 86.03125 C 58.609375 86.148438 58.769531 86.492188 58.652344 86.804688 L 57.570312 89.71875 C 57.480469 89.964844 57.25 90.113281 57.003906 90.113281 " fill-opacity="1" fill-rule="nonzero"/><path fill="#000000" d="M 54.480469 96.902344 C 54.410156 96.902344 54.339844 96.890625 54.273438 96.867188 C 53.960938 96.75 53.800781 96.402344 53.917969 96.089844 L 55 93.175781 C 55.117188 92.863281 55.464844 92.707031 55.773438 92.820312 C 56.085938 92.9375 56.246094 93.285156 56.128906 93.597656 L 55.046875 96.511719 C 54.957031 96.753906 54.726562 96.902344 54.480469 96.902344 " fill-opacity="1" fill-rule="nonzero"/><path fill="#000000" d="M 54.347656 91.332031 C 54.277344 91.332031 54.207031 91.320312 54.136719 91.292969 L 51.222656 90.210938 C 50.914062 90.09375 50.753906 89.746094 50.867188 89.4375 C 50.984375 89.125 51.332031 88.964844 51.644531 89.082031 L 54.558594 90.164062 C 54.871094 90.28125 55.027344 90.628906 54.914062 90.9375 C 54.824219 91.179688 54.59375 91.332031 54.347656 91.332031 " fill-opacity="1" fill-rule="nonzero"/><path fill="#000000" d="M 61.136719 93.855469 C 61.066406 93.855469 60.996094 93.839844 60.925781 93.816406 L 58.011719 92.734375 C 57.699219 92.617188 57.542969 92.269531 57.65625 91.960938 C 57.773438 91.648438 58.121094 91.488281 58.429688 91.605469 L 61.347656 92.6875 C 61.65625 92.804688 61.816406 93.148438 61.699219 93.460938 C 61.609375 93.707031 61.378906 93.855469 61.136719 93.855469 " fill-opacity="1" fill-rule="nonzero"/><path fill="#000000" d="M 307.941406 71.546875 C 307.609375 71.546875 307.339844 71.277344 307.339844 70.949219 L 307.339844 67.839844 C 307.339844 67.507812 307.609375 67.234375 307.941406 67.234375 C 308.273438 67.234375 308.546875 67.507812 308.546875 67.839844 L 308.546875 70.949219 C 308.546875 71.277344 308.273438 71.546875 307.941406 71.546875 " fill-opacity="1" fill-rule="nonzero"/><path fill="#000000" d="M 307.941406 78.792969 C 307.605469 78.792969 307.339844 78.523438 307.339844 78.191406 L 307.339844 75.082031 C 307.339844 74.746094 307.605469 74.476562 307.941406 74.476562 C 308.273438 74.476562 308.542969 74.746094 308.542969 75.082031 L 308.542969 78.191406 C 308.542969 78.523438 308.273438 78.792969 307.941406 78.792969 " fill-opacity="1" fill-rule="nonzero"/><path fill="#000000" d="M 305.875 73.617188 L 302.765625 73.617188 C 302.433594 73.617188 302.164062 73.347656 302.164062 73.015625 C 302.164062 72.683594 302.433594 72.414062 302.765625 72.414062 L 305.875 72.414062 C 306.207031 72.414062 306.476562 72.683594 306.476562 73.015625 C 306.476562 73.347656 306.207031 73.617188 305.875 73.617188 " fill-opacity="1" fill-rule="nonzero"/><path fill="#000000" d="M 313.117188 73.617188 L 310.007812 73.617188 C 309.675781 73.617188 309.40625 73.347656 309.40625 73.015625 C 309.40625 72.679688 309.675781 72.410156 310.007812 72.410156 L 313.117188 72.410156 C 313.449219 72.410156 313.71875 72.679688 313.71875 73.015625 C 313.71875 73.347656 313.449219 73.617188 313.117188 73.617188 " fill-opacity="1" fill-rule="nonzero"/><path fill="#000000" d="M 75.492188 346.894531 C 75.414062 346.894531 75.332031 346.878906 75.257812 346.847656 C 56.964844 339.042969 42.925781 327.28125 33.523438 311.878906 C 33.351562 311.597656 33.441406 311.226562 33.726562 311.054688 C 34.007812 310.878906 34.382812 310.96875 34.554688 311.253906 C 43.820312 326.433594 57.671875 338.035156 75.730469 345.738281 C 76.035156 345.867188 76.179688 346.222656 76.046875 346.527344 C 75.949219 346.757812 75.726562 346.894531 75.492188 346.894531 " fill-opacity="1" fill-rule="nonzero"/><path fill="#000000" d="M 30.980469 306.550781 C 30.78125 306.550781 30.582031 306.449219 30.46875 306.265625 C 24.441406 296.597656 22.652344 289.152344 22.582031 288.839844 C 22.503906 288.515625 22.707031 288.191406 23.027344 288.117188 C 23.355469 288.039062 23.675781 288.238281 23.753906 288.5625 C 23.769531 288.636719 25.578125 296.144531 31.492188 305.628906 C 31.667969 305.910156 31.582031 306.285156 31.300781 306.457031 C 31.199219 306.519531 31.089844 306.550781 30.980469 306.550781 " fill-opacity="1" fill-rule="nonzero"/><path fill="#000000" d="M 78.386719 355.726562 C 78.328125 355.726562 78.269531 355.71875 78.207031 355.699219 C 59.1875 349.71875 46.234375 338.394531 38.71875 329.949219 C 30.570312 320.792969 26.859375 312.925781 26.824219 312.847656 C 26.683594 312.546875 26.8125 312.1875 27.113281 312.046875 C 27.417969 311.90625 27.777344 312.035156 27.917969 312.339844 C 27.953125 312.417969 31.605469 320.152344 39.648438 329.179688 C 47.0625 337.5 59.832031 348.65625 78.570312 354.550781 C 78.886719 354.652344 79.0625 354.988281 78.960938 355.308594 C 78.882812 355.5625 78.644531 355.726562 78.386719 355.726562 " fill-opacity="1" fill-rule="nonzero"/><path fill="#000000" d="M 276.738281 133.652344 C 274.960938 133.535156 272.867188 134.09375 268.6875 135.203125 C 264.917969 136.207031 263.875 136.878906 263.414062 138.035156 C 262.652344 139.933594 263.785156 142.269531 264.128906 142.96875 C 266.054688 146.933594 269.582031 147.453125 271.90625 149.265625 C 279.429688 155.125 275.59375 165.074219 281.832031 171.300781 C 287.773438 177.226562 293.328125 170.261719 304.007812 175.914062 C 312.421875 180.367188 311.636719 186.089844 318.496094 188.613281 C 326.871094 191.691406 340 187.554688 345.324219 175.183594 C 348.730469 167.257812 350 145.789062 338.304688 143.027344 C 334.320312 142.085938 330.871094 144.878906 326.992188 145.125 C 323.117188 145.367188 319.101562 144.074219 316.25 141.402344 C 313.828125 139.125 312.242188 136.039062 309.683594 133.917969 C 304.179688 129.363281 297.421875 131.464844 292.003906 134.863281 C 291.195312 135.371094 289.328125 137.34375 288.539062 137.40625 C 283.527344 137.796875 282.484375 134.019531 276.738281 133.652344 " fill-opacity="1" fill-rule="nonzero"/><path fill="#ac1754" d="M 258.242188 191.164062 C 254.230469 215.714844 253.765625 216.078125 253.226562 218.648438 C 253.226562 218.648438 251.632812 225.878906 251.191406 232.84375 C 250.8125 238.886719 251.949219 275.183594 270.707031 283.175781 C 277.480469 286.058594 279.445312 280.753906 293.871094 281.332031 C 308.652344 281.921875 311.652344 287.183594 318.101562 285.339844 C 332.058594 281.347656 336.621094 251.398438 335.851562 232.890625 C 335.222656 217.816406 327.722656 203.585938 312.71875 175.117188 C 310.433594 170.78125 306.777344 164.160156 300.886719 163.316406 C 298.179688 162.929688 297.101562 163.347656 286.257812 166.324219 C 274.460938 169.5625 271.464844 166.117188 266.402344 169.308594 C 261.167969 172.605469 260.246094 178.878906 258.242188 191.164062 " fill-opacity="1" fill-rule="nonzero"/><path fill="#ffffff" d="M 279.773438 333.324219 L 279.773438 345.195312 L 285.484375 344.847656 L 286.609375 333.324219 L 279.773438 333.324219 " fill-opacity="1" fill-rule="nonzero"/><path fill="#000000" d="M 280.375 333.925781 L 280.375 344.554688 L 284.933594 344.277344 L 285.945312 333.925781 Z M 279.773438 345.796875 C 279.617188 345.796875 279.472656 345.738281 279.359375 345.632812 C 279.238281 345.519531 279.167969 345.363281 279.167969 345.195312 L 279.167969 333.320312 C 279.167969 332.988281 279.441406 332.71875 279.773438 332.71875 L 286.609375 332.71875 C 286.777344 332.71875 286.941406 332.792969 287.054688 332.917969 C 287.167969 333.042969 287.226562 333.210938 287.210938 333.382812 L 286.082031 344.90625 C 286.054688 345.199219 285.816406 345.429688 285.523438 345.449219 L 279.808594 345.796875 C 279.796875 345.796875 279.785156 345.796875 279.773438 345.796875 " fill-opacity="1" fill-rule="nonzero"/><path fill="#ffffff" d="M 286.34375 359.996094 C 284.019531 360.246094 280.210938 360.410156 275.773438 359.644531 C 274.320312 359.394531 273.398438 357.945312 273.796875 356.527344 C 274.910156 352.570312 277.109375 345.195312 278.859375 341.664062 L 279.914062 343.589844 L 280.757812 341.554688 C 280.898438 341.3125 281.152344 341.15625 281.429688 341.128906 L 283.621094 340.925781 C 284.078125 340.882812 284.628906 341.332031 284.703125 341.785156 L 286.148438 343.589844 L 286.980469 341.445312 L 288.539062 357.285156 C 288.671875 358.640625 287.695312 359.851562 286.34375 359.996094 " fill-opacity="1" fill-rule="nonzero"/><path fill="#000000" d="M 278.902344 343 C 277.1875 346.953125 275.203125 353.757812 274.375 356.691406 C 274.230469 357.207031 274.308594 357.742188 274.597656 358.199219 C 274.882812 358.648438 275.347656 358.960938 275.875 359.050781 C 280.203125 359.796875 283.921875 359.652344 286.277344 359.402344 C 287.292969 359.292969 288.039062 358.371094 287.9375 357.347656 L 286.621094 343.960938 C 286.527344 344.078125 286.394531 344.160156 286.238281 344.183594 C 286.027344 344.214844 285.8125 344.132812 285.679688 343.964844 L 284.234375 342.164062 C 284.171875 342.082031 284.128906 341.992188 284.109375 341.890625 C 284.082031 341.730469 283.785156 341.519531 283.675781 341.527344 L 281.484375 341.730469 C 281.40625 341.738281 281.335938 341.777344 281.289062 341.835938 L 280.464844 343.820312 C 280.378906 344.03125 280.175781 344.179688 279.945312 344.191406 C 279.707031 344.195312 279.492188 344.082031 279.382812 343.878906 Z M 286.34375 360 L 286.347656 360 Z M 282.371094 360.808594 C 280.417969 360.808594 278.140625 360.664062 275.671875 360.238281 C 274.804688 360.089844 274.046875 359.582031 273.578125 358.84375 C 273.113281 358.105469 272.980469 357.203125 273.21875 356.363281 C 274.128906 353.109375 276.460938 345.144531 278.320312 341.394531 C 278.414062 341.195312 278.621094 341.066406 278.84375 341.058594 C 279.070312 341.054688 279.277344 341.175781 279.382812 341.375 L 279.835938 342.195312 L 280.199219 341.324219 C 280.210938 341.296875 280.222656 341.269531 280.238281 341.246094 C 280.480469 340.839844 280.90625 340.574219 281.375 340.53125 L 283.5625 340.328125 C 284.269531 340.261719 285.035156 340.820312 285.253906 341.511719 L 285.964844 342.394531 L 286.417969 341.230469 C 286.519531 340.96875 286.785156 340.816406 287.0625 340.851562 C 287.339844 340.886719 287.554688 341.109375 287.582031 341.386719 L 289.140625 357.230469 C 289.304688 358.90625 288.078125 360.417969 286.40625 360.597656 C 285.316406 360.714844 283.949219 360.808594 282.371094 360.808594 " fill-opacity="1" fill-rule="nonzero"/><path fill="#000000" d="M 280.820312 358.117188 C 279.089844 358.117188 277.152344 357.949219 275.234375 357.445312 C 274.910156 357.359375 274.71875 357.03125 274.804688 356.710938 C 274.890625 356.386719 275.21875 356.195312 275.539062 356.28125 C 280.875 357.683594 286.554688 356.292969 286.609375 356.277344 C 286.933594 356.199219 287.261719 356.394531 287.339844 356.714844 C 287.421875 357.039062 287.226562 357.367188 286.90625 357.449219 C 286.742188 357.488281 284.167969 358.117188 280.820312 358.117188 " fill-opacity="1" fill-rule="nonzero"/><path fill="#000000" d="M 284.074219 351.949219 L 278.859375 351.949219 C 278.523438 351.949219 278.257812 351.679688 278.257812 351.347656 C 278.257812 351.015625 278.523438 350.746094 278.859375 350.746094 L 284.074219 350.746094 C 284.402344 350.746094 284.675781 351.015625 284.675781 351.347656 C 284.675781 351.679688 284.402344 351.949219 284.074219 351.949219 " fill-opacity="1" fill-rule="nonzero"/><path fill="#ffffff" d="M 321.792969 327.039062 L 323.484375 341.355469 L 328.835938 341.167969 L 328.835938 327.039062 L 321.792969 327.039062 " fill-opacity="1" fill-rule="nonzero"/><path fill="#000000" d="M 322.472656 327.640625 L 324.015625 340.734375 L 328.234375 340.585938 L 328.234375 327.640625 Z M 323.480469 341.957031 C 323.179688 341.957031 322.917969 341.730469 322.886719 341.425781 L 321.195312 327.109375 C 321.175781 326.9375 321.230469 326.769531 321.34375 326.640625 C 321.460938 326.511719 321.621094 326.4375 321.792969 326.4375 L 328.839844 326.4375 C 329.171875 326.4375 329.4375 326.707031 329.4375 327.039062 L 329.4375 341.167969 C 329.4375 341.492188 329.183594 341.757812 328.855469 341.769531 L 323.503906 341.957031 C 323.496094 341.957031 323.492188 341.957031 323.480469 341.957031 " fill-opacity="1" fill-rule="nonzero"/><path fill="#ffffff" d="M 322.210938 337.941406 C 322.210938 337.941406 321.519531 344.296875 321.734375 346.851562 C 321.886719 348.683594 324.398438 354.210938 325.808594 357.207031 C 326.394531 358.4375 327.503906 359.226562 328.738281 359.28125 C 330.238281 359.347656 332.328125 359.421875 334.011719 359.425781 C 336.328125 359.425781 337.925781 356.792969 337.097656 354.335938 C 336.332031 352.066406 335.121094 349.226562 333.214844 346.199219 C 331.777344 343.921875 329.679688 337.730469 329.679688 337.730469 L 325.316406 337.730469 L 324.457031 341.355469 L 322.210938 337.941406 " fill-opacity="1" fill-rule="nonzero"/><path fill="#000000" d="M 322.640625 339.691406 C 322.457031 341.742188 322.195312 345.136719 322.332031 346.804688 C 322.4375 348.0625 323.90625 351.761719 326.355469 356.949219 C 326.839844 357.972656 327.761719 358.636719 328.761719 358.679688 C 330.226562 358.742188 332.324219 358.816406 334.015625 358.820312 C 334.828125 358.820312 335.558594 358.421875 336.078125 357.699219 C 336.726562 356.800781 336.894531 355.613281 336.523438 354.527344 C 335.59375 351.757812 334.304688 349.066406 332.703125 346.523438 C 331.445312 344.527344 329.746094 339.769531 329.246094 338.332031 L 325.789062 338.332031 L 325.042969 341.492188 C 324.988281 341.726562 324.800781 341.90625 324.566406 341.945312 C 324.328125 341.988281 324.085938 341.886719 323.953125 341.683594 Z M 334.015625 360.027344 C 334.015625 360.027344 334.015625 360.027344 334.011719 360.027344 C 332.304688 360.023438 330.183594 359.949219 328.710938 359.882812 C 327.261719 359.820312 325.941406 358.894531 325.265625 357.460938 C 323.464844 353.648438 321.285156 348.722656 321.132812 346.902344 C 320.917969 344.316406 321.582031 338.136719 321.609375 337.875 C 321.636719 337.621094 321.820312 337.414062 322.066406 337.351562 C 322.3125 337.292969 322.570312 337.394531 322.710938 337.605469 L 324.191406 339.855469 L 324.730469 337.59375 C 324.792969 337.320312 325.035156 337.128906 325.3125 337.128906 L 329.679688 337.128906 C 329.9375 337.128906 330.164062 337.292969 330.25 337.539062 C 330.269531 337.597656 332.339844 343.6875 333.722656 345.878906 C 335.375 348.503906 336.703125 351.285156 337.667969 354.140625 C 338.160156 355.597656 337.929688 357.191406 337.058594 358.402344 C 336.316406 359.433594 335.207031 360.027344 334.015625 360.027344 " fill-opacity="1" fill-rule="nonzero"/><path fill="#000000" d="M 323.722656 349.757812 Z M 330.6875 357.300781 C 328.722656 357.300781 326.941406 356.167969 326.035156 354.339844 C 324.183594 350.601562 323.753906 349.835938 323.652344 349.691406 C 323.460938 349.472656 323.449219 349.144531 323.636719 348.910156 C 323.847656 348.652344 324.226562 348.613281 324.484375 348.824219 C 324.628906 348.941406 324.753906 349.042969 327.113281 353.804688 C 327.816406 355.21875 329.183594 356.097656 330.6875 356.097656 L 335.660156 356.089844 C 335.988281 356.089844 336.257812 356.359375 336.261719 356.691406 C 336.261719 357.027344 335.992188 357.292969 335.660156 357.296875 L 330.691406 357.300781 C 330.6875 357.300781 330.6875 357.300781 330.6875 357.300781 " fill-opacity="1" fill-rule="nonzero"/><path fill="#000000" d="M 333.363281 352.128906 L 328.585938 352.128906 C 328.253906 352.128906 327.984375 351.859375 327.984375 351.523438 C 327.984375 351.191406 328.253906 350.921875 328.585938 350.921875 L 333.363281 350.921875 C 333.695312 350.921875 333.964844 351.191406 333.964844 351.523438 C 333.964844 351.859375 333.695312 352.128906 333.363281 352.128906 " fill-opacity="1" fill-rule="nonzero"/><path fill="#000000" d="M 270.59375 214.625 C 270.59375 214.625 271.164062 258.3125 273 286.753906 C 274.835938 315.191406 278.457031 336.941406 278.457031 336.941406 C 278.457031 336.941406 284.6875 339.175781 288.777344 338.003906 C 288.777344 338.003906 292.164062 313.054688 292.933594 304.625 C 293.703125 296.191406 291.660156 292.007812 291.488281 285.105469 C 291.316406 278.203125 294.464844 247.730469 294.464844 247.730469 C 294.464844 247.730469 317.949219 316.621094 320.636719 331.835938 C 320.636719 331.835938 326.324219 332.800781 330.335938 330.609375 C 330.335938 330.609375 330.460938 303.519531 329.890625 299.332031 C 328.835938 291.578125 322.78125 283.941406 321.691406 275.703125 C 320.601562 267.46875 319.972656 246.792969 316.976562 234.394531 C 313.980469 221.996094 308.101562 208.066406 308.101562 208.066406 L 270.59375 214.625 " fill-opacity="1" fill-rule="nonzero"/><path fill="#ffffff" d="M 310.609375 231.015625 C 310.53125 231.015625 310.453125 231.003906 310.378906 230.972656 C 302.308594 227.664062 299.984375 219.988281 299.890625 219.664062 C 299.800781 219.34375 299.984375 219.007812 300.300781 218.914062 C 300.625 218.820312 300.953125 219.007812 301.050781 219.324219 C 301.070312 219.398438 303.316406 226.777344 310.839844 229.855469 C 311.144531 229.984375 311.292969 230.335938 311.167969 230.644531 C 311.074219 230.878906 310.847656 231.015625 310.609375 231.015625 " fill-opacity="1" fill-rule="nonzero"/><path fill="#ffffff" d="M 317.703125 251.375 C 317.40625 251.375 317.144531 251.152344 317.109375 250.847656 C 314.429688 230.28125 306.417969 216.550781 306.335938 216.414062 C 306.167969 216.128906 306.261719 215.757812 306.546875 215.589844 C 306.832031 215.421875 307.203125 215.515625 307.371094 215.800781 C 307.457031 215.9375 315.589844 229.867188 318.300781 250.695312 C 318.34375 251.023438 318.109375 251.328125 317.78125 251.367188 C 317.757812 251.371094 317.730469 251.375 317.703125 251.375 " fill-opacity="1" fill-rule="nonzero"/><path fill="#ffffff" d="M 197.726562 168.972656 L 207.960938 173.230469 L 211.703125 181.269531 C 213.941406 182.761719 216.171875 183.976562 218.386719 184.953125 C 217.980469 185.8125 217.582031 186.675781 217.203125 187.546875 C 216.589844 188.964844 215.996094 190.386719 215.410156 191.816406 C 210.933594 187.363281 209.214844 183.195312 209.214844 183.195312 C 202.898438 182.828125 202.742188 177.957031 203.054688 176.695312 C 203.363281 175.433594 202.789062 174 199.886719 172.089844 C 196.710938 170.003906 197.726562 168.972656 197.726562 168.972656 " fill-opacity="1" fill-rule="nonzero"/><path fill="#000000" d="M 198.324219 169.871094 C 198.546875 170.257812 199.070312 170.835938 200.21875 171.589844 C 202.988281 173.40625 204.074219 175.078125 203.636719 176.839844 C 203.519531 177.320312 203.417969 179.019531 204.480469 180.460938 C 205.425781 181.75 207.03125 182.464844 209.25 182.59375 C 209.480469 182.605469 209.683594 182.75 209.769531 182.964844 C 209.785156 183.003906 211.339844 186.6875 215.203125 190.742188 C 215.648438 189.660156 216.140625 188.480469 216.652344 187.308594 C 216.957031 186.597656 217.273438 185.90625 217.582031 185.25 C 215.460938 184.277344 213.375 183.109375 211.367188 181.773438 C 211.273438 181.710938 211.203125 181.625 211.152344 181.523438 L 207.515625 173.695312 Z M 215.410156 192.417969 C 215.25 192.417969 215.097656 192.355469 214.984375 192.242188 C 211.164062 188.441406 209.324219 184.875 208.808594 183.769531 C 206.40625 183.558594 204.625 182.6875 203.511719 181.175781 C 202.308594 179.546875 202.226562 177.515625 202.46875 176.550781 C 202.65625 175.796875 202.554688 174.566406 199.558594 172.59375 C 197.945312 171.535156 197.078125 170.535156 196.980469 169.617188 C 196.910156 168.980469 197.230469 168.617188 197.296875 168.550781 C 197.46875 168.375 197.730469 168.320312 197.957031 168.417969 L 208.195312 172.671875 C 208.332031 172.730469 208.445312 172.839844 208.507812 172.976562 L 212.175781 180.863281 C 214.261719 182.242188 216.429688 183.429688 218.628906 184.398438 C 218.777344 184.464844 218.894531 184.585938 218.949219 184.738281 C 219.007812 184.890625 219 185.058594 218.929688 185.207031 C 218.550781 186.019531 218.144531 186.890625 217.757812 187.785156 C 217.113281 189.265625 216.496094 190.757812 215.964844 192.042969 C 215.886719 192.230469 215.726562 192.367188 215.527344 192.40625 C 215.488281 192.414062 215.449219 192.417969 215.410156 192.417969 " fill-opacity="1" fill-rule="nonzero"/><path fill="#ffffff" d="M 266.320312 166.347656 C 266.320312 166.347656 280.335938 164.34375 294.136719 163.941406 C 294.136719 163.941406 311.445312 209.082031 311.441406 212.128906 C 311.4375 215.175781 304.050781 219.074219 294.136719 216.585938 C 284.222656 214.101562 271.625 213.855469 264.542969 215.507812 C 253.929688 217.988281 266.320312 166.347656 266.320312 166.347656 " fill-opacity="1" fill-rule="nonzero"/><path fill="#000000" d="M 275.679688 213.855469 C 281.859375 213.855469 288.660156 214.59375 294.285156 216.003906 C 301.03125 217.695312 306.746094 216.355469 309.414062 214.273438 C 310.320312 213.570312 310.835938 212.789062 310.839844 212.128906 C 310.839844 209.992188 300.664062 182.667969 293.726562 164.558594 C 281.554688 164.941406 269.183594 166.5625 266.8125 166.886719 C 263.957031 178.910156 257.882812 209.738281 262.574219 214.457031 C 263.066406 214.953125 263.648438 215.101562 264.40625 214.925781 C 267.476562 214.207031 271.433594 213.855469 275.679688 213.855469 Z M 300.367188 217.992188 C 298.429688 217.992188 296.292969 217.75 293.988281 217.171875 C 284.664062 214.835938 272.058594 214.375 264.675781 216.097656 C 263.527344 216.367188 262.5 216.09375 261.71875 215.304688 C 255.535156 209.082031 265.316406 167.953125 265.734375 166.207031 C 265.792969 165.96875 265.992188 165.785156 266.238281 165.75 C 266.378906 165.730469 280.445312 163.738281 294.121094 163.339844 C 294.371094 163.324219 294.605469 163.488281 294.699219 163.726562 C 296.476562 168.355469 312.046875 209.0625 312.042969 212.132812 C 312.042969 213.175781 311.375 214.273438 310.15625 215.226562 C 308.277344 216.6875 304.859375 217.992188 300.367188 217.992188 " fill-opacity="1" fill-rule="nonzero"/><path fill="#ac1754" d="M 214.441406 181.460938 L 207.980469 185.558594 C 207.980469 185.558594 214.792969 201.3125 229.621094 206.125 C 244.449219 210.9375 258.464844 197.300781 258.464844 197.300781 L 257.1875 226.542969 C 257.1875 226.542969 264.351562 230.789062 264.351562 230.414062 C 264.351562 230.039062 267.480469 165.175781 267.480469 165.175781 C 267.480469 165.175781 261.699219 165.265625 259.121094 168.9375 C 256.542969 172.605469 246.78125 187.773438 235.566406 187.957031 C 224.34375 188.140625 214.441406 181.460938 214.441406 181.460938 " fill-opacity="1" fill-rule="nonzero"/><path fill="#000000" d="M 250.082031 178.492188 L 275.558594 175.867188 C 276.414062 175.867188 277.222656 176.585938 277.367188 177.46875 L 283.519531 215.445312 C 283.660156 216.332031 283.085938 217.046875 282.230469 217.046875 L 255.210938 215.722656 C 254.355469 215.722656 253.460938 216.332031 253.316406 215.445312 L 247.164062 177.46875 C 247.019531 176.585938 249.222656 178.492188 250.082031 178.492188 " fill-opacity="1" fill-rule="nonzero"/><path fill="#000000" d="M 255.210938 215.121094 L 282.257812 216.449219 C 282.453125 216.445312 282.636719 216.367188 282.765625 216.214844 C 282.910156 216.046875 282.964844 215.808594 282.925781 215.542969 L 276.773438 177.566406 C 276.679688 176.984375 276.136719 176.484375 275.585938 176.46875 L 250.140625 179.09375 C 250.121094 179.097656 250.097656 179.097656 250.078125 179.097656 C 249.578125 179.097656 249.003906 178.785156 248.175781 178.308594 C 248.089844 178.253906 247.988281 178.195312 247.882812 178.136719 L 253.90625 215.320312 C 254.015625 215.308594 254.179688 215.273438 254.296875 215.246094 C 254.570312 215.1875 254.882812 215.121094 255.210938 215.121094 Z M 282.230469 217.652344 L 255.179688 216.324219 C 255.011719 216.328125 254.777344 216.378906 254.554688 216.421875 C 254.113281 216.519531 253.605469 216.628906 253.1875 216.34375 C 252.9375 216.171875 252.78125 215.90625 252.722656 215.542969 L 246.570312 177.566406 C 246.488281 177.082031 246.753906 176.84375 246.871094 176.765625 C 247.351562 176.433594 247.921875 176.765625 248.785156 177.265625 C 249.148438 177.476562 249.820312 177.867188 250.0625 177.890625 L 275.496094 175.269531 C 275.515625 175.265625 275.539062 175.265625 275.558594 175.265625 C 276.714844 175.265625 277.769531 176.191406 277.960938 177.375 L 284.113281 215.351562 C 284.210938 215.960938 284.058594 216.5625 283.6875 216.996094 C 283.324219 217.417969 282.808594 217.652344 282.230469 217.652344 " fill-opacity="1" fill-rule="nonzero"/><path fill="#ffffff" d="M 247.609375 175.867188 L 274.71875 175.867188 C 275.574219 175.867188 276.382812 176.585938 276.523438 177.46875 L 282.675781 215.445312 C 282.820312 216.332031 282.242188 217.046875 281.386719 217.046875 L 254.28125 217.046875 C 253.425781 217.046875 252.617188 216.332031 252.476562 215.445312 L 246.320312 177.46875 C 246.179688 176.585938 246.757812 175.867188 247.609375 175.867188 " fill-opacity="1" fill-rule="nonzero"/><path fill="#000000" d="M 247.613281 176.46875 C 247.386719 176.46875 247.203125 176.546875 247.074219 176.699219 C 246.929688 176.871094 246.875 177.105469 246.917969 177.375 L 253.070312 215.347656 C 253.164062 215.941406 253.722656 216.445312 254.28125 216.445312 L 281.390625 216.445312 C 281.609375 216.445312 281.796875 216.363281 281.925781 216.214844 C 282.070312 216.046875 282.125 215.808594 282.082031 215.542969 L 275.929688 177.566406 C 275.835938 176.972656 275.277344 176.46875 274.71875 176.46875 Z M 281.390625 217.652344 L 254.28125 217.652344 C 253.125 217.652344 252.070312 216.722656 251.878906 215.542969 L 245.726562 177.566406 C 245.628906 176.953125 245.785156 176.355469 246.15625 175.917969 C 246.515625 175.496094 247.03125 175.265625 247.613281 175.265625 L 274.71875 175.265625 C 275.871094 175.265625 276.925781 176.191406 277.121094 177.375 L 283.273438 215.347656 C 283.371094 215.960938 283.214844 216.5625 282.84375 216.996094 C 282.484375 217.417969 281.964844 217.652344 281.390625 217.652344 " fill-opacity="1" fill-rule="nonzero"/><path fill="#ffffff" d="M 280.746094 193.058594 L 280.453125 196.632812 L 269.597656 194.660156 C 269.597656 194.660156 269.347656 195.019531 269.195312 195.597656 C 268.996094 196.375 268.972656 197.546875 269.96875 198.789062 C 270.441406 199.378906 272.316406 199.394531 272.167969 200.566406 C 272.042969 201.585938 276.285156 202.382812 279.957031 203.066406 C 284.066406 203.828125 283.714844 197.972656 282.699219 194.976562 C 281.90625 192.636719 280.746094 193.058594 280.746094 193.058594 " fill-opacity="1" fill-rule="nonzero"/><path fill="#000000" d="M 272.773438 200.550781 C 273.351562 201.226562 277.707031 202.035156 280.066406 202.472656 C 280.921875 202.632812 281.550781 202.464844 281.988281 201.964844 C 283.070312 200.710938 282.902344 197.460938 282.125 195.167969 C 281.851562 194.355469 281.542969 193.941406 281.292969 193.761719 L 281.054688 196.683594 C 281.039062 196.851562 280.953125 197.007812 280.820312 197.113281 C 280.683594 197.21875 280.515625 197.257812 280.34375 197.226562 L 269.921875 195.335938 C 269.875 195.449219 269.820312 195.589844 269.777344 195.75 C 269.539062 196.675781 269.761719 197.570312 270.4375 198.410156 C 270.511719 198.503906 270.878906 198.644531 271.09375 198.726562 C 271.761719 198.984375 272.863281 199.410156 272.773438 200.550781 Z M 280.644531 203.738281 C 280.398438 203.738281 280.132812 203.710938 279.84375 203.65625 C 273.953125 202.566406 271.390625 201.933594 271.570312 200.492188 C 271.597656 200.273438 271.402344 200.140625 270.664062 199.851562 C 270.226562 199.683594 269.769531 199.507812 269.496094 199.164062 C 268.339844 197.730469 268.378906 196.351562 268.613281 195.449219 C 268.785156 194.785156 269.070312 194.363281 269.101562 194.316406 C 269.238281 194.125 269.472656 194.027344 269.703125 194.070312 L 279.90625 195.925781 L 280.140625 193.011719 C 280.164062 192.777344 280.316406 192.574219 280.539062 192.492188 C 280.625 192.460938 281.097656 192.320312 281.683594 192.597656 C 282.351562 192.917969 282.886719 193.65625 283.265625 194.785156 C 284.003906 196.960938 284.519531 200.882812 282.898438 202.75 C 282.484375 203.226562 281.777344 203.738281 280.644531 203.738281 " fill-opacity="1" fill-rule="nonzero"/><path fill="#ac1754" d="M 282.101562 202.925781 L 284.277344 199.617188 C 284.277344 199.617188 295.074219 201.808594 300.058594 199.617188 C 308.761719 195.792969 307.117188 182.429688 305.636719 175.78125 C 304.15625 169.128906 300.882812 163.316406 300.882812 163.316406 C 300.882812 163.316406 308.878906 167.835938 314.300781 177.773438 C 319.726562 187.707031 321.492188 209.9375 303.355469 213.953125 C 291.488281 216.582031 282.101562 202.925781 282.101562 202.925781 " fill-opacity="1" fill-rule="nonzero"/><path fill="#ffffff" d="M 312.628906 209.789062 C 312.460938 209.789062 312.289062 209.71875 312.167969 209.574219 C 311.957031 209.320312 311.988281 208.941406 312.242188 208.726562 C 317.679688 204.152344 317.320312 194.089844 317.3125 193.988281 C 317.296875 193.65625 317.558594 193.375 317.890625 193.363281 C 318.230469 193.351562 318.503906 193.605469 318.519531 193.9375 C 318.535156 194.371094 318.910156 204.691406 313.015625 209.648438 C 312.90625 209.742188 312.769531 209.789062 312.628906 209.789062 " fill-opacity="1" fill-rule="nonzero"/><path fill="#ffffff" d="M 279.15625 147.261719 C 278.886719 147.421875 278.542969 147.308594 278.421875 147.015625 C 277.859375 145.632812 276.960938 142.953125 275.113281 142.53125 C 272.75 141.984375 268.921875 141.28125 268.59375 143.148438 C 268.300781 144.789062 268.640625 147.617188 266.917969 149.667969 C 266.753906 149.863281 266.894531 150.179688 267.097656 150.332031 L 268.183594 151.25 C 268.414062 151.421875 268.609375 152.003906 268.636719 152.292969 C 268.722656 153.183594 268.835938 155.074219 269.144531 155.320312 C 269.742188 155.792969 272.734375 155.613281 272.734375 155.613281 L 275.132812 163.859375 C 275.222656 164.171875 275.039062 164.5 274.726562 164.578125 L 271.871094 165.550781 C 271.871094 165.550781 274.164062 168.761719 281.324219 168.277344 C 285.902344 167.96875 289.25 164.742188 289.25 164.742188 C 289.25 164.742188 280.351562 163.480469 279.148438 152.960938 C 279.125 152.726562 279.226562 152.5 279.410156 152.359375 C 280.121094 151.824219 282.03125 150.253906 281.695312 148.660156 C 281.34375 146.972656 280.078125 146.710938 279.15625 147.261719 " fill-opacity="1" fill-rule="nonzero"/><path fill="#000000" d="M 279.15625 147.257812 L 279.164062 147.257812 Z M 269.601562 154.933594 Z M 273 165.800781 C 274.058594 166.632812 276.558594 167.996094 281.285156 167.675781 C 284.246094 167.476562 286.699219 165.960938 287.949219 165.03125 C 285.367188 164.226562 279.519531 161.484375 278.554688 153.027344 C 278.503906 152.585938 278.695312 152.144531 279.050781 151.875 C 279.597656 151.464844 281.367188 150.023438 281.109375 148.785156 C 280.988281 148.207031 280.742188 147.824219 280.402344 147.671875 C 280.125 147.550781 279.78125 147.589844 279.46875 147.777344 C 279.1875 147.941406 278.851562 147.980469 278.542969 147.875 C 278.238281 147.773438 277.992188 147.542969 277.867188 147.238281 C 277.820312 147.121094 277.765625 146.988281 277.710938 146.847656 C 277.203125 145.570312 276.359375 143.433594 274.980469 143.117188 C 272.058594 142.441406 270.203125 142.347656 269.464844 142.839844 C 269.304688 142.945312 269.21875 143.074219 269.1875 143.25 C 269.121094 143.628906 269.089844 144.109375 269.054688 144.613281 C 268.945312 146.234375 268.808594 148.234375 267.511719 149.890625 L 268.578125 150.785156 C 268.992188 151.101562 269.207031 151.914062 269.238281 152.234375 C 269.253906 152.371094 269.265625 152.539062 269.285156 152.714844 C 269.332031 153.261719 269.4375 154.496094 269.574219 154.875 C 269.953125 155.023438 271.359375 155.089844 272.699219 155.007812 C 272.972656 154.988281 273.238281 155.171875 273.316406 155.441406 L 275.714844 163.691406 C 275.804688 163.996094 275.761719 164.332031 275.605469 164.605469 C 275.449219 164.875 275.203125 165.070312 274.902344 165.152344 Z M 279.886719 168.929688 C 273.621094 168.929688 271.476562 166.03125 271.382812 165.898438 C 271.269531 165.742188 271.242188 165.542969 271.300781 165.363281 C 271.359375 165.183594 271.5 165.039062 271.679688 164.976562 L 274.535156 164.007812 C 274.550781 164.003906 274.566406 163.996094 274.582031 163.992188 L 272.292969 156.234375 C 271.070312 156.285156 269.367188 156.261719 268.773438 155.789062 C 268.375 155.476562 268.253906 154.769531 268.082031 152.816406 C 268.066406 152.644531 268.054688 152.484375 268.042969 152.351562 C 268.023438 152.167969 267.886719 151.800781 267.804688 151.710938 L 266.710938 150.789062 C 266.46875 150.605469 266.289062 150.296875 266.25 149.980469 C 266.222656 149.722656 266.296875 149.472656 266.457031 149.277344 C 267.625 147.890625 267.75 146.027344 267.851562 144.53125 C 267.886719 143.996094 267.921875 143.484375 268 143.042969 C 268.089844 142.539062 268.363281 142.121094 268.800781 141.835938 C 269.867188 141.125 271.859375 141.15625 275.25 141.941406 C 277.246094 142.398438 278.199219 144.808594 278.832031 146.402344 L 278.945312 146.6875 C 279.578125 146.34375 280.28125 146.304688 280.882812 146.570312 C 281.589844 146.878906 282.085938 147.574219 282.289062 148.535156 C 282.667969 150.351562 280.875 152.011719 279.773438 152.839844 C 279.757812 152.851562 279.75 152.871094 279.75 152.886719 C 280.882812 162.800781 288.996094 164.09375 289.339844 164.144531 C 289.566406 164.179688 289.757812 164.335938 289.828125 164.554688 C 289.898438 164.773438 289.835938 165.015625 289.671875 165.171875 C 289.527344 165.3125 286.109375 168.558594 281.367188 168.878906 C 280.851562 168.914062 280.355469 168.929688 279.886719 168.929688 " fill-opacity="1" fill-rule="nonzero"/><path fill="#ffffff" d="M 286.3125 48.070312 C 288.265625 48.070312 290.003906 49.835938 290.195312 52.011719 L 292.585938 79.132812 C 292.777344 81.3125 291.351562 83.074219 289.402344 83.074219 L 224.640625 83.074219 L 210.089844 97.058594 L 212.855469 83.074219 L 202.007812 83.074219 C 200.054688 83.074219 198.320312 81.3125 198.128906 79.132812 L 195.738281 52.011719 C 195.542969 49.835938 196.972656 48.070312 198.921875 48.070312 L 286.3125 48.070312 " fill-opacity="1" fill-rule="nonzero"/><path fill="#000000" d="M 210.074219 98.367188 C 209.925781 98.367188 209.773438 98.328125 209.636719 98.253906 C 209.28125 98.058594 209.101562 97.660156 209.1875 97.265625 L 212.113281 83.675781 L 202.011719 83.675781 C 199.757812 83.675781 197.746094 81.664062 197.527344 79.1875 L 195.136719 52.0625 C 195.023438 50.773438 195.417969 49.535156 196.214844 48.664062 C 196.921875 47.890625 197.882812 47.464844 198.925781 47.464844 L 229.058594 47.300781 C 229.390625 47.300781 229.660156 47.566406 229.664062 47.898438 C 229.664062 48.230469 229.394531 48.5 229.066406 48.503906 L 198.925781 48.667969 C 198.222656 48.667969 197.582031 48.957031 197.101562 49.476562 C 196.53125 50.101562 196.253906 51.003906 196.339844 51.957031 L 198.726562 79.082031 C 198.894531 80.953125 200.367188 82.472656 202.011719 82.472656 L 213.605469 82.472656 L 210.574219 96.539062 L 224.363281 82.871094 L 289.398438 82.472656 C 290.101562 82.472656 290.746094 82.1875 291.222656 81.667969 C 291.792969 81.042969 292.074219 80.140625 291.988281 79.1875 L 289.597656 52.0625 C 289.429688 50.191406 287.960938 48.667969 286.316406 48.667969 L 236.542969 48.769531 L 236.539062 48.769531 C 236.207031 48.769531 235.9375 48.5 235.9375 48.171875 C 235.9375 47.835938 236.207031 47.566406 236.539062 47.566406 L 286.3125 47.464844 C 288.570312 47.464844 290.578125 49.480469 290.796875 51.957031 L 293.1875 79.082031 C 293.300781 80.371094 292.90625 81.609375 292.109375 82.480469 C 291.402344 83.253906 290.441406 83.675781 289.402344 83.675781 L 224.863281 84.070312 L 210.707031 98.101562 C 210.535156 98.277344 210.304688 98.367188 210.074219 98.367188 " fill-opacity="1" fill-rule="nonzero"/><path fill="#ac1754" d="M 279.792969 59.820312 L 208.734375 59.820312 C 207.710938 59.820312 206.792969 58.992188 206.683594 57.976562 C 206.578125 56.957031 207.316406 56.128906 208.335938 56.128906 L 279.394531 56.128906 C 280.417969 56.128906 281.335938 56.957031 281.445312 57.976562 C 281.554688 58.992188 280.816406 59.820312 279.792969 59.820312 " fill-opacity="1" fill-rule="nonzero"/><path fill="#ffffff" d="M 280.644531 67.769531 L 209.582031 67.769531 C 208.5625 67.769531 207.644531 66.945312 207.535156 65.925781 C 207.429688 64.90625 208.167969 64.078125 209.1875 64.078125 L 280.25 64.078125 C 281.269531 64.078125 282.1875 64.90625 282.296875 65.925781 C 282.40625 66.945312 281.667969 67.769531 280.644531 67.769531 " fill-opacity="1" fill-rule="nonzero"/><path fill="#ffffff" d="M 281.496094 75.714844 L 210.441406 75.714844 C 209.417969 75.714844 208.5 74.886719 208.390625 73.871094 C 208.28125 72.851562 209.019531 72.023438 210.042969 72.023438 L 281.101562 72.023438 C 282.121094 72.023438 283.039062 72.851562 283.152344 73.871094 C 283.261719 74.886719 282.519531 75.714844 281.496094 75.714844 " fill-opacity="1" fill-rule="nonzero"/><path fill="#ffffff" d="M 337.484375 119.035156 C 339.238281 119.058594 340.582031 117.664062 340.484375 115.921875 L 339.238281 94.191406 C 339.136719 92.445312 337.632812 91.015625 335.875 90.988281 L 278.949219 89.84375 C 277.195312 89.820312 273.640625 91.105469 273.742188 92.851562 L 273.792969 114.992188 C 273.894531 116.734375 275.398438 118.167969 277.15625 118.191406 L 284.160156 118.09375 L 287.566406 129.515625 L 293.980469 118.296875 L 337.484375 119.035156 " fill-opacity="1" fill-rule="nonzero"/><path fill="#000000" d="M 285.234375 117.484375 L 287.792969 127.90625 L 293.632812 117.6875 L 293.992188 117.691406 L 335.066406 118.492188 C 335.078125 118.492188 335.09375 118.492188 335.109375 118.492188 C 336.167969 118.492188 337.476562 117.957031 338.167969 117.238281 C 338.515625 116.871094 338.683594 116.496094 338.660156 116.125 L 338.636719 94.191406 C 338.550781 92.789062 337.3125 91.609375 335.867188 91.589844 L 277.742188 90.648438 C 277.726562 90.648438 277.707031 90.648438 277.6875 90.648438 C 276.617188 90.648438 275.40625 91.105469 274.789062 91.75 C 274.472656 92.082031 274.324219 92.4375 274.34375 92.816406 L 274.398438 114.988281 C 274.476562 116.386719 275.71875 117.566406 277.164062 117.585938 Z M 287.34375 131.125 L 284.292969 118.703125 L 277.164062 118.792969 C 275.085938 118.761719 273.308594 117.074219 273.191406 115.023438 L 273.140625 92.851562 C 273.101562 92.171875 273.367188 91.492188 273.917969 90.917969 C 274.917969 89.875 276.582031 89.421875 277.761719 89.441406 L 335.882812 90.386719 C 337.945312 90.414062 339.722656 92.105469 339.839844 94.15625 L 339.863281 116.089844 C 339.902344 116.769531 339.617188 117.464844 339.039062 118.070312 C 338.101562 119.046875 336.472656 119.714844 335.046875 119.699219 L 294.324219 118.902344 L 287.34375 131.125 " fill-opacity="1" fill-rule="nonzero"/><path fill="#ffffff" d="M 283.320312 107.941406 L 331.265625 108.613281 L 283.320312 107.941406 " fill-opacity="1" fill-rule="nonzero"/><path fill="#000000" d="M 331.265625 109.214844 C 331.261719 109.214844 331.261719 109.214844 331.257812 109.214844 L 283.3125 108.546875 C 282.976562 108.542969 282.710938 108.269531 282.714844 107.933594 C 282.71875 107.605469 282.988281 107.34375 283.316406 107.34375 C 283.324219 107.34375 283.324219 107.34375 283.328125 107.34375 L 331.273438 108.007812 C 331.605469 108.015625 331.871094 108.289062 331.867188 108.621094 C 331.859375 108.949219 331.59375 109.214844 331.265625 109.214844 " fill-opacity="1" fill-rule="nonzero"/><path fill="#ffffff" d="M 320.875 102.109375 L 330.898438 102.25 L 320.875 102.109375 " fill-opacity="1" fill-rule="nonzero"/><path fill="#000000" d="M 330.902344 102.851562 C 330.898438 102.851562 330.894531 102.851562 330.894531 102.851562 L 320.867188 102.714844 C 320.535156 102.707031 320.269531 102.4375 320.273438 102.101562 C 320.28125 101.773438 320.546875 101.507812 320.875 101.507812 C 320.878906 101.507812 320.878906 101.507812 320.882812 101.507812 L 330.910156 101.648438 C 331.242188 101.652344 331.507812 101.925781 331.503906 102.257812 C 331.5 102.589844 331.230469 102.851562 330.902344 102.851562 " fill-opacity="1" fill-rule="nonzero"/><path fill="#ffffff" d="M 282.953125 101.582031 L 314.46875 102.019531 L 282.953125 101.582031 " fill-opacity="1" fill-rule="nonzero"/><path fill="#000000" d="M 314.46875 102.625 C 314.464844 102.625 314.460938 102.625 314.460938 102.625 L 282.945312 102.183594 C 282.613281 102.179688 282.34375 101.90625 282.351562 101.574219 C 282.355469 101.242188 282.621094 100.980469 282.953125 100.980469 C 282.957031 100.980469 282.957031 100.980469 282.960938 100.980469 L 314.476562 101.417969 C 314.808594 101.425781 315.074219 101.695312 315.070312 102.027344 C 315.066406 102.359375 314.796875 102.625 314.46875 102.625 " fill-opacity="1" fill-rule="nonzero"/><path fill="#ac1754" d="M 61.523438 329.242188 L 201.171875 329.242188 C 207.191406 329.242188 211.453125 324.378906 210.695312 318.378906 L 176.308594 46.730469 C 175.550781 40.730469 170.054688 35.867188 164.039062 35.867188 L 31.398438 34.316406 C 16.171875 34.316406 14.105469 40.730469 14.867188 46.730469 L 49.253906 318.378906 C 50.011719 324.378906 55.503906 329.242188 61.523438 329.242188 " fill-opacity="1" fill-rule="nonzero"/><path fill="#ffffff" d="M 69.925781 329.242188 L 209.578125 329.242188 C 215.59375 329.242188 219.859375 324.363281 219.097656 318.34375 L 184.714844 45.828125 C 183.953125 39.808594 178.457031 34.929688 172.441406 34.929688 L 32.792969 34.929688 C 26.773438 34.929688 22.511719 39.808594 23.269531 45.828125 L 57.65625 318.34375 C 58.414062 324.363281 63.910156 329.242188 69.925781 329.242188 " fill-opacity="1" fill-rule="nonzero"/><path fill="#000000" d="M 37.628906 165.445312 C 37.328125 165.445312 37.066406 165.222656 37.03125 164.914062 L 22.671875 45.902344 C 22.28125 42.804688 23.128906 39.886719 25.0625 37.695312 C 26.976562 35.523438 29.722656 34.328125 32.789062 34.328125 L 49 34.328125 C 49.332031 34.328125 49.601562 34.601562 49.601562 34.929688 C 49.601562 35.265625 49.332031 35.53125 49 35.53125 L 32.789062 35.53125 C 30.070312 35.53125 27.648438 36.585938 25.96875 38.492188 C 24.265625 40.421875 23.519531 43 23.867188 45.753906 L 38.226562 164.773438 C 38.265625 165.101562 38.03125 165.402344 37.699219 165.445312 C 37.675781 165.445312 37.652344 165.445312 37.628906 165.445312 " fill-opacity="1" fill-rule="nonzero"/><path fill="#000000" d="M 150.929688 35.738281 L 58.933594 35.53125 C 58.601562 35.53125 58.332031 35.265625 58.335938 34.929688 C 58.335938 34.597656 58.605469 34.328125 58.9375 34.328125 L 150.929688 34.53125 C 151.261719 34.535156 151.53125 34.804688 151.53125 35.136719 C 151.53125 35.46875 151.261719 35.738281 150.929688 35.738281 " fill-opacity="1" fill-rule="nonzero"/><path fill="#000000" d="M 213.164062 270.453125 C 212.863281 270.453125 212.605469 270.230469 212.570312 269.925781 L 206.894531 223.535156 C 206.855469 223.207031 207.089844 222.90625 207.417969 222.863281 C 207.75 222.828125 208.050781 223.058594 208.089844 223.390625 L 213.765625 269.777344 C 213.804688 270.109375 213.570312 270.40625 213.238281 270.449219 C 213.214844 270.453125 213.191406 270.453125 213.164062 270.453125 " fill-opacity="1" fill-rule="nonzero"/><path fill="#000000" d="M 155.988281 329.84375 L 107.964844 329.84375 C 107.632812 329.84375 107.363281 329.574219 107.363281 329.242188 C 107.363281 328.90625 107.632812 328.640625 107.964844 328.640625 L 155.988281 328.640625 C 156.320312 328.640625 156.589844 328.90625 156.589844 329.242188 C 156.589844 329.574219 156.320312 329.84375 155.988281 329.84375 " fill-opacity="1" fill-rule="nonzero"/><path fill="#000000" d="M 84.082031 329.84375 L 69.925781 329.84375 C 63.625 329.84375 57.851562 324.71875 57.058594 318.421875 L 51.796875 276.71875 C 51.753906 276.386719 51.988281 276.085938 52.320312 276.046875 C 52.648438 276.003906 52.949219 276.238281 52.992188 276.566406 L 58.253906 318.269531 C 58.972656 323.984375 64.210938 328.640625 69.925781 328.640625 L 84.082031 328.640625 C 84.417969 328.640625 84.6875 328.90625 84.6875 329.242188 C 84.6875 329.574219 84.417969 329.84375 84.082031 329.84375 " fill-opacity="1" fill-rule="nonzero"/><path fill="#ac1754" d="M 211.140625 318.71875 L 178.308594 58.511719 C 178.132812 57.121094 176.863281 55.996094 175.476562 55.996094 L 35.074219 55.996094 C 33.683594 55.996094 32.699219 57.121094 32.875 58.511719 L 65.707031 318.71875 C 65.882812 320.109375 67.152344 321.234375 68.542969 321.234375 L 208.945312 321.234375 C 210.332031 321.234375 211.316406 320.109375 211.140625 318.71875 " fill-opacity="1" fill-rule="nonzero"/><path fill="#ffffff" d="M 104.363281 48.789062 C 106.621094 48.789062 108.214844 46.964844 107.933594 44.707031 C 107.648438 42.457031 105.589844 40.628906 103.335938 40.628906 C 101.082031 40.628906 99.484375 42.457031 99.769531 44.707031 C 100.050781 46.964844 102.109375 48.789062 104.363281 48.789062 " fill-opacity="1" fill-rule="nonzero"/><path fill="#000000" d="M 183.09375 233.03125 C 183.070312 233.03125 183.050781 233.03125 183.027344 233.03125 C 176.304688 233.011719 169.382812 228.960938 162.460938 220.996094 C 157.609375 215.414062 154.519531 209.890625 154.390625 209.660156 C 153.363281 207.804688 154.03125 205.472656 155.882812 204.441406 C 157.734375 203.414062 160.070312 204.078125 161.097656 205.929688 C 164.109375 211.328125 173.914062 225.332031 183.050781 225.355469 C 183.0625 225.355469 183.078125 225.355469 183.09375 225.355469 C 185.988281 225.355469 188.230469 224.460938 189.941406 222.625 C 194.03125 218.21875 194.332031 209.421875 194.101562 206.402344 C 193.941406 204.289062 195.523438 202.445312 197.636719 202.285156 C 199.746094 202.125 201.59375 203.707031 201.753906 205.820312 C 201.796875 206.398438 202.75 220.109375 195.5625 227.847656 C 192.363281 231.289062 188.167969 233.03125 183.09375 233.03125 " fill-opacity="1" fill-rule="nonzero"/><path fill="#000000" d="M 210.035156 205.386719 L 187.308594 205.386719 C 185.191406 205.386719 183.472656 203.667969 183.472656 201.546875 C 183.472656 199.429688 185.191406 197.710938 187.308594 197.710938 L 210.035156 197.710938 C 212.152344 197.710938 213.871094 199.429688 213.871094 201.546875 C 213.871094 203.667969 212.152344 205.386719 210.035156 205.386719 " fill-opacity="1" fill-rule="nonzero"/><path fill="#ffffff" d="M 179.109375 152.597656 L 178.804688 152.597656 L 178.804688 129.90625 L 179.109375 129.90625 C 185.371094 129.90625 190.445312 134.980469 190.445312 141.242188 L 190.445312 141.261719 C 190.445312 147.519531 185.371094 152.597656 179.109375 152.597656 " fill-opacity="1" fill-rule="nonzero"/><path fill="#000000" d="M 179.40625 130.515625 L 179.40625 151.992188 C 185.1875 151.832031 189.84375 147.082031 189.84375 141.261719 C 189.84375 135.425781 185.1875 130.671875 179.40625 130.515625 Z M 179.109375 153.199219 L 178.804688 153.199219 C 178.472656 153.199219 178.203125 152.929688 178.203125 152.597656 L 178.203125 129.90625 C 178.203125 129.574219 178.472656 129.304688 178.804688 129.304688 L 179.109375 129.304688 C 185.695312 129.304688 191.046875 134.660156 191.046875 141.242188 C 191.046875 147.84375 185.695312 153.199219 179.109375 153.199219 " fill-opacity="1" fill-rule="nonzero"/><path fill="#ffffff" d="M 76.054688 152.597656 L 76.363281 152.597656 L 76.363281 129.90625 L 76.054688 129.90625 C 69.796875 129.90625 64.722656 134.980469 64.722656 141.242188 L 64.722656 141.261719 C 64.722656 147.519531 69.796875 152.597656 76.054688 152.597656 " fill-opacity="1" fill-rule="nonzero"/><path fill="#000000" d="M 75.761719 130.515625 C 69.980469 130.671875 65.324219 135.425781 65.324219 141.242188 C 65.324219 147.078125 69.980469 151.832031 75.761719 151.992188 Z M 76.363281 153.199219 L 76.054688 153.199219 C 69.472656 153.199219 64.117188 147.84375 64.117188 141.261719 C 64.117188 134.660156 69.472656 129.304688 76.054688 129.304688 L 76.363281 129.304688 C 76.695312 129.304688 76.964844 129.574219 76.964844 129.90625 L 76.964844 152.597656 C 76.964844 152.929688 76.695312 153.199219 76.363281 153.199219 " fill-opacity="1" fill-rule="nonzero"/><path fill="#ffffff" d="M 72.695312 140.316406 C 72.695312 115.9375 97.269531 90.71875 127.582031 90.71875 C 157.894531 90.71875 182.472656 115.9375 182.472656 140.316406 C 182.472656 164.695312 157.894531 179.007812 127.582031 179.007812 C 97.269531 179.007812 72.695312 164.695312 72.695312 140.316406 " fill-opacity="1" fill-rule="nonzero"/><path fill="#000000" d="M 127.585938 91.320312 C 96.515625 91.320312 73.296875 117.1875 73.296875 140.316406 C 73.296875 151.726562 78.765625 161.402344 89.105469 168.300781 C 98.871094 174.816406 112.535156 178.402344 127.585938 178.402344 C 142.628906 178.402344 156.296875 174.816406 166.0625 168.300781 C 176.402344 161.402344 181.867188 151.726562 181.867188 140.316406 C 181.867188 117.1875 158.65625 91.320312 127.585938 91.320312 Z M 127.585938 179.605469 C 112.300781 179.605469 98.398438 175.945312 88.4375 169.304688 C 77.746094 162.171875 72.09375 152.148438 72.09375 140.316406 C 72.09375 128.199219 78.023438 115.667969 88.359375 105.933594 C 99.195312 95.734375 113.125 90.113281 127.585938 90.113281 C 142.042969 90.113281 155.972656 95.734375 166.808594 105.933594 C 177.144531 115.667969 183.074219 128.199219 183.074219 140.316406 C 183.074219 152.148438 177.421875 162.171875 166.730469 169.304688 C 156.769531 175.945312 142.867188 179.605469 127.585938 179.605469 " fill-opacity="1" fill-rule="nonzero"/><path fill="#ffffff" d="M 141.332031 186.328125 L 113.835938 186.328125 C 101.785156 186.328125 92.011719 196.101562 92.011719 208.152344 C 92.011719 216.113281 92.789062 224.058594 94.332031 231.867188 L 98.285156 251.890625 C 101.050781 265.882812 113.320312 275.96875 127.582031 275.96875 C 141.847656 275.96875 154.121094 265.882812 156.882812 251.890625 L 160.835938 231.867188 C 162.378906 224.058594 163.15625 216.113281 163.15625 208.152344 C 163.15625 196.101562 153.386719 186.328125 141.332031 186.328125 " fill-opacity="1" fill-rule="nonzero"/><path fill="#000000" d="M 113.835938 186.933594 C 102.132812 186.933594 92.617188 196.449219 92.617188 208.152344 C 92.617188 216.054688 93.390625 223.996094 94.921875 231.75 L 98.878906 251.773438 C 101.574219 265.445312 113.648438 275.367188 127.582031 275.367188 C 141.519531 275.367188 153.59375 265.445312 156.289062 251.773438 L 160.242188 231.75 C 161.777344 223.996094 162.550781 216.054688 162.550781 208.152344 C 162.550781 196.449219 153.03125 186.933594 141.332031 186.933594 Z M 127.585938 276.570312 C 113.074219 276.570312 100.503906 266.238281 97.695312 252.007812 L 93.742188 231.984375 C 92.195312 224.152344 91.410156 216.132812 91.410156 208.152344 C 91.410156 195.785156 101.46875 185.726562 113.835938 185.726562 L 141.332031 185.726562 C 153.699219 185.726562 163.757812 195.785156 163.757812 208.152344 C 163.757812 216.132812 162.972656 224.152344 161.425781 231.984375 L 157.472656 252.007812 C 154.664062 266.238281 142.09375 276.570312 127.585938 276.570312 " fill-opacity="1" fill-rule="nonzero"/><path fill="#ac1754" d="M 127.59375 234.679688 L 127.570312 234.679688 C 119.3125 234.679688 112.617188 227.980469 112.617188 219.722656 L 112.617188 186.328125 L 142.550781 186.328125 L 142.550781 219.722656 C 142.550781 227.980469 135.855469 234.679688 127.59375 234.679688 " fill-opacity="1" fill-rule="nonzero"/><path fill="#000000" d="M 142.550781 186.933594 L 112.617188 186.933594 C 112.285156 186.933594 112.015625 186.660156 112.015625 186.328125 C 112.015625 185.996094 112.285156 185.726562 112.617188 185.726562 L 142.550781 185.726562 C 142.882812 185.726562 143.152344 185.996094 143.152344 186.328125 C 143.152344 186.660156 142.882812 186.933594 142.550781 186.933594 " fill-opacity="1" fill-rule="nonzero"/><path fill="#000000" d="M 164.484375 133 L 111.628906 133 C 106.140625 133 101.6875 137.796875 101.6875 143.710938 L 101.6875 150.703125 C 101.6875 155.214844 104.097656 159.996094 108.25 160.777344 C 122.898438 163.527344 153.21875 163.527344 167.867188 160.777344 C 172.019531 159.996094 174.425781 155.214844 174.425781 150.703125 L 174.425781 143.710938 C 174.425781 137.796875 169.976562 133 164.484375 133 " fill-opacity="1" fill-rule="nonzero"/><path fill="#ac1754" d="M 125.636719 147.066406 C 125.636719 149.046875 124.148438 150.652344 122.308594 150.652344 C 120.46875 150.652344 118.976562 149.046875 118.976562 147.066406 C 118.976562 145.082031 120.46875 143.476562 122.308594 143.476562 C 124.148438 143.476562 125.636719 145.082031 125.636719 147.066406 " fill-opacity="1" fill-rule="nonzero"/><path fill="#ac1754" d="M 161.074219 147.066406 C 161.074219 149.046875 159.585938 150.652344 157.746094 150.652344 C 155.90625 150.652344 154.414062 149.046875 154.414062 147.066406 C 154.414062 145.082031 155.90625 143.476562 157.746094 143.476562 C 159.585938 143.476562 161.074219 145.082031 161.074219 147.066406 " fill-opacity="1" fill-rule="nonzero"/><path fill="#000000" d="M 92.476562 250.472656 C 84.957031 250.472656 74.789062 249.402344 68.269531 244.402344 C 64.511719 241.523438 62.316406 237.71875 61.746094 233.097656 C 59.179688 212.355469 84.210938 200.480469 85.277344 199.984375 C 87.199219 199.09375 89.480469 199.929688 90.375 201.851562 C 91.265625 203.769531 90.433594 206.050781 88.515625 206.945312 C 88.304688 207.042969 67.480469 216.96875 69.359375 232.15625 C 69.671875 234.695312 70.84375 236.707031 72.9375 238.3125 C 80.105469 243.808594 95.734375 243.039062 101.152344 242.277344 C 103.253906 241.980469 105.191406 243.441406 105.488281 245.542969 C 105.78125 247.640625 104.320312 249.578125 102.222656 249.875 C 101.835938 249.929688 97.828125 250.472656 92.476562 250.472656 " fill-opacity="1" fill-rule="nonzero"/><path fill="#000000" d="M 118.96875 254.554688 L 111.601562 254.554688 C 107.574219 254.554688 104.238281 251.53125 103.835938 247.527344 L 103.582031 244.960938 C 103.363281 242.773438 104.082031 240.582031 105.558594 238.949219 C 107.035156 237.320312 109.144531 236.382812 111.34375 236.382812 L 123.097656 236.382812 C 125.21875 236.382812 126.933594 238.101562 126.933594 240.21875 C 126.933594 242.339844 125.21875 244.054688 123.097656 244.054688 L 111.34375 244.054688 C 111.324219 244.054688 111.289062 244.054688 111.25 244.097656 C 111.210938 244.140625 111.214844 244.175781 111.214844 244.199219 L 111.472656 246.761719 C 111.480469 246.828125 111.535156 246.878906 111.601562 246.878906 L 118.96875 246.878906 C 121.089844 246.878906 122.804688 248.597656 122.804688 250.714844 C 122.804688 252.835938 121.089844 254.554688 118.96875 254.554688 " fill-opacity="1" fill-rule="nonzero"/><path fill="#ffffff" d="M 245.890625 317.457031 C 245.890625 340.03125 227.589844 358.332031 205.015625 358.332031 C 182.441406 358.332031 164.144531 340.03125 164.144531 317.457031 C 164.144531 294.882812 182.441406 276.585938 205.015625 276.585938 C 227.589844 276.585938 245.890625 294.882812 245.890625 317.457031 " fill-opacity="1" fill-rule="nonzero"/><path fill="#000000" d="M 205.015625 277.1875 C 182.8125 277.1875 164.746094 295.253906 164.746094 317.457031 C 164.746094 339.664062 182.8125 357.730469 205.015625 357.730469 C 227.222656 357.730469 245.289062 339.664062 245.289062 317.457031 C 245.289062 295.253906 227.222656 277.1875 205.015625 277.1875 Z M 205.015625 358.933594 C 182.148438 358.933594 163.539062 340.328125 163.539062 317.457031 C 163.539062 294.585938 182.148438 275.980469 205.015625 275.980469 C 227.886719 275.980469 246.492188 294.585938 246.492188 317.457031 C 246.492188 340.328125 227.886719 358.933594 205.015625 358.933594 " fill-opacity="1" fill-rule="nonzero"/><path fill="#ac1754" d="M 242.039062 317.605469 C 242.039062 337.808594 225.664062 354.183594 205.460938 354.183594 C 185.257812 354.183594 168.882812 337.808594 168.882812 317.605469 C 168.882812 297.402344 185.257812 281.027344 205.460938 281.027344 C 225.664062 281.027344 242.039062 297.402344 242.039062 317.605469 " fill-opacity="1" fill-rule="nonzero"/></svg>