<svg xmlns="http://www.w3.org/2000/svg" xmlns:xlink="http://www.w3.org/1999/xlink" width="500" zoomAndPan="magnify" viewBox="0 0 375 374.999991" height="500" preserveAspectRatio="xMidYMid meet" version="1.0"><defs><clipPath id="a7a59ca9f0"><path d="M 7.058594 6.066406 L 367.808594 6.066406 L 367.808594 367 L 7.058594 367 Z M 7.058594 6.066406 " clip-rule="nonzero"/></clipPath></defs><g clip-path="url(#a7a59ca9f0)"><path fill="#18b9cd" d="M 367.9375 186.585938 C 367.953125 199.226562 366.652344 211.726562 364.03125 224.089844 C 361.410156 236.457031 357.527344 248.410156 352.386719 259.957031 C 350.972656 263.140625 349.449219 266.277344 347.859375 269.367188 C 346.175781 272.625 344.398438 275.824219 342.523438 278.96875 C 340.644531 282.117188 338.675781 285.203125 336.613281 288.226562 C 334.546875 291.253906 332.394531 294.214844 330.148438 297.109375 C 327.90625 300.003906 325.574219 302.828125 323.160156 305.582031 C 320.742188 308.335938 318.242188 311.011719 315.664062 313.613281 C 313.085938 316.210938 310.429688 318.734375 307.695312 321.171875 C 304.964844 323.609375 302.160156 325.964844 299.28125 328.234375 C 296.40625 330.5 293.464844 332.679688 290.457031 334.769531 C 287.445312 336.859375 284.375 338.851562 281.246094 340.753906 C 278.117188 342.65625 274.929688 344.460938 271.691406 346.171875 C 268.449219 347.878906 265.160156 349.488281 261.820312 350.996094 C 258.484375 352.503906 255.101562 353.90625 251.679688 355.207031 C 248.253906 356.511719 244.792969 357.707031 241.296875 358.796875 C 237.800781 359.890625 234.273438 360.875 230.71875 361.75 C 227.160156 362.625 223.582031 363.394531 219.976562 364.050781 C 216.375 364.710938 212.753906 365.257812 209.117188 365.695312 C 205.480469 366.132812 201.835938 366.460938 198.175781 366.675781 C 194.519531 366.890625 190.859375 366.996094 187.199219 366.988281 C 183.535156 366.980469 179.875 366.863281 176.21875 366.632812 C 172.5625 366.402344 168.917969 366.0625 165.285156 365.609375 C 161.648438 365.15625 158.03125 364.59375 154.429688 363.921875 C 150.828125 363.25 147.253906 362.46875 143.699219 361.578125 C 140.144531 360.6875 136.625 359.691406 133.132812 358.585938 C 129.640625 357.480469 126.183594 356.269531 122.765625 354.953125 C 119.347656 353.640625 115.96875 352.222656 112.636719 350.699219 C 109.304688 349.179688 106.023438 347.558594 102.789062 345.839844 C 99.554688 344.117188 96.378906 342.300781 93.253906 340.386719 C 90.132812 338.472656 87.070312 336.464844 84.070312 334.363281 C 81.066406 332.261719 78.132812 330.070312 75.265625 327.792969 C 72.398438 325.511719 69.605469 323.148438 66.882812 320.699219 C 64.160156 318.246094 61.511719 315.71875 58.941406 313.105469 C 56.375 310.496094 53.886719 307.808594 51.480469 305.046875 C 51.390625 304.957031 51.324219 304.867188 51.234375 304.777344 C 47.707031 300.722656 44.371094 296.515625 41.21875 292.164062 C 38.070312 287.808594 35.121094 283.320312 32.375 278.699219 C 29.628906 274.082031 27.09375 269.347656 24.773438 264.5 C 22.449219 259.65625 20.347656 254.714844 18.46875 249.679688 C 16.589844 244.644531 14.941406 239.535156 13.519531 234.351562 C 12.101562 229.167969 10.914062 223.929688 9.964844 218.640625 C 9.011719 213.351562 8.300781 208.03125 7.828125 202.675781 C 7.355469 197.324219 7.121094 191.960938 7.132812 186.585938 C 7.132812 86.949219 87.898438 6.183594 187.535156 6.183594 C 287.171875 6.183594 367.9375 86.949219 367.9375 186.585938 Z M 367.9375 186.585938 " fill-opacity="1" fill-rule="nonzero"/></g><path fill="#fcc00a" d="M 347.859375 269.367188 C 320.742188 321.742188 268.726562 359.167969 207.480469 365.890625 C 205.261719 366.136719 202.996094 366.339844 200.757812 366.519531 C 196.386719 366.832031 191.980469 366.988281 187.535156 366.988281 C 181.105469 366.996094 174.691406 366.660156 168.300781 365.980469 C 161.90625 365.300781 155.566406 364.28125 149.28125 362.921875 C 142.996094 361.5625 136.804688 359.871094 130.703125 357.847656 C 124.597656 355.828125 118.621094 353.484375 112.769531 350.820312 C 106.917969 348.152344 101.226562 345.183594 95.691406 341.910156 C 90.15625 338.636719 84.816406 335.074219 79.664062 331.226562 C 74.511719 327.378906 69.582031 323.269531 64.871094 318.890625 C 60.160156 314.515625 55.695312 309.902344 51.480469 305.046875 C 52.769531 302.925781 54.164062 300.875 55.667969 298.902344 C 57.175781 296.929688 58.78125 295.042969 60.488281 293.238281 C 62.195312 291.4375 63.992188 289.730469 65.882812 288.121094 C 67.769531 286.511719 69.742188 285.003906 71.789062 283.605469 C 73.839844 282.207031 75.957031 280.917969 78.144531 279.746094 C 80.332031 278.570312 82.574219 277.515625 84.875 276.582031 C 87.171875 275.644531 89.515625 274.835938 91.902344 274.152344 C 94.289062 273.46875 96.703125 272.910156 99.148438 272.484375 L 299.382812 237.589844 C 300.5 237.398438 301.621094 237.25 302.75 237.144531 C 303.878906 237.042969 305.007812 236.988281 306.140625 236.976562 C 307.273438 236.96875 308.402344 237.003906 309.535156 237.089844 C 310.664062 237.171875 311.785156 237.300781 312.90625 237.476562 C 314.023438 237.65625 315.132812 237.875 316.234375 238.144531 C 317.335938 238.410156 318.421875 238.722656 319.5 239.078125 C 320.574219 239.433594 321.632812 239.835938 322.671875 240.28125 C 323.714844 240.722656 324.738281 241.207031 325.738281 241.738281 C 326.742188 242.265625 327.722656 242.832031 328.675781 243.441406 C 329.632812 244.046875 330.558594 244.695312 331.460938 245.378906 C 332.363281 246.0625 333.238281 246.785156 334.082031 247.539062 C 334.921875 248.296875 335.734375 249.085938 336.511719 249.910156 C 337.289062 250.730469 338.035156 251.585938 338.742188 252.46875 C 339.449219 253.355469 340.121094 254.265625 340.753906 255.203125 C 341.386719 256.144531 341.980469 257.105469 342.535156 258.09375 C 343.085938 259.082031 343.597656 260.09375 344.070312 261.121094 Z M 347.859375 269.367188 " fill-opacity="1" fill-rule="nonzero"/><path fill="#56317e" d="M 104.972656 125.390625 C 104.972656 123.117188 105.078125 120.84375 105.285156 118.578125 C 105.496094 116.3125 105.8125 114.058594 106.230469 111.820312 C 106.648438 109.585938 107.171875 107.371094 107.796875 105.183594 C 108.417969 102.992188 109.144531 100.835938 109.964844 98.714844 C 110.789062 96.59375 111.710938 94.511719 112.726562 92.476562 C 113.742188 90.4375 114.847656 88.453125 116.046875 86.519531 C 117.25 84.585938 118.535156 82.710938 119.90625 80.894531 C 121.28125 79.078125 122.734375 77.332031 124.269531 75.648438 C 125.804688 73.96875 127.414062 72.363281 129.097656 70.832031 C 130.78125 69.296875 132.535156 67.847656 134.351562 66.476562 C 136.171875 65.109375 138.046875 63.824219 139.984375 62.628906 C 141.921875 61.433594 143.910156 60.328125 145.949219 59.316406 C 147.988281 58.304688 150.070312 57.390625 152.191406 56.570312 C 154.316406 55.75 156.472656 55.03125 158.664062 54.414062 C 160.855469 53.792969 163.070312 53.277344 165.308594 52.863281 C 167.546875 52.445312 169.796875 52.136719 172.066406 51.929688 C 174.332031 51.726562 176.605469 51.625 178.878906 51.628906 C 181.15625 51.632812 183.425781 51.742188 185.695312 51.957031 C 187.960938 52.171875 190.210938 52.488281 192.449219 52.914062 C 194.683594 53.335938 196.898438 53.859375 199.085938 54.488281 C 201.273438 55.117188 203.429688 55.84375 205.546875 56.671875 C 207.667969 57.496094 209.746094 58.421875 211.78125 59.441406 C 213.816406 60.460938 215.800781 61.570312 217.734375 62.773438 C 219.667969 63.976562 221.539062 65.265625 223.351562 66.644531 C 225.164062 68.019531 226.910156 69.476562 228.589844 71.015625 C 230.265625 72.554688 231.871094 74.167969 233.398438 75.851562 C 234.929688 77.539062 236.375 79.292969 237.742188 81.113281 C 239.109375 82.933594 240.386719 84.8125 241.582031 86.753906 C 242.773438 88.691406 243.875 90.679688 244.882812 92.722656 C 245.890625 94.761719 246.800781 96.847656 247.617188 98.972656 C 248.433594 101.097656 249.148438 103.253906 249.765625 105.445312 C 250.378906 107.636719 250.894531 109.851562 251.304688 112.09375 C 250.359375 149.496094 256.8125 199.15625 178.734375 199.15625 C 142.859375 199.15625 120.992188 189.03125 106.339844 139.613281 C 105.425781 134.917969 104.96875 130.175781 104.972656 125.390625 Z M 205.238281 307.804688 L 200.890625 306.347656 L 191.253906 256.414062 L 190.804688 256.304688 L 148.539062 244.941406 L 115.597656 236.089844 L 115.550781 251.867188 L 99.191406 259.957031 L 99.238281 272.394531 L 148.539062 288.867188 L 179.0625 299.0625 L 200.757812 306.300781 L 200.757812 366.519531 C 202.996094 366.339844 205.261719 366.136719 207.480469 365.890625 L 207.480469 306.011719 Z M 274.148438 218.921875 L 274.710938 199.113281 L 233.699219 229.074219 L 197.394531 255.585938 L 207.523438 305.964844 L 216.109375 299.0625 L 233.699219 284.898438 L 290.554688 239.136719 L 290.777344 224.726562 Z M 274.148438 218.921875 " fill-opacity="1" fill-rule="nonzero"/><path fill="#ff9987" d="M 260.414062 163.949219 C 258.105469 175.605469 251.292969 184.5 243.984375 186.359375 C 243.746094 191.78125 242.75 197.0625 241 202.199219 C 239.25 207.339844 236.816406 212.128906 233.699219 216.570312 L 233.699219 229.074219 L 194.90625 257.402344 L 148.539062 244.941406 L 148.539062 226.722656 C 144.566406 223.21875 141.144531 219.242188 138.273438 214.789062 C 135.398438 210.339844 133.179688 205.585938 131.621094 200.523438 C 123.730469 200.929688 114.632812 193.105469 110.039062 181.273438 C 104.75 167.738281 107.371094 154.066406 115.867188 150.75 C 116.882812 150.351562 117.9375 150.121094 119.027344 150.054688 C 118.007812 145.933594 117.410156 141.75 117.238281 137.507812 C 117.066406 133.265625 117.324219 129.050781 118.007812 124.859375 C 118.691406 120.667969 119.789062 116.589844 121.300781 112.621094 C 122.8125 108.652344 124.703125 104.875 126.980469 101.292969 L 222.359375 88.875 C 223.945312 90.335938 225.453125 91.875 226.878906 93.492188 C 228.304688 95.109375 229.644531 96.796875 230.898438 98.554688 C 232.148438 100.308594 233.308594 102.125 234.371094 104 C 235.433594 105.875 236.398438 107.800781 237.265625 109.777344 C 238.128906 111.753906 238.890625 113.769531 239.546875 115.820312 C 240.203125 117.875 240.75 119.957031 241.191406 122.070312 C 241.628906 124.179688 241.960938 126.308594 242.179688 128.453125 C 242.402344 130.597656 242.507812 132.75 242.507812 134.90625 C 242.507812 135.175781 242.507812 135.46875 242.484375 135.734375 C 244.679688 134.726562 246.964844 134.441406 249.34375 134.882812 C 258.304688 136.675781 263.257812 149.675781 260.414062 163.949219 Z M 260.414062 163.949219 " fill-opacity="1" fill-rule="nonzero"/><path fill="#242156" d="M 251.335938 112.25 C 245.445312 107.660156 239.109375 103.800781 232.332031 100.664062 C 229.496094 96.324219 226.171875 92.394531 222.359375 88.875 L 198.917969 91.925781 L 158.109375 97.234375 L 126.980469 101.292969 C 122.566406 108.195312 119.636719 115.679688 118.195312 123.746094 C 113.707031 128.636719 109.765625 133.933594 106.363281 139.636719 C 105.429688 134.929688 104.96875 130.179688 104.972656 125.382812 C 104.976562 123.105469 105.082031 120.832031 105.292969 118.5625 C 105.503906 116.296875 105.820312 114.042969 106.238281 111.804688 C 106.660156 109.5625 107.179688 107.351562 107.804688 105.160156 C 108.429688 102.96875 109.15625 100.8125 109.980469 98.6875 C 110.804688 96.566406 111.726562 94.484375 112.746094 92.445312 C 113.761719 90.410156 114.871094 88.421875 116.074219 86.488281 C 117.273438 84.550781 118.5625 82.675781 119.9375 80.859375 C 121.3125 79.042969 122.769531 77.296875 124.308594 75.617188 C 125.84375 73.933594 127.457031 72.328125 129.140625 70.796875 C 130.828125 69.265625 132.582031 67.816406 134.402344 66.445312 C 136.222656 65.074219 138.101562 63.792969 140.042969 62.597656 C 141.980469 61.402344 143.96875 60.300781 146.011719 59.289062 C 148.054688 58.28125 150.136719 57.363281 152.261719 56.546875 C 154.390625 55.730469 156.546875 55.011719 158.742188 54.394531 C 160.933594 53.777344 163.148438 53.261719 165.390625 52.847656 C 167.628906 52.4375 169.882812 52.128906 172.152344 51.925781 C 174.421875 51.722656 176.695312 51.625 178.972656 51.628906 C 181.25 51.636719 183.523438 51.75 185.792969 51.96875 C 188.058594 52.183594 190.3125 52.507812 192.550781 52.933594 C 194.785156 53.359375 197 53.886719 199.1875 54.519531 C 201.378906 55.148438 203.53125 55.882812 205.652344 56.710938 C 207.773438 57.542969 209.851562 58.46875 211.886719 59.492188 C 213.921875 60.515625 215.90625 61.632812 217.835938 62.839844 C 219.769531 64.046875 221.640625 65.339844 223.453125 66.71875 C 225.265625 68.101562 227.007812 69.5625 228.6875 71.101562 C 230.363281 72.644531 231.964844 74.261719 233.492188 75.953125 C 235.019531 77.640625 236.464844 79.398438 237.828125 81.222656 C 239.191406 83.046875 240.46875 84.929688 241.65625 86.875 C 242.847656 88.816406 243.945312 90.808594 244.949219 92.855469 C 245.953125 94.898438 246.863281 96.984375 247.675781 99.113281 C 248.488281 101.242188 249.199219 103.402344 249.808594 105.597656 C 250.421875 107.789062 250.929688 110.007812 251.335938 112.25 Z M 140.089844 217.445312 L 115.574219 236.089844 L 148.539062 244.941406 L 148.539062 226.722656 C 145.394531 223.929688 142.578125 220.835938 140.089844 217.445312 Z M 243.984375 186.496094 C 243.734375 191.894531 242.734375 197.152344 240.984375 202.265625 C 239.234375 207.378906 236.808594 212.148438 233.699219 216.570312 L 233.699219 229.121094 L 274.800781 199.046875 Z M 233.699219 216.546875 C 233.121094 217.375 232.523438 218.1875 231.902344 218.984375 C 231.285156 219.78125 230.644531 220.558594 229.984375 221.320312 C 229.320312 222.082031 228.640625 222.828125 227.941406 223.554688 C 227.242188 224.28125 226.523438 224.988281 225.785156 225.675781 C 225.046875 226.363281 224.292969 227.035156 223.519531 227.683594 C 222.746094 228.332031 221.957031 228.960938 221.152344 229.566406 C 220.347656 230.171875 219.527344 230.757812 218.6875 231.324219 C 217.851562 231.886719 217 232.429688 216.136719 232.949219 C 215.269531 233.464844 214.394531 233.960938 213.5 234.433594 C 212.609375 234.90625 211.707031 235.355469 210.792969 235.78125 C 209.878906 236.207031 208.953125 236.609375 208.015625 236.984375 C 207.078125 237.359375 206.132812 237.710938 205.179688 238.039062 C 204.226562 238.367188 203.261719 238.667969 202.292969 238.941406 C 201.320312 239.21875 200.34375 239.46875 199.359375 239.695312 C 198.378906 239.917969 197.386719 240.117188 196.394531 240.289062 C 195.402344 240.460938 194.402344 240.605469 193.402344 240.726562 C 192.398438 240.847656 191.394531 240.9375 190.386719 241.007812 C 189.382812 241.074219 188.375 241.113281 187.363281 241.125 C 186.355469 241.140625 185.347656 241.128906 184.339844 241.089844 C 183.332031 241.046875 182.324219 240.984375 181.320312 240.890625 C 180.316406 240.796875 179.3125 240.679688 178.316406 240.535156 C 177.316406 240.386719 176.324219 240.214844 175.332031 240.019531 C 174.34375 239.820312 173.359375 239.597656 172.382812 239.347656 C 171.40625 239.097656 170.433594 238.824219 169.472656 238.523438 C 168.507812 238.222656 167.554688 237.894531 166.609375 237.546875 C 165.664062 237.195312 164.726562 236.820312 163.800781 236.417969 C 162.875 236.019531 161.960938 235.59375 161.054688 235.144531 C 160.152344 234.695312 159.261719 234.226562 158.382812 233.730469 C 157.503906 233.234375 156.636719 232.714844 155.785156 232.175781 C 154.933594 231.632812 154.097656 231.070312 153.277344 230.484375 C 152.453125 229.898438 151.648438 229.292969 150.859375 228.667969 C 150.070312 228.039062 149.296875 227.390625 148.539062 226.722656 L 148.539062 232.324219 C 149.296875 232.992188 150.070312 233.640625 150.859375 234.269531 C 151.648438 234.894531 152.453125 235.5 153.277344 236.085938 C 154.097656 236.671875 154.933594 237.234375 155.785156 237.777344 C 156.636719 238.316406 157.503906 238.835938 158.382812 239.332031 C 159.261719 239.824219 160.152344 240.296875 161.054688 240.746094 C 161.957031 241.195312 162.875 241.617188 163.800781 242.019531 C 164.726562 242.417969 165.660156 242.792969 166.605469 243.144531 C 167.550781 243.496094 168.507812 243.824219 169.46875 244.125 C 170.433594 244.425781 171.402344 244.699219 172.378906 244.949219 C 173.359375 245.199219 174.339844 245.421875 175.332031 245.621094 C 176.320312 245.816406 177.3125 245.988281 178.3125 246.132812 C 179.308594 246.28125 180.3125 246.398438 181.316406 246.492188 C 182.320312 246.585938 183.328125 246.652344 184.335938 246.691406 C 185.34375 246.730469 186.351562 246.742188 187.359375 246.730469 C 188.367188 246.714844 189.375 246.675781 190.382812 246.609375 C 191.390625 246.542969 192.394531 246.449219 193.394531 246.332031 C 194.394531 246.210938 195.394531 246.066406 196.386719 245.894531 C 197.382812 245.722656 198.371094 245.523438 199.355469 245.300781 C 200.339844 245.074219 201.316406 244.824219 202.285156 244.550781 C 203.253906 244.273438 204.21875 243.972656 205.171875 243.648438 C 206.128906 243.320312 207.074219 242.96875 208.007812 242.59375 C 208.945312 242.21875 209.871094 241.816406 210.785156 241.394531 C 211.699219 240.96875 212.605469 240.519531 213.496094 240.046875 C 214.386719 239.574219 215.265625 239.078125 216.128906 238.5625 C 216.996094 238.042969 217.847656 237.5 218.683594 236.9375 C 219.519531 236.375 220.339844 235.789062 221.148438 235.183594 C 221.953125 234.574219 222.742188 233.949219 223.515625 233.300781 C 224.289062 232.652344 225.042969 231.984375 225.78125 231.296875 C 226.519531 230.609375 227.238281 229.902344 227.9375 229.175781 C 228.636719 228.449219 229.320312 227.703125 229.980469 226.941406 C 230.640625 226.179688 231.28125 225.402344 231.902344 224.605469 C 232.523438 223.8125 233.121094 223 233.699219 222.171875 M 156.300781 161.695312 C 158.445312 161.375 159.769531 158.386719 159.265625 155.019531 C 158.757812 151.652344 156.613281 149.1875 154.46875 149.507812 C 152.328125 149.828125 151.003906 152.820312 151.507812 156.183594 C 152.015625 159.550781 154.160156 162.019531 156.300781 161.695312 Z M 209.527344 153.851562 C 211.667969 153.53125 212.996094 150.542969 212.488281 147.175781 C 211.984375 143.808594 209.835938 141.34375 207.695312 141.664062 C 205.554688 141.984375 204.226562 144.976562 204.734375 148.339844 C 205.238281 151.707031 207.386719 154.175781 209.527344 153.851562 Z M 120.484375 155.75 C 119.960938 155.914062 119.453125 156.121094 118.960938 156.371094 C 118.472656 156.617188 118.003906 156.902344 117.558594 157.226562 C 117.117188 157.546875 116.699219 157.90625 116.3125 158.292969 C 115.925781 158.683594 115.574219 159.101562 115.253906 159.546875 C 114.933594 159.996094 114.648438 160.464844 114.40625 160.957031 C 114.160156 161.445312 113.957031 161.953125 113.792969 162.480469 C 113.628906 163.003906 113.511719 163.539062 113.433594 164.082031 C 113.355469 164.625 113.324219 165.171875 113.332031 165.722656 C 113.324219 166.210938 113.363281 166.695312 113.445312 167.179688 C 114.265625 165.441406 115.351562 163.898438 116.710938 162.542969 C 118.070312 161.1875 119.617188 160.101562 121.355469 159.289062 Z M 253.265625 150.953125 C 252.726562 145.261719 247.976562 141.09375 242.640625 141.539062 L 242.730469 144.699219 C 243.34375 144.855469 243.949219 145.042969 244.546875 145.261719 C 246.378906 145.898438 248.046875 146.832031 249.546875 148.0625 C 251.050781 149.292969 252.296875 150.738281 253.285156 152.410156 C 253.324219 151.921875 253.316406 151.4375 253.265625 150.953125 Z M 186.480469 154.394531 C 186.324219 154.09375 186.089844 153.878906 185.769531 153.757812 C 185.453125 153.632812 185.132812 153.632812 184.8125 153.75 C 184.496094 153.871094 184.253906 154.082031 184.097656 154.382812 C 183.9375 154.683594 183.898438 155 183.980469 155.332031 L 188.683594 175.175781 C 188.753906 175.472656 188.792969 175.769531 188.800781 176.074219 C 188.808594 176.378906 188.789062 176.679688 188.734375 176.976562 C 188.679688 177.277344 188.597656 177.566406 188.484375 177.847656 C 188.371094 178.128906 188.230469 178.398438 188.0625 178.648438 C 187.894531 178.902344 187.703125 179.136719 187.484375 179.347656 C 187.269531 179.5625 187.035156 179.75 186.78125 179.914062 C 186.523438 180.082031 186.253906 180.21875 185.972656 180.328125 C 185.6875 180.4375 185.398438 180.515625 185.097656 180.566406 L 176.640625 181.964844 C 176.324219 182.019531 176.054688 182.15625 175.824219 182.375 C 175.59375 182.597656 175.445312 182.867188 175.382812 183.179688 C 175.320312 183.492188 175.351562 183.796875 175.476562 184.089844 C 175.601562 184.382812 175.796875 184.617188 176.066406 184.785156 L 183.734375 189.652344 C 184.257812 189.984375 184.824219 190.214844 185.433594 190.339844 C 186.042969 190.464844 186.65625 190.476562 187.269531 190.375 C 187.886719 190.273438 188.460938 190.066406 189 189.75 C 189.535156 189.4375 190 189.035156 190.386719 188.546875 L 196.550781 180.898438 C 196.859375 180.515625 197.105469 180.09375 197.292969 179.640625 C 197.480469 179.1875 197.601562 178.714844 197.652344 178.226562 C 197.703125 177.734375 197.683594 177.25 197.597656 176.765625 C 197.507812 176.28125 197.351562 175.820312 197.128906 175.382812 Z M 186.480469 154.394531 " fill-opacity="1" fill-rule="nonzero"/></svg>