<svg xmlns="http://www.w3.org/2000/svg" xmlns:xlink="http://www.w3.org/1999/xlink" width="500" zoomAndPan="magnify" viewBox="0 0 375 374.999991" height="500" preserveAspectRatio="xMidYMid meet" version="1.0"><defs><clipPath id="af269430a1"><path d="M 185 140 L 309 140 L 309 363.972656 L 185 363.972656 Z M 185 140 " clip-rule="nonzero"/></clipPath><clipPath id="9ab80709b9"><path d="M 64.976562 8 L 310 8 L 310 363.972656 L 64.976562 363.972656 Z M 64.976562 8 " clip-rule="nonzero"/></clipPath></defs><g clip-path="url(#af269430a1)"><path fill="#ac1754" d="M 307.082031 140.265625 C 308.269531 142.320312 308.925781 144.683594 308.925781 147.136719 L 308.925781 352.234375 C 308.925781 354.046875 308.199219 355.753906 306.953125 357.007812 C 306.542969 357.425781 306.066406 357.789062 305.546875 358.097656 L 299.304688 361.695312 C 298.699219 362.046875 298.066406 362.328125 297.421875 362.550781 C 296.125 362.984375 294.757812 363.164062 293.414062 363.078125 C 291.84375 362.976562 290.285156 362.515625 288.875 361.703125 L 278.417969 355.664062 L 185.195312 211.074219 C 187.714844 209.351562 190.035156 207.375 192.003906 204.976562 C 196.738281 199.242188 198.914062 191.8125 203.140625 185.695312 C 217.300781 165.210938 249.933594 164.5 263.773438 143.792969 L 286.933594 151.90625 Z M 307.082031 140.265625 " fill-opacity="1" fill-rule="nonzero"/></g><path fill="#ffffff" d="M 185.195312 211.074219 L 66.035156 26.242188 L 66.035156 21.183594 C 66.035156 18.4375 67.316406 15.867188 69.457031 14.214844 C 69.761719 13.980469 70.089844 13.761719 70.425781 13.570312 L 74.644531 11.128906 C 75.605469 10.574219 76.628906 10.152344 77.675781 9.875 C 78.203125 9.734375 78.726562 9.632812 79.261719 9.5625 C 79.53125 9.527344 79.796875 9.5 80.066406 9.484375 C 80.335938 9.472656 80.597656 9.457031 80.871094 9.457031 C 81.140625 9.457031 81.410156 9.464844 81.671875 9.484375 C 83.550781 9.605469 85.410156 10.152344 87.09375 11.128906 L 302.046875 135.226562 C 304.171875 136.457031 305.894531 138.203125 307.074219 140.257812 L 286.917969 151.890625 L 263.757812 143.78125 C 249.921875 164.484375 217.292969 165.195312 203.125 185.679688 C 198.898438 191.796875 196.722656 199.226562 191.992188 204.960938 C 190.027344 207.375 187.714844 209.359375 185.195312 211.074219 Z M 185.195312 211.074219 " fill-opacity="1" fill-rule="nonzero"/><path fill="#f0f7fe" d="M 294.082031 158.890625 L 294.082031 175.832031 L 293.507812 356.046875 C 293.507812 360.410156 288.789062 363.132812 285.011719 360.949219 L 72.507812 238.257812 C 68.148438 235.742188 65.457031 231.085938 65.457031 226.050781 L 66.035156 44.015625 L 66.035156 24.027344 C 66.035156 20.507812 69.847656 18.308594 72.894531 20.066406 L 284.457031 142.207031 C 290.414062 145.652344 294.082031 152.011719 294.082031 158.890625 Z M 294.082031 158.890625 " fill-opacity="1" fill-rule="nonzero"/><path fill="#ffffff" d="M 116.203125 99.476562 L 118.4375 100.761719 L 118.4375 138.328125 L 80.925781 116.644531 L 75.972656 86.496094 L 80.925781 89.285156 L 80.925781 74.976562 L 96.1875 83.792969 L 99.601562 88.875 L 108.253906 97.988281 Z M 214.003906 159.148438 L 205.351562 150.035156 L 201.9375 144.953125 L 186.675781 136.136719 L 186.675781 150.460938 L 181.722656 147.671875 L 186.675781 177.816406 L 224.1875 199.503906 L 224.1875 161.9375 L 221.953125 160.648438 Z M 277.066406 192.511719 L 274.832031 191.222656 L 266.882812 189.726562 L 258.230469 180.613281 L 254.816406 175.535156 L 239.554688 166.71875 L 239.554688 181.039062 L 234.601562 178.25 L 239.554688 208.398438 L 277.066406 230.085938 Z M 161.125 128.566406 L 152.472656 119.453125 L 149.058594 114.375 L 133.796875 105.558594 L 133.796875 119.878906 L 128.847656 117.089844 L 133.796875 147.238281 L 171.308594 168.925781 L 171.308594 131.355469 L 169.074219 130.070312 Z M 108.246094 176.75 L 99.597656 167.636719 L 96.179688 162.554688 L 80.917969 153.742188 L 80.917969 168.0625 L 75.96875 165.273438 L 80.917969 195.421875 L 118.429688 217.105469 L 118.429688 179.539062 L 116.203125 178.238281 Z M 161.125 207.332031 L 152.472656 198.214844 L 149.058594 193.136719 L 133.796875 184.320312 L 133.796875 198.644531 L 128.847656 195.855469 L 133.796875 226 L 171.308594 247.6875 L 171.308594 210.121094 L 169.074219 208.832031 Z M 161.125 207.332031 " fill-opacity="1" fill-rule="nonzero"/><path fill="#f0f7fe" d="M 83.507812 79.511719 L 116.203125 98.40625 L 116.203125 122.355469 L 113.484375 102.941406 L 95.761719 92.695312 L 91.234375 95.113281 L 83.507812 90.753906 Z M 189.257812 151.917969 L 196.984375 156.28125 L 201.511719 153.863281 L 219.234375 164.105469 L 221.953125 183.523438 L 221.953125 159.574219 L 189.257812 140.675781 Z M 242.136719 171.25 L 242.136719 182.5 L 249.863281 186.859375 L 254.390625 184.441406 L 272.113281 194.6875 L 274.832031 214.105469 L 274.832031 190.15625 Z M 136.386719 121.339844 L 144.113281 125.699219 L 148.640625 123.28125 L 166.363281 133.527344 L 169.082031 152.945312 L 169.082031 128.996094 L 136.386719 110.097656 C 136.386719 110.097656 136.386719 121.339844 136.386719 121.339844 Z M 83.507812 169.523438 L 91.234375 173.882812 L 95.761719 171.464844 L 113.484375 181.710938 L 116.203125 201.121094 L 116.203125 177.171875 L 83.507812 158.273438 Z M 136.386719 200.101562 L 144.113281 204.464844 L 148.640625 202.042969 L 166.363281 212.289062 L 169.082031 231.707031 L 169.082031 207.757812 L 136.386719 188.859375 C 136.386719 188.859375 136.386719 200.101562 136.386719 200.101562 Z M 136.386719 200.101562 " fill-opacity="1" fill-rule="nonzero"/><path fill="#ac1754" d="M 108.246094 116.800781 L 108.246094 134.410156 L 102.828125 131.277344 L 102.828125 119.574219 L 96.523438 115.933594 C 96.523438 115.933594 96.523438 122.292969 96.523438 127.636719 L 91.101562 124.503906 C 91.101562 123.296875 91.101562 106.894531 91.101562 106.894531 Z M 196.859375 168.050781 C 196.859375 168.050781 196.859375 184.457031 196.859375 185.660156 L 202.277344 188.789062 C 202.277344 183.445312 202.277344 177.085938 202.277344 177.085938 L 208.582031 180.726562 L 208.582031 192.433594 L 214.003906 195.5625 L 214.003906 177.960938 Z M 249.734375 198.628906 C 249.734375 198.628906 249.734375 215.035156 249.734375 216.238281 L 255.15625 219.367188 C 255.15625 214.027344 255.15625 207.664062 255.15625 207.664062 L 261.460938 211.308594 L 261.460938 223.011719 L 266.882812 226.140625 L 266.882812 208.53125 Z M 143.980469 137.46875 C 143.980469 137.46875 143.980469 153.875 143.980469 155.078125 L 149.402344 158.207031 C 149.402344 152.867188 149.402344 146.503906 149.402344 146.503906 L 155.703125 150.148438 L 155.703125 161.851562 L 161.125 164.980469 L 161.125 147.371094 Z M 91.109375 185.652344 C 91.109375 185.652344 91.109375 202.058594 91.109375 203.261719 L 96.53125 206.390625 C 96.53125 201.046875 96.53125 194.6875 96.53125 194.6875 L 102.832031 198.332031 L 102.832031 210.035156 L 108.253906 213.164062 L 108.253906 195.554688 Z M 143.980469 216.230469 C 143.980469 216.230469 143.980469 232.636719 143.980469 233.839844 L 149.402344 236.972656 C 149.402344 231.628906 149.402344 225.265625 149.402344 225.265625 L 155.703125 228.910156 L 155.703125 240.613281 L 161.125 243.746094 L 161.125 226.136719 Z M 143.980469 216.230469 " fill-opacity="1" fill-rule="nonzero"/><g clip-path="url(#9ab80709b9)"><path fill="#1c0140" d="M 302.578125 134.316406 L 87.628906 10.21875 C 83.460938 7.8125 78.285156 7.8125 74.117188 10.21875 L 69.898438 12.652344 C 66.859375 14.410156 64.976562 17.675781 64.976562 21.183594 L 64.976562 224.910156 C 64.976562 230.3125 67.878906 235.34375 72.550781 238.039062 L 277.875 356.582031 L 288.335938 362.621094 C 290.105469 363.644531 292.097656 364.160156 294.082031 364.160156 C 296.070312 364.160156 298.0625 363.644531 299.832031 362.621094 L 306.070312 359.019531 C 308.484375 357.625 309.984375 355.03125 309.984375 352.242188 L 309.984375 147.144531 C 309.984375 141.867188 307.148438 136.957031 302.578125 134.316406 Z M 70.957031 14.488281 L 75.175781 12.054688 C 78.691406 10.027344 83.054688 10.027344 86.5625 12.054688 L 301.511719 136.152344 C 303.15625 137.097656 304.527344 138.394531 305.574219 139.902344 L 291.828125 147.800781 C 290.113281 145.160156 287.785156 142.910156 284.976562 141.289062 L 73.425781 19.148438 C 71.664062 18.128906 69.558594 18.128906 67.792969 19.148438 C 67.621094 19.246094 67.464844 19.359375 67.300781 19.472656 C 67.777344 17.402344 69.082031 15.574219 70.957031 14.488281 Z M 67.09375 24.027344 C 67.09375 22.761719 67.75 21.625 68.851562 20.988281 C 69.398438 20.667969 70.003906 20.511719 70.609375 20.511719 C 71.214844 20.511719 71.8125 20.667969 72.367188 20.988281 L 283.929688 143.132812 C 289.542969 146.375 293.03125 152.410156 293.03125 158.890625 L 293.03125 173.996094 L 67.09375 43.402344 Z M 67.09375 224.910156 L 67.09375 45.847656 L 293.023438 176.445312 L 293.023438 354.910156 C 293.023438 356.574219 292.164062 358.0625 290.726562 358.894531 C 289.28125 359.726562 287.566406 359.726562 286.121094 358.894531 L 73.613281 236.203125 C 69.59375 233.882812 67.09375 229.558594 67.09375 224.910156 Z M 307.863281 352.242188 C 307.863281 354.277344 306.769531 356.167969 305.011719 357.1875 L 298.773438 360.785156 C 296.226562 362.257812 293.136719 362.429688 290.460938 361.304688 C 290.917969 361.15625 291.359375 360.976562 291.785156 360.730469 C 293.890625 359.511719 295.152344 357.335938 295.152344 354.910156 L 295.152344 158.890625 C 295.152344 155.625 294.355469 152.460938 292.902344 149.636719 L 306.648438 141.738281 C 307.429688 143.402344 307.863281 145.246094 307.863281 147.136719 Z M 276.003906 160.917969 L 285.964844 166.589844 C 286.492188 166.890625 287.066406 167.039062 287.644531 167.039062 C 288.234375 167.039062 288.820312 166.882812 289.351562 166.574219 C 290.414062 165.957031 291.046875 164.863281 291.046875 163.636719 L 291.046875 154.375 C 291.046875 152.074219 289.808594 149.933594 287.816406 148.78125 L 279.382812 143.90625 C 278.316406 143.296875 277.050781 143.296875 275.984375 143.90625 C 274.921875 144.519531 274.28125 145.621094 274.28125 146.851562 L 274.28125 157.960938 C 274.289062 159.183594 274.945312 160.316406 276.003906 160.917969 Z M 276.410156 146.851562 C 276.410156 146.183594 276.859375 145.855469 277.050781 145.75 C 277.164062 145.6875 277.398438 145.574219 277.699219 145.574219 C 277.890625 145.574219 278.101562 145.617188 278.332031 145.75 L 286.761719 150.625 C 288.101562 151.394531 288.933594 152.835938 288.933594 154.382812 L 288.933594 163.644531 C 288.933594 164.304688 288.492188 164.640625 288.300781 164.746094 C 288.105469 164.863281 287.601562 165.082031 287.027344 164.753906 L 277.066406 159.085938 C 276.667969 158.855469 276.417969 158.429688 276.417969 157.972656 Z M 230.078125 134.402344 L 240.039062 140.074219 C 240.566406 140.371094 241.140625 140.519531 241.71875 140.519531 C 242.308594 140.519531 242.890625 140.363281 243.425781 140.058594 C 244.484375 139.441406 245.117188 138.34375 245.117188 137.121094 L 245.117188 127.855469 C 245.117188 125.558594 243.878906 123.417969 241.886719 122.265625 L 233.449219 117.398438 C 232.390625 116.785156 231.117188 116.785156 230.050781 117.398438 C 228.980469 118.007812 228.347656 119.113281 228.347656 120.34375 L 228.347656 131.449219 C 228.363281 132.667969 229.023438 133.796875 230.078125 134.402344 Z M 230.484375 120.34375 C 230.484375 119.675781 230.929688 119.347656 231.125 119.242188 C 231.238281 119.167969 231.472656 119.0625 231.769531 119.0625 C 231.960938 119.0625 232.175781 119.105469 232.402344 119.242188 L 240.84375 124.113281 C 242.179688 124.882812 243.011719 126.328125 243.011719 127.871094 L 243.011719 137.132812 C 243.011719 137.796875 242.570312 138.128906 242.378906 138.238281 C 242.1875 138.351562 241.683594 138.570312 241.105469 138.246094 L 231.144531 132.574219 C 230.746094 132.347656 230.496094 131.917969 230.496094 131.464844 L 230.496094 120.34375 Z M 253.023438 147.542969 L 262.984375 153.300781 C 263.519531 153.605469 264.101562 153.761719 264.683594 153.761719 C 265.269531 153.761719 265.851562 153.605469 266.386719 153.300781 C 267.453125 152.6875 268.085938 151.585938 268.085938 150.355469 L 268.085938 141.117188 C 268.085938 138.820312 266.847656 136.679688 264.855469 135.527344 L 256.425781 130.660156 C 255.363281 130.046875 254.089844 130.039062 253.023438 130.660156 C 251.957031 131.273438 251.324219 132.375 251.324219 133.605469 L 251.324219 144.605469 C 251.324219 145.808594 251.976562 146.9375 253.023438 147.542969 Z M 253.449219 133.597656 C 253.449219 132.929688 253.898438 132.601562 254.089844 132.496094 C 254.203125 132.425781 254.4375 132.316406 254.738281 132.316406 C 254.929688 132.316406 255.144531 132.359375 255.371094 132.496094 L 263.808594 137.371094 C 265.148438 138.136719 265.980469 139.582031 265.980469 141.125 L 265.980469 150.359375 C 265.980469 151.03125 265.53125 151.355469 265.339844 151.464844 C 265.148438 151.578125 264.632812 151.796875 264.066406 151.464844 L 254.105469 145.707031 C 253.714844 145.480469 253.464844 145.054688 253.464844 144.605469 L 253.464844 133.597656 Z M 255.40625 142.164062 L 257.945312 143.628906 L 257.945312 145.59375 C 257.945312 146.15625 258.246094 146.675781 258.738281 146.960938 L 262.4375 149.09375 C 262.683594 149.238281 262.957031 149.308594 263.226562 149.308594 C 263.496094 149.308594 263.765625 149.238281 264.015625 149.09375 C 264.507812 148.808594 264.804688 148.296875 264.804688 147.730469 L 264.804688 144.304688 C 264.804688 143.339844 264.285156 142.441406 263.453125 141.957031 L 261.476562 140.820312 L 261.476562 139.511719 C 261.476562 138.542969 260.957031 137.648438 260.125 137.164062 L 256.992188 135.355469 C 256.503906 135.070312 255.910156 135.070312 255.421875 135.355469 C 254.929688 135.640625 254.632812 136.152344 254.632812 136.722656 L 254.632812 140.804688 C 254.617188 141.359375 254.921875 141.878906 255.40625 142.164062 Z M 262.734375 143.183594 C 263.132812 143.410156 263.382812 143.84375 263.382812 144.304688 L 263.382812 147.734375 C 263.382812 147.8125 263.339844 147.855469 263.304688 147.878906 C 263.269531 147.898438 263.210938 147.914062 263.140625 147.878906 L 259.441406 145.742188 C 259.390625 145.714844 259.363281 145.664062 259.363281 145.601562 L 259.363281 144.414062 C 259.535156 144.476562 259.710938 144.519531 259.890625 144.519531 C 260.160156 144.519531 260.429688 144.449219 260.679688 144.304688 C 261.167969 144.023438 261.46875 143.507812 261.46875 142.941406 L 261.46875 142.457031 Z M 281.105469 154.886719 L 278.59375 150.679688 C 278.296875 150.175781 278.460938 149.527344 278.957031 149.230469 L 278.964844 149.230469 C 279.46875 148.929688 280.117188 149.09375 280.414062 149.59375 L 282.882812 153.726562 L 284.648438 152.582031 C 285.140625 152.261719 285.792969 152.402344 286.113281 152.894531 C 286.433594 153.386719 286.292969 154.039062 285.800781 154.359375 L 283.972656 155.546875 L 286.71875 160.136719 C 287.019531 160.640625 286.855469 161.289062 286.355469 161.589844 C 285.851562 161.886719 285.203125 161.722656 284.90625 161.226562 L 282.203125 156.699219 L 280.664062 157.703125 C 280.171875 158.023438 279.519531 157.882812 279.199219 157.390625 C 278.878906 156.898438 279.019531 156.246094 279.511719 155.925781 Z M 239.917969 131.554688 L 233.316406 127.75 C 232.808594 127.457031 232.632812 126.8125 232.921875 126.296875 C 233.214844 125.792969 233.863281 125.617188 234.367188 125.90625 L 240.96875 129.714844 C 241.476562 130.003906 241.652344 130.652344 241.363281 131.164062 C 241.070312 131.671875 240.421875 131.847656 239.917969 131.554688 Z M 117.261719 97.796875 L 100.277344 87.976562 L 96.929688 82.996094 L 79.859375 73.136719 L 79.859375 87.480469 L 74.566406 84.492188 L 79.953125 117.3125 L 90.039062 123.144531 L 90.039062 125.109375 L 97.582031 129.472656 L 97.582031 127.507812 L 101.765625 129.925781 L 101.765625 131.890625 L 109.308594 136.253906 L 109.308594 134.289062 L 119.488281 140.171875 L 119.488281 100.152344 L 117.253906 98.863281 Z M 115.136719 107.566406 L 114.464844 102.285156 L 95.78125 91.484375 L 91.25 93.902344 L 84.570312 90.132812 L 84.570312 81.347656 L 115.140625 99.019531 L 115.140625 107.566406 Z M 81.980469 76.8125 L 95.441406 84.589844 L 96.09375 85.566406 L 82.449219 77.667969 L 82.449219 88.9375 L 81.988281 88.675781 L 81.988281 76.8125 Z M 97.582031 125.058594 L 97.582031 117.765625 L 101.765625 120.1875 L 101.765625 127.480469 Z M 107.1875 132.574219 L 103.886719 130.667969 L 103.886719 118.960938 L 95.460938 114.089844 L 95.460938 125.792969 L 92.160156 123.886719 L 92.160156 108.722656 L 107.1875 117.410156 Z M 90.039062 105.046875 L 90.039062 120.699219 L 81.886719 115.980469 L 77.375 88.519531 L 91.222656 96.324219 L 95.738281 93.910156 L 112.496094 103.59375 L 116.601562 136.046875 L 109.316406 131.832031 L 109.316406 116.179688 Z M 117.371094 101.382812 L 117.371094 125.238281 L 117.253906 124.355469 L 117.253906 101.316406 Z M 84.101562 134.351562 C 82.136719 133.214844 80.925781 131.113281 80.925781 128.84375 C 80.925781 127.125 82.789062 126.050781 84.285156 126.910156 L 115.261719 144.820312 C 117.226562 145.957031 118.4375 148.054688 118.4375 150.324219 C 118.4375 152.046875 116.574219 153.121094 115.078125 152.261719 Z M 223.011719 158.957031 L 206.027344 149.136719 L 202.675781 144.15625 L 185.609375 134.296875 L 185.609375 148.640625 L 180.316406 145.652344 L 185.703125 178.472656 L 195.789062 184.304688 L 195.789062 186.269531 L 203.332031 190.632812 L 203.332031 188.667969 L 207.515625 191.085938 L 207.515625 193.050781 L 215.058594 197.414062 L 215.058594 195.449219 L 225.238281 201.332031 L 225.238281 161.3125 L 223.003906 160.023438 Z M 220.890625 168.730469 L 220.222656 163.445312 L 201.53125 152.644531 L 197 155.0625 L 190.320312 151.292969 L 190.320312 142.507812 L 220.890625 160.179688 Z M 187.734375 137.972656 L 201.199219 145.75 L 201.851562 146.726562 L 188.199219 138.835938 L 188.199219 150.105469 L 187.734375 149.839844 Z M 203.339844 186.21875 L 203.339844 178.925781 L 207.523438 181.347656 L 207.523438 188.640625 Z M 212.945312 193.734375 L 209.644531 191.828125 L 209.644531 180.121094 L 201.21875 175.25 L 201.21875 186.953125 L 197.917969 185.046875 L 197.917969 169.882812 L 212.945312 178.570312 Z M 195.796875 166.214844 L 195.796875 181.867188 L 187.644531 177.148438 L 183.132812 149.683594 L 196.980469 157.492188 L 201.496094 155.078125 L 218.253906 164.761719 L 222.351562 197.214844 L 215.066406 193 L 215.066406 177.347656 Z M 223.125 162.542969 L 223.125 186.40625 L 223.011719 185.523438 L 223.011719 162.484375 Z M 224.1875 211.480469 C 224.1875 213.199219 222.320312 214.273438 220.828125 213.414062 L 189.847656 195.503906 C 187.886719 194.367188 186.675781 192.269531 186.675781 190 C 186.675781 188.277344 188.539062 187.203125 190.035156 188.0625 L 221.011719 205.972656 C 222.976562 207.109375 224.1875 209.207031 224.1875 211.480469 Z M 211.316406 215.734375 C 211.316406 217.457031 209.449219 218.53125 207.957031 217.667969 L 189.855469 207.160156 C 187.894531 206.019531 186.683594 203.921875 186.683594 201.652344 C 186.683594 199.929688 188.546875 198.855469 190.042969 199.71875 L 208.140625 210.226562 C 210.097656 211.363281 211.316406 213.464844 211.316406 215.734375 Z M 275.890625 189.535156 L 258.90625 179.71875 L 255.554688 174.738281 L 238.488281 164.875 L 238.488281 179.21875 L 233.195312 176.230469 L 238.578125 209.050781 L 248.667969 214.886719 L 248.667969 216.851562 L 256.210938 221.210938 L 256.210938 219.25 L 260.394531 221.667969 L 260.394531 223.632812 L 267.9375 227.992188 L 267.9375 226.027344 L 278.117188 231.914062 L 278.117188 191.898438 L 275.882812 190.609375 Z M 273.769531 199.3125 L 273.101562 194.027344 L 254.410156 183.226562 L 249.878906 185.644531 L 243.199219 181.875 L 243.199219 173.085938 L 273.769531 190.761719 Z M 240.613281 168.554688 L 254.074219 176.332031 L 254.730469 177.304688 L 241.078125 169.414062 L 241.078125 180.683594 L 240.613281 180.421875 Z M 256.21875 216.800781 L 256.21875 209.507812 L 260.402344 211.925781 L 260.402344 219.21875 Z M 265.824219 224.3125 L 262.523438 222.40625 L 262.523438 210.703125 L 254.097656 205.828125 L 254.097656 217.535156 L 250.796875 215.625 L 250.796875 200.464844 L 265.824219 209.152344 Z M 248.675781 196.792969 L 248.675781 212.445312 L 240.523438 207.730469 L 236.011719 180.265625 L 249.855469 188.070312 L 254.375 185.660156 L 271.128906 195.34375 L 275.230469 227.792969 L 267.941406 223.582031 L 267.941406 207.933594 Z M 276.003906 193.121094 L 276.003906 216.984375 L 275.890625 216.101562 L 275.890625 193.066406 Z M 267.132812 236.496094 C 267.132812 238.214844 265.269531 239.289062 263.773438 238.429688 L 247.699219 229.160156 C 245.738281 228.019531 244.527344 225.921875 244.527344 223.652344 C 244.527344 221.929688 246.390625 220.855469 247.886719 221.71875 L 263.957031 230.988281 C 265.921875 232.125 267.132812 234.226562 267.132812 236.496094 Z M 170.140625 128.375 L 153.15625 118.558594 L 149.804688 113.578125 L 132.738281 103.714844 L 132.738281 118.058594 L 127.445312 115.070312 L 132.832031 147.890625 L 142.917969 153.726562 L 142.917969 155.691406 L 150.460938 160.050781 L 150.460938 158.089844 L 154.644531 160.507812 L 154.644531 162.472656 L 162.1875 166.832031 L 162.1875 164.867188 L 172.367188 170.753906 L 172.367188 130.730469 L 170.132812 129.441406 L 170.132812 128.375 Z M 168.011719 138.152344 L 167.34375 132.871094 L 148.652344 122.070312 L 144.121094 124.492188 L 137.441406 120.71875 L 137.441406 111.933594 L 168.011719 129.605469 Z M 134.859375 107.394531 L 148.320312 115.171875 L 148.972656 116.144531 L 135.320312 108.253906 L 135.320312 119.523438 L 134.859375 119.261719 C 134.859375 119.261719 134.859375 107.394531 134.859375 107.394531 Z M 150.460938 155.640625 L 150.460938 148.347656 L 154.644531 150.765625 L 154.644531 158.058594 Z M 160.066406 163.152344 L 156.765625 161.246094 L 156.765625 149.542969 L 148.339844 144.667969 L 148.339844 156.375 L 145.039062 154.464844 L 145.039062 139.304688 L 160.066406 147.992188 Z M 142.917969 135.632812 L 142.917969 151.285156 L 134.765625 146.570312 L 130.253906 119.105469 L 144.101562 126.910156 L 148.617188 124.5 L 165.375 134.183594 L 169.480469 166.632812 L 162.195312 162.421875 L 162.195312 146.769531 Z M 170.246094 131.960938 L 170.246094 155.816406 L 170.132812 154.9375 L 170.132812 131.898438 Z M 136.976562 164.933594 C 135.015625 163.792969 133.804688 161.695312 133.804688 159.425781 C 133.804688 157.703125 135.667969 156.628906 137.164062 157.492188 L 163.046875 172.324219 C 165.011719 173.464844 166.21875 175.5625 166.21875 177.832031 C 166.21875 179.554688 164.355469 180.628906 162.863281 179.765625 Z M 117.261719 176.558594 L 100.277344 166.738281 L 96.929688 161.757812 L 79.859375 151.898438 L 79.859375 166.242188 L 74.566406 163.253906 L 79.953125 196.074219 L 90.039062 201.910156 L 90.039062 203.871094 L 97.582031 208.234375 L 97.582031 206.269531 L 101.765625 208.691406 L 101.765625 210.652344 L 109.308594 215.015625 L 109.308594 213.050781 L 119.488281 218.933594 L 119.488281 178.914062 L 117.253906 177.625 L 117.253906 176.558594 Z M 115.136719 186.328125 L 114.464844 181.046875 L 95.78125 170.246094 L 91.25 172.667969 L 84.570312 168.894531 L 84.570312 160.109375 L 115.140625 177.78125 L 115.140625 186.328125 Z M 81.980469 155.578125 L 95.441406 163.351562 L 96.09375 164.328125 L 82.441406 156.4375 L 82.441406 167.707031 L 81.980469 167.445312 C 81.980469 167.445312 81.980469 155.578125 81.980469 155.578125 Z M 97.582031 203.824219 L 97.582031 196.53125 L 101.765625 198.949219 L 101.765625 206.242188 Z M 107.1875 211.335938 L 103.886719 209.429688 L 103.886719 197.726562 L 95.460938 192.851562 L 95.460938 204.554688 L 92.167969 202.648438 L 92.167969 187.488281 L 107.195312 196.175781 L 107.195312 211.335938 Z M 90.039062 183.816406 L 90.039062 199.46875 L 81.886719 194.75 L 77.375 167.289062 L 91.222656 175.09375 L 95.738281 172.679688 L 112.496094 182.363281 L 116.601562 214.816406 L 109.316406 210.601562 L 109.316406 194.949219 Z M 117.371094 180.144531 L 117.371094 204 L 117.253906 203.117188 L 117.253906 180.082031 Z M 118.4375 229.082031 C 118.4375 230.804688 116.574219 231.878906 115.078125 231.015625 L 84.101562 213.109375 C 82.136719 211.96875 80.925781 209.871094 80.925781 207.601562 C 80.925781 205.878906 82.789062 204.804688 84.285156 205.664062 L 115.261719 223.574219 C 117.21875 224.710938 118.4375 226.8125 118.4375 229.082031 Z M 170.140625 207.136719 L 153.15625 197.320312 L 149.804688 192.339844 L 132.738281 182.476562 L 132.738281 196.820312 L 127.445312 193.832031 L 132.832031 226.65625 L 142.917969 232.488281 L 142.917969 234.453125 L 150.460938 238.8125 L 150.460938 236.851562 L 154.644531 239.269531 L 154.644531 241.234375 L 162.1875 245.59375 L 162.1875 243.632812 L 172.367188 249.515625 L 172.367188 209.492188 L 170.132812 208.207031 L 170.132812 207.136719 Z M 168.011719 216.914062 L 167.34375 211.636719 L 148.652344 200.835938 L 144.121094 203.253906 L 137.441406 199.484375 L 137.441406 190.695312 L 168.011719 208.371094 Z M 134.859375 186.15625 L 148.320312 193.933594 L 148.972656 194.90625 L 135.320312 187.015625 L 135.320312 198.289062 L 134.859375 198.023438 C 134.859375 198.023438 134.859375 186.15625 134.859375 186.15625 Z M 150.460938 234.402344 L 150.460938 227.109375 L 154.644531 229.527344 L 154.644531 236.820312 Z M 160.066406 241.917969 L 156.765625 240.007812 L 156.765625 228.304688 L 148.339844 223.433594 L 148.339844 235.136719 L 145.039062 233.230469 L 145.039062 218.066406 L 160.066406 226.746094 Z M 142.917969 214.394531 L 142.917969 230.046875 L 134.765625 225.332031 L 130.253906 197.867188 L 144.101562 205.671875 L 148.617188 203.261719 L 165.375 212.945312 L 169.480469 245.394531 L 162.195312 241.183594 L 162.195312 225.53125 Z M 170.246094 210.722656 L 170.246094 234.582031 L 170.132812 233.699219 L 170.132812 210.660156 Z M 163.480469 255.242188 C 163.480469 256.964844 161.617188 258.039062 160.125 257.179688 L 139.851562 245.617188 C 137.890625 244.476562 136.679688 242.378906 136.679688 240.109375 C 136.679688 238.386719 138.542969 237.3125 140.039062 238.175781 L 160.308594 249.734375 C 162.273438 250.875 163.480469 252.972656 163.480469 255.242188 Z M 163.480469 255.242188 " fill-opacity="1" fill-rule="nonzero"/></g></svg>