<svg xmlns="http://www.w3.org/2000/svg" xmlns:xlink="http://www.w3.org/1999/xlink" width="500" zoomAndPan="magnify" viewBox="0 0 375 374.999991" height="500" preserveAspectRatio="xMidYMid meet" version="1.0"><defs><clipPath id="35fea63bd6"><path d="M 7.058594 6.066406 L 367.808594 6.066406 L 367.808594 367 L 7.058594 367 Z M 7.058594 6.066406 " clip-rule="nonzero"/></clipPath></defs><g clip-path="url(#35fea63bd6)"><path fill="#e2eaff" d="M 367.535156 186.105469 C 367.535156 189.050781 367.460938 191.996094 367.316406 194.9375 C 367.171875 197.882812 366.957031 200.820312 366.667969 203.75 C 366.378906 206.683594 366.019531 209.605469 365.585938 212.519531 C 365.152344 215.433594 364.648438 218.335938 364.074219 221.226562 C 363.5 224.117188 362.855469 226.992188 362.136719 229.847656 C 361.421875 232.707031 360.636719 235.546875 359.78125 238.367188 C 358.925781 241.183594 358.003906 243.980469 357.011719 246.757812 C 356.015625 249.53125 354.957031 252.277344 353.828125 255 C 352.703125 257.722656 351.507812 260.414062 350.25 263.078125 C 348.988281 265.742188 347.664062 268.375 346.277344 270.972656 C 344.886719 273.570312 343.433594 276.132812 341.921875 278.660156 C 340.40625 281.1875 338.828125 283.675781 337.191406 286.125 C 335.554688 288.578125 333.859375 290.984375 332.105469 293.351562 C 330.347656 295.71875 328.535156 298.039062 326.667969 300.316406 C 324.796875 302.59375 322.875 304.824219 320.894531 307.007812 C 318.917969 309.191406 316.886719 311.324219 314.804688 313.410156 C 312.71875 315.492188 310.585938 317.523438 308.402344 319.503906 C 306.21875 321.480469 303.988281 323.40625 301.710938 325.273438 C 299.433594 327.144531 297.113281 328.957031 294.746094 330.710938 C 292.378906 332.464844 289.96875 334.160156 287.519531 335.796875 C 285.070312 337.4375 282.582031 339.011719 280.054688 340.527344 C 277.527344 342.039062 274.964844 343.492188 272.367188 344.882812 C 269.769531 346.269531 267.136719 347.59375 264.472656 348.855469 C 261.808594 350.113281 259.117188 351.308594 256.394531 352.4375 C 253.671875 353.5625 250.925781 354.625 248.152344 355.617188 C 245.375 356.609375 242.578125 357.53125 239.761719 358.386719 C 236.941406 359.242188 234.101562 360.027344 231.242188 360.746094 C 228.386719 361.460938 225.511719 362.105469 222.621094 362.679688 C 219.730469 363.253906 216.828125 363.757812 213.914062 364.191406 C 211 364.625 208.078125 364.984375 205.144531 365.273438 C 202.210938 365.5625 199.273438 365.777344 196.332031 365.921875 C 193.390625 366.066406 190.445312 366.140625 187.5 366.140625 C 184.550781 366.140625 181.605469 366.066406 178.664062 365.921875 C 175.722656 365.777344 172.785156 365.5625 169.851562 365.273438 C 166.917969 364.984375 163.996094 364.625 161.082031 364.191406 C 158.167969 363.757812 155.265625 363.253906 152.375 362.679688 C 149.484375 362.105469 146.609375 361.460938 143.753906 360.746094 C 140.894531 360.027344 138.054688 359.242188 135.238281 358.386719 C 132.417969 357.53125 129.621094 356.609375 126.847656 355.617188 C 124.070312 354.625 121.324219 353.5625 118.601562 352.4375 C 115.878906 351.308594 113.1875 350.113281 110.523438 348.855469 C 107.859375 347.59375 105.226562 346.269531 102.628906 344.882812 C 100.03125 343.492188 97.46875 342.039062 94.941406 340.527344 C 92.414062 339.011719 89.925781 337.4375 87.476562 335.796875 C 85.027344 334.160156 82.617188 332.464844 80.25 330.710938 C 77.882812 328.957031 75.5625 327.144531 73.285156 325.273438 C 71.007812 323.40625 68.777344 321.480469 66.59375 319.503906 C 64.410156 317.523438 62.277344 315.492188 60.195312 313.410156 C 58.109375 311.324219 56.078125 309.191406 54.101562 307.007812 C 52.121094 304.824219 50.199219 302.59375 48.328125 300.316406 C 46.460938 298.039062 44.648438 295.71875 42.890625 293.351562 C 41.136719 290.984375 39.441406 288.578125 37.804688 286.125 C 36.167969 283.675781 34.589844 281.1875 33.074219 278.660156 C 31.5625 276.132812 30.109375 273.570312 28.71875 270.972656 C 27.332031 268.375 26.007812 265.742188 24.746094 263.078125 C 23.488281 260.414062 22.292969 257.722656 21.167969 255 C 20.039062 252.277344 18.980469 249.53125 17.988281 246.757812 C 16.992188 243.980469 16.070312 241.183594 15.214844 238.367188 C 14.359375 235.546875 13.574219 232.707031 12.859375 229.847656 C 12.140625 226.992188 11.496094 224.117188 10.921875 221.226562 C 10.347656 218.335938 9.84375 215.433594 9.410156 212.519531 C 8.976562 209.605469 8.617188 206.683594 8.328125 203.75 C 8.039062 200.820312 7.824219 197.882812 7.679688 194.9375 C 7.535156 191.996094 7.460938 189.050781 7.460938 186.105469 C 7.460938 86.671875 88.0625 6.066406 187.5 6.066406 C 286.929688 6.066406 367.535156 86.671875 367.535156 186.105469 Z M 367.535156 186.105469 " fill-opacity="1" fill-rule="nonzero"/></g><path fill="#18b9cd" d="M 332.824219 292.382812 C 330.757812 295.207031 328.613281 297.96875 326.382812 300.667969 C 324.15625 303.367188 321.851562 306 319.472656 308.5625 C 317.09375 311.128906 314.640625 313.625 312.113281 316.046875 C 309.585938 318.46875 306.992188 320.8125 304.328125 323.085938 C 301.667969 325.355469 298.941406 327.546875 296.148438 329.660156 C 293.359375 331.769531 290.507812 333.800781 287.601562 335.746094 C 284.691406 337.691406 281.730469 339.550781 278.710938 341.324219 C 275.695312 343.097656 272.628906 344.777344 269.511719 346.375 C 266.398438 347.96875 263.238281 349.46875 260.035156 350.878906 C 256.832031 352.289062 253.589844 353.605469 250.3125 354.824219 C 247.03125 356.046875 243.71875 357.171875 240.375 358.199219 C 237.027344 359.226562 233.65625 360.15625 230.257812 360.988281 C 226.859375 361.820312 223.4375 362.550781 219.996094 363.183594 C 216.550781 363.8125 213.09375 364.34375 209.621094 364.773438 C 206.148438 365.203125 202.667969 365.535156 199.175781 365.761719 C 195.683594 365.988281 192.1875 366.113281 188.6875 366.136719 C 185.1875 366.160156 181.691406 366.082031 178.195312 365.898438 C 174.699219 365.71875 171.214844 365.4375 167.734375 365.054688 C 164.257812 364.667969 160.792969 364.183594 157.34375 363.597656 C 153.890625 363.011719 150.460938 362.328125 147.050781 361.539062 C 143.640625 360.753906 140.257812 359.871094 136.898438 358.886719 C 133.539062 357.902344 130.210938 356.824219 126.917969 355.644531 C 123.621094 354.46875 120.363281 353.195312 117.140625 351.828125 C 113.921875 350.460938 110.742188 349.003906 107.605469 347.449219 C 104.46875 345.898438 101.378906 344.253906 98.339844 342.523438 C 95.300781 340.789062 92.3125 338.96875 89.375 337.0625 C 86.441406 335.15625 83.566406 333.164062 80.746094 331.089844 C 77.929688 329.015625 75.171875 326.863281 72.480469 324.625 C 69.789062 322.390625 67.164062 320.078125 64.605469 317.691406 C 62.046875 315.300781 59.5625 312.84375 57.144531 310.308594 C 54.730469 307.777344 52.394531 305.175781 50.128906 302.503906 C 47.867188 299.835938 45.683594 297.101562 43.582031 294.304688 C 44.53125 292.496094 45.542969 290.726562 46.617188 288.988281 C 47.6875 287.25 48.816406 285.550781 50.003906 283.886719 C 51.191406 282.226562 52.433594 280.605469 53.730469 279.03125 C 55.027344 277.453125 56.375 275.921875 57.777344 274.4375 C 59.179688 272.949219 60.628906 271.515625 62.125 270.125 C 63.625 268.738281 65.167969 267.40625 66.757812 266.125 C 68.347656 264.839844 69.980469 263.613281 71.652344 262.441406 C 73.324219 261.273438 75.035156 260.160156 76.78125 259.101562 C 78.53125 258.046875 80.3125 257.054688 82.128906 256.121094 C 83.945312 255.183594 85.789062 254.3125 87.664062 253.503906 C 89.539062 252.695312 91.441406 251.953125 93.367188 251.273438 C 95.292969 250.59375 97.238281 249.980469 99.207031 249.433594 C 101.171875 248.882812 103.15625 248.40625 105.15625 247.992188 C 107.15625 247.578125 109.167969 247.234375 111.191406 246.957031 C 113.214844 246.683594 115.246094 246.476562 117.28125 246.335938 C 119.320312 246.199219 121.359375 246.128906 123.402344 246.132812 L 135.1875 246.132812 L 187.5 318.863281 L 216.148438 279.03125 L 223.976562 268.160156 L 239.808594 246.132812 L 254.078125 246.132812 C 256.074219 246.128906 258.066406 246.195312 260.058594 246.328125 C 262.050781 246.460938 264.035156 246.660156 266.011719 246.921875 C 267.992188 247.1875 269.960938 247.515625 271.914062 247.910156 C 273.871094 248.304688 275.8125 248.765625 277.738281 249.289062 C 279.664062 249.8125 281.570312 250.398438 283.457031 251.046875 C 285.34375 251.699219 287.207031 252.410156 289.046875 253.183594 C 290.886719 253.957031 292.699219 254.792969 294.484375 255.6875 C 296.269531 256.582031 298.019531 257.535156 299.742188 258.542969 C 301.464844 259.554688 303.148438 260.621094 304.800781 261.746094 C 306.449219 262.867188 308.058594 264.042969 309.632812 265.273438 C 311.203125 266.503906 312.734375 267.785156 314.21875 269.117188 C 315.707031 270.445312 317.148438 271.824219 318.542969 273.253906 C 319.9375 274.679688 321.285156 276.152344 322.582031 277.667969 C 323.878906 279.183594 325.125 280.742188 326.320312 282.34375 C 327.515625 283.941406 328.652344 285.578125 329.738281 287.253906 C 330.824219 288.929688 331.851562 290.636719 332.824219 292.382812 Z M 332.824219 292.382812 " fill-opacity="1" fill-rule="nonzero"/><path fill="#ff5e64" d="M 187.519531 56.007812 C 186.15625 56.007812 184.792969 56.042969 183.429688 56.109375 C 182.066406 56.175781 180.707031 56.273438 179.347656 56.410156 C 177.988281 56.542969 176.636719 56.710938 175.285156 56.910156 C 173.9375 57.109375 172.59375 57.34375 171.253906 57.609375 C 169.914062 57.875 168.585938 58.171875 167.261719 58.503906 C 165.9375 58.835938 164.621094 59.199219 163.316406 59.59375 C 162.011719 59.992188 160.714844 60.417969 159.429688 60.878906 C 158.144531 61.339844 156.871094 61.828125 155.613281 62.351562 C 154.351562 62.871094 153.101562 63.425781 151.871094 64.007812 C 150.636719 64.59375 149.417969 65.207031 148.214844 65.847656 C 147.011719 66.492188 145.824219 67.164062 144.652344 67.867188 C 143.484375 68.566406 142.332031 69.296875 141.195312 70.054688 C 140.0625 70.8125 138.945312 71.597656 137.847656 72.410156 C 136.753906 73.222656 135.679688 74.0625 134.621094 74.929688 C 133.566406 75.792969 132.535156 76.6875 131.523438 77.601562 C 130.511719 78.519531 129.523438 79.460938 128.558594 80.425781 C 127.59375 81.390625 126.65625 82.375 125.738281 83.386719 C 124.820312 84.398438 123.929688 85.433594 123.066406 86.488281 C 122.199219 87.542969 121.359375 88.617188 120.546875 89.714844 C 119.734375 90.808594 118.949219 91.925781 118.191406 93.058594 C 117.433594 94.195312 116.703125 95.347656 116 96.515625 C 115.300781 97.6875 114.628906 98.875 113.984375 100.078125 C 113.339844 101.28125 112.726562 102.5 112.144531 103.734375 C 111.5625 104.96875 111.007812 106.214844 110.488281 107.476562 C 109.964844 108.734375 109.472656 110.007812 109.015625 111.292969 C 108.554688 112.578125 108.128906 113.875 107.730469 115.179688 C 107.335938 116.484375 106.972656 117.800781 106.640625 119.125 C 106.308594 120.449219 106.011719 121.777344 105.742188 123.117188 C 105.476562 124.457031 105.246094 125.800781 105.046875 127.148438 C 104.84375 128.5 104.679688 129.855469 104.542969 131.210938 C 104.410156 132.570312 104.3125 133.929688 104.246094 135.292969 C 104.179688 136.65625 104.144531 138.019531 104.144531 139.382812 C 104.144531 142.089844 104.257812 144.75 104.503906 147.367188 L 104.792969 150.007812 L 104.882812 150.433594 L 110.742188 201.738281 C 110.949219 204.042969 111.273438 206.328125 111.71875 208.597656 C 112.167969 210.867188 112.730469 213.105469 113.414062 215.316406 C 114.097656 217.523438 114.894531 219.691406 115.804688 221.820312 C 116.71875 223.945312 117.738281 226.015625 118.867188 228.035156 C 120 230.050781 121.230469 232.003906 122.566406 233.894531 C 123.902344 235.78125 125.335938 237.59375 126.863281 239.332031 C 128.390625 241.066406 130.003906 242.71875 131.707031 244.285156 C 133.40625 245.851562 135.1875 247.324219 137.042969 248.703125 L 187.5 318.863281 L 216.148438 279.03125 L 223.976562 268.160156 C 223.988281 268.160156 223.996094 268.152344 223.996094 268.136719 C 226.375 266.941406 228.671875 265.605469 230.886719 264.128906 C 233.101562 262.652344 235.21875 261.050781 237.238281 259.316406 C 239.261719 257.585938 241.171875 255.738281 242.96875 253.773438 C 244.765625 251.808594 246.4375 249.746094 247.984375 247.578125 C 249.53125 245.414062 250.941406 243.160156 252.214844 240.824219 C 253.488281 238.488281 254.617188 236.082031 255.601562 233.609375 C 256.582031 231.136719 257.414062 228.609375 258.089844 226.035156 C 258.765625 223.460938 259.285156 220.855469 259.648438 218.21875 L 259.667969 218.21875 L 269.597656 154.144531 L 269.753906 153.050781 C 270 151.5625 270.207031 150.070312 270.371094 148.570312 C 270.535156 147.074219 270.660156 145.574219 270.746094 144.066406 C 270.828125 142.5625 270.871094 141.058594 270.875 139.550781 C 270.875 138.042969 270.835938 136.535156 270.757812 135.03125 C 270.679688 133.527344 270.558594 132.023438 270.398438 130.527344 C 270.234375 129.027344 270.035156 127.535156 269.792969 126.046875 C 269.550781 124.558594 269.269531 123.078125 268.945312 121.605469 C 268.625 120.136719 268.261719 118.671875 267.859375 117.21875 C 267.460938 115.765625 267.019531 114.328125 266.539062 112.898438 C 266.0625 111.46875 265.542969 110.054688 264.988281 108.652344 C 264.429688 107.253906 263.835938 105.867188 263.207031 104.5 C 262.574219 103.128906 261.90625 101.78125 261.203125 100.449219 C 260.5 99.113281 259.757812 97.804688 258.984375 96.511719 C 258.207031 95.21875 257.398438 93.949219 256.554688 92.699219 C 255.710938 91.449219 254.832031 90.226562 253.921875 89.027344 C 253.011719 87.824219 252.066406 86.648438 251.09375 85.5 C 250.121094 84.351562 249.113281 83.226562 248.078125 82.132812 C 247.042969 81.035156 245.980469 79.96875 244.886719 78.933594 C 243.792969 77.894531 242.671875 76.886719 241.527344 75.910156 C 240.378906 74.933594 239.207031 73.988281 238.007812 73.074219 C 236.808594 72.160156 235.585938 71.28125 234.339844 70.433594 C 233.09375 69.585938 231.824219 68.773438 230.53125 67.996094 C 229.242188 67.21875 227.933594 66.476562 226.601562 65.765625 C 225.269531 65.058594 223.921875 64.390625 222.554688 63.753906 C 221.1875 63.121094 219.804688 62.523438 218.402344 61.964844 C 217.003906 61.40625 215.589844 60.882812 214.164062 60.402344 C 212.734375 59.917969 211.296875 59.476562 209.84375 59.070312 C 208.390625 58.667969 206.929688 58.300781 205.457031 57.976562 C 203.988281 57.652344 202.507812 57.367188 201.019531 57.121094 C 199.535156 56.875 198.042969 56.671875 196.542969 56.507812 C 195.042969 56.339844 193.542969 56.21875 192.039062 56.136719 C 190.535156 56.050781 189.027344 56.011719 187.519531 56.007812 Z M 252.824219 166.46875 L 251.730469 172.773438 C 245.488281 143.65625 219.078125 121.785156 187.519531 121.785156 C 155.917969 121.785156 129.527344 143.65625 123.332031 172.773438 L 122.214844 166.445312 C 125.570312 128.046875 153.527344 98.078125 187.519531 98.078125 C 221.515625 98.078125 249.46875 128.046875 252.824219 166.445312 Z M 252.824219 166.46875 " fill-opacity="1" fill-rule="nonzero"/><path fill="#ff9987" d="M 251.707031 172.796875 L 251.707031 172.820312 L 247.925781 194.691406 C 247.667969 196.507812 247.332031 198.304688 246.910156 200.085938 C 246.488281 201.871094 245.992188 203.632812 245.410156 205.371094 C 244.832031 207.109375 244.175781 208.816406 243.445312 210.496094 C 242.710938 212.175781 241.90625 213.816406 241.023438 215.425781 C 240.144531 217.03125 239.195312 218.59375 238.171875 220.117188 C 237.152344 221.636719 236.0625 223.109375 234.910156 224.53125 C 233.753906 225.953125 232.539062 227.324219 231.261719 228.636719 C 229.984375 229.949219 228.652344 231.203125 227.261719 232.394531 C 225.871094 233.589844 224.429688 234.71875 222.9375 235.78125 C 221.445312 236.84375 219.910156 237.839844 218.328125 238.765625 C 216.746094 239.6875 215.128906 240.542969 213.46875 241.320312 C 211.8125 242.101562 210.121094 242.804688 208.402344 243.429688 C 206.679688 244.058594 204.933594 244.605469 203.164062 245.074219 C 201.390625 245.546875 199.601562 245.933594 197.796875 246.242188 C 195.992188 246.550781 194.175781 246.777344 192.347656 246.921875 C 190.523438 247.070312 188.695312 247.132812 186.863281 247.113281 C 185.03125 247.09375 183.203125 246.992188 181.378906 246.804688 C 179.558594 246.621094 177.746094 246.355469 175.949219 246.007812 C 174.148438 245.660156 172.371094 245.234375 170.609375 244.726562 C 168.847656 244.21875 167.113281 243.632812 165.40625 242.96875 C 163.699219 242.304688 162.023438 241.566406 160.382812 240.75 C 158.742188 239.9375 157.140625 239.050781 155.582031 238.089844 C 154.019531 237.132812 152.503906 236.105469 151.035156 235.011719 C 149.566406 233.914062 148.152344 232.757812 146.789062 231.535156 C 145.421875 230.308594 144.117188 229.027344 142.867188 227.6875 C 141.617188 226.347656 140.433594 224.953125 139.308594 223.507812 C 138.1875 222.058594 137.128906 220.5625 136.140625 219.023438 C 135.152344 217.480469 134.238281 215.894531 133.390625 214.269531 C 132.542969 212.644531 131.773438 210.984375 131.078125 209.292969 C 130.378906 207.597656 129.761719 205.875 129.21875 204.125 C 128.679688 202.375 128.21875 200.601562 127.835938 198.8125 C 127.453125 197.019531 127.152344 195.214844 126.933594 193.394531 L 123.3125 172.796875 C 129.527344 143.679688 155.917969 121.804688 187.5 121.804688 C 219.078125 121.804688 245.46875 143.679688 251.707031 172.796875 Z M 251.707031 172.796875 " fill-opacity="1" fill-rule="nonzero"/><path fill="#242156" d="M 251.707031 172.820312 L 251.707031 172.796875 C 245.46875 143.679688 219.078125 121.804688 187.496094 121.804688 C 155.917969 121.804688 129.527344 143.679688 123.3125 172.796875 L 122.191406 166.46875 C 125.546875 128.066406 153.503906 98.097656 187.496094 98.097656 C 221.492188 98.097656 249.449219 128.066406 252.804688 166.46875 L 252.804688 166.492188 M 252.9375 239.488281 C 251.347656 242.558594 249.53125 245.488281 247.484375 248.273438 C 245.4375 251.058594 243.183594 253.664062 240.726562 256.097656 C 238.273438 258.53125 235.640625 260.753906 232.835938 262.773438 C 230.03125 264.792969 227.082031 266.582031 223.996094 268.136719 C 223.996094 268.152344 223.988281 268.160156 223.976562 268.160156 C 219.375 270.488281 214.566406 272.246094 209.550781 273.4375 C 204.535156 274.628906 199.453125 275.21875 194.296875 275.207031 C 186.875 275.207031 179.660156 273.992188 172.648438 271.558594 C 175.925781 273.398438 179.339844 274.945312 182.882812 276.203125 C 186.425781 277.457031 190.050781 278.402344 193.753906 279.039062 C 197.460938 279.675781 201.191406 279.992188 204.953125 279.992188 C 208.710938 279.988281 212.441406 279.667969 216.148438 279.03125 L 187.542969 318.792969 L 186.113281 316.9375 L 186.042969 316.847656 L 137.042969 248.703125 C 132.816406 245.558594 129.023438 241.957031 125.660156 237.902344 L 102.9375 248.390625 L 149.769531 345.519531 C 149.933594 345.863281 150.121094 346.195312 150.332031 346.515625 C 150.539062 346.835938 150.765625 347.144531 151.015625 347.433594 C 151.261719 347.726562 151.527344 348 151.808594 348.261719 C 152.089844 348.519531 152.386719 348.757812 152.699219 348.976562 C 153.011719 349.199219 153.335938 349.398438 153.671875 349.578125 C 154.011719 349.757812 154.359375 349.917969 154.714844 350.050781 C 155.074219 350.1875 155.4375 350.300781 155.808594 350.390625 C 156.179688 350.480469 156.558594 350.546875 156.9375 350.589844 C 157.316406 350.628906 157.699219 350.648438 158.082031 350.644531 C 158.460938 350.636719 158.84375 350.605469 159.222656 350.554688 C 159.601562 350.5 159.972656 350.421875 160.34375 350.320312 C 160.710938 350.21875 161.070312 350.097656 161.425781 349.949219 C 161.777344 349.800781 162.121094 349.632812 162.453125 349.445312 C 162.785156 349.253906 163.101562 349.042969 163.40625 348.8125 C 163.710938 348.582031 164.003906 348.335938 164.277344 348.070312 C 164.550781 347.800781 164.804688 347.519531 165.042969 347.21875 L 187.476562 318.972656 L 210.847656 348.605469 C 211.050781 348.867188 211.273438 349.117188 211.511719 349.351562 C 211.746094 349.585938 212 349.800781 212.261719 350.003906 C 212.527344 350.207031 212.804688 350.390625 213.09375 350.558594 C 213.382812 350.726562 213.679688 350.871094 213.984375 351.003906 C 214.292969 351.132812 214.605469 351.242188 214.925781 351.328125 C 215.25 351.417969 215.574219 351.488281 215.902344 351.535156 C 216.234375 351.582031 216.5625 351.609375 216.898438 351.617188 C 217.230469 351.621094 217.5625 351.609375 217.894531 351.570312 C 218.222656 351.535156 218.550781 351.476562 218.875 351.398438 C 219.199219 351.324219 219.515625 351.222656 219.828125 351.105469 C 220.140625 350.988281 220.441406 350.851562 220.738281 350.695312 C 221.03125 350.539062 221.3125 350.363281 221.585938 350.171875 C 221.855469 349.976562 222.117188 349.769531 222.359375 349.542969 C 222.605469 349.320312 222.835938 349.078125 223.050781 348.824219 C 223.265625 348.570312 223.464844 348.300781 223.644531 348.023438 C 223.824219 347.742188 223.988281 347.453125 224.132812 347.152344 L 271.789062 247.832031 Z M 241.753906 214.058594 L 237.125 221.621094 C 237.125 221.621094 237.148438 221.640625 237.101562 221.640625 C 236.660156 222.679688 236.195312 223.707031 235.699219 224.71875 C 235.207031 225.734375 234.6875 226.734375 234.140625 227.722656 C 233.59375 228.707031 233.023438 229.679688 232.429688 230.636719 C 231.835938 231.597656 231.214844 232.539062 230.570312 233.464844 C 229.929688 234.390625 229.261719 235.300781 228.570312 236.191406 C 227.882812 237.082031 227.167969 237.957031 226.433594 238.8125 C 225.699219 239.667969 224.941406 240.503906 224.164062 241.320312 C 223.386719 242.136719 222.589844 242.933594 221.769531 243.710938 C 220.949219 244.484375 220.113281 245.238281 219.253906 245.972656 C 218.398438 246.703125 217.523438 247.414062 216.628906 248.101562 C 215.734375 248.789062 214.824219 249.453125 213.894531 250.09375 C 212.96875 250.738281 212.023438 251.351562 211.066406 251.945312 C 210.105469 252.539062 209.132812 253.105469 208.140625 253.648438 C 207.152344 254.191406 206.152344 254.707031 205.136719 255.199219 C 204.121094 255.691406 203.09375 256.15625 202.054688 256.59375 C 201.015625 257.03125 199.964844 257.445312 198.90625 257.828125 C 197.847656 258.214844 196.777344 258.570312 195.699219 258.902344 C 194.621094 259.230469 193.535156 259.535156 192.441406 259.808594 C 191.347656 260.082031 190.246094 260.328125 189.140625 260.546875 C 188.03125 260.761719 186.921875 260.953125 185.804688 261.113281 C 184.6875 261.273438 183.570312 261.40625 182.445312 261.507812 C 181.324219 261.613281 180.199219 261.6875 179.070312 261.734375 C 177.945312 261.777344 176.816406 261.792969 175.6875 261.78125 C 174.5625 261.769531 173.433594 261.730469 172.308594 261.660156 C 171.183594 261.589844 170.058594 261.492188 168.941406 261.363281 C 167.820312 261.234375 166.703125 261.078125 165.589844 260.894531 C 164.476562 260.710938 163.371094 260.496094 162.269531 260.253906 C 161.167969 260.011719 160.074219 259.742188 158.984375 259.445312 C 157.898438 259.148438 156.816406 258.820312 155.746094 258.46875 C 154.675781 258.113281 153.613281 257.734375 152.5625 257.328125 C 151.511719 256.917969 150.472656 256.484375 149.441406 256.023438 C 148.414062 255.5625 147.394531 255.074219 146.390625 254.5625 C 149.867188 258.242188 153.710938 261.480469 157.929688 264.273438 C 162.148438 267.070312 166.628906 269.347656 171.371094 271.113281 C 173.027344 271.246094 174.707031 271.3125 176.40625 271.3125 C 178.382812 271.316406 180.359375 271.226562 182.328125 271.050781 C 184.296875 270.871094 186.257812 270.605469 188.203125 270.253906 C 190.148438 269.898438 192.078125 269.457031 193.984375 268.933594 C 195.890625 268.40625 197.769531 267.792969 199.621094 267.097656 C 201.472656 266.402344 203.289062 265.621094 205.070312 264.761719 C 206.855469 263.902344 208.59375 262.964844 210.289062 261.949219 C 211.988281 260.933594 213.636719 259.84375 215.234375 258.675781 C 216.835938 257.511719 218.378906 256.277344 219.867188 254.972656 C 221.355469 253.671875 222.78125 252.300781 224.144531 250.871094 C 225.511719 249.4375 226.808594 247.949219 228.039062 246.398438 C 229.269531 244.851562 230.429688 243.25 231.515625 241.59375 C 232.601562 239.941406 233.613281 238.242188 234.546875 236.5 C 235.480469 234.753906 236.332031 232.972656 237.105469 231.152344 C 237.878906 229.328125 238.566406 227.476562 239.175781 225.59375 C 239.78125 223.710938 240.300781 221.804688 240.734375 219.875 C 241.171875 217.945312 241.515625 216 241.777344 214.039062 Z M 163.414062 172.820312 C 165.386719 172.820312 166.984375 170.261719 166.984375 167.105469 C 166.984375 163.953125 165.386719 161.394531 163.414062 161.394531 C 161.441406 161.394531 159.84375 163.953125 159.84375 167.105469 C 159.84375 170.261719 161.441406 172.820312 163.414062 172.820312 Z M 194.453125 176.351562 C 194.394531 176.109375 194.265625 175.914062 194.0625 175.765625 C 193.859375 175.617188 193.628906 175.554688 193.378906 175.578125 C 193.128906 175.601562 192.917969 175.703125 192.742188 175.882812 C 192.570312 176.066406 192.476562 176.28125 192.464844 176.53125 L 191.855469 189.792969 C 191.84375 190.050781 191.746094 190.269531 191.558594 190.445312 C 191.375 190.621094 191.152344 190.710938 190.894531 190.710938 L 180.765625 190.710938 C 180.460938 190.710938 180.179688 190.796875 179.925781 190.964844 C 179.671875 191.132812 179.484375 191.359375 179.367188 191.640625 C 179.246094 191.921875 179.214844 192.210938 179.273438 192.511719 C 179.328125 192.8125 179.464844 193.070312 179.675781 193.289062 L 184.96875 198.742188 C 185.304688 199.078125 185.691406 199.339844 186.128906 199.523438 C 186.566406 199.707031 187.023438 199.796875 187.496094 199.796875 C 187.972656 199.796875 188.429688 199.707031 188.867188 199.523438 C 189.304688 199.339844 189.691406 199.078125 190.023438 198.742188 L 197.238281 191.339844 C 197.648438 190.921875 197.785156 190.425781 197.652344 189.855469 Z M 213.175781 172.820312 C 215.148438 172.820312 216.746094 170.261719 216.746094 167.105469 C 216.746094 163.953125 215.148438 161.394531 213.175781 161.394531 C 211.203125 161.394531 209.605469 163.953125 209.605469 167.105469 C 209.605469 170.261719 211.203125 172.820312 213.175781 172.820312 Z M 213.175781 172.820312 " fill-opacity="1" fill-rule="nonzero"/></svg>