<svg xmlns="http://www.w3.org/2000/svg" xmlns:xlink="http://www.w3.org/1999/xlink" width="500" zoomAndPan="magnify" viewBox="0 0 375 374.999991" height="500" preserveAspectRatio="xMidYMid meet" version="1.0"><defs><clipPath id="7f167e1822"><path d="M 3.015625 21.714844 L 372 21.714844 L 372 353.285156 L 3.015625 353.285156 Z M 3.015625 21.714844 " clip-rule="nonzero"/></clipPath><clipPath id="e6e17a7204"><path d="M 20.265625 21.714844 L 354.734375 21.714844 C 364.261719 21.714844 371.984375 29.4375 371.984375 38.964844 L 371.984375 336.035156 C 371.984375 345.5625 364.261719 353.285156 354.734375 353.285156 L 20.265625 353.285156 C 10.738281 353.285156 3.015625 345.5625 3.015625 336.035156 L 3.015625 38.964844 C 3.015625 29.4375 10.738281 21.714844 20.265625 21.714844 Z M 20.265625 21.714844 " clip-rule="nonzero"/></clipPath><clipPath id="945dd7d29e"><path d="M 32.5625 43 L 342.3125 43 L 342.3125 333 L 32.5625 333 Z M 32.5625 43 " clip-rule="nonzero"/></clipPath><clipPath id="20f0327322"><path d="M 32.5625 43 L 342 43 L 342 333 L 32.5625 333 Z M 32.5625 43 " clip-rule="nonzero"/></clipPath></defs><g clip-path="url(#7f167e1822)"><g clip-path="url(#e6e17a7204)"><path fill="#fce7f3" d="M 3.015625 21.714844 L 372.148438 21.714844 L 372.148438 353.285156 L 3.015625 353.285156 Z M 3.015625 21.714844 " fill-opacity="1" fill-rule="nonzero"/></g></g><g clip-path="url(#945dd7d29e)"><path fill="#ffffff" d="M 341.929688 101.566406 C 341.542969 100.21875 340.292969 99.351562 337.890625 98.101562 C 334.910156 96.46875 333.371094 95.121094 333.753906 91.753906 C 333.949219 89.832031 332.601562 87.523438 331.253906 86.082031 C 329.140625 83.773438 326.160156 82.621094 323.082031 82.910156 C 319.617188 83.292969 316.542969 85.410156 314.617188 88.773438 C 309.039062 98.390625 303.367188 108.199219 297.886719 117.625 L 293.558594 125.125 C 291.058594 129.453125 288.652344 133.683594 286.152344 138.011719 L 285.289062 139.453125 L 281.441406 110.316406 L 281.34375 109.355469 L 257.496094 112.527344 L 255.089844 94.160156 L 254.996094 93.199219 L 207.394531 99.449219 C 206.914062 97.71875 206.527344 95.890625 206.144531 94.160156 C 204.699219 88.292969 203.257812 82.523438 201.816406 76.65625 C 199.21875 66.175781 193.835938 62.90625 182.390625 65.117188 C 178.640625 56.847656 172.582031 54.730469 161.617188 57.425781 C 161.042969 57.617188 160.367188 57.714844 159.792969 57.90625 C 159.3125 56.175781 158.925781 54.347656 158.445312 52.617188 C 157.964844 50.789062 157.097656 49.058594 155.945312 47.519531 C 152.484375 43.480469 146.714844 42.421875 142.097656 45.019531 C 137.769531 47.519531 135.652344 52.519531 136.710938 57.425781 C 137.191406 59.445312 137.671875 61.367188 138.152344 63.386719 C 109.976562 70.3125 81.703125 77.332031 53.816406 84.351562 C 41.316406 87.523438 37.277344 94.257812 40.449219 106.949219 C 47.664062 135.894531 54.777344 164.746094 61.992188 193.691406 C 64.011719 201.769531 66.03125 209.847656 67.953125 217.925781 C 66.605469 218.117188 65.355469 218.886719 64.492188 220.039062 L 33.8125 261.105469 C 32.949219 262.257812 32.5625 263.699219 32.757812 265.140625 C 32.949219 266.585938 33.71875 267.835938 34.871094 268.699219 L 43.046875 274.757812 L 49.777344 279.757812 C 50.738281 280.527344 51.894531 280.816406 53.046875 280.816406 C 54.683594 280.816406 56.414062 280.046875 57.472656 278.605469 L 76.703125 252.832031 C 78.917969 261.679688 81.128906 270.625 83.339844 279.375 C 84.207031 282.742188 85.261719 285.53125 86.511719 287.742188 C 89.109375 295.914062 96.707031 301.300781 104.976562 301.300781 C 106.417969 301.300781 107.957031 301.109375 109.496094 300.722656 L 133.152344 294.859375 L 135.941406 316.207031 L 159.792969 313.03125 L 162.292969 332.363281 L 273.460938 317.746094 L 273.746094 317.746094 L 274.613281 316.878906 C 274.902344 316.785156 275.285156 316.6875 275.480469 316.398438 L 303.175781 288.125 C 303.175781 288.125 303.175781 288.03125 303.269531 288.03125 L 304.617188 286.683594 L 289.519531 172.054688 L 299.425781 154.9375 L 299.710938 155.128906 L 330.390625 102.140625 L 333.46875 103.777344 L 318.851562 129.066406 C 317.886719 130.703125 316.925781 132.335938 316.0625 133.972656 C 313.367188 138.492188 310.675781 143.203125 308.175781 147.917969 C 307.597656 149.070312 307.886719 150.417969 308.175781 151.761719 C 308.269531 152.339844 308.464844 152.820312 308.464844 153.300781 L 308.65625 154.746094 L 310.964844 153.492188 C 311.925781 152.917969 312.984375 152.339844 313.945312 151.761719 C 314.425781 151.472656 314.617188 150.992188 314.714844 150.707031 C 314.714844 150.609375 314.8125 150.511719 314.8125 150.417969 C 323.175781 135.894531 331.542969 121.375 340.007812 106.855469 C 341.542969 104.640625 342.3125 103.007812 341.929688 101.566406 Z M 147.480469 61.078125 C 147.097656 59.347656 146.617188 57.519531 146.230469 55.789062 C 146.039062 54.828125 145.847656 53.769531 147.195312 53.480469 C 148.539062 53.191406 149.019531 53.960938 149.308594 55.117188 C 149.695312 56.847656 150.175781 58.675781 150.558594 60.40625 C 149.5 60.597656 148.445312 60.789062 147.480469 61.078125 Z M 145.75 47.132812 C 147.195312 46.75 148.730469 46.847656 150.175781 47.421875 C 153.253906 48.480469 154.695312 50.789062 155.464844 53.867188 C 155.847656 55.5 156.234375 57.136719 156.714844 58.867188 C 155.753906 59.15625 154.695312 59.347656 153.734375 59.636719 C 153.253906 57.519531 152.675781 55.5 152.195312 53.386719 C 151.519531 51.171875 149.308594 49.828125 147.097656 50.117188 C 144.5 50.308594 142.578125 52.617188 142.867188 55.210938 C 142.867188 55.5 142.960938 55.789062 143.058594 56.078125 C 143.539062 58 144.019531 60.019531 144.5 61.945312 C 143.441406 62.234375 142.480469 62.425781 141.421875 62.714844 C 140.941406 60.789062 140.460938 58.769531 139.980469 56.847656 C 138.828125 52.421875 141.519531 48.191406 145.75 47.132812 Z M 145.75 47.132812 " fill-opacity="1" fill-rule="nonzero"/></g><path fill="#ac1754" d="M 274.710938 271.683594 L 248.167969 298.800781 L 248.070312 298.414062 L 245.089844 275.527344 Z M 144.40625 75.601562 C 144.5 75.886719 144.597656 76.175781 144.597656 76.5625 C 144.789062 77.234375 144.886719 77.90625 145.078125 78.582031 C 145.367188 79.542969 145.558594 80.601562 145.75 81.5625 L 149.40625 80.695312 C 149.214844 80.601562 149.019531 80.40625 148.828125 80.3125 C 148.636719 80.121094 148.539062 79.734375 148.445312 79.445312 C 148.15625 78.292969 147.867188 77.042969 147.578125 75.886719 C 147.480469 75.601562 147.386719 75.3125 147.386719 74.925781 C 147.289062 74.636719 147.195312 74.253906 147.195312 73.964844 C 146.328125 70.597656 145.558594 67.136719 144.695312 63.769531 C 143.636719 64.058594 142.675781 64.253906 141.617188 64.539062 C 142.480469 67.90625 143.25 71.367188 144.117188 74.734375 C 144.210938 74.925781 144.308594 75.3125 144.40625 75.601562 Z M 150.558594 74.0625 C 150.65625 74.347656 150.75 74.636719 150.75 75.023438 C 150.945312 75.886719 151.234375 76.851562 151.425781 77.714844 C 151.617188 78.292969 151.714844 78.964844 151.714844 79.640625 C 151.714844 79.832031 151.617188 80.023438 151.519531 80.121094 L 154.984375 79.253906 C 154.984375 79.253906 154.984375 79.253906 155.078125 79.253906 C 154.695312 77.621094 154.308594 75.984375 153.828125 74.253906 C 153.734375 73.964844 153.636719 73.675781 153.636719 73.292969 C 153.539062 73.003906 153.445312 72.617188 153.445312 72.332031 C 152.578125 68.964844 151.808594 65.503906 150.945312 62.136719 C 149.886719 62.425781 148.925781 62.617188 147.867188 62.90625 C 148.730469 66.273438 149.5 69.734375 150.367188 73.097656 C 150.464844 73.386719 150.558594 73.773438 150.558594 74.0625 Z M 190.660156 103.679688 C 190.566406 103.390625 190.46875 103.007812 190.371094 102.71875 C 190.277344 102.429688 190.179688 102.046875 190.082031 101.757812 C 187.390625 91.46875 187.101562 90.3125 185.949219 85.503906 C 185.277344 82.8125 184.410156 79.0625 182.582031 71.945312 C 182.199219 70.3125 181.71875 68.773438 181.238281 67.425781 C 181.140625 67.136719 181.042969 66.847656 180.851562 66.558594 C 180.753906 66.273438 180.5625 65.984375 180.46875 65.695312 C 178.160156 60.597656 174.792969 58.386719 169.503906 58.386719 C 167.386719 58.386719 164.984375 58.769531 162.097656 59.445312 C 159.40625 60.117188 156.808594 60.789062 154.117188 61.464844 C 154.984375 64.828125 155.753906 68.292969 156.617188 71.65625 C 156.714844 71.945312 156.808594 72.332031 156.808594 72.617188 C 156.90625 72.90625 157.003906 73.195312 157.003906 73.582031 C 157.484375 75.40625 157.867188 77.234375 158.347656 79.15625 C 162.292969 79.542969 165.65625 82.425781 166.714844 86.371094 L 170.660156 102.527344 C 170.851562 103.199219 170.945312 103.871094 170.945312 104.546875 C 170.945312 104.835938 170.945312 105.21875 170.945312 105.507812 C 170.945312 105.796875 170.851562 106.179688 170.851562 106.46875 C 170.660156 107.621094 170.273438 108.777344 169.601562 109.835938 C 168.253906 112.046875 166.136719 113.585938 163.636719 114.164062 L 112.957031 126.664062 L 111.035156 127.046875 L 79.109375 134.933594 C 78.339844 135.125 77.570312 135.222656 76.800781 135.222656 C 72.472656 135.222656 68.53125 132.242188 67.472656 127.914062 L 63.53125 111.757812 C 62.953125 109.257812 63.335938 106.660156 64.585938 104.449219 C 65.933594 102.238281 68.050781 100.699219 70.550781 100.121094 L 142.675781 82.234375 C 142.289062 80.601562 141.808594 78.964844 141.421875 77.234375 C 141.328125 76.945312 141.230469 76.65625 141.230469 76.273438 C 141.136719 75.984375 141.039062 75.601562 141.039062 75.3125 C 140.65625 73.675781 140.269531 72.136719 139.886719 70.503906 C 139.40625 68.675781 139.019531 66.945312 138.539062 65.117188 C 110.457031 72.136719 82.1875 79.253906 54.296875 86.179688 C 42.757812 89.0625 39.488281 94.738281 42.371094 106.46875 C 49.585938 135.414062 56.703125 164.265625 63.914062 193.210938 C 65.933594 201.382812 67.953125 209.65625 70.070312 217.925781 C 70.839844 218.117188 71.609375 218.40625 72.28125 218.886719 L 73.914062 220.136719 C 74.011719 220.136719 74.109375 220.136719 74.109375 220.136719 C 74.109375 220.136719 74.203125 220.136719 74.394531 219.753906 L 74.492188 219.65625 C 75.839844 217.734375 77.28125 215.808594 78.722656 213.886719 C 76.800781 211.578125 75.164062 209.269531 73.820312 206.769531 C 67.855469 198.308594 65.261719 188.59375 66.316406 177.726562 C 66.800781 172.632812 68.242188 167.824219 70.453125 163.496094 C 70.644531 163.015625 70.933594 162.628906 71.125 162.148438 C 71.320312 161.765625 71.609375 161.378906 71.800781 160.996094 C 79.878906 147.339844 95.359375 138.492188 111.804688 139.933594 C 112.09375 139.933594 112.476562 140.03125 112.765625 140.03125 C 113.054688 140.03125 113.441406 140.128906 113.726562 140.128906 C 114.015625 140.128906 114.402344 140.222656 114.691406 140.320312 C 124.210938 141.761719 132.480469 146.183594 138.730469 152.726562 C 139.117188 153.109375 139.5 153.492188 139.886719 153.976562 C 140.269531 154.457031 140.65625 154.839844 141.039062 155.320312 C 142.675781 157.339844 144.210938 159.550781 145.460938 161.957031 C 150.65625 169.265625 153.636719 178.304688 153.636719 188.402344 C 153.539062 195.421875 151.617188 202.25 147.964844 208.210938 C 147.675781 208.597656 147.386719 209.078125 147.195312 209.460938 C 147 209.75 146.808594 210.039062 146.617188 210.328125 C 146.519531 210.425781 146.425781 210.617188 146.328125 210.710938 C 140.75 218.597656 133.921875 224.078125 126.132812 226.964844 C 125.84375 227.0625 125.554688 227.15625 125.171875 227.347656 C 124.882812 227.445312 124.59375 227.542969 124.210938 227.636719 C 117.960938 229.5625 111.132812 230.042969 103.628906 228.984375 C 99.109375 228.3125 94.878906 226.773438 90.9375 224.464844 C 90.359375 224.175781 90.359375 224.175781 89.976562 224.65625 C 89.398438 225.523438 88.726562 226.386719 88.148438 227.15625 C 87.957031 227.445312 87.761719 227.734375 87.476562 228.023438 C 87.476562 228.117188 87.378906 228.117188 87.378906 228.214844 C 87.089844 228.597656 86.898438 228.886719 86.609375 229.273438 C 86.417969 229.464844 86.320312 229.65625 86.226562 229.851562 L 86.898438 230.425781 L 86.992188 230.523438 C 87.476562 230.90625 87.957031 231.386719 88.242188 231.867188 C 88.917969 232.925781 89.207031 234.175781 89.109375 235.425781 C 89.011719 236.101562 88.917969 236.675781 88.628906 237.351562 C 88.4375 237.640625 88.339844 237.925781 88.148438 238.214844 L 78.148438 251.582031 C 80.453125 261.007812 82.859375 270.335938 85.167969 279.664062 C 85.261719 280.144531 85.457031 280.527344 85.550781 281.011719 C 86.03125 273.703125 90.648438 267.160156 97.667969 264.277344 C 97.957031 264.179688 98.339844 263.988281 98.726562 263.890625 C 99.109375 263.796875 99.496094 263.605469 99.878906 263.507812 C 99.878906 263.507812 99.976562 263.507812 99.976562 263.507812 L 128.058594 256.296875 L 129.980469 255.71875 L 151.617188 250.140625 L 153.539062 249.5625 L 188.832031 240.429688 C 188.640625 239.464844 188.351562 238.503906 188.0625 237.445312 C 187.871094 236.871094 187.777344 236.195312 187.582031 235.523438 C 187.101562 233.601562 186.621094 231.582031 186.140625 229.5625 C 185.949219 228.984375 185.851562 228.3125 185.660156 227.636719 C 183.929688 220.523438 182.003906 212.925781 180.179688 205.328125 C 179.984375 204.652344 179.890625 204.078125 179.699219 203.402344 C 179.21875 201.382812 178.734375 199.460938 178.253906 197.441406 C 178.0625 196.769531 177.964844 196.191406 177.773438 195.519531 C 174.984375 184.460938 172.484375 174.457031 170.851562 168.207031 C 168.640625 159.839844 169.792969 152.726562 174.410156 145.992188 C 175.949219 143.683594 177.484375 141.28125 178.929688 138.875 C 179.410156 138.203125 179.792969 137.433594 180.273438 136.761719 C 180.660156 136.183594 181.042969 135.605469 181.332031 135.03125 C 182.292969 133.394531 183.351562 131.761719 184.410156 130.125 C 184.890625 129.453125 185.273438 128.683594 185.757812 128.011719 C 185.851562 127.816406 186.042969 127.625 186.140625 127.433594 C 186.621094 126.761719 187.101562 125.992188 187.488281 125.316406 C 187.777344 124.835938 188.160156 124.355469 188.449219 123.875 C 188.546875 123.777344 188.546875 123.683594 188.640625 123.683594 C 188.832031 123.394531 189.027344 123.105469 189.21875 122.816406 C 189.410156 122.433594 189.601562 122.144531 189.796875 121.757812 C 192.488281 116.949219 192.96875 112.046875 191.429688 106.179688 C 191.046875 105.121094 190.757812 104.449219 190.660156 103.679688 Z M 122.382812 213.40625 C 118.054688 215.328125 113.34375 216.386719 108.4375 216.386719 L 108.4375 217.347656 L 108.4375 216.386719 C 98.148438 216.386719 89.011719 211.769531 82.761719 204.652344 C 82.28125 204.078125 81.800781 203.5 81.320312 202.921875 C 81.222656 202.730469 81.03125 202.539062 80.933594 202.441406 C 80.261719 201.191406 79.683594 199.941406 79.203125 198.597656 C 78.339844 196.382812 77.761719 193.980469 77.472656 191.671875 C 77.28125 190.132812 77.183594 188.59375 77.183594 186.960938 C 77.183594 186.765625 77.183594 186.574219 77.183594 186.382812 C 77.183594 185.324219 77.28125 184.171875 77.378906 183.113281 C 79.203125 166.089844 93.4375 152.726562 110.746094 152.628906 L 110.9375 152.628906 C 111.035156 152.628906 111.035156 152.628906 111.132812 152.628906 C 112.285156 152.628906 113.34375 152.726562 114.496094 152.820312 C 114.785156 152.820312 115.171875 152.917969 115.460938 152.917969 C 115.746094 152.917969 116.132812 153.011719 116.421875 153.011719 C 125.554688 154.457031 133.539062 159.550781 138.730469 166.667969 C 139.980469 169.167969 140.941406 171.765625 141.617188 174.554688 C 142.097656 176.671875 142.386719 178.882812 142.480469 181.191406 C 142.480469 181.574219 142.480469 181.863281 142.480469 182.246094 C 142.480469 191.382812 139.019531 199.941406 132.578125 206.480469 C 130.078125 208.980469 127.289062 211.097656 124.210938 212.730469 C 123.921875 212.925781 123.632812 213.019531 123.34375 213.214844 C 122.960938 213.117188 122.671875 213.214844 122.382812 213.40625 Z M 121.902344 209.847656 C 122.191406 209.65625 122.480469 209.558594 122.769531 209.367188 C 123.054688 209.175781 123.34375 208.980469 123.632812 208.886719 C 131.902344 203.980469 137.480469 194.84375 137.480469 184.554688 C 137.480469 171.574219 128.730469 160.609375 116.804688 157.246094 C 116.515625 157.148438 116.132812 157.050781 115.84375 156.957031 C 115.554688 156.859375 115.171875 156.761719 114.882812 156.761719 C 113.054688 156.378906 111.132812 156.1875 109.207031 156.1875 C 93.535156 156.1875 80.839844 168.878906 80.839844 184.554688 C 80.839844 200.230469 93.535156 212.925781 109.207031 212.925781 C 113.824219 212.828125 118.054688 211.675781 121.902344 209.847656 Z M 228.933594 133.972656 C 225.855469 130.894531 222.78125 127.816406 219.703125 124.742188 L 220.855469 134.164062 C 221.050781 135.992188 222.78125 137.339844 224.605469 137.144531 L 239.800781 135.222656 C 241.628906 135.03125 242.976562 133.300781 242.78125 131.472656 L 241.628906 122.335938 C 237.78125 126.183594 233.839844 130.125 229.992188 133.972656 C 229.609375 134.355469 229.320312 134.355469 228.933594 133.972656 Z M 219.03125 119.546875 L 219.125 120.703125 L 219.316406 122.625 L 219.511719 123.777344 C 219.511719 123.777344 219.605469 123.683594 219.605469 123.683594 C 219.992188 123.296875 220.472656 122.914062 220.855469 122.433594 C 220.953125 122.335938 220.953125 122.335938 221.050781 122.238281 C 221.53125 121.757812 221.914062 121.375 222.394531 120.894531 C 222.972656 120.316406 223.261719 120.414062 223.742188 120.988281 C 225.28125 122.527344 226.820312 123.972656 228.261719 125.605469 C 229.03125 126.472656 229.511719 126.566406 230.28125 125.605469 C 233.070312 122.722656 235.953125 119.933594 238.742188 117.046875 C 238.839844 116.949219 239.03125 116.757812 239.128906 116.664062 C 239.800781 115.988281 240.1875 115.894531 240.761719 116.375 L 240.761719 116.277344 C 240.761719 116.085938 240.667969 115.894531 240.667969 115.699219 C 240.570312 115.414062 240.378906 115.027344 240.28125 114.835938 C 239.609375 113.777344 238.359375 113.199219 237.011719 113.296875 L 221.820312 115.21875 C 220.472656 115.414062 219.316406 116.375 219.03125 117.625 C 218.933594 117.914062 218.933594 118.296875 218.933594 118.585938 C 218.933594 118.683594 218.933594 118.875 218.933594 118.96875 Z M 245.089844 149.742188 L 247.015625 164.9375 C 247.207031 166.765625 245.957031 168.496094 244.03125 168.6875 L 228.839844 170.613281 C 227.011719 170.804688 225.28125 169.554688 225.089844 167.628906 L 223.164062 152.4375 C 222.972656 150.609375 224.222656 148.878906 226.144531 148.6875 L 241.339844 146.761719 C 243.167969 146.570312 244.800781 147.917969 245.089844 149.742188 Z M 242.78125 151.667969 C 241.726562 150.992188 240.761719 150.222656 239.800781 149.359375 C 239.222656 148.78125 238.839844 148.972656 238.453125 149.550781 C 237.398438 150.992188 236.148438 152.4375 235.089844 153.878906 C 234.703125 154.457031 234.320312 154.457031 233.839844 154.070312 C 232.398438 152.917969 230.859375 151.761719 229.414062 150.609375 C 228.933594 150.222656 228.644531 150.222656 228.261719 150.707031 C 227.492188 151.761719 226.722656 152.820312 225.855469 153.78125 C 225.375 154.359375 225.375 154.648438 226.050781 155.128906 C 227.492188 156.1875 228.839844 157.339844 230.28125 158.398438 C 230.953125 158.878906 231.050781 159.265625 230.472656 159.839844 C 229.320312 161.285156 228.261719 162.726562 227.109375 164.167969 C 226.722656 164.648438 226.625 164.9375 227.203125 165.324219 C 228.261719 166.089844 229.320312 166.957031 230.378906 167.726562 C 230.953125 168.207031 231.242188 168.109375 231.628906 167.535156 C 232.683594 166.089844 233.933594 164.648438 234.992188 163.207031 C 235.472656 162.628906 235.761719 162.535156 236.339844 163.015625 C 237.6875 164.167969 239.128906 165.226562 240.570312 166.285156 C 240.859375 166.476562 241.050781 166.765625 241.4375 166.765625 C 241.53125 166.574219 241.726562 166.378906 241.917969 166.1875 C 242.6875 165.226562 243.457031 164.167969 244.226562 163.207031 C 244.707031 162.628906 244.800781 162.246094 244.03125 161.765625 C 242.589844 160.707031 241.242188 159.550781 239.800781 158.496094 C 239.222656 158.015625 239.128906 157.726562 239.609375 157.148438 C 240.761719 155.800781 241.820312 154.359375 242.976562 152.917969 C 243.457031 152.53125 243.550781 152.148438 242.78125 151.667969 Z M 245.1875 180.996094 L 229.992188 182.921875 C 228.164062 183.113281 226.820312 184.84375 227.011719 186.671875 L 227.394531 189.652344 C 228.261719 188.882812 229.03125 188.015625 229.800781 187.25 C 230.378906 186.671875 230.664062 186.765625 231.144531 187.34375 C 232.683594 188.882812 234.222656 190.324219 235.667969 191.960938 C 236.4375 192.824219 236.917969 192.921875 237.6875 191.960938 C 240.570312 188.980469 243.648438 186.09375 246.53125 183.015625 C 247.300781 182.246094 247.6875 182.246094 248.359375 183.015625 C 248.457031 183.113281 248.550781 183.210938 248.648438 183.304688 C 248.359375 181.765625 246.820312 180.804688 245.1875 180.996094 Z M 236.339844 200.328125 C 233.453125 197.441406 230.664062 194.652344 227.78125 191.769531 L 229.03125 201.867188 C 229.222656 203.691406 230.953125 205.039062 232.78125 204.847656 L 247.976562 202.921875 C 248.550781 202.828125 249.035156 202.632812 249.417969 202.347656 L 250.957031 199.75 C 250.957031 199.558594 250.957031 199.363281 250.957031 199.078125 L 249.609375 188.113281 C 245.570312 192.152344 241.53125 196.191406 237.492188 200.230469 C 237.011719 200.710938 236.722656 200.808594 236.339844 200.328125 Z M 249.707031 230.523438 C 249.035156 230.234375 248.359375 229.851562 247.6875 229.5625 L 242.976562 233.40625 L 243.839844 227.542969 C 243.746094 227.445312 243.648438 227.445312 243.550781 227.347656 C 240.570312 225.8125 241.242188 223.40625 241.628906 221.578125 C 241.726562 221.195312 241.820312 220.90625 241.917969 220.617188 C 242.207031 219.175781 242.398438 217.734375 242.6875 216.195312 C 242.6875 216.195312 242.6875 216.195312 242.6875 216.097656 L 234.609375 217.058594 C 232.78125 217.25 231.433594 218.984375 231.628906 220.808594 L 233.550781 236.003906 C 233.742188 237.832031 235.472656 239.175781 237.300781 238.984375 L 252.496094 237.0625 C 254.324219 236.871094 255.667969 235.140625 255.476562 233.3125 L 254.804688 227.542969 C 254.035156 228.214844 253.167969 228.886719 252.398438 229.5625 C 251.535156 230.234375 250.859375 230.617188 250.285156 230.617188 C 250.089844 230.617188 249.898438 230.617188 249.707031 230.523438 Z M 221.242188 274.757812 C 221.050781 272.933594 219.316406 271.585938 217.492188 271.777344 L 202.007812 273.703125 L 200.46875 273.894531 C 199.988281 273.988281 199.507812 274.085938 199.125 274.375 C 198.160156 274.953125 197.488281 276.007812 197.488281 277.164062 C 197.488281 277.355469 197.488281 277.546875 197.488281 277.738281 L 197.585938 278.125 L 197.679688 279.085938 L 198.546875 286.105469 C 198.738281 287.933594 200.46875 289.28125 202.296875 289.085938 L 204.316406 288.800781 L 219.414062 286.875 C 221.242188 286.683594 222.585938 284.953125 222.394531 283.125 Z M 257.59375 248.792969 L 222.394531 253.410156 L 222.683594 255.332031 L 257.878906 250.71875 Z M 323.371094 84.832031 C 320.582031 85.121094 317.984375 86.949219 316.347656 89.734375 C 310.773438 99.351562 305.097656 109.160156 299.617188 118.585938 L 295.289062 126.085938 C 294.519531 127.527344 293.652344 128.875 292.886719 130.316406 C 292.691406 130.605469 292.597656 130.894531 292.402344 131.183594 C 290.867188 133.78125 289.421875 136.375 287.882812 139.070312 L 285.769531 142.722656 L 285 144.070312 L 284.808594 144.453125 L 285 144.550781 L 285.09375 144.550781 L 286.152344 145.128906 L 292.019531 148.589844 L 299.425781 136.28125 L 299.90625 135.414062 L 300.386719 134.550781 L 329.140625 86.660156 C 327.503906 85.3125 325.484375 84.640625 323.371094 84.832031 Z M 85.9375 231.484375 L 85.261719 231.003906 L 84.398438 230.332031 L 84.109375 230.136719 C 84.207031 230.90625 84.011719 231.675781 83.820312 232.351562 C 83.628906 232.832031 83.4375 233.3125 83.050781 233.792969 L 76.128906 243.023438 L 75.359375 243.984375 L 74.589844 245.042969 L 52.953125 274.277344 L 52.46875 274.953125 C 52.46875 274.953125 52.375 275.046875 52.375 275.046875 C 52.183594 275.335938 51.988281 275.527344 51.699219 275.816406 C 51.027344 276.394531 50.164062 276.777344 49.296875 277.066406 L 51.027344 278.316406 C 52.566406 279.472656 54.777344 279.183594 56.027344 277.546875 L 76.128906 250.523438 L 76.898438 249.46875 L 77.664062 248.503906 L 86.707031 236.390625 C 87.761719 234.945312 87.476562 232.636719 85.9375 231.484375 Z M 85.9375 231.484375 " fill-opacity="1" fill-rule="nonzero"/><g clip-path="url(#20f0327322)"><path fill="#000000" d="M 214.027344 155.511719 L 214.316406 157.4375 L 201.046875 159.167969 L 199.699219 159.359375 L 198.355469 159.550781 L 182.101562 161.667969 L 181.8125 159.746094 L 199.988281 157.339844 L 201.335938 157.148438 L 202.679688 156.957031 Z M 229.992188 133.972656 C 233.839844 130.125 237.78125 126.183594 241.628906 122.335938 C 242.300781 121.664062 242.976562 120.988281 243.746094 120.21875 C 243.9375 120.027344 244.03125 119.933594 244.128906 119.738281 C 243.9375 119.453125 243.746094 119.257812 243.550781 119.066406 C 242.78125 118.296875 241.917969 117.527344 241.148438 116.664062 C 241.148438 116.664062 241.148438 116.664062 241.148438 116.566406 C 241.050781 116.46875 240.957031 116.375 240.859375 116.277344 C 240.28125 115.796875 239.898438 115.894531 239.222656 116.566406 C 239.128906 116.664062 238.9375 116.855469 238.839844 116.949219 C 236.050781 119.835938 233.164062 122.625 230.378906 125.511719 C 229.511719 126.375 229.128906 126.277344 228.359375 125.511719 C 226.914062 123.972656 225.28125 122.433594 223.835938 120.894531 C 223.355469 120.414062 222.972656 120.21875 222.492188 120.796875 C 222.105469 121.277344 221.625 121.757812 221.144531 122.144531 C 221.050781 122.238281 221.050781 122.238281 220.953125 122.335938 C 220.566406 122.722656 220.085938 123.105469 219.703125 123.585938 C 219.605469 123.683594 219.605469 123.683594 219.605469 123.683594 C 219.316406 123.972656 219.316406 124.257812 219.703125 124.644531 C 222.78125 127.722656 225.855469 130.800781 228.933594 133.875 C 229.320312 134.355469 229.609375 134.355469 229.992188 133.972656 Z M 251.148438 186.671875 C 251.339844 186.480469 251.4375 186.382812 251.535156 186.191406 C 251.339844 185.902344 251.148438 185.710938 250.957031 185.515625 C 250.285156 184.84375 249.515625 184.074219 248.839844 183.402344 C 248.746094 183.304688 248.648438 183.210938 248.550781 183.113281 C 247.878906 182.34375 247.398438 182.34375 246.726562 183.113281 C 243.839844 186.09375 240.761719 188.980469 237.878906 192.054688 C 237.011719 192.921875 236.628906 192.824219 235.859375 192.054688 C 234.417969 190.519531 232.78125 188.980469 231.339844 187.441406 C 230.859375 186.960938 230.472656 186.765625 229.992188 187.34375 C 229.222656 188.210938 228.359375 188.980469 227.589844 189.75 C 227.492188 189.84375 227.300781 190.035156 227.203125 190.132812 C 226.820312 190.519531 226.722656 190.804688 227.203125 191.191406 C 227.394531 191.382812 227.683594 191.671875 227.875 191.863281 C 230.761719 194.75 233.648438 197.539062 236.4375 200.421875 C 236.820312 200.808594 237.109375 200.808594 237.492188 200.421875 C 241.53125 196.382812 245.570312 192.34375 249.609375 188.304688 C 250.089844 187.730469 250.570312 187.152344 251.148438 186.671875 Z M 227.109375 164.167969 C 226.722656 164.648438 226.625 164.9375 227.203125 165.324219 C 228.261719 166.089844 229.320312 166.957031 230.378906 167.726562 C 230.953125 168.207031 231.242188 168.109375 231.628906 167.535156 C 232.683594 166.089844 233.933594 164.648438 234.992188 163.207031 C 235.472656 162.628906 235.761719 162.535156 236.339844 163.015625 C 237.6875 164.167969 239.128906 165.226562 240.570312 166.285156 C 240.859375 166.476562 241.050781 166.765625 241.4375 166.765625 C 241.53125 166.574219 241.726562 166.378906 241.917969 166.1875 C 242.6875 165.226562 243.457031 164.167969 244.226562 163.207031 C 244.707031 162.628906 244.800781 162.246094 244.03125 161.765625 C 242.589844 160.707031 241.242188 159.550781 239.800781 158.496094 C 239.222656 158.015625 239.128906 157.726562 239.609375 157.148438 C 240.761719 155.800781 241.820312 154.359375 242.976562 152.917969 C 243.457031 152.339844 243.550781 151.957031 242.878906 151.472656 C 241.820312 150.800781 240.859375 150.03125 239.898438 149.167969 C 239.320312 148.589844 238.9375 148.78125 238.550781 149.359375 C 237.492188 150.800781 236.242188 152.242188 235.183594 153.6875 C 234.800781 154.261719 234.417969 154.261719 233.933594 153.878906 C 232.492188 152.726562 230.953125 151.570312 229.511719 150.417969 C 229.03125 150.03125 228.742188 150.03125 228.359375 150.511719 C 227.589844 151.570312 226.820312 152.628906 225.953125 153.589844 C 225.472656 154.167969 225.472656 154.457031 226.144531 154.9375 C 227.589844 155.996094 228.933594 157.148438 230.378906 158.207031 C 231.050781 158.6875 231.144531 159.070312 230.570312 159.648438 C 229.320312 161.285156 228.261719 162.820312 227.109375 164.167969 Z M 206.238281 264.757812 C 206.527344 267.160156 204.796875 269.375 202.488281 269.664062 L 201.144531 269.855469 L 198.160156 270.238281 L 189.121094 271.394531 L 186.71875 271.683594 L 183.160156 272.164062 L 156.90625 275.433594 L 155.945312 275.527344 L 154.984375 275.625 L 151.234375 276.105469 C 151.039062 276.105469 150.847656 276.105469 150.65625 276.105469 C 148.445312 276.105469 146.617188 274.46875 146.328125 272.257812 L 145.269531 263.890625 C 144.980469 261.488281 146.714844 259.277344 149.019531 258.988281 L 152.578125 258.507812 L 153.539062 258.410156 L 154.503906 258.316406 L 191.910156 253.601562 L 192.871094 253.507812 L 193.835938 253.410156 L 193.929688 253.410156 L 197.390625 253.027344 L 200.375 252.640625 C 202.777344 252.351562 204.988281 254.082031 205.277344 256.390625 Z M 204.316406 265.046875 L 203.257812 256.582031 C 203.066406 255.238281 201.910156 254.277344 200.566406 254.46875 L 197.777344 254.851562 L 194.316406 255.238281 L 194.21875 255.238281 L 193.257812 255.332031 L 192.296875 255.429688 L 154.789062 260.140625 L 152.867188 260.335938 L 149.214844 260.816406 C 147.867188 261.007812 146.90625 262.160156 147.097656 263.507812 L 148.15625 271.96875 C 148.347656 273.316406 149.5 274.277344 150.847656 274.085938 L 154.503906 273.605469 L 155.464844 273.507812 L 156.425781 273.414062 L 188.351562 269.375 L 190.082031 269.179688 L 191.527344 268.988281 L 197.390625 268.21875 L 202.007812 267.644531 C 203.546875 267.644531 204.507812 266.394531 204.316406 265.046875 Z M 157.003906 284.566406 L 157.964844 284.472656 L 178.929688 281.683594 L 187.390625 280.527344 L 193.257812 279.757812 L 193.160156 279.085938 L 193.066406 278.125 L 193.066406 277.835938 L 157.773438 282.453125 L 156.808594 282.546875 L 155.847656 282.644531 L 147.675781 283.703125 L 147.964844 285.625 L 156.136719 284.566406 Z M 158.734375 290.53125 L 157.773438 290.625 L 156.808594 290.722656 L 148.058594 291.875 L 148.347656 293.800781 L 157.097656 292.644531 L 158.058594 292.550781 L 159.023438 292.453125 L 193.835938 287.835938 L 193.546875 285.914062 Z M 340.292969 106.855469 C 331.929688 121.375 323.464844 135.894531 315.097656 150.417969 C 315.097656 150.511719 315.003906 150.609375 315.003906 150.707031 C 314.90625 151.089844 314.714844 151.472656 314.234375 151.761719 C 313.273438 152.339844 312.214844 152.917969 311.253906 153.492188 L 308.945312 154.746094 L 308.753906 153.300781 C 308.65625 152.820312 308.558594 152.339844 308.464844 151.761719 C 308.175781 150.417969 307.789062 148.972656 308.464844 147.917969 C 310.964844 143.203125 313.65625 138.492188 316.347656 133.972656 C 317.3125 132.335938 318.273438 130.703125 319.136719 129.066406 L 333.753906 103.777344 L 330.679688 102.140625 L 299.808594 155.226562 L 299.519531 155.03125 L 289.617188 172.148438 L 304.714844 286.78125 L 303.367188 288.125 C 303.367188 288.125 303.367188 288.222656 303.269531 288.222656 L 275.574219 316.496094 C 275.382812 316.6875 275 316.878906 274.710938 316.976562 L 273.84375 317.839844 L 273.554688 317.839844 L 162.386719 332.457031 L 159.886719 313.128906 L 136.039062 316.300781 L 133.25 294.953125 L 109.59375 300.820312 C 108.054688 301.203125 106.613281 301.398438 105.074219 301.398438 C 96.707031 301.398438 89.109375 296.011719 86.609375 287.835938 C 85.359375 285.625 84.300781 282.933594 83.4375 279.472656 C 81.222656 270.625 79.011719 261.777344 76.800781 252.929688 L 57.566406 278.703125 C 56.507812 280.144531 54.875 280.914062 53.144531 280.914062 C 51.988281 280.914062 50.835938 280.527344 49.875 279.855469 L 43.140625 274.855469 L 34.96875 268.796875 C 33.8125 267.929688 33.046875 266.679688 32.851562 265.238281 C 32.660156 263.796875 33.046875 262.355469 33.910156 261.199219 L 64.492188 219.945312 C 65.355469 218.789062 66.605469 218.019531 67.953125 217.828125 C 65.933594 209.75 63.914062 201.671875 61.992188 193.59375 C 54.777344 164.746094 47.566406 135.800781 40.449219 106.949219 C 37.277344 94.257812 41.316406 87.523438 53.816406 84.351562 C 81.800781 77.332031 109.976562 70.3125 138.058594 63.386719 C 137.578125 61.464844 137.097656 59.445312 136.617188 57.425781 C 135.558594 52.519531 137.769531 47.519531 142 45.019531 C 146.617188 42.421875 152.484375 43.480469 155.847656 47.519531 C 157.003906 49.058594 157.867188 50.789062 158.347656 52.617188 C 158.828125 54.347656 159.214844 56.175781 159.695312 57.90625 C 160.273438 57.710938 160.945312 57.617188 161.523438 57.425781 C 172.390625 54.730469 178.542969 56.847656 182.292969 65.117188 C 193.738281 62.90625 199.027344 66.175781 201.71875 76.65625 C 203.164062 82.523438 204.605469 88.292969 206.046875 94.160156 C 206.433594 95.890625 206.914062 97.621094 207.296875 99.449219 L 254.898438 93.199219 L 254.996094 94.160156 L 257.398438 112.527344 L 281.25 109.355469 L 281.34375 110.316406 L 285.191406 139.453125 L 286.058594 138.011719 C 288.558594 133.683594 290.960938 129.355469 293.460938 125.125 L 297.789062 117.625 C 303.269531 108.199219 308.847656 98.390625 314.523438 88.773438 C 316.445312 85.410156 319.523438 83.292969 322.984375 82.910156 C 326.0625 82.621094 328.945312 83.773438 331.160156 86.082031 C 332.410156 87.523438 333.851562 89.832031 333.660156 91.753906 C 333.273438 95.023438 334.71875 96.46875 337.792969 98.101562 C 340.292969 99.449219 341.449219 100.21875 341.832031 101.566406 C 342.3125 103.007812 341.542969 104.640625 340.292969 106.855469 Z M 257.878906 114.449219 L 265.765625 174.167969 L 282.5 145.128906 L 282.308594 145.03125 L 283.941406 142.242188 L 279.902344 111.566406 Z M 139.789062 56.75 C 140.269531 58.675781 140.75 60.695312 141.230469 62.617188 C 142.289062 62.328125 143.25 62.136719 144.308594 61.847656 C 143.828125 59.925781 143.347656 57.90625 142.867188 55.980469 C 142.769531 55.695312 142.769531 55.40625 142.675781 55.117188 C 142.480469 52.519531 144.308594 50.210938 146.90625 50.019531 C 149.214844 49.730469 151.328125 51.078125 152.003906 53.289062 C 152.484375 55.40625 153.058594 57.425781 153.539062 59.539062 C 154.503906 59.25 155.558594 59.058594 156.523438 58.769531 C 156.136719 57.136719 155.753906 55.5 155.273438 53.769531 C 154.503906 50.789062 153.058594 48.386719 149.984375 47.328125 C 148.539062 46.847656 147 46.75 145.558594 47.039062 C 141.519531 48.191406 138.828125 52.421875 139.789062 56.75 Z M 152.675781 90.21875 C 148.539062 91.082031 144.40625 88.679688 143.15625 84.640625 C 143.15625 84.542969 143.058594 84.351562 143.058594 84.160156 L 70.933594 102.046875 C 68.914062 102.527344 67.28125 103.777344 66.222656 105.507812 C 65.164062 107.238281 64.875 109.355469 65.355469 111.375 L 69.300781 127.433594 C 70.355469 131.566406 74.492188 134.070312 78.628906 133.105469 L 110.746094 125.125 L 111.707031 124.933594 L 112.671875 124.742188 L 163.15625 112.238281 C 165.175781 111.757812 166.8125 110.507812 167.871094 108.777344 C 168.253906 108.105469 168.542969 107.429688 168.734375 106.660156 C 168.832031 106.371094 168.832031 105.988281 168.925781 105.699219 C 168.925781 105.410156 169.023438 105.027344 169.023438 104.738281 C 169.023438 104.160156 168.925781 103.582031 168.832031 103.007812 L 164.886719 86.851562 C 164.117188 83.871094 161.714844 81.753906 158.925781 81.175781 C 158.925781 81.273438 158.925781 81.273438 158.925781 81.371094 C 159.695312 85.023438 156.617188 89.351562 152.675781 90.21875 Z M 144.695312 63.675781 C 143.636719 63.964844 142.675781 64.15625 141.617188 64.445312 C 142.480469 67.808594 143.25 71.273438 144.117188 74.636719 C 144.210938 74.925781 144.308594 75.3125 144.308594 75.601562 C 144.40625 75.886719 144.5 76.175781 144.5 76.5625 C 144.695312 77.234375 144.789062 77.90625 144.980469 78.582031 C 145.269531 79.542969 145.460938 80.601562 145.65625 81.5625 L 149.308594 80.695312 C 149.117188 80.601562 148.925781 80.40625 148.730469 80.3125 C 148.539062 80.121094 148.445312 79.734375 148.347656 79.445312 C 148.058594 78.292969 147.769531 77.042969 147.480469 75.886719 C 147.386719 75.601562 147.289062 75.3125 147.289062 74.925781 C 147.195312 74.636719 147.097656 74.253906 147.097656 73.964844 C 146.328125 70.503906 145.558594 67.136719 144.695312 63.675781 Z M 146.136719 55.695312 C 146.519531 57.425781 147 59.25 147.386719 60.984375 C 148.445312 60.695312 149.40625 60.5 150.464844 60.214844 C 150.078125 58.480469 149.597656 56.65625 149.214844 54.925781 C 148.925781 53.769531 148.445312 53 147.097656 53.289062 C 145.847656 53.675781 145.945312 54.730469 146.136719 55.695312 Z M 155.464844 81.082031 L 146.230469 83.390625 C 146.230469 83.484375 146.230469 83.582031 146.328125 83.582031 C 147 86.082031 149.695312 87.621094 152.195312 86.851562 C 154.695312 86.179688 156.136719 83.582031 155.464844 81.082031 Z M 155.078125 79.15625 C 154.695312 77.523438 154.308594 75.886719 153.828125 74.15625 C 153.734375 73.867188 153.636719 73.582031 153.636719 73.195312 C 153.539062 72.90625 153.445312 72.523438 153.445312 72.234375 C 152.578125 68.867188 151.808594 65.40625 150.945312 62.039062 C 149.886719 62.328125 148.925781 62.519531 147.867188 62.808594 C 148.730469 66.175781 149.5 69.636719 150.367188 73.003906 C 150.464844 73.292969 150.558594 73.675781 150.558594 73.964844 C 150.65625 74.253906 150.75 74.542969 150.75 74.925781 C 150.945312 75.792969 151.234375 76.753906 151.425781 77.621094 C 151.617188 78.195312 151.714844 78.871094 151.714844 79.542969 C 151.714844 79.734375 151.617188 79.925781 151.519531 80.023438 L 155.078125 79.15625 C 154.984375 79.253906 155.078125 79.253906 155.078125 79.15625 Z M 48.527344 275.238281 C 49.007812 275.144531 49.488281 274.953125 49.96875 274.664062 C 50.257812 274.46875 50.449219 274.277344 50.738281 273.988281 C 50.835938 273.894531 50.835938 273.894531 50.933594 273.796875 L 51.316406 273.21875 L 52.855469 271.105469 L 74.109375 242.640625 L 74.878906 241.582031 L 75.644531 240.621094 L 79.492188 235.425781 L 81.511719 232.636719 C 81.609375 232.542969 81.609375 232.445312 81.703125 232.351562 C 82.1875 231.582031 82.28125 230.714844 82.1875 229.851562 C 81.992188 229.082031 81.609375 228.40625 81.03125 227.832031 C 80.933594 227.832031 80.933594 227.734375 80.839844 227.636719 L 78.242188 225.714844 L 77.472656 225.136719 L 76.511719 224.464844 L 73.914062 222.542969 L 72.859375 221.773438 L 72.761719 221.675781 L 71.511719 220.714844 L 71.03125 220.328125 C 70.839844 220.234375 70.742188 220.136719 70.550781 220.039062 C 70.550781 220.039062 70.550781 220.039062 70.453125 220.039062 C 70.070312 219.847656 69.78125 219.753906 69.394531 219.65625 C 69.203125 219.65625 69.011719 219.65625 68.820312 219.65625 C 68.625 219.65625 68.53125 219.65625 68.335938 219.753906 C 67.375 219.847656 66.511719 220.328125 65.933594 221.097656 L 35.351562 262.257812 C 34.777344 263.027344 34.582031 263.988281 34.679688 264.855469 C 34.777344 265.816406 35.351562 266.585938 36.027344 267.160156 L 37.851562 268.507812 L 39.007812 269.375 L 41.21875 271.007812 L 45.929688 274.46875 C 46.699219 275.144531 47.566406 275.335938 48.527344 275.238281 Z M 80.933594 213.597656 C 80.839844 213.886719 80.648438 214.175781 80.453125 214.558594 C 80.359375 214.65625 80.359375 214.65625 80.359375 214.75 C 80.167969 214.945312 80.070312 215.136719 79.878906 215.328125 C 78.53125 217.058594 77.183594 218.984375 75.933594 220.714844 L 75.839844 220.808594 C 75.742188 220.90625 75.644531 221.097656 75.453125 221.289062 L 77.761719 223.023438 L 78.53125 223.597656 L 79.300781 224.175781 L 80.839844 225.328125 C 80.839844 225.234375 80.933594 225.234375 80.933594 225.136719 C 81.703125 224.078125 82.472656 223.023438 83.242188 222.058594 C 83.722656 221.484375 84.109375 220.90625 84.589844 220.234375 C 84.878906 219.847656 85.070312 219.558594 85.359375 219.175781 C 85.457031 218.984375 85.550781 218.886719 85.742188 218.695312 C 85.839844 218.503906 86.03125 218.308594 86.128906 218.214844 C 87.1875 217.058594 88.339844 217.445312 89.207031 217.925781 C 92.957031 220.136719 96.996094 221.578125 101.226562 222.253906 C 104.59375 222.734375 107.765625 222.925781 110.84375 222.734375 C 115.265625 222.542969 119.402344 221.675781 123.25 220.136719 C 123.535156 220.039062 123.824219 219.945312 124.210938 219.753906 C 124.5 219.65625 124.789062 219.464844 125.171875 219.367188 C 131.808594 216.386719 137.480469 211.386719 142.289062 204.460938 C 142.675781 203.886719 143.058594 203.308594 143.441406 202.636719 C 144.019531 201.769531 144.5 200.808594 144.980469 199.847656 C 145.269531 199.269531 145.460938 198.789062 145.75 198.210938 C 146.039062 197.632812 146.230469 197.058594 146.519531 196.480469 C 148.058594 192.441406 148.925781 188.113281 149.019531 183.691406 C 149.019531 175.996094 147.195312 168.878906 143.828125 162.726562 C 143.15625 161.476562 142.386719 160.226562 141.617188 158.976562 C 141.230469 158.398438 140.847656 157.820312 140.460938 157.339844 C 140.269531 157.050781 140.078125 156.859375 139.886719 156.570312 C 139.691406 156.28125 139.5 156.089844 139.308594 155.898438 C 137.769531 154.070312 136.039062 152.339844 134.210938 150.800781 C 128.921875 146.378906 122.382812 143.300781 115.171875 142.148438 C 114.882812 142.050781 114.496094 142.050781 114.207031 141.953125 C 113.921875 141.953125 113.535156 141.859375 113.246094 141.859375 C 112.765625 141.761719 112.382812 141.761719 111.902344 141.664062 C 95.554688 140.222656 80.070312 149.550781 72.761719 163.589844 C 72.570312 163.976562 72.28125 164.457031 72.089844 164.839844 C 71.894531 165.324219 71.609375 165.804688 71.414062 166.285156 C 69.875 169.84375 68.820312 173.785156 68.433594 177.824219 C 67.953125 182.824219 68.242188 187.632812 69.394531 192.152344 C 69.972656 194.558594 70.839844 196.960938 71.894531 199.269531 C 72.953125 201.480469 74.203125 203.691406 75.742188 205.808594 C 77.089844 207.730469 78.628906 209.558594 80.453125 211.289062 C 80.648438 211.867188 81.222656 212.636719 80.933594 213.597656 Z M 77.570312 248.601562 L 86.609375 236.484375 C 87.761719 234.945312 87.476562 232.636719 85.839844 231.484375 L 85.167969 231.003906 L 84.300781 230.332031 L 84.011719 230.136719 C 84.109375 230.90625 83.917969 231.675781 83.722656 232.351562 C 83.53125 232.832031 83.339844 233.3125 82.953125 233.792969 L 76.03125 243.023438 L 75.261719 243.984375 L 74.492188 245.042969 L 52.953125 274.277344 L 52.46875 274.953125 C 52.46875 274.953125 52.375 275.046875 52.375 275.046875 C 52.183594 275.335938 51.988281 275.527344 51.699219 275.816406 C 51.027344 276.394531 50.164062 276.777344 49.296875 277.066406 L 51.027344 278.316406 C 52.566406 279.472656 54.777344 279.183594 56.027344 277.546875 L 76.128906 250.523438 L 76.898438 249.46875 Z M 129.789062 255.238281 L 151.425781 249.660156 L 153.347656 249.082031 L 188.640625 239.945312 C 188.449219 238.984375 188.160156 238.023438 187.871094 236.964844 C 187.679688 236.390625 187.582031 235.714844 187.390625 235.042969 C 186.910156 233.121094 186.429688 231.101562 185.949219 229.082031 C 185.757812 228.503906 185.660156 227.832031 185.46875 227.15625 C 183.738281 220.039062 181.8125 212.445312 179.984375 204.847656 C 179.792969 204.171875 179.699219 203.597656 179.503906 202.921875 C 179.023438 200.902344 178.542969 198.980469 178.0625 196.960938 C 177.871094 196.289062 177.773438 195.710938 177.582031 195.039062 C 174.792969 183.980469 172.292969 173.976562 170.660156 167.726562 C 168.445312 159.359375 169.601562 152.242188 174.214844 145.511719 C 175.753906 143.203125 177.292969 140.800781 178.734375 138.394531 C 179.21875 137.722656 179.601562 136.953125 180.082031 136.28125 C 180.46875 135.703125 180.851562 135.125 181.140625 134.550781 C 182.101562 132.914062 183.160156 131.28125 184.21875 129.644531 C 184.699219 128.972656 185.082031 128.203125 185.5625 127.527344 C 185.660156 127.335938 185.851562 127.144531 185.949219 126.953125 C 186.429688 126.277344 186.910156 125.511719 187.292969 124.835938 C 187.582031 124.355469 187.96875 123.875 188.257812 123.394531 C 188.351562 123.296875 188.351562 123.203125 188.449219 123.203125 C 188.640625 122.914062 188.832031 122.625 189.027344 122.335938 C 189.21875 121.953125 189.410156 121.664062 189.601562 121.277344 C 192.296875 116.46875 192.777344 111.566406 191.238281 105.699219 C 191.046875 104.929688 190.851562 104.160156 190.660156 103.488281 C 190.566406 103.199219 190.46875 102.816406 190.371094 102.527344 C 190.277344 102.238281 190.179688 101.851562 190.082031 101.566406 C 187.390625 91.273438 187.101562 90.121094 185.949219 85.3125 C 185.273438 82.621094 184.410156 78.871094 182.582031 71.753906 C 182.199219 70.117188 181.71875 68.578125 181.238281 67.234375 C 181.140625 66.945312 181.042969 66.65625 180.851562 66.367188 C 180.753906 66.078125 180.5625 65.789062 180.46875 65.503906 C 178.160156 60.40625 174.792969 58.195312 169.503906 58.195312 C 167.386719 58.195312 164.984375 58.578125 162.097656 59.25 C 159.40625 59.925781 156.808594 60.597656 154.117188 61.269531 C 154.984375 64.636719 155.753906 68.097656 156.617188 71.464844 C 156.714844 71.753906 156.808594 72.136719 156.808594 72.425781 C 156.90625 72.714844 157.003906 73.003906 157.003906 73.386719 C 157.484375 75.214844 157.867188 77.042969 158.347656 78.964844 C 162.292969 79.351562 165.65625 82.234375 166.714844 86.179688 L 170.65625 102.332031 C 170.851562 103.007812 170.945312 103.679688 170.945312 104.351562 C 170.945312 104.640625 170.945312 105.027344 170.945312 105.316406 C 170.945312 105.601562 170.851562 105.988281 170.851562 106.277344 C 170.65625 107.429688 170.273438 108.585938 169.601562 109.640625 C 168.253906 111.855469 166.136719 113.394531 163.636719 113.96875 L 112.957031 126.472656 L 111.035156 126.855469 L 79.109375 134.742188 C 78.339844 134.933594 77.570312 135.03125 76.800781 135.03125 C 72.472656 135.03125 68.53125 132.050781 67.472656 127.722656 L 63.53125 111.566406 C 62.953125 109.066406 63.335938 106.46875 64.585938 104.257812 C 65.933594 102.046875 68.050781 100.507812 70.550781 99.929688 L 142.675781 82.042969 C 142.289062 80.40625 141.808594 78.773438 141.421875 77.042969 C 141.328125 76.753906 141.230469 76.464844 141.230469 76.082031 C 141.136719 75.792969 141.039062 75.40625 141.039062 75.117188 C 140.65625 73.484375 140.269531 71.945312 139.886719 70.3125 C 139.40625 68.484375 139.019531 66.753906 138.539062 64.925781 C 110.457031 72.136719 82.1875 79.253906 54.296875 86.179688 C 42.757812 89.0625 39.488281 94.738281 42.371094 106.46875 C 49.585938 135.414062 56.703125 164.265625 63.914062 193.210938 C 65.933594 201.382812 67.953125 209.65625 70.070312 217.925781 C 70.839844 218.117188 71.609375 218.40625 72.28125 218.886719 L 73.914062 220.136719 C 74.011719 220.136719 74.109375 220.136719 74.109375 220.136719 C 74.109375 220.136719 74.203125 220.136719 74.394531 219.753906 L 74.492188 219.65625 C 75.839844 217.734375 77.28125 215.808594 78.722656 213.886719 C 76.800781 211.578125 75.164062 209.269531 73.820312 206.769531 C 67.855469 198.308594 65.261719 188.59375 66.316406 177.726562 C 66.800781 172.632812 68.242188 167.824219 70.453125 163.496094 C 70.644531 163.015625 70.933594 162.628906 71.125 162.148438 C 71.320312 161.765625 71.609375 161.378906 71.800781 160.996094 C 79.878906 147.339844 95.359375 138.492188 111.804688 139.933594 C 112.09375 139.933594 112.476562 140.03125 112.765625 140.03125 C 113.054688 140.03125 113.441406 140.128906 113.726562 140.128906 C 114.015625 140.128906 114.402344 140.222656 114.691406 140.320312 C 124.210938 141.761719 132.480469 146.183594 138.730469 152.726562 C 139.117188 153.109375 139.5 153.492188 139.886719 153.976562 C 140.269531 154.457031 140.65625 154.839844 141.039062 155.320312 C 142.675781 157.339844 144.210938 159.550781 145.460938 161.957031 C 150.65625 169.265625 153.636719 178.304688 153.636719 188.402344 C 153.539062 195.421875 151.617188 202.25 147.964844 208.210938 C 147.675781 208.597656 147.386719 209.078125 147.195312 209.460938 C 147 209.75 146.808594 210.039062 146.617188 210.328125 C 146.519531 210.425781 146.425781 210.617188 146.328125 210.710938 C 140.75 218.597656 133.921875 224.078125 126.132812 226.964844 C 125.84375 227.0625 125.554688 227.15625 125.171875 227.347656 C 124.882812 227.445312 124.59375 227.542969 124.210938 227.636719 C 117.960938 229.5625 111.132812 230.042969 103.628906 228.984375 C 99.109375 228.3125 94.878906 226.773438 90.9375 224.464844 C 90.359375 224.175781 90.359375 224.175781 89.976562 224.65625 C 89.398438 225.523438 88.726562 226.386719 88.148438 227.15625 C 87.957031 227.445312 87.761719 227.734375 87.476562 228.023438 C 87.476562 228.117188 87.378906 228.117188 87.378906 228.214844 C 87.089844 228.597656 86.898438 228.886719 86.609375 229.273438 C 86.417969 229.464844 86.320312 229.65625 86.226562 229.851562 L 86.898438 230.425781 L 86.992188 230.523438 C 87.476562 230.90625 87.957031 231.386719 88.242188 231.867188 C 88.917969 232.925781 89.207031 234.175781 89.109375 235.425781 C 89.011719 236.101562 88.917969 236.675781 88.628906 237.351562 C 88.4375 237.640625 88.339844 237.925781 88.148438 238.214844 L 78.148438 251.582031 C 80.453125 261.007812 82.859375 270.335938 85.167969 279.664062 C 85.261719 280.144531 85.457031 280.527344 85.550781 281.011719 C 86.03125 273.703125 90.648438 267.160156 97.667969 264.277344 C 97.957031 264.179688 98.339844 263.988281 98.726562 263.890625 C 99.109375 263.796875 99.496094 263.605469 99.878906 263.507812 C 99.878906 263.507812 99.976562 263.507812 99.976562 263.507812 L 128.058594 256.296875 L 129.019531 256.007812 Z M 161.523438 311.207031 L 246.53125 300.050781 C 246.4375 299.859375 246.4375 299.761719 246.339844 299.570312 L 242.976562 273.988281 L 275.671875 269.664062 C 275.863281 269.664062 276.152344 269.664062 276.34375 269.757812 L 268.363281 209.367188 L 260.667969 222.734375 L 260.765625 222.828125 L 260.382812 223.117188 L 259.417969 224.847656 L 258.746094 224.464844 L 257.59375 225.425781 C 256.628906 226.292969 255.667969 227.0625 254.707031 227.832031 C 253.9375 228.503906 253.074219 229.175781 252.304688 229.851562 C 251.4375 230.523438 250.765625 230.90625 250.1875 230.90625 C 249.996094 230.90625 249.800781 230.90625 249.609375 230.8125 C 248.9375 230.523438 248.265625 230.136719 247.589844 229.851562 L 242.878906 233.695312 L 243.746094 227.832031 C 243.648438 227.734375 243.550781 227.734375 243.457031 227.636719 C 240.472656 226.097656 241.148438 223.695312 241.53125 221.867188 C 241.628906 221.484375 241.726562 221.195312 241.820312 220.90625 C 242.109375 219.464844 242.300781 218.019531 242.589844 216.484375 C 242.589844 216.484375 242.589844 216.484375 242.589844 216.386719 C 242.6875 216 242.6875 215.617188 242.78125 215.328125 L 242.207031 215.039062 L 243.070312 213.5 L 243.167969 212.925781 L 243.359375 213.019531 L 249.320312 202.730469 L 250.859375 200.132812 L 264.035156 177.34375 L 255.859375 115.125 L 255.765625 114.164062 L 255.667969 113.199219 L 253.359375 95.792969 L 207.875 101.757812 L 206.914062 101.851562 L 205.949219 101.949219 L 192.582031 103.679688 C 192.777344 104.351562 192.96875 105.027344 193.066406 105.699219 C 194.601562 111.566406 194.21875 116.664062 191.910156 121.472656 C 191.71875 121.855469 191.527344 122.144531 191.332031 122.527344 C 191.140625 122.914062 190.949219 123.203125 190.757812 123.585938 C 190.46875 123.972656 190.277344 124.355469 189.988281 124.742188 C 189.890625 124.835938 189.890625 124.933594 189.796875 124.933594 C 189.3125 125.605469 188.832031 126.375 188.351562 127.046875 C 188.257812 127.242188 188.0625 127.433594 187.96875 127.722656 L 211.335938 124.644531 L 211.625 126.566406 L 186.621094 129.835938 C 185.277344 131.953125 184.023438 133.972656 182.773438 136.089844 C 182.679688 136.28125 182.582031 136.375 182.488281 136.570312 L 202.679688 133.875 L 202.96875 135.800781 L 181.238281 138.683594 C 179.503906 141.570312 177.679688 144.453125 175.753906 147.148438 C 171.523438 153.398438 170.464844 160.035156 172.484375 167.824219 C 172.675781 168.785156 172.964844 169.746094 173.253906 170.804688 L 173.0625 169.167969 L 192.96875 166.574219 L 194.21875 166.378906 L 195.566406 166.1875 L 218.453125 163.207031 L 218.742188 165.128906 L 194.121094 168.398438 L 192.96875 168.59375 L 191.816406 168.785156 L 173.445312 171.1875 C 175.082031 177.4375 177.199219 186.09375 179.503906 195.421875 L 193.066406 193.691406 L 194.027344 193.59375 L 194.988281 193.5 L 214.125 191 L 214.414062 192.921875 L 195.566406 195.421875 L 194.601562 195.519531 L 193.640625 195.613281 L 180.082031 197.34375 C 180.5625 199.269531 181.042969 201.289062 181.523438 203.308594 L 195.085938 201.480469 L 196.046875 201.382812 L 197.007812 201.289062 L 218.644531 198.402344 L 218.933594 200.328125 L 197.488281 203.117188 L 196.527344 203.210938 L 195.566406 203.308594 L 182.003906 205.136719 C 183.832031 212.636719 185.757812 220.328125 187.488281 227.445312 L 201.046875 225.714844 L 202.007812 225.617188 L 202.96875 225.523438 L 225.089844 222.636719 L 225.375 224.558594 L 203.449219 227.445312 L 202.488281 227.542969 L 201.527344 227.636719 L 188.0625 229.367188 C 188.546875 231.386719 189.027344 233.40625 189.507812 235.332031 L 202.488281 233.601562 L 203.449219 233.503906 L 204.414062 233.40625 L 216.433594 231.867188 L 216.722656 233.792969 L 204.414062 235.425781 L 203.449219 235.523438 L 202.488281 235.621094 L 189.988281 237.253906 C 190.277344 238.601562 190.660156 239.851562 190.949219 241.101562 L 191.140625 241.871094 L 189.21875 242.449219 L 153.734375 251.679688 L 152.769531 251.96875 L 151.808594 252.257812 L 130.460938 257.832031 L 130.75 260.429688 L 130.84375 261.390625 L 130.941406 262.355469 L 133.730469 285.144531 L 133.828125 286.105469 L 133.921875 287.066406 L 134.691406 293.320312 L 134.789062 294.28125 L 134.882812 295.242188 L 134.980469 295.628906 L 135.460938 299.472656 L 137.480469 314.859375 L 159.503906 311.976562 L 160.464844 311.878906 Z M 244.707031 215.617188 C 244.707031 215.714844 244.707031 215.808594 244.707031 215.90625 C 244.707031 216 244.707031 216 244.707031 216.097656 C 244.707031 216.289062 244.609375 216.386719 244.609375 216.578125 C 244.320312 218.117188 244.128906 219.558594 243.839844 221.097656 C 243.746094 221.484375 243.648438 221.867188 243.550781 222.253906 C 243.070312 224.175781 242.878906 225.042969 244.417969 225.8125 C 244.996094 226.097656 245.570312 226.386719 246.148438 226.773438 C 246.246094 226.773438 246.246094 226.867188 246.339844 226.867188 L 250.476562 219.65625 L 250.667969 219.269531 L 244.996094 216 Z M 274.710938 271.683594 L 245.089844 275.527344 L 248.070312 298.414062 L 248.167969 298.800781 Z M 288.171875 174.9375 L 269.996094 206.480469 L 278.460938 270.625 L 277.015625 272.066406 C 277.015625 272.066406 277.015625 272.164062 276.921875 272.164062 L 249.226562 300.433594 C 249.035156 300.628906 248.648438 300.820312 248.359375 300.917969 L 247.496094 301.78125 L 247.207031 301.78125 L 161.90625 313.03125 L 164.214844 330.4375 L 273.074219 316.109375 C 272.980469 315.917969 272.980469 315.820312 272.882812 315.628906 L 269.515625 290.050781 L 302.214844 285.722656 C 302.40625 285.722656 302.695312 285.722656 302.886719 285.816406 Z M 291.058594 150.222656 L 286.441406 147.53125 L 285.382812 146.953125 L 284.324219 146.378906 L 284.039062 146.183594 L 266.054688 177.34375 L 265.285156 178.6875 L 264.515625 180.035156 L 245.089844 213.597656 L 248.167969 215.328125 L 251.628906 217.347656 L 252.398438 216 L 266.054688 192.632812 L 266.824219 191.289062 L 267.59375 189.941406 L 285.863281 158.78125 L 286.632812 157.4375 L 287.402344 156.089844 Z M 329.234375 86.753906 C 327.601562 85.3125 325.582031 84.640625 323.464844 84.832031 C 320.675781 85.121094 318.082031 86.949219 316.445312 89.734375 C 310.867188 99.351562 305.195312 109.160156 299.710938 118.585938 L 295.386719 126.085938 C 294.617188 127.527344 293.75 128.875 292.980469 130.316406 C 292.789062 130.605469 292.691406 130.894531 292.5 131.183594 C 290.960938 133.78125 289.519531 136.375 287.980469 139.070312 L 285.863281 142.722656 L 285.09375 144.070312 L 284.902344 144.453125 L 285.09375 144.550781 L 285.191406 144.550781 L 286.25 145.128906 L 292.117188 148.589844 L 299.519531 136.28125 L 300 135.414062 L 300.480469 134.550781 Z M 80.839844 184.460938 C 80.839844 168.785156 93.535156 156.089844 109.207031 156.089844 C 111.132812 156.089844 113.054688 156.28125 114.882812 156.667969 C 115.171875 156.761719 115.554688 156.859375 115.84375 156.859375 C 116.226562 156.957031 116.515625 157.050781 116.804688 157.148438 C 128.730469 160.515625 137.480469 171.476562 137.480469 184.460938 C 137.480469 194.84375 131.902344 203.886719 123.632812 208.789062 C 123.34375 208.980469 123.054688 209.175781 122.769531 209.269531 C 122.480469 209.460938 122.191406 209.558594 121.902344 209.75 C 118.054688 211.675781 113.824219 212.730469 109.207031 212.730469 C 93.628906 212.828125 80.839844 200.132812 80.839844 184.460938 Z M 82.761719 184.460938 C 82.761719 199.078125 94.589844 210.90625 109.207031 210.90625 C 113.726562 210.90625 117.960938 209.75 121.613281 207.828125 C 121.902344 207.636719 122.191406 207.539062 122.480469 207.347656 C 122.769531 207.15625 123.054688 206.960938 123.34375 206.769531 C 130.652344 202.058594 135.558594 193.882812 135.558594 184.554688 C 135.558594 172.726562 127.769531 162.726562 117.09375 159.359375 C 116.804688 159.265625 116.421875 159.167969 116.132812 159.070312 C 115.84375 158.976562 115.460938 158.878906 115.171875 158.78125 C 113.246094 158.300781 111.226562 158.109375 109.207031 158.109375 C 94.6875 158.015625 82.761719 169.84375 82.761719 184.460938 Z M 82.28125 207.058594 C 81.800781 206.578125 81.320312 206.097656 80.933594 205.519531 C 80.359375 204.847656 79.878906 204.171875 79.300781 203.5 C 74.972656 197.539062 72.375 190.324219 72.375 182.441406 C 72.375 179.746094 72.664062 177.152344 73.144531 174.652344 C 73.339844 173.976562 73.433594 173.304688 73.625 172.632812 C 73.820312 172.054688 74.011719 171.476562 74.203125 170.898438 C 74.683594 169.554688 75.164062 168.207031 75.742188 166.957031 C 81.320312 154.9375 93.246094 146.570312 107.1875 146.28125 C 107.382812 146.28125 107.667969 146.28125 107.863281 146.28125 L 108.054688 146.28125 C 108.152344 146.28125 108.152344 146.28125 108.246094 146.28125 C 110.074219 146.28125 111.804688 146.378906 113.535156 146.667969 C 113.824219 146.761719 114.207031 146.761719 114.496094 146.859375 C 114.785156 146.953125 115.171875 146.953125 115.460938 147.050781 C 122.285156 148.398438 128.539062 151.761719 133.539062 156.761719 C 136.230469 159.457031 138.441406 162.4375 140.171875 165.804688 C 140.171875 165.898438 140.269531 165.898438 140.269531 165.996094 C 140.75 166.957031 141.230469 167.917969 141.617188 168.976562 C 142 169.9375 142.386719 170.898438 142.675781 171.863281 C 142.960938 172.632812 143.15625 173.496094 143.347656 174.363281 C 143.636719 175.707031 143.925781 177.054688 144.019531 178.496094 C 144.117188 179.363281 144.210938 180.226562 144.210938 181.191406 C 144.210938 181.574219 144.210938 181.960938 144.210938 182.34375 C 144.210938 183.882812 144.117188 185.324219 143.925781 186.765625 C 143.828125 187.824219 143.636719 188.980469 143.347656 190.035156 C 141.90625 196.769531 138.636719 202.921875 133.730469 207.828125 C 130.941406 210.617188 127.769531 212.925781 124.210938 214.75 C 123.921875 214.945312 123.632812 215.039062 123.34375 215.230469 C 123.054688 215.328125 122.769531 215.519531 122.382812 215.617188 C 117.960938 217.539062 113.152344 218.503906 108.246094 218.597656 L 108.152344 218.597656 C 101.035156 218.597656 94.398438 216.484375 88.726562 212.925781 C 86.800781 211.675781 84.972656 210.230469 83.339844 208.691406 C 83.148438 207.925781 82.761719 207.539062 82.28125 207.058594 Z M 81.222656 202.828125 C 81.703125 203.402344 82.1875 203.980469 82.667969 204.558594 C 88.917969 211.769531 98.148438 216.289062 108.34375 216.289062 L 108.34375 217.25 L 108.34375 216.289062 C 113.246094 216.289062 117.960938 215.234375 122.285156 213.308594 C 122.574219 213.214844 122.863281 213.019531 123.25 212.925781 C 123.535156 212.730469 123.824219 212.636719 124.113281 212.445312 C 127.191406 210.808594 129.980469 208.789062 132.480469 206.191406 C 138.921875 199.75 142.386719 191.09375 142.386719 181.960938 C 142.386719 181.574219 142.386719 181.285156 142.386719 180.902344 C 142.289062 178.6875 142 176.476562 141.519531 174.265625 C 140.847656 171.574219 139.886719 168.878906 138.636719 166.378906 C 133.441406 159.167969 125.460938 154.167969 116.324219 152.726562 C 116.035156 152.628906 115.652344 152.628906 115.363281 152.628906 C 115.074219 152.628906 114.691406 152.53125 114.402344 152.53125 C 113.34375 152.4375 112.1875 152.339844 111.035156 152.339844 C 110.9375 152.339844 110.9375 152.339844 110.84375 152.339844 L 110.652344 152.339844 C 93.339844 152.4375 79.109375 165.804688 77.28125 182.824219 C 77.183594 183.882812 77.089844 184.941406 77.089844 186.09375 C 77.089844 186.285156 77.089844 186.480469 77.089844 186.671875 C 77.089844 188.304688 77.183594 189.84375 77.378906 191.382812 C 77.664062 193.789062 78.242188 196.09375 79.109375 198.308594 C 79.589844 199.652344 80.167969 200.902344 80.839844 202.152344 C 81.03125 202.539062 81.128906 202.730469 81.222656 202.828125 Z M 81.222656 202.828125 " fill-opacity="1" fill-rule="nonzero"/></g></svg>