<svg xmlns="http://www.w3.org/2000/svg" xmlns:xlink="http://www.w3.org/1999/xlink" width="500" zoomAndPan="magnify" viewBox="0 0 375 374.999991" height="500" preserveAspectRatio="xMidYMid meet" version="1.0"><defs><clipPath id="6a66c380d6"><path d="M 3.015625 21.714844 L 372 21.714844 L 372 353.285156 L 3.015625 353.285156 Z M 3.015625 21.714844 " clip-rule="nonzero"/></clipPath><clipPath id="c168605bfb"><path d="M 20.265625 21.714844 L 354.734375 21.714844 C 364.261719 21.714844 371.984375 29.4375 371.984375 38.964844 L 371.984375 336.035156 C 371.984375 345.5625 364.261719 353.285156 354.734375 353.285156 L 20.265625 353.285156 C 10.738281 353.285156 3.015625 345.5625 3.015625 336.035156 L 3.015625 38.964844 C 3.015625 29.4375 10.738281 21.714844 20.265625 21.714844 Z M 20.265625 21.714844 " clip-rule="nonzero"/></clipPath><clipPath id="5cd792b792"><path d="M 37.5 39 L 344 39 L 344 330.75 L 37.5 330.75 Z M 37.5 39 " clip-rule="nonzero"/></clipPath><clipPath id="cc750ce9b4"><path d="M 37.5 51 L 344 51 L 344 330.75 L 37.5 330.75 Z M 37.5 51 " clip-rule="nonzero"/></clipPath></defs><g clip-path="url(#6a66c380d6)"><g clip-path="url(#c168605bfb)"><path fill="#fce7f3" d="M 3.015625 21.714844 L 372.148438 21.714844 L 372.148438 353.285156 L 3.015625 353.285156 Z M 3.015625 21.714844 " fill-opacity="1" fill-rule="nonzero"/></g></g><g clip-path="url(#5cd792b792)"><path fill="#ffffff" d="M 186.421875 46.5 C 186.335938 45.003906 186.335938 43.503906 186.421875 42.09375 C 186.421875 40.503906 187.746094 39.183594 189.332031 39.269531 C 190.917969 39.269531 192.242188 40.59375 192.242188 42.179688 C 192.242188 42.886719 192.242188 43.589844 192.242188 44.386719 C 192.242188 45.179688 192.242188 45.882812 192.242188 46.675781 C 192.242188 48.265625 190.832031 49.585938 189.242188 49.585938 C 187.746094 49.324219 186.421875 48.089844 186.421875 46.5 Z M 234.386719 94.378906 C 234.386719 96.054688 235.621094 97.375 237.296875 97.375 C 238.796875 97.464844 240.296875 97.464844 241.792969 97.375 C 243.382812 97.289062 244.617188 95.964844 244.617188 94.378906 C 244.617188 92.792969 243.382812 91.558594 241.882812 91.46875 C 241.089844 91.378906 240.382812 91.46875 239.589844 91.46875 C 238.796875 91.46875 238.089844 91.46875 237.296875 91.46875 C 235.710938 91.46875 234.476562 92.792969 234.386719 94.378906 Z M 211.816406 55.40625 C 211.816406 55.40625 211.902344 55.496094 211.902344 55.496094 C 213.316406 56.289062 215.078125 55.847656 215.871094 54.4375 C 216.664062 53.203125 217.457031 51.878906 218.164062 50.46875 C 218.339844 50.117188 218.429688 49.761719 218.515625 49.410156 C 218.605469 48 217.722656 46.765625 216.402344 46.324219 C 215.167969 45.972656 213.753906 46.414062 213.136719 47.558594 C 212.34375 48.792969 211.640625 50.117188 210.933594 51.4375 C 209.964844 52.761719 210.40625 54.523438 211.816406 55.40625 Z M 231.039062 73.394531 C 231.300781 73.394531 231.65625 73.304688 231.917969 73.21875 C 233.507812 72.335938 235.09375 71.542969 236.59375 70.484375 C 237.738281 69.601562 238.003906 68.015625 237.210938 66.78125 C 236.503906 65.546875 234.917969 65.015625 233.59375 65.546875 C 232.007812 66.339844 230.507812 67.222656 229.007812 68.191406 C 228.039062 68.984375 227.6875 70.21875 228.128906 71.453125 C 228.570312 72.601562 229.804688 73.394531 231.039062 73.394531 Z M 163.144531 54.699219 C 163.851562 55.671875 165.171875 56.113281 166.320312 55.671875 C 167.554688 55.230469 168.433594 53.996094 168.347656 52.671875 C 168.347656 52.410156 168.257812 52.054688 168.171875 51.792969 C 167.378906 50.292969 166.496094 48.707031 165.613281 47.292969 C 164.730469 46.058594 163.058594 45.796875 161.824219 46.589844 C 160.5 47.292969 159.972656 48.882812 160.589844 50.203125 C 161.292969 51.792969 162.175781 53.289062 163.144531 54.699219 Z M 142.160156 70.484375 C 143.660156 71.542969 145.15625 72.421875 146.832031 73.128906 C 148.683594 73.921875 150.710938 72.421875 150.976562 70.21875 C 150.625 69.425781 150.09375 68.71875 149.566406 68.101562 C 148.15625 67.132812 146.746094 66.25 145.15625 65.546875 C 143.835938 64.929688 142.335938 65.457031 141.542969 66.691406 C 140.75 67.925781 141.015625 69.601562 142.160156 70.484375 Z M 343.457031 158.390625 C 342.664062 157.332031 341.074219 157.15625 339.839844 157.15625 L 332.171875 157.15625 L 332.171875 148.339844 L 322.296875 148.339844 L 320.621094 97.550781 L 228.65625 100.636719 C 231.65625 89.527344 229.539062 78.773438 222.308594 68.457031 C 214.550781 57.523438 202.027344 51.085938 188.625 51.351562 C 175.222656 51.613281 162.792969 58.582031 155.472656 69.953125 C 149.65625 78.949219 147.714844 88.382812 149.566406 98.257812 L 142.070312 97.289062 C 143.304688 97.023438 144.277344 95.878906 144.363281 94.554688 C 144.453125 92.878906 143.128906 91.558594 141.542969 91.46875 C 140.042969 91.378906 138.546875 91.378906 137.046875 91.46875 C 135.457031 91.558594 134.222656 92.792969 134.222656 94.464844 C 134.222656 95.261719 134.488281 95.878906 135.019531 96.40625 L 69.417969 88.207031 L 67.214844 106.105469 L 56.367188 106.457031 L 56.808594 119.683594 C 54.605469 119.949219 52.578125 120.917969 51.167969 122.59375 C 48.082031 124.972656 45.433594 129.03125 44.816406 131.761719 L 38.207031 160.773438 C 37.675781 163.0625 38.117188 165.445312 39.351562 167.382812 C 40.585938 169.324219 42.527344 170.734375 44.816406 171.265625 L 58.660156 174.4375 L 58.660156 174.527344 L 48.523438 255.734375 L 61.484375 257.320312 L 62.1875 278.65625 L 81.675781 278.039062 C 84.320312 307.488281 109.09375 330.589844 139.164062 330.589844 C 170.550781 330.589844 196.121094 305.460938 196.828125 274.25 L 295.050781 286.503906 L 296.988281 270.722656 L 326.4375 269.753906 L 324.585938 214.117188 C 327.410156 213.410156 329.613281 211.292969 330.496094 208.472656 C 332.433594 201.859375 334.375 195.160156 336.316406 188.457031 C 337.8125 183.34375 339.222656 178.230469 340.636719 173.117188 C 340.988281 171.96875 341.253906 170.824219 341.605469 169.765625 C 342.308594 167.296875 343.015625 164.738281 343.722656 162.269531 C 343.984375 161.035156 344.25 159.449219 343.457031 158.390625 Z M 343.457031 158.390625 " fill-opacity="1" fill-rule="nonzero"/></g><path fill="#ac1754" d="M 315.859375 119.066406 L 226.011719 107.78125 C 227.15625 105.398438 227.953125 103.019531 228.65625 100.636719 L 320.621094 97.550781 L 322.296875 148.339844 L 312.242188 148.339844 Z M 322.648438 214.378906 C 316.125 214.378906 309.949219 214.378906 303.957031 214.378906 L 296.902344 270.808594 L 326.351562 269.839844 L 324.5 214.203125 C 323.882812 214.292969 323.265625 214.378906 322.648438 214.378906 Z M 58.574219 174.527344 L 58.574219 174.4375 Z M 81.410156 268.957031 C 81.320312 267.636719 81.234375 266.3125 81.234375 264.992188 C 81.234375 263.316406 81.320312 261.550781 81.496094 259.878906 L 61.304688 257.320312 L 62.011719 278.65625 L 81.496094 278.039062 C 81.320312 276.363281 81.234375 274.601562 81.234375 272.925781 C 81.320312 271.605469 81.320312 270.28125 81.410156 268.957031 Z M 59.542969 119.859375 L 65.1875 121.183594 L 67.039062 106.105469 L 56.191406 106.457031 L 56.632812 119.683594 C 57.601562 119.59375 58.574219 119.683594 59.542969 119.859375 Z M 97.105469 225.402344 L 65.890625 221.523438 L 65.714844 223.285156 L 95.695312 226.988281 C 96.132812 226.460938 96.574219 225.929688 97.105469 225.402344 Z M 265.511719 139.785156 L 267.539062 123.828125 L 265.777344 123.652344 L 263.75 139.875 C 264.367188 139.785156 264.984375 139.785156 265.511719 139.785156 Z M 255.460938 220.464844 L 291.699219 224.960938 L 291.523438 226.722656 L 255.285156 222.226562 L 252.464844 244.886719 L 288.703125 249.382812 L 288.523438 251.148438 L 252.285156 246.652344 L 249.378906 270.191406 L 247.613281 270.015625 L 250.523438 246.476562 L 215.167969 242.066406 L 212.257812 265.609375 L 210.492188 265.433594 L 213.402344 241.890625 L 190.476562 239.070312 C 190.125 238.453125 189.773438 237.835938 189.507812 237.128906 L 213.667969 240.125 L 216.488281 217.464844 L 205.996094 216.144531 L 207.582031 214.554688 L 216.753906 215.703125 L 219.574219 193.042969 L 196.210938 190.132812 L 196.210938 189.605469 L 195.769531 190.042969 L 184.21875 188.632812 L 182.277344 203.886719 L 180.25 206.003906 L 182.453125 188.457031 L 147.097656 184.050781 L 144.277344 206.710938 L 175.839844 210.675781 L 174.34375 212.265625 L 155.828125 209.972656 C 152.125 208.824219 148.242188 208.121094 144.1875 207.765625 C 143.570312 207.679688 143.042969 207.679688 142.425781 207.589844 C 141.367188 207.503906 140.308594 207.503906 139.25 207.503906 C 138.457031 207.503906 137.664062 207.503906 136.871094 207.589844 L 106.980469 203.886719 L 104.863281 218.523438 C 104.15625 219.054688 103.539062 219.496094 102.921875 220.023438 L 105.039062 203.359375 L 68.710938 198.863281 L 68.890625 197.097656 L 105.128906 201.59375 L 107.15625 185.460938 L 107.507812 185.546875 C 107.949219 185.636719 108.390625 185.722656 108.832031 185.722656 L 106.804688 201.859375 L 142.160156 206.269531 L 144.980469 183.609375 L 119.410156 180.433594 C 119.851562 179.90625 120.292969 179.375 120.644531 178.847656 L 145.15625 181.933594 L 147.980469 159.273438 L 126.113281 156.539062 L 126.464844 154.777344 L 148.15625 157.507812 L 150.976562 134.847656 L 115.621094 130.441406 L 115.355469 132.644531 L 113.59375 132.292969 L 113.855469 130.265625 L 94.28125 127.796875 L 78.058594 124.09375 L 78.058594 124.003906 L 114.296875 128.5 L 117.207031 104.960938 L 118.972656 105.136719 L 116.0625 128.675781 L 151.417969 133.085938 L 154.152344 111.21875 C 154.59375 112.101562 155.121094 112.984375 155.5625 113.863281 L 153.09375 133.351562 L 167.816406 135.203125 C 167.996094 135.554688 168.082031 135.90625 168.257812 136.261719 C 168.433594 136.699219 168.699219 136.964844 168.964844 137.140625 L 152.917969 135.113281 L 150.09375 157.773438 L 185.453125 162.183594 L 186.421875 154.511719 C 187.039062 154.511719 187.570312 154.511719 188.1875 154.511719 L 187.214844 162.445312 L 222.574219 166.855469 L 225.394531 144.195312 L 207.582031 141.992188 L 207.847656 140.226562 L 225.660156 142.433594 L 228.570312 118.890625 L 230.332031 119.066406 L 227.421875 142.609375 L 233.945312 143.402344 C 233.683594 143.929688 233.507812 144.460938 233.328125 145.078125 L 227.15625 144.285156 L 224.335938 166.945312 L 233.066406 168 C 233.066406 168.617188 233.066406 169.148438 233.066406 169.765625 L 224.070312 168.617188 L 221.25 191.277344 L 233.417969 192.777344 C 233.417969 193.394531 233.417969 193.925781 233.417969 194.542969 L 220.984375 192.953125 L 218.164062 215.613281 L 253.519531 220.023438 L 254.226562 214.203125 C 254.84375 214.203125 255.371094 214.203125 255.988281 214.203125 Z M 185.363281 163.945312 L 150.007812 159.539062 L 147.1875 182.199219 L 182.542969 186.605469 Z M 219.664062 191.191406 L 222.484375 168.53125 L 187.128906 164.121094 L 184.304688 186.78125 Z M 253.519531 221.964844 L 218.164062 217.554688 L 215.34375 240.214844 L 250.699219 244.625 Z M 103.980469 176.730469 L 61.21875 167.03125 L 59.453125 166.679688 L 58.21875 166.414062 L 49.402344 164.386719 C 45.613281 163.503906 43.230469 159.714844 44.113281 155.921875 L 50.726562 126.914062 C 50.992188 125.765625 51.519531 124.796875 52.226562 123.914062 C 53.28125 122.679688 54.695312 121.886719 56.191406 121.535156 C 56.367188 121.535156 56.546875 121.445312 56.722656 121.445312 C 56.984375 121.445312 57.25 121.359375 57.601562 121.359375 C 58.132812 121.359375 58.660156 121.445312 59.191406 121.535156 L 60.953125 121.886719 L 65.007812 122.859375 L 66.773438 123.210938 L 113.679688 134.054688 L 115.445312 134.410156 L 122.058594 135.90625 C 125.847656 136.789062 128.230469 140.582031 127.347656 144.371094 L 124.964844 154.601562 L 124.613281 156.363281 L 123.46875 161.210938 L 121.703125 168.796875 L 120.644531 173.378906 C 120.558594 173.910156 120.382812 174.351562 120.117188 174.878906 C 119.324219 176.464844 118 177.699219 116.414062 178.40625 C 115.089844 178.933594 113.679688 179.113281 112.269531 178.757812 L 109.890625 178.230469 L 108.125 177.878906 Z M 86.523438 147.808594 L 106.273438 152.308594 L 111.300781 153.453125 L 111.742188 153.542969 L 111.828125 153.011719 L 113.503906 145.519531 L 112.269531 145.253906 L 88.375 139.699219 Z M 80.96875 150.898438 C 80.878906 150.28125 80.703125 149.664062 80.441406 149.046875 C 80.261719 148.605469 80.085938 148.25 79.824219 147.808594 C 78.765625 146.046875 77 144.8125 74.972656 144.371094 L 74.089844 144.195312 C 75.855469 143.136719 77 141.199219 77 138.90625 C 77 135.464844 74.269531 132.734375 70.828125 132.734375 C 67.390625 132.734375 64.65625 135.464844 64.65625 138.90625 C 64.65625 140.140625 65.007812 141.285156 65.625 142.253906 L 64.832031 142.078125 C 64.65625 141.992188 64.390625 141.992188 64.214844 141.992188 C 63.953125 141.992188 63.597656 141.902344 63.335938 141.902344 C 63.070312 141.902344 62.71875 141.902344 62.453125 141.902344 C 61.21875 141.992188 60.070312 142.433594 59.015625 143.050781 C 58.398438 143.402344 57.867188 143.929688 57.425781 144.460938 C 56.546875 145.429688 55.929688 146.574219 55.664062 147.898438 L 53.636719 156.890625 L 57.957031 157.863281 L 60.511719 158.480469 L 62.277344 158.832031 L 78.851562 162.625 L 80.878906 153.628906 C 81.144531 152.75 81.144531 151.777344 80.96875 150.898438 Z M 84.144531 158.304688 L 109.890625 164.210938 L 111.652344 164.5625 L 114.472656 165.179688 L 116.324219 157.15625 L 112.710938 156.363281 L 110.945312 156.011719 L 97.722656 153.011719 L 85.996094 150.367188 L 85.730469 151.515625 Z M 342.046875 159.449219 C 341.78125 159.097656 341.074219 158.921875 339.839844 158.921875 L 302.28125 158.921875 C 301.488281 158.921875 300.691406 158.921875 299.8125 158.921875 C 299.457031 158.921875 299.019531 158.921875 298.664062 158.921875 C 298.3125 158.921875 297.960938 158.921875 297.605469 158.921875 C 286.144531 158.921875 274.683594 158.921875 263.132812 158.921875 C 262.515625 158.921875 261.984375 158.921875 261.367188 158.921875 C 259.253906 158.921875 257.222656 158.921875 255.109375 158.921875 C 255.109375 158.921875 255.019531 158.921875 255.019531 158.921875 C 252.023438 158.921875 249.464844 160.949219 248.671875 163.769531 C 248.144531 165.796875 247.527344 167.824219 246.910156 169.851562 C 246.820312 170.207031 246.644531 170.648438 246.554688 171 C 246.46875 171.175781 246.46875 171.351562 246.378906 171.527344 C 245.9375 173.117188 245.410156 174.792969 244.96875 176.378906 C 244.878906 176.644531 244.792969 176.90625 244.792969 177.082031 C 244.4375 178.316406 244.085938 179.550781 243.734375 180.875 C 243.46875 181.84375 243.203125 182.816406 242.941406 183.695312 C 242.851562 184.050781 242.675781 184.488281 242.585938 184.84375 C 242.324219 185.902344 241.96875 186.871094 241.707031 187.929688 C 241.53125 188.371094 241.441406 188.898438 241.265625 189.339844 C 241.089844 189.867188 240.914062 190.484375 240.824219 191.015625 C 240.558594 191.894531 240.296875 192.691406 240.117188 193.570312 C 239.941406 194.101562 239.765625 194.71875 239.589844 195.246094 C 238.265625 200.007812 236.855469 204.769531 235.535156 209.53125 C 235.445312 209.707031 235.445312 209.972656 235.359375 210.148438 C 235.359375 210.414062 235.269531 210.675781 235.359375 210.851562 C 235.359375 210.851562 235.359375 210.941406 235.359375 210.941406 C 235.359375 211.207031 235.445312 211.382812 235.621094 211.558594 C 235.710938 211.648438 235.710938 211.648438 235.796875 211.734375 C 236.152344 212 236.59375 212.175781 237.03125 212.265625 C 237.296875 212.265625 237.472656 212.351562 237.738281 212.351562 C 243.558594 212.351562 249.113281 212.351562 254.492188 212.351562 C 255.109375 212.351562 255.636719 212.351562 256.253906 212.351562 C 272.214844 212.351562 286.410156 212.351562 302.28125 212.351562 C 302.542969 212.351562 302.898438 212.351562 303.160156 212.351562 C 303.425781 212.351562 303.777344 212.351562 304.042969 212.351562 C 309.863281 212.351562 315.945312 212.351562 322.472656 212.351562 C 323.089844 212.351562 323.707031 212.265625 324.324219 212.085938 C 326.351562 211.46875 328.027344 209.882812 328.644531 207.765625 C 329.523438 204.945312 330.320312 202.035156 331.199219 199.125 C 331.464844 198.070312 331.816406 197.097656 332.082031 196.039062 C 332.875 193.308594 333.667969 190.484375 334.464844 187.753906 C 335.960938 182.636719 337.371094 177.523438 338.785156 172.410156 C 338.871094 172.144531 338.960938 171.882812 339.046875 171.527344 C 339.222656 170.824219 339.402344 170.117188 339.664062 169.5 C 340.371094 166.855469 341.164062 164.210938 341.871094 161.566406 C 342.308594 160.59375 342.308594 159.800781 342.046875 159.449219 Z M 205.554688 143.84375 L 173.109375 143.84375 L 173.109375 144.8125 C 173.109375 146.929688 173.195312 148.957031 173.195312 151.074219 C 173.195312 152.484375 173.460938 152.75 174.871094 152.75 C 175.753906 152.75 176.636719 152.75 177.515625 152.75 L 179.722656 152.75 L 179.722656 153.628906 C 179.722656 153.984375 179.722656 154.335938 179.722656 154.6875 C 179.722656 155.394531 179.722656 156.097656 179.722656 156.714844 L 179.722656 156.890625 C 179.722656 156.980469 179.722656 156.980469 179.722656 157.070312 C 179.722656 157.332031 179.898438 157.597656 180.074219 157.773438 C 180.339844 157.949219 180.601562 158.039062 180.867188 158.039062 C 181.484375 157.949219 181.925781 157.421875 181.835938 156.890625 L 181.835938 156.714844 C 181.835938 156.097656 181.835938 155.394531 181.835938 154.777344 C 181.835938 154.601562 181.75 153.804688 182.277344 153.277344 C 182.71875 152.835938 183.335938 152.75 183.777344 152.75 C 184.746094 152.75 185.71875 152.75 186.6875 152.75 C 187.304688 152.75 187.832031 152.75 188.449219 152.75 C 190.476562 152.75 192.507812 152.75 194.621094 152.75 C 194.621094 152.75 194.710938 152.75 194.710938 152.75 C 195.238281 152.75 195.855469 152.835938 196.296875 153.277344 C 196.738281 153.804688 196.738281 154.511719 196.738281 154.953125 C 196.648438 155.570312 196.648438 156.097656 196.738281 156.714844 C 196.738281 157.421875 197.265625 157.949219 197.882812 157.949219 C 198.414062 157.949219 198.941406 157.507812 198.941406 156.890625 C 199.03125 156.011719 199.03125 155.21875 198.941406 154.421875 C 198.941406 154.246094 198.941406 153.542969 199.382812 153.101562 C 199.824219 152.660156 200.441406 152.660156 200.707031 152.660156 C 202.027344 152.660156 203.175781 152.660156 204.234375 152.660156 L 204.410156 152.660156 C 204.496094 152.660156 204.585938 152.660156 204.675781 152.660156 C 205.292969 152.570312 205.730469 152.042969 205.644531 151.425781 L 205.644531 149.042969 C 205.554688 147.371094 205.554688 145.605469 205.554688 143.84375 Z M 205.910156 142.078125 L 205.996094 141.816406 L 206.085938 141.285156 L 206.261719 140.402344 L 206.347656 140.050781 L 206.703125 137.496094 C 202.558594 137.496094 198.414062 137.496094 194.359375 137.496094 L 189.242188 137.496094 C 188.980469 137.496094 188.804688 137.496094 188.539062 137.496094 C 187.65625 137.496094 186.773438 137.496094 185.894531 137.496094 C 181.21875 137.496094 176.636719 137.496094 171.960938 137.496094 L 172.402344 140.316406 L 172.578125 141.199219 L 172.753906 142.078125 Z M 189.332031 49.410156 C 190.917969 49.410156 192.328125 48.175781 192.328125 46.5 C 192.417969 45.707031 192.328125 45.003906 192.328125 44.207031 C 192.328125 43.503906 192.328125 42.796875 192.328125 42.003906 C 192.242188 40.417969 191.007812 39.183594 189.421875 39.09375 C 187.832031 39.09375 186.511719 40.328125 186.511719 41.917969 C 186.421875 43.414062 186.421875 44.914062 186.511719 46.324219 C 186.421875 48.089844 187.746094 49.324219 189.332031 49.410156 Z M 136.957031 97.375 C 137.664062 97.464844 138.367188 97.375 139.074219 97.375 C 139.867188 97.375 140.574219 97.375 141.367188 97.375 C 141.632812 97.375 141.808594 97.375 142.070312 97.289062 C 143.304688 97.023438 144.277344 95.878906 144.363281 94.554688 C 144.453125 92.878906 143.128906 91.558594 141.542969 91.46875 C 140.042969 91.378906 138.546875 91.378906 137.046875 91.46875 C 135.457031 91.558594 134.222656 92.792969 134.222656 94.464844 C 134.222656 95.261719 134.488281 95.878906 135.019531 96.40625 C 135.371094 96.933594 136.164062 97.375 136.957031 97.375 Z M 234.386719 94.378906 C 234.386719 96.054688 235.621094 97.375 237.296875 97.375 C 238.796875 97.464844 240.296875 97.464844 241.792969 97.375 C 243.382812 97.289062 244.617188 95.964844 244.617188 94.378906 C 244.617188 92.792969 243.382812 91.558594 241.882812 91.46875 C 241.089844 91.378906 240.382812 91.46875 239.589844 91.46875 C 238.796875 91.46875 238.089844 91.46875 237.296875 91.46875 C 235.710938 91.46875 234.476562 92.792969 234.386719 94.378906 Z M 211.816406 55.40625 C 211.816406 55.40625 211.902344 55.496094 211.902344 55.496094 C 213.316406 56.289062 215.078125 55.847656 215.871094 54.4375 C 216.664062 53.203125 217.457031 51.878906 218.164062 50.46875 C 218.339844 50.117188 218.429688 49.761719 218.515625 49.410156 C 218.605469 48 217.722656 46.765625 216.402344 46.324219 C 215.167969 45.972656 213.753906 46.414062 213.136719 47.558594 C 212.34375 48.792969 211.640625 50.117188 210.933594 51.4375 C 209.964844 52.761719 210.40625 54.523438 211.816406 55.40625 Z M 231.039062 73.394531 C 231.300781 73.394531 231.65625 73.304688 231.917969 73.21875 C 233.507812 72.335938 235.09375 71.542969 236.59375 70.484375 C 237.738281 69.601562 238.003906 68.015625 237.210938 66.78125 C 236.503906 65.546875 234.917969 65.015625 233.59375 65.546875 C 232.007812 66.339844 230.507812 67.222656 229.007812 68.191406 C 228.039062 68.984375 227.6875 70.21875 228.128906 71.453125 C 228.570312 72.601562 229.804688 73.394531 231.039062 73.394531 Z M 163.144531 54.699219 C 163.851562 55.671875 165.171875 56.113281 166.320312 55.671875 C 167.554688 55.230469 168.433594 53.996094 168.347656 52.671875 C 168.347656 52.410156 168.257812 52.054688 168.171875 51.792969 C 167.378906 50.292969 166.496094 48.707031 165.613281 47.292969 C 164.730469 46.058594 163.058594 45.796875 161.824219 46.589844 C 160.5 47.292969 159.972656 48.882812 160.589844 50.203125 C 161.292969 51.792969 162.175781 53.289062 163.144531 54.699219 Z M 142.160156 70.484375 C 143.660156 71.542969 145.15625 72.421875 146.832031 73.128906 C 148.683594 73.921875 150.710938 72.421875 150.976562 70.21875 C 150.625 69.425781 150.09375 68.71875 149.566406 68.101562 C 148.15625 67.132812 146.746094 66.25 145.15625 65.546875 C 143.835938 64.929688 142.335938 65.457031 141.542969 66.691406 C 140.75 67.925781 141.015625 69.601562 142.160156 70.484375 Z M 165.347656 100.199219 C 165.527344 100.550781 165.613281 100.816406 165.789062 101.167969 C 165.964844 101.519531 166.144531 101.785156 166.320312 102.136719 C 166.40625 102.402344 166.582031 102.578125 166.671875 102.753906 C 169.40625 107.339844 173.460938 111.042969 178.398438 113.335938 L 178.398438 123.476562 C 178.398438 124.886719 179.542969 125.945312 180.867188 125.945312 L 182.191406 125.945312 C 183.601562 125.945312 184.660156 124.796875 184.660156 123.476562 L 184.660156 115.363281 C 186.15625 115.628906 187.65625 115.804688 189.242188 115.804688 C 189.949219 115.804688 190.65625 115.804688 191.273438 115.714844 C 191.273438 115.714844 191.359375 115.714844 191.359375 115.714844 L 191.359375 123.5625 C 191.359375 124.09375 191.535156 124.621094 191.890625 125.0625 C 192.328125 125.679688 193.035156 126.03125 193.917969 126.03125 L 195.238281 126.03125 C 196.648438 126.03125 197.707031 124.886719 197.707031 123.5625 L 197.707031 114.304688 C 201.851562 112.894531 205.46875 110.515625 208.464844 107.339844 C 208.730469 107.074219 208.90625 106.8125 209.171875 106.546875 C 209.433594 106.28125 209.613281 106.015625 209.875 105.753906 C 211.023438 104.339844 211.992188 102.84375 212.785156 101.167969 C 214.550781 97.640625 215.605469 93.585938 215.605469 89.351562 C 215.605469 74.804688 203.792969 63.078125 189.332031 63.078125 C 174.871094 63.078125 163.058594 74.890625 163.058594 89.441406 C 163.058594 93.230469 163.851562 96.933594 165.347656 100.199219 Z M 194.269531 256.4375 C 193.300781 250.089844 191.183594 244.09375 188.273438 238.628906 C 187.921875 238.011719 187.570312 237.304688 187.214844 236.6875 C 186.863281 236.070312 186.511719 235.542969 186.15625 234.925781 L 182.191406 234.660156 L 180.957031 234.570312 L 179.632812 234.484375 L 178.398438 234.394531 L 176.636719 234.308594 L 174.695312 234.21875 L 173.8125 235.011719 L 173.371094 235.453125 C 173.726562 235.894531 174.167969 236.421875 174.519531 236.863281 C 175.046875 237.570312 175.578125 238.1875 176.019531 238.890625 C 176.546875 239.6875 177.074219 240.390625 177.515625 241.183594 C 181.574219 247.886719 183.867188 255.734375 183.867188 264.199219 C 183.867188 266.488281 183.6875 268.695312 183.335938 270.898438 C 183.335938 271.164062 183.25 271.515625 183.160156 271.78125 C 183.070312 272.042969 183.070312 272.398438 182.984375 272.660156 C 182.808594 273.367188 182.71875 274.074219 182.542969 274.777344 C 177.78125 294.441406 160.148438 309.078125 138.984375 309.078125 C 118.882812 309.078125 101.953125 295.851562 96.222656 277.6875 C 94.898438 273.457031 94.195312 268.957031 94.195312 264.285156 C 94.195312 263.402344 94.195312 262.523438 94.28125 261.550781 C 94.28125 261.289062 94.28125 260.933594 94.371094 260.671875 C 94.371094 260.40625 94.371094 260.054688 94.460938 259.789062 C 95.078125 253.351562 97.105469 247.269531 100.191406 241.976562 C 100.894531 240.832031 101.601562 239.597656 102.394531 238.539062 C 104.953125 234.925781 107.949219 231.75 111.386719 229.105469 C 112.09375 228.574219 112.710938 228.046875 113.414062 227.605469 C 120.644531 222.582031 129.464844 219.582031 138.984375 219.582031 C 139.515625 219.582031 140.132812 219.582031 140.660156 219.582031 C 141.277344 219.582031 141.808594 219.671875 142.425781 219.671875 C 152.035156 220.375 160.851562 224.167969 167.816406 230.074219 L 169.230469 228.753906 L 168.964844 225.929688 L 168.875 224.785156 L 168.789062 223.726562 L 168.347656 218.171875 L 168.699219 217.820312 C 161.382812 213.234375 152.828125 210.234375 143.746094 209.441406 C 143.128906 209.355469 142.601562 209.355469 141.984375 209.265625 C 141.015625 209.179688 140.042969 209.179688 138.984375 209.179688 C 126.023438 209.179688 114.03125 213.675781 104.511719 221.082031 C 103.804688 221.609375 103.1875 222.140625 102.570312 222.667969 C 101.425781 223.636719 100.277344 224.695312 99.21875 225.753906 C 98.691406 226.285156 98.164062 226.8125 97.722656 227.339844 C 90.402344 235.277344 85.378906 245.328125 83.703125 256.527344 C 83.613281 257.144531 83.527344 257.847656 83.4375 258.464844 C 83.4375 258.730469 83.347656 259.082031 83.347656 259.347656 C 83.347656 259.613281 83.347656 259.964844 83.261719 260.230469 C 83.171875 261.113281 83.171875 261.90625 83.085938 262.785156 C 83.085938 263.582031 82.996094 264.285156 82.996094 265.078125 C 82.996094 266.402344 83.085938 267.722656 83.171875 269.046875 C 83.347656 272.132812 83.878906 275.128906 84.582031 278.039062 C 90.492188 302.640625 112.621094 320.980469 138.984375 320.980469 C 166.671875 320.980469 189.683594 300.789062 194.179688 274.335938 C 194.179688 274.25 194.179688 274.160156 194.269531 274.074219 C 194.359375 273.808594 194.359375 273.457031 194.445312 273.191406 C 194.445312 272.925781 194.535156 272.574219 194.535156 272.308594 C 194.710938 271.25 194.796875 270.105469 194.886719 269.046875 C 194.976562 267.722656 195.0625 266.402344 195.0625 265.078125 C 195.0625 264.285156 195.0625 263.492188 194.976562 262.785156 C 194.796875 260.582031 194.621094 258.464844 194.269531 256.4375 Z M 154.0625 234.308594 C 151.507812 233.074219 148.773438 232.101562 145.863281 231.484375 C 144.277344 231.132812 142.6875 230.957031 141.015625 230.867188 C 140.925781 230.867188 140.75 230.867188 140.660156 230.867188 C 140.21875 230.867188 139.691406 230.867188 139.25 230.867188 C 139.164062 230.867188 139.074219 230.867188 138.984375 230.867188 C 136.605469 230.867188 134.222656 231.132812 131.933594 231.574219 C 117.648438 234.570312 106.714844 246.386719 105.039062 261.113281 C 105.039062 261.375 104.953125 261.730469 104.953125 261.992188 C 104.953125 262.257812 104.863281 262.609375 104.863281 262.875 C 104.863281 263.582031 104.773438 264.285156 104.773438 264.992188 C 104.773438 269.3125 105.570312 273.457031 107.066406 277.246094 C 112.003906 290.03125 124.4375 299.113281 138.898438 299.113281 C 154.238281 299.113281 167.199219 288.972656 171.519531 275.042969 C 171.875 273.808594 172.226562 272.574219 172.402344 271.25 C 172.492188 270.988281 172.492188 270.632812 172.578125 270.371094 C 172.667969 270.105469 172.667969 269.753906 172.667969 269.488281 C 172.84375 267.988281 173.019531 266.488281 173.019531 264.902344 C 173.019531 256.527344 170.023438 248.945312 165.085938 242.949219 L 157.5 250.089844 C 160.5 253.96875 162.261719 258.90625 162.261719 264.199219 C 162.261719 265.519531 162.175781 266.929688 161.910156 268.164062 C 161.824219 268.429688 161.824219 268.78125 161.734375 269.046875 C 161.644531 269.3125 161.644531 269.664062 161.558594 269.929688 C 161.027344 271.867188 160.324219 273.71875 159.355469 275.484375 C 155.386719 282.625 147.714844 287.5625 138.984375 287.5625 C 130.785156 287.5625 123.554688 283.332031 119.410156 276.894531 C 117.03125 273.277344 115.707031 268.957031 115.707031 264.285156 C 115.707031 264.019531 115.707031 263.667969 115.707031 263.402344 C 115.707031 263.140625 115.707031 262.785156 115.796875 262.523438 C 116.679688 250.796875 126.199219 241.539062 138.015625 241.007812 C 138.367188 241.007812 138.722656 241.007812 138.984375 241.007812 C 139.25 241.007812 139.515625 241.007812 139.78125 241.007812 C 144.363281 241.183594 148.683594 242.683594 152.210938 245.0625 L 159.707031 237.835938 C 157.941406 236.421875 156.003906 235.277344 154.0625 234.308594 Z M 138.984375 256.527344 C 139.425781 256.527344 139.78125 256.527344 140.132812 256.613281 L 145.070312 251.851562 C 143.21875 250.972656 141.191406 250.441406 138.984375 250.441406 C 138.808594 250.441406 138.722656 250.441406 138.546875 250.441406 C 137.929688 250.441406 137.3125 250.53125 136.78125 250.617188 C 130.433594 251.675781 125.496094 257.054688 125.230469 263.582031 C 125.230469 263.757812 125.230469 264.019531 125.230469 264.199219 C 125.230469 264.285156 125.230469 264.375 125.230469 264.460938 C 125.230469 264.726562 125.230469 265.078125 125.320312 265.34375 C 125.761719 270.105469 128.582031 274.160156 132.550781 276.363281 C 134.488281 277.421875 136.695312 277.953125 139.074219 277.953125 C 141.71875 277.953125 144.1875 277.160156 146.304688 275.835938 C 148.949219 274.160156 150.976562 271.691406 152.035156 268.695312 C 152.125 268.429688 152.210938 268.164062 152.300781 267.8125 C 152.386719 267.546875 152.476562 267.285156 152.5625 266.929688 C 152.742188 266.050781 152.828125 265.078125 152.828125 264.109375 C 152.828125 261.375 152.035156 258.730469 150.625 256.613281 L 145.6875 261.289062 C 145.863281 261.90625 146.039062 262.609375 146.039062 263.402344 C 146.039062 264.375 145.863281 265.253906 145.511719 266.136719 C 145.421875 266.402344 145.246094 266.667969 145.070312 266.929688 C 144.894531 267.195312 144.71875 267.460938 144.539062 267.722656 C 143.304688 269.3125 141.367188 270.28125 139.164062 270.28125 C 136.339844 270.28125 133.960938 268.605469 132.902344 266.226562 C 132.726562 265.960938 132.636719 265.609375 132.550781 265.253906 C 132.460938 264.992188 132.371094 264.636719 132.371094 264.375 C 132.285156 264.019531 132.285156 263.667969 132.285156 263.316406 C 132.109375 259.613281 135.195312 256.527344 138.984375 256.527344 Z M 138.984375 256.527344 " fill-opacity="1" fill-rule="nonzero"/><g clip-path="url(#cc750ce9b4)"><path fill="#000000" d="M 60.511719 158.480469 L 62.277344 158.832031 L 78.851562 162.625 L 80.878906 153.628906 C 81.058594 152.660156 81.144531 151.777344 80.96875 150.808594 C 80.878906 150.191406 80.703125 149.574219 80.441406 148.957031 C 80.261719 148.515625 80.085938 148.164062 79.824219 147.722656 C 78.765625 145.957031 77 144.722656 74.972656 144.285156 L 74.089844 144.105469 C 75.855469 143.050781 77 141.109375 77 138.816406 C 77 135.378906 74.269531 132.644531 70.828125 132.644531 C 67.390625 132.644531 64.65625 135.378906 64.65625 138.816406 C 64.65625 140.050781 65.007812 141.199219 65.625 142.167969 L 64.832031 141.992188 C 64.65625 141.902344 64.390625 141.902344 64.214844 141.902344 C 63.953125 141.902344 63.597656 141.816406 63.335938 141.816406 C 63.070312 141.816406 62.71875 141.816406 62.453125 141.816406 C 61.21875 141.902344 60.070312 142.34375 59.015625 142.960938 C 58.398438 143.3125 57.867188 143.84375 57.425781 144.371094 C 56.546875 145.339844 55.929688 146.488281 55.664062 147.808594 L 53.636719 156.804688 L 57.957031 157.773438 Z M 55.75 155.570312 L 57.425781 148.339844 C 57.515625 148.074219 57.515625 147.898438 57.601562 147.722656 C 58.308594 145.605469 60.25 144.105469 62.363281 143.753906 C 62.628906 143.667969 62.980469 143.667969 63.246094 143.667969 C 63.511719 143.667969 63.863281 143.667969 64.128906 143.753906 C 64.304688 143.753906 64.390625 143.753906 64.570312 143.84375 L 74.621094 146.136719 C 76.207031 146.488281 77.53125 147.457031 78.324219 148.78125 C 78.675781 149.398438 78.941406 150.015625 79.117188 150.632812 C 79.292969 151.515625 79.292969 152.394531 79.117188 153.277344 L 77.441406 160.507812 L 62.363281 157.070312 L 61.484375 156.890625 L 60.601562 156.714844 L 57.78125 156.097656 Z M 71.003906 134.585938 C 73.472656 134.585938 75.414062 136.523438 75.414062 138.992188 C 75.414062 141.460938 73.472656 143.402344 71.003906 143.402344 C 68.535156 143.402344 66.597656 141.460938 66.597656 138.992188 C 66.597656 136.523438 68.535156 134.585938 71.003906 134.585938 Z M 111.210938 153.367188 L 111.652344 153.453125 L 111.742188 152.925781 L 113.414062 145.429688 L 112.179688 145.164062 L 88.375 139.699219 L 86.523438 147.722656 L 106.273438 152.21875 Z M 111.386719 146.753906 L 110.328125 151.335938 L 88.550781 146.398438 L 89.609375 141.816406 Z M 111.5625 164.5625 L 114.386719 165.179688 L 116.238281 157.15625 L 112.621094 156.363281 L 110.859375 156.011719 L 97.632812 153.011719 L 85.90625 150.367188 L 85.640625 151.515625 L 84.054688 158.390625 L 109.800781 164.296875 Z M 111.828125 162.886719 L 110.066406 162.535156 L 86.171875 157.070312 L 87.230469 152.484375 L 110.683594 157.863281 L 112.445312 158.214844 L 114.210938 158.65625 L 113.152344 163.242188 Z M 343.457031 158.390625 C 342.664062 157.332031 341.074219 157.15625 339.839844 157.15625 L 332.171875 157.15625 L 332.171875 148.339844 L 312.242188 148.339844 L 315.945312 118.976562 L 226.011719 107.78125 C 227.15625 105.398438 227.953125 103.019531 228.65625 100.636719 C 231.65625 89.527344 229.539062 78.773438 222.308594 68.457031 C 214.550781 57.523438 202.027344 51.085938 188.625 51.351562 C 175.222656 51.613281 162.792969 58.582031 155.472656 69.953125 C 149.65625 78.949219 147.714844 88.382812 149.566406 98.257812 L 142.070312 97.289062 C 141.894531 97.375 141.632812 97.375 141.367188 97.375 C 140.574219 97.375 139.867188 97.375 139.074219 97.375 C 138.367188 97.375 137.664062 97.375 136.957031 97.375 C 136.164062 97.375 135.371094 96.933594 134.839844 96.40625 L 69.242188 88.207031 L 67.039062 106.105469 L 65.1875 121.183594 L 59.542969 119.859375 C 58.574219 119.683594 57.601562 119.59375 56.632812 119.683594 C 54.429688 119.949219 52.402344 120.917969 50.992188 122.59375 C 47.902344 124.972656 45.257812 129.03125 44.640625 131.761719 L 38.027344 160.773438 C 37.5 163.0625 37.941406 165.445312 39.175781 167.382812 C 40.410156 169.324219 42.347656 170.734375 44.640625 171.265625 L 58.484375 174.4375 L 58.484375 174.527344 L 48.34375 255.734375 L 61.304688 257.320312 L 81.496094 259.878906 C 81.320312 261.550781 81.234375 263.226562 81.234375 264.992188 C 81.234375 266.3125 81.320312 267.636719 81.410156 268.957031 C 81.320312 270.28125 81.234375 271.605469 81.234375 272.925781 C 81.234375 274.691406 81.320312 276.363281 81.496094 278.039062 C 84.144531 307.488281 108.917969 330.589844 138.984375 330.589844 C 170.375 330.589844 195.945312 305.460938 196.648438 274.25 L 294.875 286.503906 L 296.8125 270.722656 L 303.867188 214.292969 C 309.773438 214.292969 315.945312 214.292969 322.558594 214.292969 C 323.175781 214.292969 323.882812 214.203125 324.5 214.027344 C 327.320312 213.320312 329.523438 211.207031 330.40625 208.382812 C 332.347656 201.773438 334.285156 195.070312 336.226562 188.371094 C 337.726562 183.253906 339.136719 178.140625 340.546875 173.027344 C 340.898438 171.882812 341.164062 170.734375 341.515625 169.675781 C 342.222656 167.207031 342.925781 164.652344 343.632812 162.183594 C 343.984375 161.035156 344.25 159.449219 343.457031 158.390625 Z M 339.136719 171.792969 C 339.046875 172.058594 338.960938 172.324219 338.871094 172.675781 C 337.460938 177.789062 335.960938 182.902344 334.550781 188.015625 C 333.757812 190.75 332.964844 193.484375 332.171875 196.304688 C 331.90625 197.363281 331.554688 198.332031 331.289062 199.390625 C 330.496094 202.300781 329.613281 205.121094 328.730469 208.03125 C 328.113281 210.148438 326.4375 211.734375 324.410156 212.351562 C 323.792969 212.527344 323.175781 212.617188 322.558594 212.617188 C 316.125 212.617188 310.039062 212.617188 304.132812 212.617188 C 303.867188 212.617188 303.515625 212.617188 303.25 212.617188 C 302.984375 212.617188 302.632812 212.617188 302.367188 212.617188 C 286.585938 212.617188 272.300781 212.617188 256.34375 212.617188 C 255.726562 212.617188 255.195312 212.617188 254.578125 212.617188 C 249.199219 212.617188 243.644531 212.617188 237.828125 212.617188 C 237.648438 212.617188 237.386719 212.617188 237.121094 212.527344 C 236.679688 212.441406 236.238281 212.351562 235.886719 212 C 235.796875 211.910156 235.710938 211.910156 235.710938 211.824219 C 235.535156 211.648438 235.535156 211.382812 235.445312 211.207031 C 235.445312 211.207031 235.445312 211.117188 235.445312 211.117188 C 235.445312 210.851562 235.445312 210.589844 235.445312 210.414062 C 235.445312 210.148438 235.535156 209.972656 235.621094 209.796875 C 236.945312 205.035156 238.355469 200.273438 239.679688 195.511719 C 239.855469 194.984375 240.03125 194.367188 240.207031 193.835938 C 240.472656 192.953125 240.734375 192.160156 240.914062 191.277344 C 241.089844 190.75 241.265625 190.132812 241.351562 189.605469 C 241.53125 189.164062 241.617188 188.632812 241.792969 188.191406 C 242.058594 187.136719 242.410156 186.164062 242.675781 185.105469 C 242.765625 184.753906 242.941406 184.3125 243.027344 183.960938 C 243.292969 182.992188 243.558594 182.019531 243.820312 181.140625 C 244.175781 179.90625 244.527344 178.582031 244.878906 177.347656 C 244.96875 177.082031 245.058594 176.820312 245.058594 176.644531 C 245.496094 175.054688 245.9375 173.378906 246.46875 171.792969 C 246.554688 171.617188 246.554688 171.441406 246.644531 171.265625 C 246.730469 170.910156 246.910156 170.46875 246.996094 170.117188 C 247.613281 168.089844 248.144531 166.0625 248.761719 164.035156 C 249.554688 161.125 252.109375 159.183594 255.109375 159.183594 C 255.109375 159.183594 255.195312 159.183594 255.195312 159.183594 C 257.3125 159.183594 259.339844 159.183594 261.457031 159.183594 C 262.074219 159.183594 262.601562 159.183594 263.21875 159.183594 C 274.683594 159.183594 286.144531 159.183594 297.695312 159.183594 C 298.046875 159.183594 298.402344 159.183594 298.753906 159.183594 C 299.105469 159.183594 299.546875 159.183594 299.898438 159.183594 C 300.691406 159.183594 301.488281 159.183594 302.367188 159.183594 L 339.929688 159.183594 C 341.164062 159.183594 341.871094 159.359375 342.132812 159.714844 C 342.398438 160.066406 342.398438 160.859375 342.046875 162.007812 C 341.253906 164.652344 340.546875 167.296875 339.839844 169.941406 C 339.488281 170.382812 339.3125 171.089844 339.136719 171.792969 Z M 207.230469 273.894531 L 196.738281 272.574219 C 196.738281 271.339844 196.648438 270.191406 196.5625 269.046875 C 196.648438 267.722656 196.738281 266.402344 196.738281 265.078125 C 196.738281 255.644531 194.445312 246.738281 190.476562 238.890625 C 190.125 238.273438 189.773438 237.65625 189.507812 236.953125 C 188.980469 235.980469 188.449219 235.101562 187.921875 234.21875 L 205.996094 216.054688 L 214.285156 207.765625 L 197.003906 206.445312 L 196.296875 190.132812 L 196.296875 189.605469 L 195.855469 190.042969 L 182.453125 203.886719 L 180.425781 206.003906 L 176.019531 210.589844 L 174.519531 212.175781 L 170.375 216.496094 C 165.964844 213.675781 161.117188 211.46875 156.003906 209.882812 C 152.300781 208.738281 148.421875 208.03125 144.363281 207.679688 C 143.746094 207.589844 143.21875 207.589844 142.601562 207.503906 C 141.542969 207.414062 140.484375 207.414062 139.425781 207.414062 C 138.632812 207.414062 137.839844 207.414062 137.046875 207.503906 C 125.230469 208.03125 114.296875 212.085938 105.304688 218.613281 C 104.597656 219.140625 103.980469 219.582031 103.363281 220.113281 C 101.335938 221.785156 99.398438 223.550781 97.546875 225.488281 C 97.015625 226.019531 96.574219 226.546875 96.132812 227.078125 C 88.640625 235.628906 83.613281 246.386719 82.203125 258.289062 L 61.746094 255.734375 L 50.8125 254.410156 L 59.367188 185.902344 L 60.6875 174.96875 L 107.242188 185.546875 L 107.597656 185.636719 C 108.039062 185.722656 108.476562 185.8125 108.917969 185.8125 C 112.359375 185.8125 116.855469 183.433594 119.5 180.523438 C 119.941406 179.992188 120.382812 179.464844 120.734375 178.933594 C 121.175781 178.230469 121.527344 177.523438 121.703125 176.820312 L 121.878906 175.410156 C 122.058594 174.878906 122.320312 174.351562 122.410156 173.820312 L 126.289062 156.628906 L 126.640625 154.863281 L 128.933594 144.8125 C 129.992188 140.050781 127.082031 135.378906 122.320312 134.230469 L 115.53125 132.644531 L 113.769531 132.292969 L 94.28125 127.796875 L 78.058594 124.09375 L 66.949219 121.535156 L 68.890625 106.015625 L 70.917969 90.144531 L 149.917969 100.019531 C 150.183594 101.078125 150.449219 102.136719 150.800781 103.285156 C 150.890625 103.546875 150.976562 103.8125 151.066406 104.078125 C 151.945312 106.546875 153.003906 108.925781 154.238281 111.21875 C 154.679688 112.101562 155.210938 112.984375 155.648438 113.863281 C 156.796875 115.890625 158.03125 117.832031 159.265625 119.773438 L 160.058594 121.007812 C 162.878906 125.503906 165.789062 130.175781 167.90625 135.203125 C 168.082031 135.554688 168.171875 135.90625 168.347656 136.261719 C 168.523438 136.699219 168.789062 136.964844 169.050781 137.140625 C 169.492188 137.40625 169.933594 137.496094 170.285156 137.496094 L 171.257812 143.84375 L 171.34375 143.84375 L 171.34375 144.8125 C 171.34375 146.839844 171.433594 148.957031 171.433594 150.984375 C 171.433594 153.367188 172.492188 154.421875 174.785156 154.421875 C 175.664062 154.421875 176.546875 154.421875 177.515625 154.421875 L 177.957031 154.421875 C 177.957031 154.421875 177.957031 154.511719 177.957031 154.511719 C 177.957031 155.21875 177.957031 155.921875 177.957031 156.628906 C 177.957031 156.714844 177.957031 156.890625 177.957031 156.980469 C 178.046875 157.773438 178.398438 158.390625 178.929688 158.921875 C 179.457031 159.449219 180.25 159.625 181.042969 159.625 C 182.632812 159.539062 183.777344 158.125 183.6875 156.628906 C 183.6875 155.921875 183.6875 155.21875 183.6875 154.511719 C 183.6875 154.511719 183.6875 154.421875 183.6875 154.421875 C 183.6875 154.421875 183.777344 154.421875 183.867188 154.421875 C 184.746094 154.421875 185.628906 154.421875 186.511719 154.421875 C 187.128906 154.421875 187.65625 154.421875 188.273438 154.421875 C 190.390625 154.421875 192.507812 154.421875 194.710938 154.421875 C 194.886719 154.421875 194.976562 154.421875 195.0625 154.421875 C 195.0625 154.511719 195.0625 154.601562 195.0625 154.777344 C 194.976562 155.480469 194.976562 156.1875 195.0625 156.804688 C 195.0625 158.390625 196.296875 159.714844 197.972656 159.714844 C 199.472656 159.714844 200.792969 158.480469 200.792969 156.980469 C 200.882812 156.1875 200.882812 155.304688 200.792969 154.511719 C 202.027344 154.511719 203.175781 154.511719 204.320312 154.511719 C 204.496094 154.511719 204.675781 154.511719 204.9375 154.511719 C 206.527344 154.335938 207.582031 152.835938 207.40625 151.335938 L 207.40625 149.132812 C 207.40625 147.371094 207.40625 145.605469 207.40625 143.929688 L 207.496094 143.929688 L 207.761719 142.078125 L 208.023438 140.316406 L 208.464844 137.582031 C 209.347656 137.582031 210.140625 137.054688 210.40625 136.261719 L 211.023438 135.027344 C 212.433594 132.117188 213.933594 129.117188 215.519531 126.296875 C 216.753906 124.09375 218.074219 121.886719 219.398438 119.773438 C 221.339844 116.597656 223.277344 113.335938 225.042969 109.984375 C 225.128906 109.808594 225.21875 109.632812 225.304688 109.542969 L 314.007812 120.652344 L 310.570312 148.425781 L 293.285156 148.425781 C 292.667969 147.371094 291.964844 146.3125 291.347656 145.339844 L 290.023438 143.226562 C 288.878906 141.109375 286.671875 139.785156 284.203125 139.785156 C 278.03125 139.785156 271.773438 139.785156 265.511719 139.785156 C 264.894531 139.785156 264.367188 139.785156 263.75 139.785156 C 255.8125 139.785156 247.964844 139.785156 240.03125 139.785156 C 237.296875 139.785156 235.09375 141.199219 233.945312 143.488281 C 233.683594 144.019531 233.507812 144.546875 233.328125 145.164062 C 233.242188 145.339844 233.242188 145.605469 233.242188 145.871094 C 233.066406 147.015625 233.152344 148.074219 233.242188 149.222656 C 233.328125 149.925781 233.328125 150.632812 233.328125 151.335938 C 233.066406 156.1875 233.152344 161.125 233.242188 165.972656 C 233.242188 166.765625 233.242188 167.472656 233.242188 168.265625 C 233.242188 168.882812 233.242188 169.414062 233.242188 170.03125 C 233.242188 170.382812 233.242188 170.734375 233.242188 171.089844 C 233.242188 173.558594 233.328125 179.992188 233.507812 186.78125 C 233.507812 188.808594 233.59375 190.925781 233.59375 193.042969 C 233.59375 193.660156 233.59375 194.1875 233.59375 194.804688 C 233.683594 201.683594 233.769531 208.207031 233.769531 210.5 C 233.769531 210.675781 233.769531 210.941406 233.769531 211.117188 C 233.769531 211.207031 233.769531 211.207031 233.769531 211.292969 C 233.769531 211.292969 233.769531 211.382812 233.769531 211.382812 C 233.769531 211.824219 233.859375 212.175781 234.035156 212.441406 C 234.125 212.703125 234.300781 212.96875 234.386719 213.144531 C 234.917969 213.761719 235.886719 214.558594 237.914062 214.558594 C 243.734375 214.558594 249.199219 214.558594 254.492188 214.558594 C 255.109375 214.558594 255.636719 214.558594 256.253906 214.558594 C 264.542969 214.558594 272.300781 214.558594 280.148438 214.558594 C 287.378906 214.558594 294.609375 214.558594 302.28125 214.558594 L 295.226562 271.074219 L 293.550781 284.828125 Z M 83.261719 260.140625 C 83.261719 259.878906 83.261719 259.523438 83.347656 259.261719 C 83.347656 258.996094 83.4375 258.644531 83.4375 258.378906 C 83.527344 257.761719 83.613281 257.054688 83.703125 256.4375 C 85.464844 245.328125 90.492188 235.277344 97.722656 227.253906 C 98.25 226.722656 98.691406 226.195312 99.21875 225.667969 C 100.277344 224.609375 101.425781 223.550781 102.570312 222.582031 C 103.1875 222.050781 103.894531 221.523438 104.511719 220.992188 C 114.03125 213.585938 125.9375 209.089844 138.984375 209.089844 C 139.957031 209.089844 141.015625 209.089844 141.984375 209.179688 C 142.601562 209.179688 143.128906 209.265625 143.746094 209.355469 C 152.828125 210.148438 161.382812 213.058594 168.699219 217.730469 L 168.347656 218.082031 L 168.789062 223.636719 L 168.875 224.695312 L 168.964844 225.84375 L 169.230469 228.664062 L 167.816406 229.988281 L 163.851562 233.777344 L 162.261719 235.363281 L 159.707031 237.835938 L 152.210938 245.0625 L 145.070312 251.941406 L 140.132812 256.703125 C 139.78125 256.613281 139.339844 256.613281 138.984375 256.613281 C 135.195312 256.613281 132.019531 259.699219 132.019531 263.582031 C 132.019531 263.933594 132.019531 264.285156 132.109375 264.636719 C 132.195312 264.992188 132.195312 265.253906 132.285156 265.519531 C 132.371094 265.871094 132.460938 266.136719 132.636719 266.488281 C 133.695312 268.871094 136.164062 270.546875 138.898438 270.546875 C 141.101562 270.546875 143.042969 269.574219 144.277344 267.988281 C 144.453125 267.722656 144.628906 267.460938 144.804688 267.195312 C 144.980469 266.929688 145.15625 266.667969 145.246094 266.402344 C 145.597656 265.609375 145.773438 264.636719 145.773438 263.667969 C 145.773438 262.964844 145.6875 262.257812 145.421875 261.550781 L 150.359375 256.878906 L 157.414062 250.265625 L 164.996094 243.125 L 171.875 236.6875 L 173.109375 235.542969 L 173.550781 235.101562 L 174.429688 234.308594 L 176.371094 234.394531 L 178.132812 234.484375 L 179.367188 234.570312 L 180.691406 234.660156 L 181.925781 234.75 L 185.894531 235.011719 C 186.246094 235.628906 186.597656 236.160156 186.953125 236.777344 C 187.304688 237.394531 187.65625 238.011719 188.007812 238.714844 C 190.917969 244.183594 193.035156 250.179688 194.003906 256.527344 C 194.359375 258.554688 194.535156 260.671875 194.621094 262.785156 C 194.621094 263.582031 194.710938 264.285156 194.710938 265.078125 C 194.710938 266.402344 194.621094 267.722656 194.535156 269.046875 C 194.445312 270.105469 194.359375 271.25 194.179688 272.308594 C 194.179688 272.574219 194.09375 272.925781 194.09375 273.191406 C 194.09375 273.457031 194.003906 273.808594 193.917969 274.074219 C 193.917969 274.160156 193.917969 274.25 193.828125 274.335938 C 189.421875 300.789062 166.320312 320.980469 138.632812 320.980469 C 112.269531 320.980469 90.050781 302.640625 84.230469 278.039062 C 83.527344 275.128906 83.085938 272.132812 82.820312 269.046875 C 82.730469 267.722656 82.644531 266.402344 82.644531 265.078125 C 82.644531 264.285156 82.644531 263.492188 82.730469 262.785156 C 83.171875 261.816406 83.171875 261.023438 83.261719 260.140625 Z M 56.722656 121.445312 C 56.984375 121.445312 57.25 121.359375 57.601562 121.359375 C 58.132812 121.359375 58.660156 121.445312 59.191406 121.535156 L 60.953125 121.886719 L 65.007812 122.859375 L 66.773438 123.210938 L 113.679688 134.054688 L 115.445312 134.410156 L 122.058594 135.90625 C 125.847656 136.789062 128.230469 140.582031 127.347656 144.371094 L 124.964844 154.601562 L 124.613281 156.363281 L 123.46875 161.210938 L 121.703125 168.796875 L 120.644531 173.378906 C 120.558594 173.910156 120.382812 174.351562 120.117188 174.878906 C 119.324219 176.464844 118 177.699219 116.414062 178.40625 C 115.089844 178.933594 113.679688 179.113281 112.269531 178.757812 L 109.890625 178.230469 L 108.125 177.878906 L 103.980469 176.730469 L 61.21875 167.03125 L 59.453125 166.679688 L 58.21875 166.414062 L 49.402344 164.386719 C 45.613281 163.503906 43.230469 159.714844 44.113281 155.921875 L 50.726562 126.914062 C 50.992188 125.765625 51.519531 124.796875 52.226562 123.914062 C 53.28125 122.679688 54.695312 121.886719 56.191406 121.535156 C 56.367188 121.535156 56.546875 121.535156 56.722656 121.445312 Z M 156.882812 70.925781 C 163.851562 60.078125 175.753906 53.464844 188.625 53.203125 C 201.585938 52.9375 213.316406 58.84375 220.808594 69.515625 C 227.863281 79.476562 229.804688 89.96875 226.804688 100.816406 C 226.1875 103.105469 225.304688 105.398438 224.160156 107.691406 C 223.984375 107.957031 223.894531 108.222656 223.71875 108.484375 C 223.628906 108.75 223.453125 108.925781 223.367188 109.191406 C 223.367188 109.191406 223.367188 109.28125 223.277344 109.28125 C 221.601562 112.542969 219.664062 115.714844 217.722656 118.800781 C 216.402344 120.917969 215.078125 123.121094 213.84375 125.328125 C 212.167969 128.238281 210.757812 131.234375 209.347656 134.144531 L 208.730469 135.464844 C 208.730469 135.464844 208.730469 135.554688 208.640625 135.554688 C 208.554688 135.644531 208.378906 135.730469 208.289062 135.730469 L 208.199219 135.730469 C 204.585938 135.730469 200.96875 135.730469 197.355469 135.730469 C 196.296875 135.730469 195.328125 135.730469 194.269531 135.730469 L 189.332031 135.730469 C 189.15625 135.730469 189.066406 135.730469 188.890625 135.730469 C 183.25 135.730469 177.605469 135.730469 171.960938 135.730469 C 171.519531 135.730469 170.992188 135.730469 170.550781 135.730469 C 170.375 135.730469 170.199219 135.730469 170.109375 135.730469 C 170.109375 135.730469 170.109375 135.730469 170.023438 135.644531 C 170.023438 135.554688 170.023438 135.554688 169.933594 135.464844 C 167.730469 130 164.554688 124.972656 161.558594 120.125 L 160.765625 118.890625 C 159.175781 116.332031 157.5 113.6875 156.089844 110.953125 C 155.914062 110.601562 155.648438 110.160156 155.472656 109.808594 C 154.414062 107.78125 153.535156 105.664062 152.742188 103.546875 C 152.742188 103.460938 152.652344 103.371094 152.652344 103.285156 C 152.300781 102.3125 152.035156 101.34375 151.769531 100.375 C 151.683594 100.109375 151.59375 99.757812 151.507812 99.492188 C 151.417969 99.226562 151.417969 98.875 151.328125 98.609375 C 149.476562 88.910156 151.242188 79.652344 156.882812 70.925781 Z M 205.554688 151.425781 C 205.644531 152.042969 205.203125 152.570312 204.585938 152.660156 C 204.496094 152.660156 204.410156 152.660156 204.320312 152.660156 L 204.144531 152.660156 C 203.085938 152.660156 201.941406 152.660156 200.617188 152.660156 C 200.441406 152.660156 199.824219 152.660156 199.296875 153.101562 C 198.855469 153.542969 198.855469 154.160156 198.855469 154.421875 C 198.855469 155.21875 198.855469 156.011719 198.855469 156.890625 C 198.855469 157.507812 198.414062 157.949219 197.796875 157.949219 C 197.179688 157.949219 196.648438 157.421875 196.648438 156.714844 C 196.5625 156.097656 196.5625 155.480469 196.648438 154.953125 C 196.738281 154.511719 196.738281 153.804688 196.210938 153.277344 C 195.769531 152.75 195.0625 152.75 194.621094 152.75 C 194.621094 152.75 194.535156 152.75 194.535156 152.75 C 192.417969 152.75 190.390625 152.835938 188.363281 152.75 C 187.746094 152.75 187.214844 152.75 186.597656 152.75 C 185.628906 152.75 184.660156 152.75 183.6875 152.75 C 183.25 152.75 182.632812 152.835938 182.191406 153.277344 C 181.75 153.804688 181.75 154.511719 181.75 154.777344 C 181.75 155.394531 181.75 156.097656 181.75 156.714844 L 181.75 156.890625 C 181.835938 157.507812 181.308594 158.039062 180.777344 158.039062 C 180.515625 158.039062 180.160156 157.949219 179.984375 157.773438 C 179.722656 157.597656 179.632812 157.332031 179.632812 157.070312 C 179.632812 156.980469 179.632812 156.980469 179.632812 156.890625 L 179.632812 156.714844 C 179.632812 156.011719 179.632812 155.394531 179.632812 154.6875 C 179.632812 154.335938 179.632812 153.984375 179.632812 153.628906 L 179.632812 152.75 L 177.429688 152.75 C 176.457031 152.75 175.664062 152.75 174.785156 152.75 C 173.371094 152.75 173.109375 152.484375 173.109375 151.074219 C 173.109375 148.957031 173.109375 146.929688 173.019531 144.8125 L 173.019531 143.84375 L 205.46875 143.84375 C 205.46875 145.605469 205.46875 147.371094 205.46875 149.046875 L 205.46875 151.335938 Z M 206.171875 139.964844 L 206.085938 140.316406 L 205.910156 141.199219 L 205.820312 141.726562 L 205.730469 141.992188 L 172.753906 141.992188 L 172.402344 140.226562 L 171.960938 137.40625 C 176.636719 137.40625 181.21875 137.40625 185.894531 137.40625 C 186.773438 137.40625 187.65625 137.40625 188.539062 137.40625 C 188.804688 137.40625 188.980469 137.40625 189.242188 137.40625 L 194.179688 137.40625 C 198.324219 137.40625 202.46875 137.40625 206.527344 137.40625 Z M 330.40625 150.101562 L 330.40625 157.15625 L 302.191406 157.15625 C 300.957031 157.15625 299.8125 157.15625 298.578125 157.15625 C 298.222656 157.15625 297.871094 157.15625 297.519531 157.15625 C 297.167969 157.15625 296.8125 157.15625 296.460938 157.15625 C 285.4375 157.15625 274.328125 157.15625 263.308594 157.15625 C 262.691406 157.15625 262.160156 157.15625 261.542969 157.15625 C 259.429688 157.15625 257.222656 157.15625 255.109375 157.15625 C 251.316406 157.070312 247.964844 159.625 246.996094 163.328125 C 246.378906 165.445312 245.761719 167.5625 245.234375 169.675781 C 245.144531 169.941406 245.054688 170.292969 244.96875 170.558594 C 244.878906 170.824219 244.792969 171.089844 244.703125 171.351562 C 244.261719 172.851562 243.820312 174.4375 243.382812 175.9375 C 243.117188 176.820312 242.851562 177.699219 242.675781 178.582031 L 242.675781 150.191406 L 330.40625 150.191406 Z M 330.40625 150.101562 " fill-opacity="1" fill-rule="nonzero"/></g></svg>