<svg xmlns="http://www.w3.org/2000/svg" xmlns:xlink="http://www.w3.org/1999/xlink" width="500" zoomAndPan="magnify" viewBox="0 0 375 374.999991" height="500" preserveAspectRatio="xMidYMid meet" version="1.0"><defs><clipPath id="30b90a2505"><path d="M 121 336 L 340 336 L 340 363.75 L 121 363.75 Z M 121 336 " clip-rule="nonzero"/></clipPath><clipPath id="4e41e75f7c"><path d="M 42.449219 104.851562 L 99.75 104.851562 L 99.75 150.148438 L 42.449219 150.148438 Z M 42.449219 104.851562 " clip-rule="nonzero"/></clipPath></defs><path fill="#ffffff" d="M 264.628906 103.003906 C 236.085938 65.757812 247.890625 45.957031 227.480469 27.851562 C 196.078125 -0.00390625 129.734375 12.828125 88.132812 41.03125 C 37.183594 75.570312 4.640625 145.855469 23.886719 215.242188 C 44.386719 289.140625 116.070312 334.78125 185.238281 331.851562 C 247.007812 329.238281 312.382812 287.652344 325.3125 229.96875 C 326.714844 223.71875 333.648438 189.84375 317.136719 157.957031 C 303.492188 131.601562 287.25 132.53125 264.628906 103.003906 " fill-opacity="1" fill-rule="nonzero"/><path fill="#ffffff" d="M 111.464844 179.1875 C 112.972656 177.066406 129.96875 152.296875 119.292969 124.050781 C 111.800781 104.21875 92.738281 88.152344 70.605469 87.289062 C 66.871094 87.144531 43.324219 86.222656 30.6875 105.035156 C 22.175781 117.699219 21.246094 135.398438 29.519531 148.277344 C 39.347656 163.578125 58.125 165.757812 60.910156 166.039062 C 80.410156 168 91.160156 155.492188 101.792969 161.53125 C 108.300781 165.226562 110.546875 173.472656 111.464844 179.1875 " fill-opacity="1" fill-rule="nonzero"/><path fill="#000000" d="M 95.421875 159.242188 C 97.691406 159.242188 99.902344 159.730469 102.105469 160.980469 C 106.972656 163.742188 110.238281 169.3125 111.816406 177.53125 C 115.648438 171.632812 128.199219 149.410156 118.703125 124.273438 C 110.792969 103.34375 91.457031 88.738281 70.582031 87.921875 C 62.488281 87.605469 42.441406 88.675781 31.214844 105.386719 C 22.636719 118.152344 22.160156 135.648438 30.050781 147.933594 C 39.441406 162.546875 57.457031 165.054688 60.972656 165.40625 C 70.277344 166.347656 77.492188 163.960938 83.855469 161.859375 C 87.992188 160.492188 91.78125 159.242188 95.421875 159.242188 Z M 111.464844 179.816406 C 111.414062 179.816406 111.367188 179.8125 111.320312 179.800781 C 111.070312 179.746094 110.878906 179.539062 110.839844 179.285156 C 109.445312 170.609375 106.296875 164.820312 101.480469 162.082031 C 96.238281 159.105469 90.949219 160.851562 84.25 163.0625 C 77.769531 165.203125 70.417969 167.632812 60.847656 166.667969 C 55.761719 166.15625 38.445312 163.34375 28.984375 148.617188 C 20.828125 135.917969 21.3125 117.851562 30.164062 104.679688 C 41.746094 87.4375 62.320312 86.332031 70.628906 86.65625 C 81.359375 87.074219 91.800781 91.019531 100.828125 98.058594 C 109.351562 104.703125 116.117188 113.855469 119.886719 123.828125 C 130.589844 152.148438 113.917969 176.832031 111.980469 179.550781 C 111.859375 179.722656 111.667969 179.816406 111.464844 179.816406 " fill-opacity="1" fill-rule="nonzero"/><path fill="#ac1754" d="M 69.128906 120.761719 C 74.238281 112.148438 81.351562 108.25 85.46875 110.039062 C 90.183594 112.085938 90.035156 121.1875 89.992188 122.554688 C 89.613281 134.882812 78.488281 142.8125 76.183594 144.382812 C 74.511719 144.039062 54.785156 139.726562 51.433594 126.078125 C 50.425781 121.976562 50.375 114.925781 54.113281 112.917969 C 57.632812 111.03125 64.171875 113.804688 69.128906 120.761719 " fill-opacity="1" fill-rule="nonzero"/><path fill="#000000" d="M 119.699219 58.773438 L 142.734375 77.863281 C 144.421875 79.257812 146.695312 79.304688 147.808594 77.960938 L 149.640625 75.746094 C 150.753906 74.402344 150.289062 72.179688 148.601562 70.78125 L 125.566406 51.691406 L 119.699219 58.773438 " fill-opacity="1" fill-rule="nonzero"/><path fill="#000000" d="M 195.414062 35.363281 C 196.34375 40.652344 194.476562 45.402344 191.242188 45.96875 C 188.007812 46.535156 184.636719 42.710938 183.707031 37.417969 C 182.777344 32.132812 184.644531 27.382812 187.878906 26.816406 C 191.109375 26.246094 194.484375 30.074219 195.414062 35.363281 " fill-opacity="1" fill-rule="nonzero"/><path fill="#000000" d="M 113.449219 46.414062 L 115.085938 55.726562 C 115.335938 57.164062 117.375 58.003906 119.632812 57.605469 L 117.085938 43.097656 C 114.824219 43.496094 113.199219 44.976562 113.449219 46.414062 " fill-opacity="1" fill-rule="nonzero"/><path fill="#ffffff" d="M 182.425781 14.921875 L 178.804688 15.558594 L 116.6875 43.4375 L 119.234375 57.949219 L 186.683594 60.429688 L 190.308594 59.796875 L 182.425781 14.921875 " fill-opacity="1" fill-rule="nonzero"/><path fill="#000000" d="M 119.769531 57.332031 L 186.640625 59.800781 L 189.574219 59.285156 L 181.910156 15.65625 L 178.992188 16.171875 L 117.394531 43.8125 Z M 186.683594 61.066406 C 186.675781 61.066406 186.667969 61.066406 186.660156 61.066406 L 119.210938 58.582031 C 118.910156 58.570312 118.660156 58.351562 118.609375 58.058594 L 116.0625 43.546875 C 116.011719 43.261719 116.160156 42.980469 116.425781 42.859375 L 178.542969 14.980469 C 178.589844 14.960938 178.640625 14.945312 178.695312 14.9375 L 182.316406 14.296875 C 182.484375 14.269531 182.652344 14.308594 182.789062 14.402344 C 182.925781 14.5 183.019531 14.648438 183.050781 14.8125 L 190.929688 59.6875 C 190.960938 59.855469 190.921875 60.023438 190.824219 60.160156 C 190.730469 60.296875 190.582031 60.390625 190.417969 60.421875 L 186.792969 61.058594 C 186.757812 61.0625 186.722656 61.066406 186.683594 61.066406 " fill-opacity="1" fill-rule="nonzero"/><path fill="#ac1754" d="M 191.398438 61.707031 L 188.375 62.242188 C 187.070312 62.46875 185.863281 61.5 185.800781 60.175781 C 185.082031 45.351562 182.515625 30.65625 178.050781 16.101562 C 177.664062 14.835938 178.46875 13.515625 179.769531 13.285156 L 182.792969 12.753906 C 183.875 12.566406 184.933594 13.203125 185.269531 14.25 C 190.046875 29.148438 192.699219 44.222656 193.21875 59.46875 C 193.253906 60.566406 192.480469 61.519531 191.398438 61.707031 " fill-opacity="1" fill-rule="nonzero"/><path fill="#000000" d="M 286.070312 98.394531 C 279.738281 111.179688 271.683594 120.074219 265.953125 125.511719 C 254.386719 110.566406 247.921875 96.832031 244.230469 87.292969 C 239.207031 74.3125 236.535156 66.828125 239.199219 57.769531 C 242.246094 47.386719 251.941406 38.175781 263.914062 36 C 273.257812 34.308594 285.023438 36.585938 291.726562 44.472656 C 305.023438 60.132812 290.765625 88.921875 286.070312 98.394531 " fill-opacity="1" fill-rule="nonzero"/><path fill="#ffffff" d="M 266.433594 119.488281 C 266.421875 119.488281 266.40625 119.488281 266.390625 119.484375 C 266.203125 119.472656 266.03125 119.378906 265.921875 119.226562 C 258.339844 108.757812 252.21875 97.5625 247.71875 85.941406 C 247.59375 85.613281 247.753906 85.246094 248.082031 85.121094 C 248.410156 84.996094 248.777344 85.15625 248.902344 85.484375 C 253.269531 96.773438 259.1875 107.664062 266.5 117.863281 C 272.617188 111.328125 277.691406 104.035156 281.585938 96.171875 C 285.910156 87.4375 299.078125 60.859375 287.910156 47.714844 C 284.0625 43.183594 277.324219 40.480469 269.890625 40.480469 C 268.152344 40.480469 266.441406 40.632812 264.808594 40.925781 C 264.460938 40.988281 264.132812 40.761719 264.070312 40.417969 C 264.007812 40.070312 264.234375 39.742188 264.578125 39.679688 C 266.289062 39.371094 268.078125 39.214844 269.890625 39.214844 C 277.691406 39.214844 284.789062 42.085938 288.875 46.894531 C 300.582031 60.675781 287.136719 87.816406 282.722656 96.734375 C 278.660156 104.933594 273.332031 112.523438 266.894531 119.289062 C 266.773438 119.414062 266.609375 119.488281 266.433594 119.488281 " fill-opacity="1" fill-rule="nonzero"/><path fill="#ffffff" d="M 243.394531 59.636719 C 243.332031 59.636719 243.273438 59.625 243.214844 59.609375 C 242.878906 59.511719 242.6875 59.160156 242.785156 58.824219 C 243.402344 56.722656 244.335938 54.664062 245.558594 52.703125 C 245.746094 52.40625 246.136719 52.316406 246.429688 52.5 C 246.726562 52.6875 246.820312 53.078125 246.632812 53.375 C 245.472656 55.238281 244.585938 57.191406 244 59.179688 C 243.917969 59.457031 243.664062 59.636719 243.394531 59.636719 " fill-opacity="1" fill-rule="nonzero"/><path fill="#ffffff" d="M 284.792969 60.140625 C 284.792969 67.191406 278.324219 72.90625 270.34375 72.90625 C 262.367188 72.90625 255.898438 67.191406 255.898438 60.140625 C 255.898438 53.089844 262.367188 47.375 270.34375 47.375 C 278.324219 47.375 284.792969 53.089844 284.792969 60.140625 " fill-opacity="1" fill-rule="nonzero"/><path fill="#ac1754" d="M 37.378906 330.242188 C 37.378906 330.242188 35.988281 247.152344 91.824219 215.777344 C 112.484375 204.171875 137.207031 202.597656 161.289062 203.628906 C 178.234375 204.351562 194.683594 203.84375 209.949219 212.976562 C 231.636719 225.953125 250.226562 248.316406 261.726562 282.613281 L 272.164062 344.925781 L 37.378906 330.242188 " fill-opacity="1" fill-rule="nonzero"/><path fill="#ac1754" d="M 131.113281 341.246094 C 64.566406 340.296875 44.582031 347.882812 38.851562 337.179688 C 31.476562 323.40625 52.785156 288.824219 80.089844 282.121094 C 86.894531 280.449219 95.851562 280.074219 168.457031 318.550781 C 193.921875 332.046875 201.070312 336.464844 200.226562 339.800781 C 198.765625 345.597656 174.785156 341.867188 131.113281 341.246094 " fill-opacity="1" fill-rule="nonzero"/><path fill="#ffffff" d="M 115.460938 288.199219 C 115.410156 288.199219 115.359375 288.191406 115.308594 288.179688 C 114.96875 288.09375 114.761719 287.75 114.847656 287.410156 C 120.492188 264.949219 136.707031 246.488281 136.867188 246.300781 C 137.101562 246.039062 137.5 246.019531 137.761719 246.246094 C 138.023438 246.480469 138.046875 246.882812 137.816406 247.144531 C 137.65625 247.324219 121.640625 265.5625 116.074219 287.71875 C 116.003906 288.007812 115.746094 288.199219 115.460938 288.199219 " fill-opacity="1" fill-rule="nonzero"/><path fill="#ffffff" d="M 168.457031 318.550781 C 153.4375 310.59375 141.152344 304.300781 131.035156 299.335938 C 121.253906 305.851562 109.460938 318.496094 110.800781 341.207031 C 117.039062 341.140625 123.792969 341.140625 131.113281 341.246094 C 174.785156 341.867188 198.765625 345.597656 200.226562 339.800781 C 201.070312 336.464844 193.921875 332.046875 168.457031 318.550781 " fill-opacity="1" fill-rule="nonzero"/><path fill="#000000" d="M 119.347656 340.527344 C 123.261719 340.527344 127.199219 340.554688 131.125 340.609375 C 144.921875 340.808594 156.90625 341.320312 166.53125 341.734375 C 185.925781 342.5625 198.738281 343.113281 199.613281 339.648438 C 200.34375 336.753906 192.007812 331.75 168.160156 319.113281 C 153.9375 311.574219 141.46875 305.167969 131.085938 300.066406 C 121.414062 306.609375 110.335938 318.894531 111.402344 340.566406 C 114.03125 340.539062 116.683594 340.527344 119.347656 340.527344 Z M 186.433594 343.632812 C 181.230469 343.632812 174.597656 343.347656 166.476562 343 C 156.859375 342.585938 144.886719 342.074219 131.105469 341.878906 C 124.316406 341.78125 117.484375 341.769531 110.808594 341.839844 C 110.453125 341.847656 110.1875 341.582031 110.167969 341.242188 C 108.820312 318.367188 120.582031 305.542969 130.683594 298.804688 C 130.871094 298.683594 131.113281 298.667969 131.316406 298.765625 C 141.777344 303.902344 154.371094 310.371094 168.753906 317.992188 C 194.871094 331.835938 201.804688 336.125 200.84375 339.957031 C 200.128906 342.785156 195.414062 343.632812 186.433594 343.632812 " fill-opacity="1" fill-rule="nonzero"/><path fill="#ffffff" d="M 128.84375 298.898438 C 128.734375 298.898438 128.625 298.867188 128.523438 298.808594 C 128.421875 298.746094 118.003906 292.617188 106.347656 287.84375 C 106.023438 287.710938 105.867188 287.339844 106 287.015625 C 106.132812 286.691406 106.503906 286.539062 106.828125 286.667969 C 118.570312 291.484375 129.0625 297.65625 129.167969 297.71875 C 129.46875 297.894531 129.570312 298.285156 129.390625 298.585938 C 129.273438 298.785156 129.0625 298.898438 128.84375 298.898438 " fill-opacity="1" fill-rule="nonzero"/><path fill="#ffffff" d="M 113.179688 287.261719 C 112.945312 287.261719 112.722656 287.132812 112.613281 286.910156 C 108.175781 277.929688 111.660156 266.582031 111.808594 266.101562 C 111.914062 265.769531 112.273438 265.585938 112.605469 265.6875 C 112.9375 265.792969 113.125 266.148438 113.019531 266.484375 C 112.984375 266.59375 109.542969 277.832031 113.75 286.347656 C 113.902344 286.664062 113.773438 287.042969 113.460938 287.199219 C 113.371094 287.242188 113.273438 287.261719 113.179688 287.261719 " fill-opacity="1" fill-rule="nonzero"/><path fill="#ffffff" d="M 155.582031 156.84375 L 142.890625 198.039062 C 142.890625 198.039062 111.996094 203.019531 97.585938 213.828125 C 97.585938 213.828125 121.753906 204.378906 136.429688 214.507812 C 151.101562 224.636719 187.859375 228.457031 208.988281 215.324219 C 208.988281 215.324219 179.839844 202.769531 179.617188 201.96875 C 179.246094 200.636719 180.785156 196.867188 180.785156 196.867188 C 180.785156 196.867188 184.207031 198.972656 188.792969 200.191406 C 192.226562 201.097656 195.011719 198.632812 196.527344 195.410156 C 199.984375 188.0625 202.269531 178.339844 202.269531 178.339844 L 207.675781 176.996094 C 207.011719 168.976562 205.125 165.074219 206.597656 157.71875 C 207.804688 151.675781 212.375 150.570312 212.375 136.242188 L 173.105469 121.867188 L 155.59375 140.046875 C 155.59375 140.046875 153.828125 136.75 149.429688 138.15625 C 145.027344 139.570312 144.316406 158.835938 149.109375 159.726562 C 152.402344 160.339844 155.582031 156.84375 155.582031 156.84375 " fill-opacity="1" fill-rule="nonzero"/><path fill="#000000" d="M 118.976562 209.15625 C 125.089844 209.15625 131.503906 210.339844 136.789062 213.988281 C 144.023438 218.980469 156.867188 222.4375 170.316406 223.007812 C 184.933594 223.625 198.109375 220.933594 207.605469 215.414062 C 205.269531 214.40625 199.679688 211.984375 194.128906 209.527344 C 179.226562 202.925781 179.128906 202.578125 179.007812 202.140625 C 178.597656 200.671875 179.925781 197.289062 180.199219 196.628906 C 180.269531 196.457031 180.410156 196.324219 180.585938 196.265625 C 180.765625 196.207031 180.957031 196.230469 181.117188 196.328125 C 181.148438 196.347656 184.519531 198.402344 188.957031 199.578125 C 193.007812 200.652344 195.335938 196.453125 195.953125 195.140625 C 199.34375 187.9375 201.628906 178.292969 201.652344 178.199219 C 201.707031 177.964844 201.886719 177.785156 202.117188 177.726562 L 207 176.511719 C 206.785156 174.179688 206.476562 172.230469 206.175781 170.339844 C 205.523438 166.226562 204.957031 162.679688 205.976562 157.59375 C 206.40625 155.445312 207.242188 153.894531 208.125 152.253906 C 209.792969 149.15625 211.679688 145.652344 211.738281 136.683594 L 173.277344 122.605469 L 156.050781 140.488281 C 155.910156 140.632812 155.707031 140.703125 155.507812 140.675781 C 155.304688 140.648438 155.128906 140.523438 155.035156 140.34375 C 154.972656 140.234375 153.441406 137.539062 149.621094 138.761719 C 147.632812 139.398438 146.117188 145.804688 146.5 151.9375 C 146.761719 156.035156 147.828125 158.847656 149.222656 159.105469 C 152.125 159.644531 155.085938 156.449219 155.113281 156.414062 C 155.3125 156.199219 155.640625 156.148438 155.898438 156.292969 C 156.15625 156.441406 156.277344 156.746094 156.1875 157.03125 L 143.496094 198.222656 C 143.425781 198.453125 143.230469 198.625 142.992188 198.664062 C 142.710938 198.707031 117.105469 202.917969 101.925781 211.738281 C 105.996094 210.566406 112.304688 209.15625 118.976562 209.15625 Z M 174.515625 224.375 C 158.984375 224.375 143.992188 220.5 136.066406 215.03125 C 121.835938 205.203125 98.054688 214.324219 97.816406 214.417969 C 97.519531 214.535156 97.183594 214.414062 97.03125 214.136719 C 96.875 213.859375 96.949219 213.511719 97.203125 213.320312 C 110.699219 203.203125 138.761719 198.105469 142.402344 197.480469 L 154.324219 158.773438 C 152.992188 159.734375 151.039062 160.730469 148.992188 160.351562 C 146.042969 159.804688 145.382812 154.339844 145.238281 152.019531 C 144.910156 146.808594 145.953125 138.605469 149.234375 137.554688 C 152.75 136.429688 154.789062 138.066406 155.660156 139.070312 L 172.648438 121.429688 C 172.824219 121.25 173.089844 121.1875 173.324219 121.273438 L 212.589844 135.644531 C 212.839844 135.738281 213.007812 135.976562 213.007812 136.242188 C 213.007812 145.859375 210.917969 149.738281 209.242188 152.851562 C 208.367188 154.476562 207.609375 155.878906 207.21875 157.84375 C 206.246094 162.703125 206.765625 165.984375 207.425781 170.140625 C 207.738281 172.101562 208.089844 174.324219 208.308594 176.945312 C 208.335938 177.253906 208.132812 177.535156 207.832031 177.613281 L 202.796875 178.863281 C 202.332031 180.734375 200.164062 189.175781 197.101562 195.679688 C 195.199219 199.71875 191.953125 201.683594 188.632812 200.804688 C 185.132812 199.878906 182.328125 198.457031 181.109375 197.785156 C 180.609375 199.144531 180.117188 200.875 180.199219 201.644531 C 181.960938 202.835938 198.363281 210.058594 209.238281 214.742188 C 209.457031 214.832031 209.601562 215.039062 209.617188 215.277344 C 209.636719 215.511719 209.523438 215.734375 209.324219 215.863281 C 199.578125 221.917969 186.875 224.375 174.515625 224.375 " fill-opacity="1" fill-rule="nonzero"/><path fill="#000000" d="M 155.585938 140.773438 C 155.585938 140.773438 161.609375 140.480469 161.5 145.765625 C 161.390625 151.046875 158.109375 160.125 163.46875 163.402344 C 168.824219 166.683594 172.105469 152.253906 172.105469 147.988281 C 172.105469 143.722656 176.363281 132.140625 184.621094 133.175781 C 193.734375 134.316406 198.410156 140.789062 212.375 139.441406 C 214.480469 139.238281 222.164062 138.5 224.371094 133.578125 C 225.929688 130.117188 224.050781 126.1875 223.242188 124.550781 C 221.941406 121.917969 217.78125 115.167969 197.285156 108.976562 C 182.71875 104.574219 175.433594 102.375 169.480469 105.121094 C 159.445312 109.753906 154.269531 124.238281 155.585938 140.773438 " fill-opacity="1" fill-rule="nonzero"/><path fill="#ffffff" d="M 180.785156 196.867188 L 170.359375 190.546875 C 168.253906 189.269531 166.710938 187.238281 166.042969 184.863281 L 164.128906 178.0625 L 180.785156 196.867188 " fill-opacity="1" fill-rule="nonzero"/><path fill="#000000" d="M 180.785156 197.5 C 180.671875 197.5 180.558594 197.472656 180.453125 197.410156 L 170.03125 191.089844 C 167.78125 189.722656 166.144531 187.574219 165.429688 185.035156 L 163.519531 178.234375 C 163.425781 177.894531 163.621094 177.546875 163.957031 177.453125 C 164.292969 177.359375 164.644531 177.554688 164.738281 177.890625 L 166.652344 184.691406 C 167.277344 186.917969 168.710938 188.804688 170.691406 190.007812 L 181.113281 196.328125 C 181.410156 196.507812 181.507812 196.898438 181.328125 197.195312 C 181.207031 197.390625 181 197.5 180.785156 197.5 " fill-opacity="1" fill-rule="nonzero"/><path fill="#ffffff" d="M 310.132812 265.226562 L 223.644531 265.226562 C 220.785156 265.226562 219.03125 262.09375 220.523438 259.65625 L 274.113281 172.015625 C 275.257812 170.144531 277.292969 169.003906 279.484375 169.003906 L 365.253906 169.003906 C 368.425781 169.003906 370.375 172.480469 368.71875 175.1875 L 315.503906 262.21875 C 314.359375 264.085938 312.324219 265.226562 310.132812 265.226562 " fill-opacity="1" fill-rule="nonzero"/><path fill="#000000" d="M 279.484375 169.636719 C 277.527344 169.636719 275.675781 170.675781 274.65625 172.34375 L 221.066406 259.988281 C 220.484375 260.933594 220.460938 262.078125 221.007812 263.046875 C 221.550781 264.015625 222.535156 264.59375 223.644531 264.59375 L 310.132812 264.59375 C 312.09375 264.59375 313.941406 263.558594 314.964844 261.886719 L 368.179688 174.855469 C 368.835938 173.78125 368.859375 172.488281 368.246094 171.390625 C 367.632812 170.292969 366.511719 169.636719 365.253906 169.636719 Z M 310.132812 265.859375 L 223.644531 265.859375 C 222.070312 265.859375 220.671875 265.039062 219.902344 263.667969 C 219.128906 262.292969 219.160156 260.671875 219.980469 259.324219 L 273.574219 171.683594 C 274.824219 169.640625 277.089844 168.371094 279.484375 168.371094 L 365.253906 168.371094 C 366.976562 168.371094 368.511719 169.265625 369.351562 170.773438 C 370.195312 172.273438 370.160156 174.046875 369.261719 175.519531 L 316.042969 262.546875 C 314.792969 264.59375 312.53125 265.859375 310.132812 265.859375 " fill-opacity="1" fill-rule="nonzero"/><path fill="#f5f6f7" d="M 330.484375 209.34375 L 269.722656 209.34375 L 273.269531 203.53125 L 334.027344 203.53125 L 330.484375 209.34375 " fill-opacity="1" fill-rule="nonzero"/><path fill="#f5f6f7" d="M 337.421875 197.96875 L 276.660156 197.96875 L 287.496094 180.207031 L 348.257812 180.207031 L 337.421875 197.96875 " fill-opacity="1" fill-rule="nonzero"/><path fill="#000000" d="M 288.292969 337.054688 L 205.628906 337.054688 L 266.910156 242.804688 C 268.824219 239.859375 272.160156 238.074219 275.75 238.074219 L 342.835938 238.074219 C 347.09375 238.074219 349.6875 242.632812 347.410156 246.132812 L 288.292969 337.054688 " fill-opacity="1" fill-rule="nonzero"/><path fill="#ffffff" d="M 305.929688 271.125 C 303.242188 275.253906 297.464844 278.605469 293.027344 278.605469 C 288.585938 278.605469 287.164062 275.253906 289.847656 271.125 C 292.535156 266.992188 298.3125 263.644531 302.753906 263.644531 C 307.191406 263.644531 308.613281 266.992188 305.929688 271.125 " fill-opacity="1" fill-rule="nonzero"/><path fill="#000000" d="M 285.933594 344.925781 L 136.535156 344.925781 C 135.066406 344.925781 133.875 343.734375 133.875 342.265625 L 133.875 336.378906 L 288.59375 336.378906 L 288.59375 342.265625 C 288.59375 343.734375 287.402344 344.925781 285.933594 344.925781 " fill-opacity="1" fill-rule="nonzero"/><path fill="#ffffff" d="M 283.992188 337.773438 L 213 337.773438 C 212.652344 337.773438 212.367188 337.492188 212.367188 337.140625 C 212.367188 336.792969 212.652344 336.507812 213 336.507812 L 283.992188 336.507812 C 284.34375 336.507812 284.625 336.792969 284.625 337.140625 C 284.625 337.492188 284.34375 337.773438 283.992188 337.773438 " fill-opacity="1" fill-rule="nonzero"/><g clip-path="url(#30b90a2505)"><path fill="#000000" d="M 127.804688 363.542969 C 127.648438 363.542969 127.492188 363.484375 127.367188 363.371094 C 122.8125 359.046875 121.042969 355.679688 121.957031 353.078125 C 124.183594 346.746094 141.609375 348.878906 170.476562 352.414062 C 185.019531 354.191406 203.121094 356.40625 222.898438 357.902344 C 278.246094 362.101562 336.425781 360.828125 337.972656 351.4375 C 338.316406 349.34375 335.464844 347.054688 332.953125 345.039062 C 318.183594 333.175781 296.359375 338.8125 287.664062 341.78125 C 287.332031 341.898438 286.972656 341.722656 286.859375 341.386719 C 286.746094 341.058594 286.921875 340.695312 287.253906 340.585938 C 293.898438 338.3125 300.683594 336.933594 306.875 336.59375 C 317.796875 335.988281 326.835938 338.5 333.746094 344.046875 C 336.667969 346.394531 339.6875 348.820312 339.226562 351.640625 C 338.339844 357.015625 324.269531 360.214844 297.410156 361.152344 C 276.636719 361.875 248.746094 361.132812 222.804688 359.167969 C 202.996094 357.667969 184.878906 355.449219 170.324219 353.667969 C 144.035156 350.453125 125.042969 348.128906 123.152344 353.5 C 122.441406 355.519531 124.199219 358.617188 128.238281 362.449219 C 128.492188 362.691406 128.503906 363.089844 128.261719 363.34375 C 128.136719 363.476562 127.972656 363.542969 127.804688 363.542969 " fill-opacity="1" fill-rule="nonzero"/></g><path fill="#000000" d="M 334.027344 159.890625 C 333.917969 159.890625 333.808594 159.859375 333.707031 159.800781 C 333.40625 159.621094 333.304688 159.234375 333.484375 158.933594 L 348.90625 132.890625 C 349.078125 132.585938 349.472656 132.488281 349.769531 132.664062 C 350.074219 132.84375 350.171875 133.230469 349.996094 133.535156 L 334.574219 159.578125 C 334.457031 159.777344 334.246094 159.890625 334.027344 159.890625 " fill-opacity="1" fill-rule="nonzero"/><path fill="#000000" d="M 340.117188 159.890625 C 339.972656 159.890625 339.832031 159.84375 339.714844 159.746094 C 339.441406 159.519531 339.40625 159.121094 339.632812 158.851562 L 353.625 142.023438 C 353.847656 141.753906 354.246094 141.71875 354.515625 141.941406 C 354.785156 142.167969 354.824219 142.566406 354.601562 142.832031 L 340.605469 159.664062 C 340.480469 159.8125 340.296875 159.890625 340.117188 159.890625 " fill-opacity="1" fill-rule="nonzero"/><path fill="#000000" d="M 270.808594 168.402344 C 270.609375 168.402344 270.414062 168.3125 270.289062 168.136719 L 252.824219 143.414062 C 252.621094 143.128906 252.691406 142.734375 252.976562 142.53125 C 253.261719 142.328125 253.65625 142.398438 253.859375 142.683594 L 271.324219 167.402344 C 271.527344 167.691406 271.460938 168.085938 271.171875 168.289062 C 271.0625 168.367188 270.933594 168.402344 270.808594 168.402344 " fill-opacity="1" fill-rule="nonzero"/><path fill="#000000" d="M 275.628906 165.03125 C 275.394531 165.03125 275.167969 164.902344 275.058594 164.679688 L 265.421875 145.027344 C 265.265625 144.710938 265.398438 144.332031 265.710938 144.179688 C 266.027344 144.027344 266.40625 144.152344 266.558594 144.46875 L 276.195312 164.121094 C 276.351562 164.433594 276.21875 164.816406 275.90625 164.96875 C 275.816406 165.011719 275.71875 165.03125 275.628906 165.03125 " fill-opacity="1" fill-rule="nonzero"/><path fill="#000000" d="M 322.378906 130.792969 C 322.121094 130.792969 321.878906 130.632812 321.785156 130.375 C 316.222656 115.394531 308.023438 101.484375 297.410156 89.027344 C 297.183594 88.761719 297.21875 88.359375 297.484375 88.132812 C 297.75 87.90625 298.152344 87.9375 298.378906 88.203125 C 309.085938 100.773438 317.355469 114.816406 322.976562 129.933594 C 323.09375 130.261719 322.925781 130.628906 322.597656 130.75 C 322.527344 130.777344 322.453125 130.792969 322.378906 130.792969 " fill-opacity="1" fill-rule="nonzero"/><path fill="#000000" d="M 236.886719 46.464844 C 236.808594 46.464844 236.734375 46.453125 236.660156 46.425781 C 235.222656 45.875 233.773438 45.347656 232.347656 44.851562 C 232.015625 44.734375 231.839844 44.375 231.957031 44.042969 C 232.074219 43.714844 232.433594 43.539062 232.761719 43.65625 C 234.199219 44.152344 235.660156 44.6875 237.113281 45.238281 C 237.4375 45.363281 237.601562 45.730469 237.476562 46.054688 C 237.382812 46.3125 237.140625 46.464844 236.886719 46.464844 " fill-opacity="1" fill-rule="nonzero"/><path fill="#000000" d="M 227.546875 43.238281 C 227.484375 43.238281 227.417969 43.226562 227.359375 43.207031 C 218.566406 40.476562 209.445312 38.507812 200.242188 37.355469 C 199.894531 37.3125 199.648438 36.996094 199.695312 36.644531 C 199.738281 36.300781 200.058594 36.054688 200.398438 36.09375 C 209.675781 37.261719 218.871094 39.246094 227.734375 41.996094 C 228.066406 42.101562 228.253906 42.457031 228.152344 42.789062 C 228.066406 43.0625 227.816406 43.238281 227.546875 43.238281 " fill-opacity="1" fill-rule="nonzero"/><path fill="#000000" d="M 74.929688 76.257812 C 74.757812 76.257812 74.585938 76.1875 74.460938 76.050781 C 74.222656 75.792969 74.242188 75.390625 74.5 75.15625 C 84.222656 66.253906 95.164062 58.625 107.023438 52.476562 C 107.335938 52.3125 107.714844 52.4375 107.875 52.746094 C 108.039062 53.058594 107.917969 53.441406 107.605469 53.597656 C 95.847656 59.699219 84.996094 67.265625 75.355469 76.089844 C 75.234375 76.203125 75.082031 76.257812 74.929688 76.257812 " fill-opacity="1" fill-rule="nonzero"/><path fill="#000000" d="M 43.882812 237.230469 C 43.648438 237.230469 43.425781 237.101562 43.316406 236.878906 C 33.78125 217.9375 28.945312 197.628906 28.945312 176.519531 C 28.945312 172.867188 29.097656 169.175781 29.394531 165.550781 C 29.421875 165.203125 29.726562 164.941406 30.074219 164.96875 C 30.425781 165 30.683594 165.304688 30.65625 165.652344 C 30.363281 169.246094 30.214844 172.902344 30.214844 176.519531 C 30.214844 197.429688 35 217.546875 44.445312 236.3125 C 44.601562 236.625 44.476562 237.003906 44.164062 237.164062 C 44.074219 237.207031 43.976562 237.230469 43.882812 237.230469 " fill-opacity="1" fill-rule="nonzero"/><path fill="#000000" d="M 316.289062 135.21875 C 316.03125 135.21875 315.789062 135.0625 315.691406 134.804688 C 311.703125 124.054688 306.238281 113.792969 299.457031 104.296875 C 299.253906 104.011719 299.320312 103.617188 299.605469 103.414062 C 299.890625 103.210938 300.285156 103.277344 300.488281 103.5625 C 307.335938 113.144531 312.851562 123.507812 316.882812 134.363281 C 317.003906 134.691406 316.835938 135.058594 316.507812 135.179688 C 316.4375 135.207031 316.359375 135.21875 316.289062 135.21875 " fill-opacity="1" fill-rule="nonzero"/><path fill="#000000" d="M 41.574219 218.046875 C 41.304688 218.046875 41.054688 217.875 40.96875 217.605469 C 37.035156 205.132812 35.039062 192.152344 35.039062 179.019531 C 35.039062 175.519531 35.179688 171.980469 35.464844 168.503906 C 35.492188 168.15625 35.800781 167.898438 36.148438 167.921875 C 36.496094 167.953125 36.757812 168.257812 36.726562 168.605469 C 36.445312 172.046875 36.304688 175.554688 36.304688 179.019531 C 36.304688 192.019531 38.28125 204.875 42.179688 217.222656 C 42.285156 217.558594 42.097656 217.914062 41.765625 218.019531 C 41.703125 218.039062 41.636719 218.046875 41.574219 218.046875 " fill-opacity="1" fill-rule="nonzero"/><path fill="#000000" d="M 205.625 27.390625 C 205.148438 27.390625 204.683594 27.542969 204.285156 27.824219 C 203.789062 28.183594 203.464844 28.714844 203.367188 29.320312 C 203.164062 30.566406 204.015625 31.746094 205.261719 31.949219 C 206.507812 32.148438 207.6875 31.296875 207.890625 30.050781 C 207.988281 29.445312 207.84375 28.839844 207.488281 28.34375 C 207.128906 27.847656 206.601562 27.519531 205.992188 27.421875 C 205.871094 27.402344 205.746094 27.390625 205.625 27.390625 Z M 205.632812 33.246094 C 205.445312 33.246094 205.25 33.230469 205.058594 33.195312 C 203.121094 32.882812 201.800781 31.054688 202.113281 29.117188 C 202.269531 28.175781 202.773438 27.355469 203.546875 26.796875 C 204.316406 26.242188 205.257812 26.019531 206.199219 26.171875 C 207.132812 26.320312 207.957031 26.832031 208.515625 27.601562 C 209.070312 28.371094 209.292969 29.3125 209.144531 30.253906 C 208.859375 31.996094 207.34375 33.246094 205.632812 33.246094 " fill-opacity="1" fill-rule="nonzero"/><path fill="#000000" d="M 305.445312 91.125 L 307.558594 94.15625 L 308.859375 90.761719 C 308.03125 90.832031 306.777344 90.949219 305.445312 91.125 Z M 307.722656 96.132812 C 307.515625 96.132812 307.320312 96.035156 307.199219 95.859375 L 303.816406 91 C 303.691406 90.820312 303.667969 90.589844 303.753906 90.386719 C 303.839844 90.1875 304.023438 90.046875 304.242188 90.011719 C 306.964844 89.601562 309.742188 89.425781 309.769531 89.421875 C 309.988281 89.40625 310.191406 89.503906 310.320312 89.679688 C 310.449219 89.851562 310.480469 90.082031 310.402344 90.28125 L 308.3125 95.726562 C 308.230469 95.945312 308.03125 96.097656 307.796875 96.128906 C 307.773438 96.132812 307.746094 96.132812 307.722656 96.132812 " fill-opacity="1" fill-rule="nonzero"/><path fill="#000000" d="M 78.175781 68.800781 C 77.878906 68.800781 77.617188 68.589844 77.554688 68.292969 C 77.53125 68.179688 76.988281 65.433594 78.839844 63.667969 C 79.445312 63.085938 80.398438 62.898438 81.40625 62.699219 C 82.390625 62.5 83.40625 62.300781 84.019531 61.753906 C 84.492188 61.335938 84.71875 60.378906 84.9375 59.453125 C 85.230469 58.210938 85.53125 56.929688 86.480469 56.167969 C 87.234375 55.5625 88.402344 55.636719 89.535156 55.710938 C 90.363281 55.765625 91.296875 55.824219 91.679688 55.554688 C 92.183594 55.191406 92.378906 54.246094 92.554688 53.414062 C 92.695312 52.734375 92.816406 52.148438 93.113281 51.742188 C 93.316406 51.460938 93.714844 51.398438 93.996094 51.605469 C 94.28125 51.8125 94.34375 52.207031 94.136719 52.492188 C 94 52.675781 93.890625 53.207031 93.792969 53.671875 C 93.585938 54.679688 93.324219 55.929688 92.421875 56.578125 C 91.671875 57.121094 90.542969 57.046875 89.453125 56.972656 C 88.605469 56.921875 87.644531 56.855469 87.273438 57.15625 C 86.667969 57.640625 86.414062 58.710938 86.167969 59.746094 C 85.90625 60.863281 85.632812 62.015625 84.863281 62.699219 C 83.988281 63.476562 82.75 63.722656 81.652344 63.941406 C 80.867188 64.097656 80.054688 64.257812 79.714844 64.585938 C 78.367188 65.871094 78.789062 68.015625 78.792969 68.039062 C 78.867188 68.378906 78.644531 68.714844 78.304688 68.785156 C 78.257812 68.796875 78.214844 68.800781 78.175781 68.800781 " fill-opacity="1" fill-rule="nonzero"/><path fill="#000000" d="M 323.964844 115.835938 C 323.796875 115.835938 323.628906 115.769531 323.503906 115.636719 C 323.347656 115.46875 322.847656 115.261719 322.40625 115.074219 C 321.457031 114.679688 320.28125 114.1875 319.8125 113.175781 C 319.421875 112.335938 319.707031 111.246094 319.984375 110.1875 C 320.199219 109.367188 320.445312 108.433594 320.222656 108.015625 C 319.855469 107.324219 318.855469 106.875 317.886719 106.4375 C 316.839844 105.96875 315.757812 105.484375 315.230469 104.597656 C 314.636719 103.59375 314.628906 102.328125 314.621094 101.210938 C 314.617188 100.410156 314.609375 99.582031 314.359375 99.1875 C 313.359375 97.628906 311.171875 97.628906 311.140625 97.628906 C 310.792969 97.617188 310.503906 97.351562 310.5 97.003906 C 310.496094 96.652344 310.773438 96.367188 311.121094 96.363281 C 311.242188 96.363281 314.039062 96.347656 315.421875 98.5 C 315.878906 99.207031 315.882812 100.175781 315.890625 101.207031 C 315.894531 102.207031 315.902344 103.242188 316.320312 103.953125 C 316.644531 104.492188 317.539062 104.894531 318.40625 105.285156 C 319.570312 105.808594 320.777344 106.347656 321.34375 107.421875 C 321.796875 108.277344 321.496094 109.410156 321.210938 110.507812 C 321 111.308594 320.765625 112.21875 320.960938 112.644531 C 321.222656 113.207031 322.109375 113.578125 322.894531 113.90625 C 323.535156 114.171875 324.085938 114.402344 324.429688 114.769531 C 324.667969 115.027344 324.652344 115.429688 324.398438 115.667969 C 324.277344 115.78125 324.121094 115.835938 323.964844 115.835938 " fill-opacity="1" fill-rule="nonzero"/><path fill="#000000" d="M 43.875 172.789062 C 43.398438 172.789062 42.933594 172.9375 42.539062 173.222656 C 42.042969 173.578125 41.714844 174.109375 41.617188 174.714844 C 41.519531 175.320312 41.664062 175.925781 42.019531 176.421875 C 42.378906 176.917969 42.910156 177.246094 43.515625 177.34375 C 44.117188 177.4375 44.726562 177.296875 45.222656 176.9375 C 45.71875 176.582031 46.042969 176.050781 46.144531 175.445312 C 46.238281 174.839844 46.097656 174.234375 45.738281 173.738281 C 45.378906 173.242188 44.851562 172.914062 44.246094 172.816406 C 44.121094 172.796875 43.996094 172.789062 43.875 172.789062 Z M 43.886719 178.640625 C 43.695312 178.640625 43.503906 178.625 43.3125 178.59375 C 42.375 178.441406 41.550781 177.933594 40.996094 177.164062 C 40.4375 176.390625 40.214844 175.449219 40.367188 174.511719 C 40.519531 173.574219 41.027344 172.75 41.796875 172.195312 C 42.570312 171.636719 43.511719 171.414062 44.449219 171.566406 C 45.386719 171.71875 46.210938 172.226562 46.765625 172.996094 C 47.324219 173.769531 47.546875 174.710938 47.394531 175.648438 C 47.242188 176.585938 46.734375 177.410156 45.960938 177.964844 C 45.351562 178.410156 44.628906 178.640625 43.886719 178.640625 " fill-opacity="1" fill-rule="nonzero"/><path fill="#ffffff" d="M 70.417969 322.390625 C 70.417969 322.390625 50.265625 278.21875 61.828125 220.953125 C 61.828125 220.953125 93.0625 247.125 81.800781 322.390625 L 70.417969 322.390625 " fill-opacity="1" fill-rule="nonzero"/><path fill="#000000" d="M 70.832031 321.757812 L 81.253906 321.757812 C 86.910156 283.382812 81.25 258.183594 75.488281 243.78125 C 70.410156 231.085938 64.375 224.332031 62.226562 222.195312 C 56.566406 251.210938 59.183594 276.683594 62.410156 293.023438 C 65.585938 309.121094 69.945312 319.691406 70.832031 321.757812 Z M 81.800781 323.027344 L 70.417969 323.027344 C 70.171875 323.027344 69.945312 322.882812 69.84375 322.65625 C 69.792969 322.542969 64.734375 311.332031 61.167969 293.269531 C 57.875 276.605469 55.214844 250.507812 61.207031 220.824219 C 61.25 220.605469 61.40625 220.429688 61.617188 220.351562 C 61.828125 220.28125 62.0625 220.320312 62.234375 220.464844 C 62.558594 220.738281 70.238281 227.292969 76.625 243.210938 C 82.496094 257.839844 88.265625 283.464844 82.429688 322.484375 C 82.382812 322.792969 82.117188 323.027344 81.800781 323.027344 " fill-opacity="1" fill-rule="nonzero"/><path fill="#ffffff" d="M 75.347656 318.421875 C 75.335938 318.421875 75.324219 318.417969 75.3125 318.417969 C 74.964844 318.398438 74.695312 318.101562 74.714844 317.753906 C 76.257812 289.515625 63.527344 229.238281 63.398438 228.632812 C 63.324219 228.289062 63.542969 227.953125 63.882812 227.882812 C 64.226562 227.808594 64.5625 228.027344 64.636719 228.367188 C 64.765625 228.976562 77.53125 289.414062 75.980469 317.820312 C 75.960938 318.15625 75.683594 318.421875 75.347656 318.421875 " fill-opacity="1" fill-rule="nonzero"/><path fill="#ffffff" d="M 90.695312 250.574219 C 90.695312 250.574219 64.730469 297.484375 80.347656 317.785156 L 88.703125 317.785156 C 88.703125 317.785156 105.398438 281.113281 90.695312 250.574219 " fill-opacity="1" fill-rule="nonzero"/><path fill="#000000" d="M 80.664062 317.152344 L 88.289062 317.152344 C 89.078125 315.3125 92.5625 306.8125 94.59375 295.488281 C 96.652344 284.027344 97.59375 267.296875 90.65625 251.992188 C 86.914062 259.15625 67.164062 299.011719 80.664062 317.152344 Z M 88.703125 318.421875 L 80.347656 318.421875 C 80.152344 318.421875 79.964844 318.328125 79.847656 318.171875 C 73.234375 309.578125 72.96875 295.515625 79.058594 276.375 C 83.566406 262.214844 90.074219 250.382812 90.140625 250.265625 C 90.253906 250.058594 90.480469 249.929688 90.710938 249.941406 C 90.949219 249.945312 91.164062 250.082031 91.265625 250.296875 C 98.9375 266.226562 97.984375 283.804688 95.835938 295.742188 C 93.515625 308.660156 89.320312 317.957031 89.28125 318.046875 C 89.175781 318.273438 88.953125 318.421875 88.703125 318.421875 " fill-opacity="1" fill-rule="nonzero"/><path fill="#000000" d="M 84.25 319.664062 C 83.910156 319.664062 83.628906 319.394531 83.617188 319.054688 C 82.863281 299.683594 89.996094 250.96875 90.066406 250.480469 C 90.121094 250.132812 90.441406 249.894531 90.785156 249.945312 C 91.132812 249.996094 91.371094 250.316406 91.320312 250.664062 C 91.25 251.152344 84.136719 299.75 84.882812 319.003906 C 84.898438 319.355469 84.625 319.648438 84.273438 319.664062 C 84.265625 319.664062 84.257812 319.664062 84.25 319.664062 " fill-opacity="1" fill-rule="nonzero"/><path fill="#ffffff" d="M 41.121094 268.0625 C 41.121094 268.0625 63.242188 275.609375 71.25 320.285156 L 62.550781 320.285156 C 62.550781 320.285156 44.394531 295.75 41.121094 268.0625 " fill-opacity="1" fill-rule="nonzero"/><path fill="#000000" d="M 62.871094 319.652344 L 70.492188 319.652344 C 63.503906 281.792969 46.179688 271.175781 41.886719 269.085938 C 45.246094 294.347656 60.980469 317.003906 62.871094 319.652344 Z M 71.25 320.921875 L 62.550781 320.921875 C 62.347656 320.921875 62.160156 320.824219 62.039062 320.664062 C 61.855469 320.417969 43.746094 295.671875 40.492188 268.136719 C 40.464844 267.917969 40.554688 267.707031 40.722656 267.570312 C 40.890625 267.429688 41.121094 267.390625 41.324219 267.460938 C 41.558594 267.539062 47.089844 269.488281 53.660156 277.003906 C 59.671875 283.878906 67.710938 296.953125 71.875 320.175781 C 71.90625 320.359375 71.855469 320.550781 71.734375 320.695312 C 71.617188 320.839844 71.4375 320.921875 71.25 320.921875 " fill-opacity="1" fill-rule="nonzero"/><path fill="#000000" d="M 66.492188 319.664062 C 66.191406 319.664062 65.921875 319.441406 65.871094 319.132812 C 62.578125 299.246094 48.339844 279.21875 48.195312 279.015625 C 47.992188 278.734375 48.054688 278.335938 48.339844 278.132812 C 48.625 277.929688 49.019531 277.996094 49.222656 278.28125 C 49.371094 278.480469 63.78125 298.75 67.121094 318.925781 C 67.175781 319.269531 66.945312 319.597656 66.597656 319.652344 C 66.5625 319.660156 66.527344 319.664062 66.492188 319.664062 " fill-opacity="1" fill-rule="nonzero"/><path fill="#f5f6f7" d="M 49.652344 316.742188 L 104.226562 316.742188 L 105.449219 342.550781 C 105.75 348.882812 100.699219 354.175781 94.363281 354.175781 L 63.195312 354.175781 C 55.699219 354.175781 49.625 348.097656 49.632812 340.597656 L 49.652344 316.742188 " fill-opacity="1" fill-rule="nonzero"/><g clip-path="url(#4e41e75f7c)"><path fill="#ffffff" d="M 42.449219 104.851562 L 99.78125 104.851562 L 99.78125 150.148438 L 42.449219 150.148438 Z M 42.449219 104.851562 " fill-opacity="1" fill-rule="nonzero"/></g></svg>