<svg xmlns="http://www.w3.org/2000/svg" xmlns:xlink="http://www.w3.org/1999/xlink" width="500" zoomAndPan="magnify" viewBox="0 0 375 374.999991" height="500" preserveAspectRatio="xMidYMid meet" version="1.0"><defs><clipPath id="2a573c0926"><path d="M 30.019531 12 L 345 12 L 345 363.984375 L 30.019531 363.984375 Z M 30.019531 12 " clip-rule="nonzero"/></clipPath></defs><path fill="#f0f7fe" d="M 343.808594 262.84375 C 343.808594 273.570312 338.292969 282.65625 330.164062 287.3125 L 273.570312 319.992188 L 48.984375 105.320312 L 83.164062 85.582031 L 115.671875 95.449219 C 114.238281 95.015625 102.160156 51.53125 102.160156 51.53125 L 159.746094 18.269531 C 170.691406 12.03125 184.738281 11.789062 198.097656 18.796875 C 232.476562 36.832031 250.019531 73.097656 254.535156 102.097656 C 263.003906 98.695312 273.125 99.179688 282.816406 104.265625 C 316.496094 121.933594 330.761719 160.625 330.761719 185.714844 C 330.761719 194.945312 327.390625 203.167969 321.917969 209.1875 C 337.117188 225.289062 343.808594 247.246094 343.808594 262.84375 Z M 343.808594 262.84375 " fill-opacity="1" fill-rule="nonzero"/><path fill="#f0f7fe" d="M 265 242.058594 C 270.472656 236.035156 273.84375 227.8125 273.84375 218.585938 C 273.84375 193.496094 259.578125 154.800781 225.898438 137.132812 C 216.207031 132.046875 206.085938 131.5625 197.617188 134.96875 C 193.109375 105.964844 175.558594 69.707031 141.179688 51.664062 C 113.570312 37.183594 82.996094 53.640625 82.996094 90.167969 C 82.996094 95.632812 83.578125 101.132812 84.632812 106.601562 C 84.167969 106.347656 83.710938 106.078125 83.242188 105.824219 C 58.523438 92.863281 31.15625 107.597656 31.15625 140.292969 C 31.15625 174.125 55.394531 209.582031 81.742188 224.550781 L 246.242188 319.484375 C 266.414062 330.941406 286.875 316.367188 286.875 295.703125 C 286.882812 280.125 280.195312 258.15625 265 242.058594 Z M 265 242.058594 " fill-opacity="1" fill-rule="nonzero"/><path fill="#1c0140" d="M 209.117188 245.714844 L 191.046875 256.144531 L 191.046875 351.679688 L 172.515625 361.519531 L 140.480469 143.261719 L 159.015625 132.5625 Z M 209.117188 245.714844 " fill-opacity="1" fill-rule="nonzero"/><path fill="#ac1754" d="M 107.457031 208.421875 L 90.648438 198.714844 L 140.488281 143.261719 L 190.582031 256.421875 L 172.515625 245.988281 L 172.515625 362.382812 L 107.449219 324.824219 L 107.449219 208.421875 Z M 107.457031 208.421875 " fill-opacity="1" fill-rule="nonzero"/><g clip-path="url(#2a573c0926)"><path fill="#1c0140" d="M 323.332031 209.167969 C 328.804688 202.785156 331.808594 194.5 331.808594 185.714844 C 331.808594 171.824219 327.628906 155.792969 320.351562 141.726562 C 311.535156 124.703125 298.726562 111.425781 283.308594 103.34375 C 274.046875 98.484375 264.179688 97.554688 255.371094 100.671875 C 250.625 72.332031 233.320312 36.09375 198.589844 17.875 C 185.265625 10.882812 170.925781 10.699219 159.234375 17.367188 L 102.675781 50.035156 C 102.351562 50.210938 102.035156 50.398438 101.71875 50.589844 L 101.640625 50.632812 C 101.597656 50.660156 101.554688 50.679688 101.507812 50.710938 C 90.332031 57.46875 83.445312 69.777344 82.164062 84.957031 L 48.457031 104.417969 L 48.464844 104.433594 C 48.199219 104.582031 47.929688 104.722656 47.671875 104.875 C 36.515625 111.621094 30.113281 124.535156 30.113281 140.296875 C 30.113281 156.320312 35.644531 173.992188 45.6875 190.054688 C 55.195312 205.269531 67.824219 217.847656 81.230469 225.457031 L 106.417969 239.996094 L 106.417969 325.414062 L 173.574219 364.183594 L 192.109375 354.34375 L 192.109375 289.445312 L 245.742188 320.398438 C 250.625 323.171875 255.746094 324.5625 260.730469 324.5625 C 265.347656 324.5625 269.839844 323.375 273.933594 320.992188 C 273.992188 320.957031 274.046875 320.921875 274.101562 320.886719 L 330.683594 288.21875 C 339.417969 283.210938 344.847656 273.492188 344.847656 262.839844 C 344.855469 248.789062 339.199219 226.414062 323.332031 209.167969 Z M 282.332031 105.191406 C 317.09375 123.429688 329.710938 163.339844 329.710938 185.714844 C 329.710938 194.261719 326.703125 202.300781 321.242188 208.371094 L 269.054688 238.511719 C 272.835938 232.738281 274.875 225.835938 274.875 218.59375 C 274.875 204.699219 270.699219 188.671875 263.417969 174.601562 C 254.605469 157.582031 241.796875 144.308594 226.378906 136.21875 C 219.296875 132.503906 211.859375 131.089844 204.820312 132.027344 L 254.984375 103.0625 C 263.503906 99.648438 273.21875 100.410156 282.332031 105.191406 Z M 160.273438 19.175781 C 171.332031 12.875 184.941406 13.070312 197.617188 19.726562 C 231.894531 37.703125 248.859375 73.640625 253.386719 101.554688 L 198.40625 133.308594 C 193.601562 105.003906 176.304688 68.914062 141.671875 50.746094 C 132.535156 45.953125 122.699219 44.40625 113.683594 46.085938 Z M 82.015625 87.460938 C 81.980469 88.359375 81.953125 89.261719 81.953125 90.175781 C 81.953125 94.839844 82.375 99.699219 83.21875 104.644531 C 75.355469 100.648438 66.949219 99.328125 59.179688 100.640625 Z M 171.472656 360.570312 L 108.507812 324.210938 L 108.507812 207.816406 L 92.292969 198.453125 L 140.191406 145.160156 L 188.339844 253.902344 L 171.480469 244.167969 L 171.480469 360.570312 Z M 191.074219 254.929688 L 141.832031 143.695312 L 158.542969 134.046875 L 207.789062 245.277344 Z M 190.007812 351.054688 L 173.570312 359.78125 L 173.570312 247.796875 L 189.175781 256.808594 C 189.4375 256.953125 189.726562 257.011719 190.007812 256.984375 L 190.007812 285.820312 L 182.570312 281.53125 L 181.523438 283.34375 L 190.007812 288.242188 Z M 246.769531 318.585938 L 192.097656 287.03125 L 192.097656 256.75 L 210.453125 246.152344 L 159.507812 131.070312 L 139.820312 142.4375 L 139.417969 142.878906 L 89.007812 198.976562 L 106.410156 209.019531 L 106.410156 237.578125 L 82.261719 223.640625 C 57.660156 209.671875 32.210938 174.671875 32.210938 140.296875 C 32.210938 125.289062 38.246094 113.027344 48.761719 106.664062 C 58.742188 100.628906 71.136719 100.664062 82.753906 106.761719 C 83.035156 106.910156 83.316406 107.0625 83.59375 107.226562 C 83.769531 107.324219 83.949219 107.429688 84.132812 107.527344 L 86.089844 108.605469 L 85.667969 106.417969 C 84.589844 100.859375 84.050781 95.394531 84.050781 90.183594 C 84.050781 73.363281 90.808594 59.636719 102.605469 52.503906 C 113.625 45.835938 127.871094 45.875 140.699219 52.609375 C 175.265625 70.742188 192.230469 107.128906 196.589844 135.144531 L 196.792969 136.445312 L 198.019531 135.953125 C 206.550781 132.527344 216.285156 133.277344 225.421875 138.074219 C 260.183594 156.316406 272.800781 196.222656 272.800781 218.597656 C 272.800781 227.195312 269.757812 235.285156 264.234375 241.367188 L 263.582031 242.085938 L 264.25 242.789062 C 280.195312 259.683594 285.847656 281.859375 285.847656 295.726562 C 285.847656 305.550781 280.882812 314.539062 272.886719 319.195312 C 265.015625 323.761719 255.5 323.542969 246.769531 318.585938 Z M 329.640625 286.40625 L 281.792969 314.035156 C 285.695312 308.960938 287.929688 302.527344 287.929688 295.710938 C 287.929688 281.726562 282.332031 259.523438 266.65625 242.308594 L 321.714844 210.511719 C 337.222656 227.328125 342.761719 249.140625 342.761719 262.835938 C 342.761719 272.738281 337.738281 281.769531 329.640625 286.40625 Z M 329.640625 286.40625 " fill-opacity="1" fill-rule="nonzero"/></g></svg>