<svg xmlns="http://www.w3.org/2000/svg" xmlns:xlink="http://www.w3.org/1999/xlink" width="500" zoomAndPan="magnify" viewBox="0 0 375 374.999991" height="500" preserveAspectRatio="xMidYMid meet" version="1.2"><defs/><g id="315204ab05"><path style=" stroke:none;fill-rule:nonzero;fill:#fbcfe8;fill-opacity:1;" d="M 364.425781 143.835938 C 348.582031 63.371094 268.597656 14.738281 201.46875 8.535156 C 145.851562 3.394531 78.4375 17.414062 47.285156 68.988281 C 28.195312 100.59375 51.746094 114.507812 38.539062 184.449219 C 27.109375 244.984375 6.277344 266.796875 18.957031 297.648438 C 29.324219 322.875 52.914062 333.929688 68.398438 341.554688 C 129.441406 371.613281 241.867188 369.222656 308.625 314.394531 C 324.25 301.5625 382.34375 234.855469 364.425781 143.835938 "/><path style=" stroke:none;fill-rule:nonzero;fill:#ffffff;fill-opacity:1;" d="M 153.757812 84.988281 C 162.871094 69.25 183.011719 63.875 198.75 72.984375 C 214.484375 82.09375 219.863281 102.238281 210.75 117.972656 C 201.644531 133.710938 181.5 139.085938 165.761719 129.976562 C 150.023438 120.867188 144.648438 100.726562 153.757812 84.988281 Z M 132.042969 83.359375 C 131.015625 86.1875 130.234375 89.0625 129.710938 91.960938 L 116.097656 95.015625 L 116.085938 107.804688 L 129.710938 110.894531 C 130.238281 113.820312 131.003906 116.695312 132.007812 119.492188 L 121.726562 128.960938 L 128.109375 140.042969 L 141.4375 135.910156 C 143.335938 138.160156 145.445312 140.265625 147.742188 142.207031 L 143.578125 155.542969 L 154.648438 161.949219 L 164.132812 151.695312 C 166.964844 152.71875 169.835938 153.5 172.734375 154.027344 L 175.789062 167.640625 L 188.578125 167.652344 L 191.671875 154.027344 C 194.59375 153.5 197.472656 152.734375 200.269531 151.730469 L 209.734375 162.007812 L 220.820312 155.625 L 216.6875 142.296875 C 218.9375 140.402344 221.039062 138.289062 222.984375 135.992188 L 236.316406 140.160156 L 242.722656 129.089844 L 232.472656 119.605469 C 233.492188 116.773438 234.277344 113.898438 234.800781 111.003906 L 248.414062 107.945312 L 248.429688 95.15625 L 234.800781 92.066406 C 234.277344 89.140625 233.507812 86.269531 232.507812 83.46875 L 242.785156 74 L 236.398438 62.917969 L 223.074219 67.050781 C 221.175781 64.800781 219.066406 62.695312 216.765625 60.753906 L 220.933594 47.421875 L 209.863281 41.011719 L 200.378906 51.265625 C 197.550781 50.242188 194.675781 49.460938 191.777344 48.9375 L 188.722656 35.324219 L 175.933594 35.308594 L 172.84375 48.9375 C 169.917969 49.460938 167.042969 50.226562 164.242188 51.230469 L 154.777344 40.953125 L 143.691406 47.335938 L 147.824219 60.664062 C 145.574219 62.5625 143.472656 64.671875 141.527344 66.96875 L 128.195312 62.804688 L 121.789062 73.871094 L 132.042969 83.359375 "/><path style=" stroke:none;fill-rule:nonzero;fill:#b62b5d;fill-opacity:1;" d="M 247.339844 346.035156 L 176.015625 346.035156 L 139.203125 281.601562 L 139.203125 337.878906 C 139.203125 346.679688 145.625 353.722656 153.40625 353.722656 L 247.339844 353.722656 C 248.855469 353.722656 250.214844 352.664062 250.214844 351.148438 L 250.214844 348.628906 C 250.214844 347.113281 248.855469 346.035156 247.339844 346.035156 "/><path style=" stroke:none;fill-rule:nonzero;fill:#ffffff;fill-opacity:1;" d="M 149.664062 301.847656 L 149.664062 333.757812 C 149.664062 340.230469 154.792969 345.398438 161.261719 345.398438 L 222.675781 345.398438 L 222.675781 301.847656 L 149.664062 301.847656 "/><path style=" stroke:none;fill-rule:nonzero;fill:#000000;fill-opacity:1;" d="M 150.308594 302.484375 L 150.308594 333.757812 C 150.308594 339.925781 155.117188 344.753906 161.261719 344.753906 L 222.035156 344.753906 L 222.035156 302.484375 Z M 223.316406 346.035156 L 161.261719 346.035156 C 154.402344 346.035156 149.023438 340.644531 149.023438 333.757812 L 149.023438 301.207031 L 223.316406 301.207031 L 223.316406 346.035156 "/><path style=" stroke:none;fill-rule:nonzero;fill:#b62b5d;fill-opacity:1;" d="M 342.914062 304.789062 L 43.46875 305.445312 C 40.851562 305.445312 38.640625 303.496094 38.308594 300.894531 L 14.453125 114.484375 C 13.875 109.945312 17.179688 105.664062 21.746094 105.664062 L 317.316406 105.933594 L 342.914062 304.789062 "/><path style=" stroke:none;fill-rule:nonzero;fill:#ffffff;fill-opacity:1;" d="M 349.050781 304.550781 L 55.585938 304.550781 C 52.96875 304.550781 50.761719 302.597656 50.425781 299.988281 L 26.722656 115.253906 C 26.066406 110.121094 30.039062 105.578125 35.183594 105.578125 L 324.867188 105.578125 C 327.480469 105.578125 329.691406 107.53125 330.027344 110.140625 L 354.210938 298.648438 C 354.613281 301.78125 352.191406 304.550781 349.050781 304.550781 "/><path style=" stroke:none;fill-rule:nonzero;fill:#000000;fill-opacity:1;" d="M 35.183594 106.214844 C 32.925781 106.214844 30.773438 107.191406 29.277344 108.890625 C 27.765625 110.609375 27.066406 112.898438 27.359375 115.171875 L 51.0625 299.910156 C 51.355469 302.191406 53.300781 303.910156 55.585938 303.910156 L 349.054688 303.910156 C 350.359375 303.910156 351.601562 303.347656 352.46875 302.367188 C 353.34375 301.371094 353.746094 300.046875 353.578125 298.734375 L 329.390625 110.222656 C 329.097656 107.9375 327.152344 106.214844 324.867188 106.214844 Z M 349.054688 305.191406 L 55.585938 305.191406 C 52.65625 305.191406 50.164062 302.992188 49.792969 300.070312 L 26.089844 115.335938 C 25.75 112.699219 26.5625 110.039062 28.316406 108.046875 C 30.054688 106.070312 32.558594 104.9375 35.183594 104.9375 L 324.867188 104.9375 C 327.796875 104.9375 330.289062 107.136719 330.660156 110.058594 L 354.847656 298.570312 C 355.066406 300.25 354.546875 301.941406 353.429688 303.210938 C 352.320312 304.472656 350.726562 305.191406 349.054688 305.191406 "/><path style=" stroke:none;fill-rule:nonzero;fill:#fbcfe8;fill-opacity:1;" d="M 49.796875 87.902344 L 306.816406 87.902344 C 312.488281 87.902344 317.648438 92.515625 318.34375 98.210938 L 340.027344 275.988281 C 340.730469 281.738281 336.671875 286.402344 330.96875 286.402344 L 72.503906 286.402344 C 66.800781 286.402344 61.640625 281.738281 60.984375 275.988281 L 40.703125 98.210938 C 40.050781 92.515625 44.125 87.902344 49.796875 87.902344 "/><path style=" stroke:none;fill-rule:nonzero;fill:#b62b5d;fill-opacity:1;" d="M 319.160156 104.503906 L 318.675781 98.117188 C 317.988281 92.472656 312.644531 87.980469 306.972656 87.980469 L 49.953125 87.980469 C 44.277344 87.980469 40.148438 92.472656 40.789062 98.117188 L 41.394531 105.980469 L 319.160156 104.503906 "/><path style=" stroke:none;fill-rule:nonzero;fill:#fbcfe8;fill-opacity:1;" d="M 56.96875 98.382812 C 57.179688 100.21875 55.863281 101.703125 54.03125 101.703125 C 52.199219 101.703125 50.542969 100.21875 50.332031 98.382812 C 50.121094 96.550781 51.4375 95.066406 53.269531 95.066406 C 55.101562 95.066406 56.757812 96.550781 56.96875 98.382812 "/><path style=" stroke:none;fill-rule:nonzero;fill:#fbcfe8;fill-opacity:1;" d="M 67.5625 98.160156 C 67.773438 99.992188 66.460938 101.480469 64.625 101.480469 C 62.792969 101.480469 61.136719 99.992188 60.925781 98.160156 C 60.71875 96.324219 62.03125 94.839844 63.863281 94.839844 C 65.699219 94.839844 67.355469 96.324219 67.5625 98.160156 "/><path style=" stroke:none;fill-rule:nonzero;fill:#fbcfe8;fill-opacity:1;" d="M 79.121094 98.601562 C 79.332031 100.4375 78.015625 101.921875 76.183594 101.921875 C 74.351562 101.921875 72.691406 100.4375 72.484375 98.601562 C 72.273438 96.769531 73.585938 95.285156 75.417969 95.285156 C 77.253906 95.285156 78.910156 96.769531 79.121094 98.601562 "/><path style=" stroke:none;fill-rule:nonzero;fill:#ffffff;fill-opacity:1;" d="M 99.410156 204.082031 L 123.949219 204.082031 L 119.394531 164.839844 L 118.476562 166.902344 Z M 139.601562 204.082031 L 151.257812 204.082031 L 152.734375 216.6875 L 141.070312 216.6875 L 143.511719 237.652344 L 127.847656 237.652344 L 125.414062 216.6875 L 84.886719 216.6875 L 83.335938 207.121094 L 116.417969 143.636719 L 132.558594 143.636719 L 139.601562 204.082031 "/><path style=" stroke:none;fill-rule:nonzero;fill:#ffffff;fill-opacity:1;" d="M 204.300781 180.449219 C 203.253906 171.632812 201.289062 165.171875 198.402344 161.066406 C 195.515625 156.964844 191.457031 154.910156 186.222656 154.910156 C 181.121094 154.910156 177.597656 156.855469 175.65625 160.746094 C 173.710938 164.632812 173.160156 170.707031 174.003906 178.964844 L 176.507812 200.269531 C 177.542969 209.058594 179.539062 215.609375 182.492188 219.921875 C 185.449219 224.234375 189.546875 226.390625 194.789062 226.390625 C 199.816406 226.390625 203.296875 224.394531 205.230469 220.40625 C 207.164062 216.417969 207.691406 210.179688 206.816406 201.691406 Z M 222.027344 198.007812 C 223.636719 211.539062 222.324219 221.742188 218.09375 228.621094 C 213.859375 235.503906 206.585938 238.945312 196.269531 238.945312 C 186.128906 238.945312 178.09375 235.589844 172.171875 228.882812 C 166.25 222.175781 162.457031 212.246094 160.785156 199.109375 L 158.882812 182.835938 C 157.300781 169.332031 158.628906 159.207031 162.878906 152.460938 C 167.125 145.722656 174.410156 142.351562 184.742188 142.351562 C 194.984375 142.351562 203.015625 145.632812 208.832031 152.207031 C 214.652344 158.777344 218.402344 168.621094 220.09375 181.738281 L 222.027344 198.007812 "/><path style=" stroke:none;fill-rule:nonzero;fill:#ffffff;fill-opacity:1;" d="M 249.347656 204.082031 L 273.886719 204.082031 L 269.164062 164.839844 L 268.253906 166.902344 Z M 289.539062 204.082031 L 301.195312 204.082031 L 302.722656 216.6875 L 291.0625 216.6875 L 293.59375 237.652344 L 277.925781 237.652344 L 275.402344 216.6875 L 234.878906 216.6875 L 233.285156 207.121094 L 266.097656 143.640625 L 282.238281 143.640625 L 289.539062 204.082031 "/><path style=" stroke:none;fill-rule:nonzero;fill:#ac1754;fill-opacity:1;" d="M 103.464844 199.945312 L 126.234375 199.945312 L 122.03125 163.730469 Z M 126.953125 201.226562 L 102.414062 201.226562 C 102.191406 201.226562 101.984375 201.113281 101.871094 200.921875 C 101.753906 200.730469 101.742188 200.492188 101.847656 200.296875 L 120.910156 163.113281 L 121.8125 161.082031 C 121.929688 160.816406 122.207031 160.664062 122.496094 160.710938 C 122.78125 160.75 123 160.980469 123.035156 161.269531 L 127.589844 200.511719 C 127.613281 200.695312 127.554688 200.875 127.433594 201.011719 C 127.3125 201.148438 127.136719 201.226562 126.953125 201.226562 Z M 131.421875 233.515625 L 145.796875 233.515625 L 143.4375 213.265625 C 143.417969 213.085938 143.472656 212.902344 143.597656 212.765625 C 143.71875 212.628906 143.890625 212.550781 144.074219 212.550781 L 155.015625 212.550781 L 153.691406 201.226562 L 142.605469 201.226562 C 142.28125 201.226562 142.007812 200.984375 141.96875 200.660156 L 134.992188 140.785156 L 119.8125 140.785156 L 87.007812 203.730469 L 88.4375 212.550781 L 128.417969 212.550781 C 128.742188 212.550781 129.015625 212.796875 129.054688 213.117188 Z M 146.519531 234.796875 L 130.851562 234.796875 C 130.527344 234.796875 130.253906 234.554688 130.214844 234.230469 L 127.847656 213.832031 L 87.890625 213.832031 C 87.578125 213.832031 87.308594 213.605469 87.257812 213.292969 L 85.710938 203.726562 C 85.6875 203.589844 85.710938 203.449219 85.773438 203.328125 L 118.855469 139.847656 C 118.964844 139.636719 119.183594 139.503906 119.421875 139.503906 L 135.5625 139.503906 C 135.886719 139.503906 136.160156 139.746094 136.195312 140.070312 L 143.175781 199.945312 L 154.261719 199.945312 C 154.585938 199.945312 154.859375 200.191406 154.898438 200.511719 L 156.371094 213.117188 C 156.394531 213.300781 156.335938 213.480469 156.214844 213.617188 C 156.09375 213.753906 155.917969 213.832031 155.734375 213.832031 L 144.792969 213.832031 L 147.15625 234.082031 C 147.175781 234.265625 147.117188 234.445312 146.996094 234.582031 C 146.875 234.71875 146.703125 234.796875 146.519531 234.796875 "/><path style=" stroke:none;fill-rule:nonzero;fill:#ac1754;fill-opacity:1;" d="M 189.226562 152.058594 C 184.34375 152.058594 181.074219 153.847656 179.234375 157.535156 C 177.351562 161.296875 176.816406 167.308594 177.644531 175.402344 L 180.148438 196.699219 C 181.167969 205.347656 183.140625 211.859375 186.023438 216.0625 C 188.878906 220.226562 192.730469 222.253906 197.792969 222.253906 C 202.597656 222.253906 205.824219 220.414062 207.65625 216.632812 C 209.53125 212.769531 210.042969 206.589844 209.183594 198.261719 L 206.667969 177.027344 C 205.640625 168.359375 203.695312 161.9375 200.882812 157.941406 C 198.09375 153.980469 194.28125 152.058594 189.226562 152.058594 Z M 197.792969 223.535156 C 192.351562 223.535156 188.035156 221.265625 184.96875 216.789062 C 181.96875 212.410156 179.917969 205.703125 178.878906 196.851562 L 176.371094 175.542969 C 175.519531 167.191406 176.097656 160.945312 178.085938 156.960938 C 180.140625 152.855469 183.886719 150.777344 189.226562 150.777344 C 194.65625 150.777344 198.929688 152.9375 201.929688 157.203125 C 204.867188 161.375 206.886719 167.996094 207.941406 176.878906 L 210.457031 198.121094 C 211.34375 206.699219 210.789062 213.113281 208.8125 217.191406 C 206.769531 221.398438 203.0625 223.535156 197.792969 223.535156 Z M 187.746094 139.496094 C 177.699219 139.496094 170.527344 142.796875 166.425781 149.308594 C 162.277344 155.894531 160.964844 165.976562 162.523438 179.265625 L 164.429688 195.539062 C 166.070312 208.484375 169.851562 218.386719 175.65625 224.960938 C 181.421875 231.496094 189.371094 234.808594 199.277344 234.808594 C 209.304688 234.808594 216.464844 231.4375 220.554688 224.792969 C 224.6875 218.070312 225.980469 207.910156 224.394531 194.589844 L 222.460938 178.320312 C 220.796875 165.402344 217.0625 155.578125 211.355469 149.136719 C 205.695312 142.738281 197.75 139.496094 187.746094 139.496094 Z M 199.277344 236.089844 C 188.988281 236.089844 180.714844 232.632812 174.695312 225.808594 C 168.71875 219.039062 164.835938 208.90625 163.15625 195.695312 L 161.25 179.417969 C 159.65625 165.828125 161.035156 155.46875 165.339844 148.625 C 169.691406 141.71875 177.230469 138.214844 187.746094 138.214844 C 198.132812 138.214844 206.398438 141.601562 212.316406 148.285156 C 218.195312 154.925781 222.035156 164.980469 223.730469 178.160156 L 225.667969 194.4375 C 227.285156 208.050781 225.929688 218.488281 221.644531 225.460938 C 217.304688 232.515625 209.78125 236.089844 199.277344 236.089844 "/><path style=" stroke:none;fill-rule:nonzero;fill:#ac1754;fill-opacity:1;" d="M 276.894531 201.226562 L 252.355469 201.226562 C 252.128906 201.226562 251.921875 201.113281 251.808594 200.921875 C 251.691406 200.730469 251.679688 200.496094 251.78125 200.296875 L 270.691406 163.117188 L 271.582031 161.085938 C 271.699219 160.820312 271.976562 160.664062 272.265625 160.710938 C 272.550781 160.75 272.769531 160.980469 272.804688 161.265625 L 275.742188 185.644531 C 275.78125 185.996094 275.53125 186.316406 275.179688 186.355469 C 274.824219 186.402344 274.507812 186.148438 274.46875 185.800781 L 271.8125 163.730469 L 253.398438 199.945312 L 276.171875 199.945312 L 275.648438 195.628906 C 275.609375 195.28125 275.859375 194.960938 276.210938 194.917969 C 276.566406 194.871094 276.878906 195.125 276.921875 195.476562 L 277.527344 200.511719 C 277.550781 200.691406 277.492188 200.875 277.371094 201.011719 C 277.25 201.148438 277.078125 201.226562 276.894531 201.226562 Z M 296.597656 234.796875 L 280.933594 234.796875 C 280.609375 234.796875 280.335938 234.554688 280.296875 234.234375 L 277.839844 213.832031 L 237.882812 213.832031 C 237.570312 213.832031 237.304688 213.605469 237.25 213.296875 L 235.660156 203.726562 C 235.636719 203.59375 235.660156 203.453125 235.722656 203.332031 L 268.535156 139.851562 C 268.644531 139.636719 268.867188 139.503906 269.105469 139.503906 L 285.242188 139.503906 C 285.566406 139.503906 285.839844 139.742188 285.878906 140.066406 L 287.859375 156.457031 C 287.898438 156.808594 287.652344 157.128906 287.300781 157.171875 C 286.945312 157.210938 286.628906 156.964844 286.585938 156.613281 L 284.675781 140.785156 L 269.496094 140.785156 L 236.957031 203.726562 L 238.425781 212.550781 L 278.410156 212.550781 C 278.734375 212.550781 279.007812 212.792969 279.042969 213.113281 L 281.5 233.515625 L 295.875 233.515625 L 293.851562 216.765625 C 293.808594 216.414062 294.0625 216.09375 294.410156 216.050781 C 294.757812 216.011719 295.082031 216.257812 295.125 216.609375 L 297.234375 234.078125 C 297.253906 234.261719 297.199219 234.445312 297.078125 234.582031 C 296.957031 234.71875 296.78125 234.796875 296.597656 234.796875 "/><path style=" stroke:none;fill-rule:nonzero;fill:#ac1754;fill-opacity:1;" d="M 285.878906 287.046875 L 72.597656 287.046875 C 66.585938 287.046875 61.132812 282.117188 60.441406 276.058594 L 40.160156 98.28125 C 39.824219 95.328125 40.664062 92.546875 42.527344 90.457031 C 44.367188 88.394531 46.984375 87.261719 49.890625 87.261719 L 306.914062 87.261719 C 312.886719 87.261719 318.347656 92.136719 319.074219 98.132812 L 326.128906 155.941406 C 326.167969 156.292969 325.917969 156.613281 325.570312 156.65625 C 325.21875 156.695312 324.898438 156.449219 324.851562 156.09375 L 317.804688 98.285156 C 317.152344 92.914062 312.261719 88.542969 306.914062 88.542969 L 49.890625 88.542969 C 47.351562 88.542969 45.074219 89.527344 43.484375 91.3125 C 41.867188 93.125 41.136719 95.546875 41.433594 98.136719 L 61.714844 275.914062 C 62.335938 281.34375 67.21875 285.761719 72.597656 285.761719 L 285.878906 285.761719 C 286.234375 285.761719 286.519531 286.050781 286.519531 286.402344 C 286.519531 286.757812 286.234375 287.046875 285.878906 287.046875 "/><path style=" stroke:none;fill-rule:nonzero;fill:#000000;fill-opacity:1;" d="M 246.894531 354.148438 L 156.710938 354.148438 C 156.355469 354.148438 156.070312 353.863281 156.070312 353.507812 C 156.070312 353.15625 156.355469 352.867188 156.710938 352.867188 L 246.894531 352.867188 C 248.039062 352.867188 248.9375 351.933594 248.9375 350.738281 L 248.9375 348.21875 C 248.9375 347.015625 248.019531 346.035156 246.894531 346.035156 L 220.753906 346.035156 C 220.402344 346.035156 220.113281 345.75 220.113281 345.398438 C 220.113281 345.042969 220.402344 344.753906 220.753906 344.753906 L 246.894531 344.753906 C 248.726562 344.753906 250.214844 346.308594 250.214844 348.21875 L 250.214844 350.738281 C 250.214844 352.617188 248.726562 354.148438 246.894531 354.148438 "/><path style=" stroke:none;fill-rule:nonzero;fill:#b62b5d;fill-opacity:1;" d="M 127.460938 347.316406 L 49.742188 347.316406 L 57.097656 332.839844 L 63.507812 320.234375 L 70.671875 306.144531 L 77.078125 293.546875 L 85.410156 277.164062 C 86.023438 275.964844 87.253906 275.210938 88.601562 275.210938 C 89.949219 275.210938 91.179688 275.964844 91.792969 277.164062 L 100.125 293.542969 L 106.53125 306.144531 L 113.695312 320.226562 L 120.105469 332.839844 L 127.460938 347.316406 "/><path style=" stroke:none;fill-rule:nonzero;fill:#ac1754;fill-opacity:1;" d="M 106.53125 306.328125 L 70.671875 306.328125 L 77.078125 293.519531 L 100.125 293.519531 L 106.53125 306.328125 "/><path style=" stroke:none;fill-rule:nonzero;fill:#ac1754;fill-opacity:1;" d="M 120.105469 332.800781 L 57.097656 332.800781 L 63.507812 320.417969 L 113.695312 320.417969 L 120.105469 332.800781 "/><path style=" stroke:none;fill-rule:nonzero;fill:#000000;fill-opacity:1;" d="M 50.398438 346.890625 L 126.035156 346.890625 L 112.738281 320.515625 L 90.835938 277.457031 C 90.335938 276.46875 89.332031 275.855469 88.21875 275.855469 C 87.105469 275.855469 86.101562 276.46875 85.597656 277.460938 L 70.855469 306.464844 L 63.695312 320.578125 L 57.285156 333.238281 Z M 127.078125 348.171875 L 49.359375 348.171875 C 49.136719 348.171875 48.929688 348.054688 48.8125 347.867188 C 48.695312 347.675781 48.6875 347.441406 48.785156 347.242188 L 56.140625 332.660156 L 62.550781 320 L 76.121094 293.269531 L 84.457031 276.882812 C 85.179688 275.457031 86.621094 274.574219 88.21875 274.574219 C 89.816406 274.574219 91.257812 275.457031 91.976562 276.875 L 113.882812 319.9375 L 127.648438 347.242188 C 127.75 347.441406 127.738281 347.675781 127.621094 347.867188 C 127.503906 348.054688 127.300781 348.171875 127.078125 348.171875 "/><path style=" stroke:none;fill-rule:nonzero;fill:#ac1754;fill-opacity:1;" d="M 134.664062 347.585938 C 134.664062 346.148438 133.5 344.984375 132.0625 344.984375 L 44.753906 344.984375 C 43.316406 344.984375 42.152344 346.148438 42.152344 347.585938 L 42.152344 355.816406 C 42.152344 357.253906 43.316406 358.417969 44.753906 358.417969 L 132.0625 358.417969 C 133.5 358.417969 134.664062 357.253906 134.664062 355.816406 L 134.664062 347.585938 "/><path style=" stroke:none;fill-rule:nonzero;fill:#000000;fill-opacity:1;" d="M 44.753906 345.625 C 43.671875 345.625 42.792969 346.503906 42.792969 347.585938 L 42.792969 355.8125 C 42.792969 356.898438 43.671875 357.777344 44.753906 357.777344 L 132.0625 357.777344 C 133.144531 357.777344 134.027344 356.898438 134.027344 355.8125 L 134.027344 347.585938 C 134.027344 346.503906 133.144531 345.625 132.0625 345.625 Z M 132.0625 359.058594 L 44.753906 359.058594 C 42.96875 359.058594 41.511719 357.605469 41.511719 355.8125 L 41.511719 347.585938 C 41.511719 345.796875 42.96875 344.34375 44.753906 344.34375 L 132.0625 344.34375 C 133.851562 344.34375 135.304688 345.796875 135.304688 347.585938 L 135.304688 355.8125 C 135.304688 357.605469 133.851562 359.058594 132.0625 359.058594 "/><path style=" stroke:none;fill-rule:nonzero;fill:#ac1754;fill-opacity:1;" d="M 343.894531 190.582031 C 353.996094 193.425781 367.003906 204.359375 367.003906 224.207031 C 367.003906 238.5 345.945312 250.613281 345.945312 250.613281 L 342.472656 242.085938 C 342.472656 242.085938 354.078125 233.492188 353.523438 223.457031 C 353.078125 215.410156 340.105469 212.910156 340.105469 212.910156 L 343.894531 190.582031 "/><path style=" stroke:none;fill-rule:nonzero;fill:#ac1754;fill-opacity:1;" d="M 339.628906 353.664062 L 332.371094 353.664062 L 332.371094 345.136719 L 339.628906 345.136719 L 339.628906 353.664062 "/><path style=" stroke:none;fill-rule:nonzero;fill:#ac1754;fill-opacity:1;" d="M 320.304688 352.082031 L 313.238281 353.75 L 311.28125 345.457031 L 318.347656 343.785156 L 320.304688 352.082031 "/><path style=" stroke:none;fill-rule:nonzero;fill:#000000;fill-opacity:1;" d="M 345.628906 239.363281 C 345.628906 239.363281 347.796875 256.507812 346.132812 263.167969 C 344.472656 269.824219 340.578125 331.335938 340.578125 347.980469 L 330.789062 347.980469 L 326.367188 269.359375 L 312.710938 297.886719 C 311.71875 300.199219 311.464844 302.765625 311.988281 305.226562 L 320.054688 347.980469 L 310.898438 348.609375 L 295.589844 301.667969 C 294.90625 299.339844 294.855469 296.871094 295.441406 294.519531 L 307.855469 244.859375 L 345.628906 239.363281 "/><path style=" stroke:none;fill-rule:nonzero;fill:#ffffff;fill-opacity:1;" d="M 326.84375 268.265625 C 326.703125 268.265625 326.5625 268.21875 326.441406 268.125 C 326.164062 267.902344 326.121094 267.5 326.34375 267.222656 L 331.390625 260.910156 C 331.613281 260.632812 332.015625 260.589844 332.292969 260.808594 C 332.570312 261.03125 332.613281 261.433594 332.390625 261.710938 L 327.34375 268.023438 C 327.214844 268.183594 327.027344 268.265625 326.84375 268.265625 "/><path style=" stroke:none;fill-rule:nonzero;fill:#ffffff;fill-opacity:1;" d="M 340.105469 351.769531 L 331.578125 351.769531 L 330.316406 358.203125 C 330.074219 359.445312 330.96875 360.609375 332.167969 360.609375 L 339.515625 360.609375 C 340.714844 360.609375 341.613281 359.445312 341.371094 358.203125 L 340.105469 351.769531 "/><path style=" stroke:none;fill-rule:nonzero;fill:#000000;fill-opacity:1;" d="M 332.105469 352.410156 L 330.941406 358.328125 C 330.859375 358.757812 330.964844 359.1875 331.234375 359.515625 C 331.472656 359.808594 331.808594 359.96875 332.167969 359.96875 L 339.515625 359.96875 C 339.875 359.96875 340.207031 359.808594 340.449219 359.515625 C 340.71875 359.1875 340.824219 358.757812 340.738281 358.328125 L 339.578125 352.410156 Z M 339.515625 361.25 L 332.167969 361.25 C 331.425781 361.25 330.726562 360.917969 330.246094 360.328125 C 329.734375 359.707031 329.527344 358.886719 329.683594 358.082031 L 330.949219 351.644531 C 331.011719 351.347656 331.273438 351.128906 331.578125 351.128906 L 340.105469 351.128906 C 340.410156 351.128906 340.671875 351.347656 340.730469 351.644531 L 341.996094 358.082031 C 342.152344 358.886719 341.953125 359.707031 341.4375 360.328125 C 340.957031 360.917969 340.253906 361.25 339.515625 361.25 "/><path style=" stroke:none;fill-rule:nonzero;fill:#000000;fill-opacity:1;" d="M 340.105469 359.199219 L 331.261719 359.199219 C 330.910156 359.199219 330.621094 358.914062 330.621094 358.558594 C 330.621094 358.203125 330.910156 357.917969 331.261719 357.917969 L 340.105469 357.917969 C 340.457031 357.917969 340.742188 358.203125 340.742188 358.558594 C 340.742188 358.914062 340.457031 359.199219 340.105469 359.199219 "/><path style=" stroke:none;fill-rule:nonzero;fill:#ffffff;fill-opacity:1;" d="M 320.527344 349.875 L 322.863281 357.621094 C 323.269531 358.96875 322.445312 360.398438 321.238281 360.4375 L 305.203125 360.980469 C 304.210938 361.015625 303.8125 359.476562 304.652344 358.847656 C 307.257812 356.886719 310.734375 354.160156 311.6875 352.871094 C 313.898438 349.875 316.109375 352.496094 316.109375 352.496094 C 316.109375 352.496094 317.6875 349.875 320.527344 349.875 "/><path style=" stroke:none;fill-rule:nonzero;fill:#000000;fill-opacity:1;" d="M 313.992188 352.074219 C 313.972656 352.074219 313.957031 352.074219 313.9375 352.074219 C 313.34375 352.097656 312.761719 352.492188 312.203125 353.25 C 311.40625 354.328125 308.996094 356.382812 305.039062 359.359375 C 304.816406 359.523438 304.800781 359.839844 304.878906 360.0625 C 304.910156 360.148438 304.996094 360.339844 305.171875 360.339844 C 305.175781 360.339844 305.175781 360.339844 305.179688 360.339844 L 321.21875 359.796875 C 321.632812 359.78125 321.898438 359.496094 322.023438 359.324219 C 322.320312 358.910156 322.40625 358.328125 322.25 357.808594 L 320.0625 350.542969 C 317.910156 350.804688 316.667969 352.804688 316.65625 352.828125 C 316.546875 353.003906 316.363281 353.117188 316.15625 353.132812 C 315.953125 353.148438 315.75 353.0625 315.621094 352.90625 C 315.613281 352.902344 314.890625 352.074219 313.992188 352.074219 Z M 305.171875 361.621094 C 304.5 361.621094 303.917969 361.183594 303.671875 360.488281 C 303.386719 359.683594 303.628906 358.816406 304.265625 358.335938 C 308.019531 355.515625 310.472656 353.4375 311.171875 352.488281 C 311.976562 351.394531 312.898438 350.828125 313.902344 350.792969 C 314.796875 350.75 315.535156 351.175781 316.011719 351.539062 C 316.722656 350.679688 318.253906 349.234375 320.527344 349.234375 C 320.808594 349.234375 321.058594 349.417969 321.140625 349.691406 L 323.472656 357.4375 C 323.75 358.34375 323.597656 359.328125 323.0625 360.070312 C 322.621094 360.6875 321.964844 361.050781 321.261719 361.078125 L 305.226562 361.621094 C 305.207031 361.621094 305.1875 361.621094 305.171875 361.621094 "/><path style=" stroke:none;fill-rule:nonzero;fill:#ffffff;fill-opacity:1;" d="M 306.953125 358.558594 L 321.476562 357.925781 L 306.953125 358.558594 "/><path style=" stroke:none;fill-rule:nonzero;fill:#000000;fill-opacity:1;" d="M 306.949219 359.199219 C 306.609375 359.199219 306.324219 358.929688 306.3125 358.585938 C 306.296875 358.234375 306.570312 357.933594 306.921875 357.917969 L 321.445312 357.285156 C 321.808594 357.265625 322.101562 357.542969 322.113281 357.898438 C 322.128906 358.253906 321.855469 358.550781 321.5 358.566406 L 306.976562 359.199219 C 306.96875 359.199219 306.960938 359.199219 306.949219 359.199219 "/><path style=" stroke:none;fill-rule:nonzero;fill:#ffffff;fill-opacity:1;" d="M 329.054688 186.164062 L 336.945312 191.53125 L 315.210938 190.488281 L 321.472656 186.476562 L 322.320312 182.59375 C 321.207031 182.429688 319.675781 182.320312 319.191406 181.710938 C 318.332031 180.640625 318.71875 176.933594 318.71875 176.933594 L 317.777344 176.195312 C 317.675781 176.144531 317.601562 176.054688 317.570312 175.949219 C 317.542969 175.839844 317.5625 175.722656 317.621094 175.628906 C 318.417969 174.351562 319.175781 173.941406 319.527344 172.644531 C 319.875 171.363281 319.722656 171.554688 321.101562 168.796875 L 329.371094 168.785156 L 329.414062 174.980469 C 329.414062 174.980469 330.683594 174.164062 331.488281 175.269531 C 332.070312 176.074219 330.777344 178.765625 329.726562 178.765625 L 329.054688 186.164062 "/><path style=" stroke:none;fill-rule:nonzero;fill:#000000;fill-opacity:1;" d="M 317.246094 189.945312 L 334.707031 190.78125 L 328.691406 186.691406 C 328.5 186.558594 328.394531 186.335938 328.417969 186.101562 L 329.089844 178.707031 C 329.121094 178.378906 329.398438 178.128906 329.730469 178.128906 C 329.816406 178.121094 330.179688 177.890625 330.554688 177.207031 C 330.976562 176.449219 331.042969 175.785156 330.964844 175.640625 C 330.53125 175.046875 329.839844 175.46875 329.761719 175.519531 C 329.566406 175.648438 329.316406 175.65625 329.109375 175.542969 C 328.902344 175.433594 328.777344 175.21875 328.773438 174.984375 L 328.730469 169.429688 L 321.5 169.4375 C 320.507812 171.425781 320.460938 171.613281 320.265625 172.351562 C 320.234375 172.484375 320.191406 172.632812 320.144531 172.808594 C 319.886719 173.761719 319.4375 174.304688 318.964844 174.886719 C 318.746094 175.15625 318.515625 175.433594 318.285156 175.78125 L 319.113281 176.433594 C 319.289062 176.570312 319.378906 176.785156 319.355469 177.003906 C 319.207031 178.433594 319.210938 180.714844 319.691406 181.3125 C 319.945312 181.628906 321.164062 181.792969 321.890625 181.886719 C 322.070312 181.914062 322.246094 181.9375 322.414062 181.960938 C 322.585938 181.988281 322.746094 182.085938 322.847656 182.230469 C 322.945312 182.375 322.980469 182.554688 322.945312 182.730469 L 322.101562 186.613281 C 322.066406 186.78125 321.964844 186.925781 321.820312 187.019531 Z M 336.945312 192.171875 C 336.9375 192.171875 336.925781 192.167969 336.914062 192.167969 L 315.179688 191.128906 C 314.902344 191.117188 314.664062 190.925781 314.589844 190.652344 C 314.519531 190.386719 314.628906 190.101562 314.867188 189.949219 L 320.90625 186.082031 L 321.546875 183.136719 C 320.394531 182.976562 319.238281 182.796875 318.691406 182.113281 C 317.835938 181.046875 317.960938 178.320312 318.050781 177.226562 L 317.417969 176.730469 C 317.195312 176.589844 317.027344 176.375 316.957031 176.117188 C 316.878906 175.839844 316.921875 175.535156 317.078125 175.289062 C 317.394531 174.78125 317.707031 174.40625 317.976562 174.074219 C 318.410156 173.542969 318.722656 173.160156 318.910156 172.472656 C 318.957031 172.304688 318.992188 172.160156 319.027344 172.03125 C 319.261719 171.125 319.34375 170.882812 320.527344 168.511719 C 320.636719 168.292969 320.859375 168.160156 321.101562 168.15625 L 329.367188 168.144531 C 329.367188 168.144531 329.367188 168.144531 329.371094 168.144531 C 329.722656 168.144531 330.007812 168.429688 330.007812 168.78125 L 330.050781 174.078125 C 330.710938 173.980469 331.460938 174.144531 332.007812 174.894531 C 332.640625 175.773438 331.980469 177.238281 331.761719 177.667969 C 331.550781 178.085938 331.042969 178.9375 330.324219 179.269531 L 329.722656 185.84375 L 337.308594 191 C 337.542969 191.160156 337.644531 191.460938 337.554688 191.734375 C 337.46875 191.996094 337.21875 192.171875 336.945312 192.171875 "/><path style=" stroke:none;fill-rule:nonzero;fill:#000000;fill-opacity:1;" d="M 330.132812 181.535156 C 328.464844 182.089844 326.820312 180.789062 326.527344 180.554688 C 325.371094 179.636719 324.425781 178 324.890625 177.277344 C 325.144531 176.882812 325.601562 177.097656 326.199219 176.625 C 327.082031 175.921875 327.332031 174.410156 326.855469 174.003906 C 326.464844 173.667969 325.855469 174.308594 325.21875 174.003906 C 324.4375 173.628906 324.839844 172.433594 324.234375 171.382812 C 323.25 169.660156 320.957031 170.699219 319.191406 168.867188 C 318.039062 167.671875 317.539062 165.679688 318.195312 164.554688 C 318.390625 164.226562 318.683594 163.9375 319.101562 163.703125 C 321.875 162.175781 322.292969 164.269531 324.996094 164.292969 C 330.554688 164.339844 333.285156 165.453125 334.292969 167.757812 C 334.972656 169.320312 334.136719 171.8125 333.734375 173.019531 C 333.597656 173.421875 333.320312 174.183594 333.078125 175.3125 C 332.820312 176.550781 332.898438 176.867188 332.753906 177.605469 C 332.648438 178.125 332.09375 180.882812 330.132812 181.535156 "/><path style=" stroke:none;fill-rule:nonzero;fill:#ffffff;fill-opacity:1;" d="M 317.675781 171.835938 C 317.675781 171.835938 320.128906 172.742188 320.664062 171.515625 C 321.199219 170.289062 320.34375 169.273438 321.679688 168.3125 C 323.015625 167.351562 326.214844 166.335938 325.042969 164.898438 C 323.867188 163.453125 320.292969 162.867188 319.277344 164.574219 C 318.265625 166.285156 317.515625 169.21875 316.824219 169.273438 C 316.128906 169.324219 316.386719 171.535156 317.675781 171.835938 "/><path style=" stroke:none;fill-rule:nonzero;fill:#000000;fill-opacity:1;" d="M 317.898438 171.234375 C 318.667969 171.519531 319.890625 171.6875 320.078125 171.257812 C 320.230469 170.90625 320.230469 170.566406 320.230469 170.175781 C 320.226562 169.460938 320.21875 168.574219 321.304688 167.792969 C 321.679688 167.523438 322.152344 167.265625 322.65625 166.996094 C 323.371094 166.613281 324.566406 165.96875 324.652344 165.546875 C 324.664062 165.488281 324.628906 165.402344 324.542969 165.300781 C 323.96875 164.597656 322.53125 164.09375 321.328125 164.183594 C 320.910156 164.214844 320.160156 164.347656 319.824219 164.902344 C 319.441406 165.554688 319.074219 166.445312 318.753906 167.226562 C 318.148438 168.707031 317.757812 169.652344 317.09375 169.867188 C 317.070312 170.03125 317.09375 170.347656 317.257812 170.679688 C 317.335938 170.847656 317.519531 171.140625 317.820312 171.210938 C 317.847656 171.214844 317.871094 171.226562 317.898438 171.234375 Z M 319.363281 172.796875 C 318.535156 172.796875 317.71875 172.53125 317.488281 172.449219 C 316.234375 172.128906 315.746094 170.691406 315.8125 169.804688 C 315.867188 169.066406 316.265625 168.730469 316.65625 168.652344 C 316.886719 168.402344 317.296875 167.410156 317.566406 166.742188 C 317.90625 165.917969 318.289062 164.980469 318.726562 164.246094 C 319.191406 163.464844 320.082031 162.992188 321.234375 162.90625 C 322.871094 162.78125 324.6875 163.453125 325.539062 164.492188 C 325.957031 165.003906 325.96875 165.484375 325.90625 165.796875 C 325.707031 166.808594 324.460938 167.480469 323.261719 168.125 C 322.796875 168.375 322.359375 168.613281 322.050781 168.832031 C 321.503906 169.226562 321.503906 169.542969 321.507812 170.171875 C 321.507812 170.617188 321.511719 171.167969 321.25 171.769531 C 320.902344 172.570312 320.128906 172.796875 319.363281 172.796875 "/><path style=" stroke:none;fill-rule:nonzero;fill:#ac1754;fill-opacity:1;" d="M 306.953125 189.320312 C 306.953125 189.320312 325.894531 183.953125 343.890625 190.582031 C 345.277344 198.5625 346.226562 205.453125 346.890625 210.910156 C 348.058594 220.515625 347.328125 217.449219 348.789062 231.472656 C 349.691406 240.1875 349.929688 240.988281 349.101562 242.523438 C 344.925781 250.265625 328.097656 249.84375 321.632812 248.207031 C 321.171875 248.089844 319.273438 247.589844 316.164062 246.804688 C 312.609375 245.910156 309.6875 245.199219 307.738281 244.734375 C 306.683594 244.253906 305.261719 243.410156 304.265625 241.890625 C 302.039062 238.492188 303.527344 234.09375 304.265625 231.15625 C 306.160156 223.609375 303.671875 223.449219 304.265625 209.683594 C 304.472656 204.875 305.078125 197.882812 306.953125 189.320312 "/><path style=" stroke:none;fill-rule:nonzero;fill:#ffffff;fill-opacity:1;" d="M 341.605469 248.425781 C 341.292969 248.425781 341.019531 248.199219 340.972656 247.878906 C 340.921875 247.53125 341.160156 247.207031 341.511719 247.152344 C 341.855469 247.101562 349.90625 245.824219 348.839844 238.191406 C 348.792969 237.839844 349.035156 237.519531 349.386719 237.46875 C 349.730469 237.417969 350.0625 237.664062 350.109375 238.015625 C 351.351562 246.914062 341.792969 248.40625 341.695312 248.421875 C 341.664062 248.425781 341.632812 248.425781 341.605469 248.425781 "/><path style=" stroke:none;fill-rule:nonzero;fill:#ffffff;fill-opacity:1;" d="M 319.664062 241.058594 C 319.5 241.058594 319.339844 241 319.214844 240.875 C 311.664062 233.433594 310.105469 222.167969 310.039062 221.691406 C 309.996094 221.34375 310.242188 221.019531 310.59375 220.972656 C 310.945312 220.929688 311.265625 221.171875 311.3125 221.523438 C 311.328125 221.636719 312.882812 232.835938 320.113281 239.964844 C 320.363281 240.210938 320.367188 240.617188 320.121094 240.867188 C 319.996094 240.996094 319.828125 241.058594 319.664062 241.058594 "/><path style=" stroke:none;fill-rule:nonzero;fill:#ac1754;fill-opacity:1;" d="M 300.226562 179.15625 C 300.238281 178.820312 300.480469 178.535156 300.8125 178.472656 L 319.527344 172.644531 L 317.90625 168.785156 C 317.90625 168.785156 292.5625 160.738281 280.675781 171.003906 C 268.78125 181.265625 292.683594 206.625 306.179688 212.5 L 318.53125 187.695312 L 300.761719 179.882812 C 300.4375 179.796875 300.214844 179.496094 300.226562 179.15625 "/><path style=" stroke:none;fill-rule:nonzero;fill:#ffffff;fill-opacity:1;" d="M 358.136719 116.105469 C 358.136719 130.335938 346.601562 141.875 332.371094 141.875 C 318.136719 141.875 306.597656 130.335938 306.597656 116.105469 C 306.597656 101.875 318.136719 90.335938 332.371094 90.335938 C 346.601562 90.335938 358.136719 101.875 358.136719 116.105469 "/><path style=" stroke:none;fill-rule:nonzero;fill:#000000;fill-opacity:1;" d="M 332.367188 90.972656 C 318.511719 90.972656 307.238281 102.25 307.238281 116.105469 C 307.238281 129.960938 318.511719 141.234375 332.367188 141.234375 C 346.222656 141.234375 357.5 129.960938 357.5 116.105469 C 357.5 102.25 346.222656 90.972656 332.367188 90.972656 Z M 332.367188 142.515625 C 317.804688 142.515625 305.957031 130.667969 305.957031 116.105469 C 305.957031 101.542969 317.804688 89.695312 332.367188 89.695312 C 346.929688 89.695312 358.777344 101.542969 358.777344 116.105469 C 358.777344 130.667969 346.929688 142.515625 332.367188 142.515625 "/><path style=" stroke:none;fill-rule:nonzero;fill:#b62b5d;fill-opacity:1;" d="M 348.601562 116.105469 C 348.601562 125.074219 341.335938 132.339844 332.367188 132.339844 C 323.398438 132.339844 316.132812 125.074219 316.132812 116.105469 C 316.132812 107.140625 323.398438 99.871094 332.367188 99.871094 C 341.335938 99.871094 348.601562 107.140625 348.601562 116.105469 "/><path style=" stroke:none;fill-rule:nonzero;fill:#ffffff;fill-opacity:1;" d="M 325.386719 123.453125 C 325.328125 123.453125 325.273438 123.445312 325.214844 123.433594 C 324.875 123.339844 324.675781 122.988281 324.765625 122.644531 C 325.71875 119.171875 328.902344 116.746094 332.503906 116.746094 C 335.929688 116.746094 338.984375 118.921875 340.09375 122.164062 C 340.210938 122.5 340.03125 122.863281 339.699219 122.976562 C 339.359375 123.089844 338.996094 122.914062 338.882812 122.578125 C 337.949219 119.855469 335.386719 118.027344 332.503906 118.027344 C 329.476562 118.027344 326.800781 120.0625 326.003906 122.984375 C 325.925781 123.265625 325.667969 123.453125 325.386719 123.453125 "/><path style=" stroke:none;fill-rule:nonzero;fill:#ffffff;fill-opacity:1;" d="M 327.050781 113.355469 C 326.886719 113.355469 326.722656 113.292969 326.597656 113.167969 L 322.949219 109.519531 C 322.703125 109.269531 322.703125 108.863281 322.949219 108.617188 C 323.199219 108.367188 323.605469 108.367188 323.855469 108.617188 L 327.507812 112.261719 C 327.753906 112.511719 327.753906 112.917969 327.507812 113.167969 C 327.378906 113.292969 327.21875 113.355469 327.050781 113.355469 "/><path style=" stroke:none;fill-rule:nonzero;fill:#ffffff;fill-opacity:1;" d="M 327.050781 113.355469 C 326.886719 113.355469 326.722656 113.292969 326.597656 113.167969 L 322.949219 109.519531 C 322.703125 109.269531 322.703125 108.863281 322.949219 108.617188 C 323.199219 108.367188 323.605469 108.367188 323.855469 108.617188 L 327.507812 112.261719 C 327.753906 112.511719 327.753906 112.917969 327.507812 113.167969 C 327.378906 113.292969 327.21875 113.355469 327.050781 113.355469 "/><path style=" stroke:none;fill-rule:nonzero;fill:#ffffff;fill-opacity:1;" d="M 323.402344 113.355469 C 323.238281 113.355469 323.074219 113.292969 322.949219 113.167969 C 322.703125 112.917969 322.703125 112.511719 322.949219 112.261719 L 326.597656 108.617188 C 326.847656 108.367188 327.253906 108.367188 327.507812 108.617188 C 327.753906 108.863281 327.753906 109.269531 327.507812 109.519531 L 323.855469 113.167969 C 323.730469 113.292969 323.570312 113.355469 323.402344 113.355469 "/><path style=" stroke:none;fill-rule:nonzero;fill:#ffffff;fill-opacity:1;" d="M 341.566406 113.359375 C 341.402344 113.359375 341.238281 113.296875 341.113281 113.171875 L 337.464844 109.523438 C 337.214844 109.273438 337.214844 108.867188 337.464844 108.617188 C 337.714844 108.367188 338.121094 108.367188 338.371094 108.617188 L 342.019531 112.265625 C 342.269531 112.515625 342.269531 112.921875 342.019531 113.171875 C 341.894531 113.296875 341.726562 113.359375 341.566406 113.359375 "/><path style=" stroke:none;fill-rule:nonzero;fill:#ffffff;fill-opacity:1;" d="M 337.917969 113.359375 C 337.753906 113.359375 337.589844 113.296875 337.464844 113.171875 C 337.214844 112.921875 337.214844 112.515625 337.464844 112.265625 L 341.113281 108.617188 C 341.363281 108.367188 341.765625 108.367188 342.019531 108.617188 C 342.269531 108.867188 342.269531 109.273438 342.019531 109.523438 L 338.371094 113.171875 C 338.246094 113.296875 338.082031 113.359375 337.917969 113.359375 "/><path style=" stroke:none;fill-rule:nonzero;fill:#000000;fill-opacity:1;" d="M 245.34375 35.613281 C 245.234375 35.613281 245.121094 35.589844 245.015625 35.546875 C 219.691406 24.988281 190.476562 21.765625 160.53125 26.226562 C 160.066406 26.292969 159.628906 25.976562 159.5625 25.507812 C 159.492188 25.042969 159.8125 24.605469 160.28125 24.539062 C 190.53125 20.03125 220.058594 23.292969 245.671875 33.96875 C 246.105469 34.148438 246.3125 34.648438 246.132812 35.085938 C 245.996094 35.414062 245.675781 35.609375 245.34375 35.613281 "/><path style=" stroke:none;fill-rule:nonzero;fill:#000000;fill-opacity:1;" d="M 257.535156 31.96875 C 257.40625 31.96875 257.269531 31.9375 257.148438 31.875 C 254.972656 30.742188 252.714844 29.644531 250.4375 28.617188 C 218.582031 14.222656 180.03125 11.5 141.890625 20.953125 C 141.429688 21.0625 140.96875 20.785156 140.855469 20.328125 C 140.742188 19.871094 141.019531 19.40625 141.480469 19.292969 C 179.992188 9.75 218.9375 12.507812 251.144531 27.058594 C 253.445312 28.101562 255.730469 29.210938 257.933594 30.359375 C 258.351562 30.574219 258.515625 31.089844 258.296875 31.507812 C 258.144531 31.800781 257.847656 31.96875 257.535156 31.96875 "/><path style=" stroke:none;fill-rule:nonzero;fill:#000000;fill-opacity:1;" d="M 284.441406 62.160156 C 284.101562 62.160156 283.816406 61.894531 283.800781 61.550781 C 283.785156 61.199219 284.058594 60.898438 284.410156 60.878906 L 287.484375 60.730469 C 287.839844 60.714844 288.140625 60.988281 288.15625 61.339844 C 288.171875 61.695312 287.898438 61.996094 287.546875 62.011719 L 284.472656 62.160156 C 284.460938 62.160156 284.449219 62.160156 284.441406 62.160156 "/><path style=" stroke:none;fill-rule:nonzero;fill:#000000;fill-opacity:1;" d="M 295.207031 61.644531 C 294.863281 61.644531 294.582031 61.375 294.566406 61.035156 C 294.546875 60.679688 294.820312 60.378906 295.175781 60.363281 L 298.25 60.214844 C 298.597656 60.199219 298.90625 60.472656 298.921875 60.824219 C 298.9375 61.179688 298.664062 61.476562 298.3125 61.492188 L 295.238281 61.644531 C 295.226562 61.644531 295.214844 61.644531 295.207031 61.644531 "/><path style=" stroke:none;fill-rule:nonzero;fill:#000000;fill-opacity:1;" d="M 291.734375 68.75 C 291.394531 68.75 291.113281 68.484375 291.09375 68.140625 L 290.929688 65.066406 C 290.910156 64.714844 291.183594 64.410156 291.535156 64.394531 C 291.894531 64.382812 292.191406 64.644531 292.207031 64.996094 L 292.375 68.074219 C 292.394531 68.425781 292.125 68.730469 291.769531 68.75 C 291.757812 68.75 291.746094 68.75 291.734375 68.75 "/><path style=" stroke:none;fill-rule:nonzero;fill:#000000;fill-opacity:1;" d="M 291.15625 57.980469 C 290.816406 57.980469 290.535156 57.71875 290.515625 57.375 L 290.347656 54.300781 C 290.328125 53.945312 290.601562 53.644531 290.953125 53.625 C 291.304688 53.613281 291.609375 53.878906 291.628906 54.230469 L 291.792969 57.304688 C 291.8125 57.660156 291.542969 57.960938 291.191406 57.980469 C 291.179688 57.980469 291.167969 57.980469 291.15625 57.980469 "/><path style=" stroke:none;fill-rule:nonzero;fill:#000000;fill-opacity:1;" d="M 263.300781 321.136719 C 263.183594 321.136719 263.066406 321.105469 262.960938 321.039062 L 260.773438 319.6875 C 260.472656 319.5 260.378906 319.105469 260.566406 318.804688 C 260.75 318.503906 261.144531 318.410156 261.445312 318.597656 L 263.636719 319.953125 C 263.9375 320.136719 264.03125 320.535156 263.84375 320.835938 C 263.722656 321.03125 263.515625 321.136719 263.300781 321.136719 "/><path style=" stroke:none;fill-rule:nonzero;fill:#000000;fill-opacity:1;" d="M 270.964844 325.878906 C 270.847656 325.878906 270.734375 325.847656 270.628906 325.78125 L 268.4375 324.425781 C 268.136719 324.242188 268.046875 323.847656 268.230469 323.546875 C 268.414062 323.246094 268.8125 323.152344 269.109375 323.339844 L 271.300781 324.691406 C 271.601562 324.878906 271.695312 325.273438 271.507812 325.574219 C 271.386719 325.769531 271.179688 325.878906 270.964844 325.878906 "/><path style=" stroke:none;fill-rule:nonzero;fill:#000000;fill-opacity:1;" d="M 263.015625 327.777344 C 262.902344 327.777344 262.785156 327.746094 262.679688 327.683594 C 262.378906 327.5 262.285156 327.101562 262.46875 326.800781 L 263.8125 324.605469 C 263.996094 324.300781 264.390625 324.207031 264.691406 324.390625 C 264.992188 324.574219 265.089844 324.972656 264.902344 325.273438 L 263.5625 327.46875 C 263.441406 327.667969 263.230469 327.777344 263.015625 327.777344 "/><path style=" stroke:none;fill-rule:nonzero;fill:#000000;fill-opacity:1;" d="M 267.714844 320.082031 C 267.601562 320.082031 267.484375 320.050781 267.382812 319.988281 C 267.082031 319.804688 266.984375 319.410156 267.167969 319.109375 L 268.511719 316.910156 C 268.695312 316.605469 269.089844 316.511719 269.390625 316.699219 C 269.695312 316.882812 269.789062 317.273438 269.605469 317.578125 L 268.261719 319.777344 C 268.140625 319.972656 267.933594 320.082031 267.714844 320.082031 "/><path style=" stroke:none;fill-rule:nonzero;fill:#000000;fill-opacity:1;" d="M 97.554688 52.011719 C 97.492188 52.011719 97.425781 52 97.363281 51.980469 L 94.972656 51.234375 C 94.636719 51.128906 94.449219 50.769531 94.554688 50.429688 C 94.660156 50.09375 95.015625 49.902344 95.355469 50.011719 L 97.746094 50.757812 C 98.082031 50.863281 98.269531 51.222656 98.164062 51.5625 C 98.078125 51.835938 97.828125 52.011719 97.554688 52.011719 "/><path style=" stroke:none;fill-rule:nonzero;fill:#000000;fill-opacity:1;" d="M 89.191406 49.394531 C 89.128906 49.394531 89.066406 49.386719 89 49.367188 L 86.613281 48.617188 C 86.277344 48.511719 86.089844 48.152344 86.195312 47.816406 C 86.300781 47.476562 86.65625 47.289062 86.996094 47.394531 L 89.382812 48.144531 C 89.722656 48.25 89.910156 48.609375 89.804688 48.945312 C 89.71875 49.21875 89.464844 49.394531 89.191406 49.394531 "/><path style=" stroke:none;fill-rule:nonzero;fill:#000000;fill-opacity:1;" d="M 93.097656 47.335938 C 93.035156 47.335938 92.96875 47.328125 92.90625 47.308594 C 92.570312 47.203125 92.378906 46.847656 92.484375 46.507812 L 93.214844 44.117188 C 93.320312 43.777344 93.679688 43.585938 94.015625 43.691406 C 94.355469 43.796875 94.542969 44.152344 94.441406 44.492188 L 93.707031 46.882812 C 93.625 47.160156 93.371094 47.335938 93.097656 47.335938 "/><path style=" stroke:none;fill-rule:nonzero;fill:#000000;fill-opacity:1;" d="M 90.53125 55.714844 C 90.46875 55.714844 90.402344 55.703125 90.339844 55.6875 C 90.003906 55.582031 89.8125 55.222656 89.917969 54.886719 L 90.648438 52.492188 C 90.753906 52.15625 91.113281 51.964844 91.449219 52.066406 C 91.789062 52.171875 91.976562 52.53125 91.875 52.867188 L 91.140625 55.261719 C 91.058594 55.535156 90.804688 55.714844 90.53125 55.714844 "/><path style=" stroke:none;fill-rule:nonzero;fill:#000000;fill-opacity:1;" d="M 132.609375 20.792969 C 132.503906 20.792969 132.398438 20.800781 132.289062 20.816406 C 131.167969 20.996094 130.402344 22.046875 130.578125 23.167969 C 130.664062 23.714844 130.953125 24.191406 131.398438 24.511719 C 131.84375 24.835938 132.386719 24.96875 132.929688 24.882812 C 134.050781 24.707031 134.820312 23.648438 134.644531 22.53125 C 134.484375 21.515625 133.605469 20.792969 132.609375 20.792969 Z M 132.601562 26.1875 C 131.902344 26.1875 131.222656 25.96875 130.644531 25.550781 C 129.925781 25.023438 129.449219 24.25 129.3125 23.371094 C 129.027344 21.550781 130.273438 19.839844 132.089844 19.550781 C 133.90625 19.261719 135.621094 20.511719 135.910156 22.328125 C 136.195312 24.148438 134.949219 25.863281 133.128906 26.148438 C 132.953125 26.175781 132.777344 26.1875 132.601562 26.1875 "/><g style="fill:#ac1754;fill-opacity:1;"><g transform="translate(116.288097, 255.852527)"><path style="stroke:none" d="M 0.421875 -7.453125 C 0.421875 -9.609375 1.15625 -11.429688 2.625 -12.921875 C 4.09375 -14.421875 5.859375 -15.171875 7.921875 -15.171875 C 10.003906 -15.171875 11.773438 -14.425781 13.234375 -12.9375 C 14.691406 -11.457031 15.421875 -9.628906 15.421875 -7.453125 C 15.421875 -5.273438 14.703125 -3.441406 13.265625 -1.953125 C 11.835938 -0.472656 10.054688 0.265625 7.921875 0.265625 C 5.742188 0.265625 3.945312 -0.46875 2.53125 -1.9375 C 1.125 -3.414062 0.421875 -5.253906 0.421875 -7.453125 Z M 4.078125 -7.453125 C 4.078125 -6.671875 4.195312 -5.957031 4.4375 -5.3125 C 4.675781 -4.675781 5.097656 -4.132812 5.703125 -3.6875 C 6.304688 -3.238281 7.046875 -3.015625 7.921875 -3.015625 C 9.191406 -3.015625 10.148438 -3.445312 10.796875 -4.3125 C 11.441406 -5.1875 11.765625 -6.234375 11.765625 -7.453125 C 11.765625 -8.671875 11.4375 -9.71875 10.78125 -10.59375 C 10.125 -11.46875 9.171875 -11.90625 7.921875 -11.90625 C 6.703125 -11.90625 5.753906 -11.46875 5.078125 -10.59375 C 4.410156 -9.71875 4.078125 -8.671875 4.078125 -7.453125 Z M 4.078125 -7.453125 "/></g></g><g style="fill:#ac1754;fill-opacity:1;"><g transform="translate(131.227821, 255.852527)"><path style="stroke:none" d="M 1.953125 -1.09375 C 0.929688 -2.007812 0.421875 -3.1875 0.421875 -4.625 C 0.421875 -6.0625 0.953125 -7.238281 2.015625 -8.15625 C 3.085938 -9.070312 4.414062 -9.53125 6 -9.53125 C 7.550781 -9.53125 8.859375 -9.066406 9.921875 -8.140625 C 10.992188 -7.210938 11.53125 -6.039062 11.53125 -4.625 C 11.53125 -3.207031 11.007812 -2.035156 9.96875 -1.109375 C 8.925781 -0.191406 7.601562 0.265625 6 0.265625 C 4.332031 0.265625 2.984375 -0.1875 1.953125 -1.09375 Z M 4.4375 -6.1875 C 4.019531 -5.78125 3.8125 -5.257812 3.8125 -4.625 C 3.8125 -3.988281 4.007812 -3.46875 4.40625 -3.0625 C 4.800781 -2.65625 5.328125 -2.453125 5.984375 -2.453125 C 6.609375 -2.453125 7.117188 -2.65625 7.515625 -3.0625 C 7.921875 -3.476562 8.125 -4 8.125 -4.625 C 8.125 -5.257812 7.914062 -5.78125 7.5 -6.1875 C 7.082031 -6.601562 6.578125 -6.8125 5.984375 -6.8125 C 5.367188 -6.8125 4.851562 -6.601562 4.4375 -6.1875 Z M 4.4375 -6.1875 "/></g></g><g style="fill:#ac1754;fill-opacity:1;"><g transform="translate(142.265513, 255.852527)"><path style="stroke:none" d="M 10.609375 -8.109375 C 11.484375 -7.171875 11.921875 -6.015625 11.921875 -4.640625 C 11.921875 -3.265625 11.484375 -2.101562 10.609375 -1.15625 C 9.742188 -0.207031 8.644531 0.265625 7.3125 0.265625 C 6.082031 0.265625 5.070312 -0.117188 4.28125 -0.890625 L 4.28125 4.703125 L 1.078125 4.703125 L 1.078125 -9.265625 L 4.25 -9.265625 L 4.25 -8.21875 L 4.28125 -8.21875 C 5.070312 -9.09375 6.082031 -9.53125 7.3125 -9.53125 C 8.644531 -9.53125 9.742188 -9.054688 10.609375 -8.109375 Z M 7.90625 -3.0625 C 8.320312 -3.476562 8.53125 -4.003906 8.53125 -4.640625 C 8.53125 -5.273438 8.328125 -5.796875 7.921875 -6.203125 C 7.523438 -6.609375 7.003906 -6.8125 6.359375 -6.8125 C 5.734375 -6.8125 5.21875 -6.601562 4.8125 -6.1875 C 4.40625 -5.78125 4.203125 -5.265625 4.203125 -4.640625 C 4.203125 -4.003906 4.410156 -3.476562 4.828125 -3.0625 C 5.242188 -2.65625 5.753906 -2.453125 6.359375 -2.453125 C 6.972656 -2.453125 7.488281 -2.65625 7.90625 -3.0625 Z M 7.90625 -3.0625 "/></g></g><g style="fill:#ac1754;fill-opacity:1;"><g transform="translate(153.700637, 255.852527)"><path style="stroke:none" d="M 5.109375 -9.53125 C 5.640625 -9.53125 6.160156 -9.46875 6.671875 -9.34375 C 7.191406 -9.226562 7.582031 -9.113281 7.84375 -9 L 8.21875 -8.8125 L 7.171875 -6.71875 C 6.453125 -7.101562 5.765625 -7.296875 5.109375 -7.296875 C 4.742188 -7.296875 4.488281 -7.253906 4.34375 -7.171875 C 4.195312 -7.097656 4.125 -6.953125 4.125 -6.734375 C 4.125 -6.691406 4.128906 -6.644531 4.140625 -6.59375 C 4.148438 -6.539062 4.171875 -6.492188 4.203125 -6.453125 C 4.242188 -6.410156 4.28125 -6.375 4.3125 -6.34375 C 4.34375 -6.3125 4.390625 -6.28125 4.453125 -6.25 C 4.523438 -6.21875 4.582031 -6.191406 4.625 -6.171875 C 4.675781 -6.148438 4.75 -6.117188 4.84375 -6.078125 C 4.9375 -6.046875 5.003906 -6.019531 5.046875 -6 C 5.097656 -5.988281 5.179688 -5.960938 5.296875 -5.921875 C 5.410156 -5.890625 5.5 -5.867188 5.5625 -5.859375 C 5.9375 -5.742188 6.257812 -5.617188 6.53125 -5.484375 C 6.8125 -5.359375 7.101562 -5.179688 7.40625 -4.953125 C 7.71875 -4.722656 7.957031 -4.429688 8.125 -4.078125 C 8.289062 -3.734375 8.375 -3.335938 8.375 -2.890625 C 8.375 -0.785156 6.910156 0.265625 3.984375 0.265625 C 3.328125 0.265625 2.695312 0.164062 2.09375 -0.03125 C 1.5 -0.238281 1.070312 -0.445312 0.8125 -0.65625 L 0.421875 -0.96875 L 1.71875 -3.15625 C 1.8125 -3.070312 1.9375 -2.972656 2.09375 -2.859375 C 2.25 -2.742188 2.53125 -2.585938 2.9375 -2.390625 C 3.351562 -2.191406 3.710938 -2.09375 4.015625 -2.09375 C 4.671875 -2.09375 5 -2.316406 5 -2.765625 C 5 -2.972656 4.914062 -3.128906 4.75 -3.234375 C 4.582031 -3.347656 4.296875 -3.476562 3.890625 -3.625 C 3.484375 -3.769531 3.164062 -3.90625 2.9375 -4.03125 C 2.363281 -4.332031 1.90625 -4.671875 1.5625 -5.046875 C 1.226562 -5.429688 1.0625 -5.9375 1.0625 -6.5625 C 1.0625 -7.5 1.425781 -8.226562 2.15625 -8.75 C 2.882812 -9.269531 3.867188 -9.53125 5.109375 -9.53125 Z M 5.109375 -9.53125 "/></g></g><g style="fill:#ac1754;fill-opacity:1;"><g transform="translate(161.685349, 255.852527)"><path style="stroke:none" d="M 1.984375 -4.875 L 1.546875 -15.53125 L 4.75 -15.53125 L 4.3125 -4.875 Z M 3.140625 -3.859375 C 3.722656 -3.859375 4.210938 -3.65625 4.609375 -3.25 C 5.015625 -2.851562 5.21875 -2.363281 5.21875 -1.78125 C 5.21875 -1.21875 5.015625 -0.734375 4.609375 -0.328125 C 4.210938 0.0664062 3.722656 0.265625 3.140625 0.265625 C 2.578125 0.265625 2.09375 0.0664062 1.6875 -0.328125 C 1.28125 -0.734375 1.078125 -1.21875 1.078125 -1.78125 C 1.078125 -2.363281 1.28125 -2.851562 1.6875 -3.25 C 2.09375 -3.65625 2.578125 -3.859375 3.140625 -3.859375 Z M 3.140625 -3.859375 "/></g></g><g style="fill:#ac1754;fill-opacity:1;"><g transform="translate(167.08677, 255.852527)"><path style="stroke:none" d=""/></g></g><g style="fill:#ac1754;fill-opacity:1;"><g transform="translate(171.115258, 255.852527)"><path style="stroke:none" d="M 4.484375 -5.984375 L 4.484375 0 L 1.078125 0 L 1.078125 -14.90625 L 4.484375 -14.90625 L 4.484375 -8.953125 L 9.28125 -8.953125 L 9.28125 -14.90625 L 12.6875 -14.90625 L 12.6875 0 L 9.28125 0 L 9.28125 -5.984375 Z M 4.484375 -5.984375 "/></g></g><g style="fill:#ac1754;fill-opacity:1;"><g transform="translate(183.977516, 255.852527)"><path style="stroke:none" d="M 1.71875 -1.140625 C 0.851562 -2.085938 0.421875 -3.25 0.421875 -4.625 C 0.421875 -6 0.851562 -7.160156 1.71875 -8.109375 C 2.582031 -9.054688 3.679688 -9.53125 5.015625 -9.53125 C 6.242188 -9.53125 7.257812 -9.144531 8.0625 -8.375 L 8.0625 -9.265625 L 11.25 -9.265625 L 11.25 0 L 8.09375 0 L 8.09375 -1.046875 L 8.0625 -1.046875 C 7.257812 -0.171875 6.242188 0.265625 5.015625 0.265625 C 3.679688 0.265625 2.582031 -0.203125 1.71875 -1.140625 Z M 4.4375 -6.1875 C 4.019531 -5.78125 3.8125 -5.257812 3.8125 -4.625 C 3.8125 -3.988281 4.007812 -3.46875 4.40625 -3.0625 C 4.800781 -2.65625 5.328125 -2.453125 5.984375 -2.453125 C 6.609375 -2.453125 7.117188 -2.65625 7.515625 -3.0625 C 7.921875 -3.476562 8.125 -4 8.125 -4.625 C 8.125 -5.257812 7.914062 -5.78125 7.5 -6.1875 C 7.082031 -6.601562 6.578125 -6.8125 5.984375 -6.8125 C 5.367188 -6.8125 4.851562 -6.601562 4.4375 -6.1875 Z M 4.4375 -6.1875 "/></g></g><g style="fill:#ac1754;fill-opacity:1;"><g transform="translate(195.412636, 255.852527)"><path style="stroke:none" d="M 1.078125 0 L 1.078125 -15.53125 L 4.28125 -15.53125 L 4.28125 0 Z M 1.078125 0 "/></g></g><g style="fill:#ac1754;fill-opacity:1;"><g transform="translate(199.87468, 255.852527)"><path style="stroke:none" d="M 1.71875 -1.140625 C 0.851562 -2.085938 0.421875 -3.25 0.421875 -4.625 C 0.421875 -6 0.851562 -7.160156 1.71875 -8.109375 C 2.582031 -9.054688 3.679688 -9.53125 5.015625 -9.53125 C 6.242188 -9.53125 7.257812 -9.144531 8.0625 -8.375 L 8.0625 -9.265625 L 11.25 -9.265625 L 11.25 0 L 8.09375 0 L 8.09375 -1.046875 L 8.0625 -1.046875 C 7.257812 -0.171875 6.242188 0.265625 5.015625 0.265625 C 3.679688 0.265625 2.582031 -0.203125 1.71875 -1.140625 Z M 4.4375 -6.1875 C 4.019531 -5.78125 3.8125 -5.257812 3.8125 -4.625 C 3.8125 -3.988281 4.007812 -3.46875 4.40625 -3.0625 C 4.800781 -2.65625 5.328125 -2.453125 5.984375 -2.453125 C 6.609375 -2.453125 7.117188 -2.65625 7.515625 -3.0625 C 7.921875 -3.476562 8.125 -4 8.125 -4.625 C 8.125 -5.257812 7.914062 -5.78125 7.5 -6.1875 C 7.082031 -6.601562 6.578125 -6.8125 5.984375 -6.8125 C 5.367188 -6.8125 4.851562 -6.601562 4.4375 -6.1875 Z M 4.4375 -6.1875 "/></g></g><g style="fill:#ac1754;fill-opacity:1;"><g transform="translate(211.309808, 255.852527)"><path style="stroke:none" d="M 1.078125 0 L 1.078125 -9.265625 L 4.28125 -9.265625 L 4.28125 -8.296875 L 4.3125 -8.296875 C 5.144531 -9.117188 6.03125 -9.53125 6.96875 -9.53125 C 7.644531 -9.53125 8.273438 -9.390625 8.859375 -9.109375 C 9.453125 -8.835938 9.898438 -8.414062 10.203125 -7.84375 C 11.140625 -8.96875 12.164062 -9.53125 13.28125 -9.53125 C 14.257812 -9.53125 15.101562 -9.253906 15.8125 -8.703125 C 16.53125 -8.148438 16.890625 -7.285156 16.890625 -6.109375 L 16.890625 0 L 13.6875 0 L 13.6875 -5.234375 C 13.6875 -5.734375 13.550781 -6.144531 13.28125 -6.46875 C 13.007812 -6.800781 12.601562 -6.96875 12.0625 -6.96875 C 11.59375 -6.96875 11.234375 -6.828125 10.984375 -6.546875 C 10.742188 -6.265625 10.609375 -5.925781 10.578125 -5.53125 L 10.578125 0 L 7.390625 0 L 7.390625 -5.234375 C 7.390625 -5.734375 7.253906 -6.144531 6.984375 -6.46875 C 6.710938 -6.800781 6.304688 -6.96875 5.765625 -6.96875 C 5.265625 -6.96875 4.890625 -6.8125 4.640625 -6.5 C 4.398438 -6.195312 4.28125 -5.835938 4.28125 -5.421875 L 4.28125 0 Z M 1.078125 0 "/></g></g><g style="fill:#ac1754;fill-opacity:1;"><g transform="translate(228.200545, 255.852527)"><path style="stroke:none" d="M 1.71875 -1.140625 C 0.851562 -2.085938 0.421875 -3.25 0.421875 -4.625 C 0.421875 -6 0.851562 -7.160156 1.71875 -8.109375 C 2.582031 -9.054688 3.679688 -9.53125 5.015625 -9.53125 C 6.242188 -9.53125 7.257812 -9.144531 8.0625 -8.375 L 8.0625 -9.265625 L 11.25 -9.265625 L 11.25 0 L 8.09375 0 L 8.09375 -1.046875 L 8.0625 -1.046875 C 7.257812 -0.171875 6.242188 0.265625 5.015625 0.265625 C 3.679688 0.265625 2.582031 -0.203125 1.71875 -1.140625 Z M 4.4375 -6.1875 C 4.019531 -5.78125 3.8125 -5.257812 3.8125 -4.625 C 3.8125 -3.988281 4.007812 -3.46875 4.40625 -3.0625 C 4.800781 -2.65625 5.328125 -2.453125 5.984375 -2.453125 C 6.609375 -2.453125 7.117188 -2.65625 7.515625 -3.0625 C 7.921875 -3.476562 8.125 -4 8.125 -4.625 C 8.125 -5.257812 7.914062 -5.78125 7.5 -6.1875 C 7.082031 -6.601562 6.578125 -6.8125 5.984375 -6.8125 C 5.367188 -6.8125 4.851562 -6.601562 4.4375 -6.1875 Z M 4.4375 -6.1875 "/></g></g><g style="fill:#ac1754;fill-opacity:1;"><g transform="translate(239.635665, 255.852527)"><path style="stroke:none" d="M 1.078125 0 L 1.078125 -9.265625 L 4.28125 -9.265625 L 4.28125 -8.296875 L 4.3125 -8.296875 C 5.144531 -9.117188 6.03125 -9.53125 6.96875 -9.53125 C 7.425781 -9.53125 7.878906 -9.46875 8.328125 -9.34375 C 8.785156 -9.226562 9.222656 -9.046875 9.640625 -8.796875 C 10.054688 -8.546875 10.390625 -8.1875 10.640625 -7.71875 C 10.898438 -7.257812 11.03125 -6.722656 11.03125 -6.109375 L 11.03125 0 L 7.84375 0 L 7.84375 -5.234375 C 7.84375 -5.710938 7.6875 -6.132812 7.375 -6.5 C 7.070312 -6.863281 6.671875 -7.046875 6.171875 -7.046875 C 5.691406 -7.046875 5.253906 -6.859375 4.859375 -6.484375 C 4.472656 -6.109375 4.28125 -5.691406 4.28125 -5.234375 L 4.28125 0 Z M 1.078125 0 "/></g></g><g style="fill:#ac1754;fill-opacity:1;"><g transform="translate(116.288097, 273.014228)"><path style="stroke:none" d="M 1.625 -9.265625 L 1.625 -12.71875 L 4.828125 -12.71875 L 4.828125 -9.265625 L 6.78125 -9.265625 L 6.78125 -6.828125 L 4.828125 -6.828125 L 4.828125 -3.890625 C 4.828125 -3.023438 5.066406 -2.59375 5.546875 -2.59375 C 5.660156 -2.59375 5.785156 -2.617188 5.921875 -2.671875 C 6.054688 -2.722656 6.160156 -2.769531 6.234375 -2.8125 L 6.34375 -2.890625 L 7.140625 -0.3125 C 6.453125 0.0703125 5.664062 0.265625 4.78125 0.265625 C 4.1875 0.265625 3.671875 0.160156 3.234375 -0.046875 C 2.796875 -0.253906 2.46875 -0.535156 2.25 -0.890625 C 2.03125 -1.242188 1.867188 -1.613281 1.765625 -2 C 1.671875 -2.394531 1.625 -2.816406 1.625 -3.265625 L 1.625 -6.828125 L 0.28125 -6.828125 L 0.28125 -9.265625 Z M 1.625 -9.265625 "/></g></g><g style="fill:#ac1754;fill-opacity:1;"><g transform="translate(122.52051, 273.014228)"><path style="stroke:none" d="M 1.390625 -14.421875 C 1.765625 -14.796875 2.207031 -14.984375 2.71875 -14.984375 C 3.238281 -14.984375 3.6875 -14.796875 4.0625 -14.421875 C 4.4375 -14.054688 4.625 -13.613281 4.625 -13.09375 C 4.625 -12.570312 4.4375 -12.125 4.0625 -11.75 C 3.6875 -11.382812 3.238281 -11.203125 2.71875 -11.203125 C 2.207031 -11.203125 1.765625 -11.382812 1.390625 -11.75 C 1.015625 -12.125 0.828125 -12.570312 0.828125 -13.09375 C 0.828125 -13.613281 1.015625 -14.054688 1.390625 -14.421875 Z M 1.078125 -9.265625 L 1.078125 0 L 4.28125 0 L 4.28125 -9.265625 Z M 1.078125 -9.265625 "/></g></g><g style="fill:#ac1754;fill-opacity:1;"><g transform="translate(127.072881, 273.014228)"><path style="stroke:none" d="M 1.71875 -1.140625 C 0.851562 -2.085938 0.421875 -3.25 0.421875 -4.625 C 0.421875 -6 0.851562 -7.160156 1.71875 -8.109375 C 2.582031 -9.054688 3.679688 -9.53125 5.015625 -9.53125 C 6.242188 -9.53125 7.257812 -9.144531 8.0625 -8.375 L 8.0625 -15.53125 L 11.25 -15.53125 L 11.25 0 L 8.09375 0 L 8.09375 -1.046875 L 8.0625 -1.046875 C 7.257812 -0.171875 6.242188 0.265625 5.015625 0.265625 C 3.679688 0.265625 2.582031 -0.203125 1.71875 -1.140625 Z M 4.4375 -6.1875 C 4.019531 -5.78125 3.8125 -5.257812 3.8125 -4.625 C 3.8125 -3.988281 4.007812 -3.46875 4.40625 -3.0625 C 4.800781 -2.65625 5.328125 -2.453125 5.984375 -2.453125 C 6.609375 -2.453125 7.117188 -2.65625 7.515625 -3.0625 C 7.921875 -3.476562 8.125 -4 8.125 -4.625 C 8.125 -5.257812 7.914062 -5.78125 7.5 -6.1875 C 7.082031 -6.601562 6.578125 -6.8125 5.984375 -6.8125 C 5.367188 -6.8125 4.851562 -6.601562 4.4375 -6.1875 Z M 4.4375 -6.1875 "/></g></g><g style="fill:#ac1754;fill-opacity:1;"><g transform="translate(138.508003, 273.014228)"><path style="stroke:none" d="M 1.71875 -1.140625 C 0.851562 -2.085938 0.421875 -3.25 0.421875 -4.625 C 0.421875 -6 0.851562 -7.160156 1.71875 -8.109375 C 2.582031 -9.054688 3.679688 -9.53125 5.015625 -9.53125 C 6.242188 -9.53125 7.257812 -9.144531 8.0625 -8.375 L 8.0625 -9.265625 L 11.25 -9.265625 L 11.25 0 L 8.09375 0 L 8.09375 -1.046875 L 8.0625 -1.046875 C 7.257812 -0.171875 6.242188 0.265625 5.015625 0.265625 C 3.679688 0.265625 2.582031 -0.203125 1.71875 -1.140625 Z M 4.4375 -6.1875 C 4.019531 -5.78125 3.8125 -5.257812 3.8125 -4.625 C 3.8125 -3.988281 4.007812 -3.46875 4.40625 -3.0625 C 4.800781 -2.65625 5.328125 -2.453125 5.984375 -2.453125 C 6.609375 -2.453125 7.117188 -2.65625 7.515625 -3.0625 C 7.921875 -3.476562 8.125 -4 8.125 -4.625 C 8.125 -5.257812 7.914062 -5.78125 7.5 -6.1875 C 7.082031 -6.601562 6.578125 -6.8125 5.984375 -6.8125 C 5.367188 -6.8125 4.851562 -6.601562 4.4375 -6.1875 Z M 4.4375 -6.1875 "/></g></g><g style="fill:#ac1754;fill-opacity:1;"><g transform="translate(149.943124, 273.014228)"><path style="stroke:none" d="M 11.671875 -9.265625 L 7.265625 -4.84375 L 12.109375 0 L 7.984375 0 L 4.28125 -3.703125 L 4.28125 0 L 1.078125 0 L 1.078125 -15.53125 L 4.28125 -15.53125 L 4.28125 -6.03125 L 7.515625 -9.265625 Z M 11.671875 -9.265625 "/></g></g><g style="fill:#ac1754;fill-opacity:1;"><g transform="translate(160.709842, 273.014228)"><path style="stroke:none" d=""/></g></g><g style="fill:#ac1754;fill-opacity:1;"><g transform="translate(164.738329, 273.014228)"><path style="stroke:none" d="M 1.71875 -1.140625 C 0.851562 -2.085938 0.421875 -3.25 0.421875 -4.625 C 0.421875 -6 0.851562 -7.160156 1.71875 -8.109375 C 2.582031 -9.054688 3.679688 -9.53125 5.015625 -9.53125 C 6.242188 -9.53125 7.257812 -9.144531 8.0625 -8.375 L 8.0625 -15.53125 L 11.25 -15.53125 L 11.25 0 L 8.09375 0 L 8.09375 -1.046875 L 8.0625 -1.046875 C 7.257812 -0.171875 6.242188 0.265625 5.015625 0.265625 C 3.679688 0.265625 2.582031 -0.203125 1.71875 -1.140625 Z M 4.4375 -6.1875 C 4.019531 -5.78125 3.8125 -5.257812 3.8125 -4.625 C 3.8125 -3.988281 4.007812 -3.46875 4.40625 -3.0625 C 4.800781 -2.65625 5.328125 -2.453125 5.984375 -2.453125 C 6.609375 -2.453125 7.117188 -2.65625 7.515625 -3.0625 C 7.921875 -3.476562 8.125 -4 8.125 -4.625 C 8.125 -5.257812 7.914062 -5.78125 7.5 -6.1875 C 7.082031 -6.601562 6.578125 -6.8125 5.984375 -6.8125 C 5.367188 -6.8125 4.851562 -6.601562 4.4375 -6.1875 Z M 4.4375 -6.1875 "/></g></g><g style="fill:#ac1754;fill-opacity:1;"><g transform="translate(176.173453, 273.014228)"><path style="stroke:none" d="M 1.390625 -14.421875 C 1.765625 -14.796875 2.207031 -14.984375 2.71875 -14.984375 C 3.238281 -14.984375 3.6875 -14.796875 4.0625 -14.421875 C 4.4375 -14.054688 4.625 -13.613281 4.625 -13.09375 C 4.625 -12.570312 4.4375 -12.125 4.0625 -11.75 C 3.6875 -11.382812 3.238281 -11.203125 2.71875 -11.203125 C 2.207031 -11.203125 1.765625 -11.382812 1.390625 -11.75 C 1.015625 -12.125 0.828125 -12.570312 0.828125 -13.09375 C 0.828125 -13.613281 1.015625 -14.054688 1.390625 -14.421875 Z M 1.078125 -9.265625 L 1.078125 0 L 4.28125 0 L 4.28125 -9.265625 Z M 1.078125 -9.265625 "/></g></g><g style="fill:#ac1754;fill-opacity:1;"><g transform="translate(180.725824, 273.014228)"><path style="stroke:none" d="M 1.625 -9.265625 L 1.625 -12.71875 L 4.828125 -12.71875 L 4.828125 -9.265625 L 6.78125 -9.265625 L 6.78125 -6.828125 L 4.828125 -6.828125 L 4.828125 -3.890625 C 4.828125 -3.023438 5.066406 -2.59375 5.546875 -2.59375 C 5.660156 -2.59375 5.785156 -2.617188 5.921875 -2.671875 C 6.054688 -2.722656 6.160156 -2.769531 6.234375 -2.8125 L 6.34375 -2.890625 L 7.140625 -0.3125 C 6.453125 0.0703125 5.664062 0.265625 4.78125 0.265625 C 4.1875 0.265625 3.671875 0.160156 3.234375 -0.046875 C 2.796875 -0.253906 2.46875 -0.535156 2.25 -0.890625 C 2.03125 -1.242188 1.867188 -1.613281 1.765625 -2 C 1.671875 -2.394531 1.625 -2.816406 1.625 -3.265625 L 1.625 -6.828125 L 0.28125 -6.828125 L 0.28125 -9.265625 Z M 1.625 -9.265625 "/></g></g><g style="fill:#ac1754;fill-opacity:1;"><g transform="translate(186.958237, 273.014228)"><path style="stroke:none" d="M 10.453125 -4.1875 L 3.734375 -4.1875 C 3.734375 -3.539062 3.941406 -3.0625 4.359375 -2.75 C 4.785156 -2.4375 5.25 -2.28125 5.75 -2.28125 C 6.257812 -2.28125 6.664062 -2.347656 6.96875 -2.484375 C 7.269531 -2.617188 7.613281 -2.894531 8 -3.3125 L 10.3125 -2.15625 C 9.351562 -0.539062 7.753906 0.265625 5.515625 0.265625 C 4.109375 0.265625 2.90625 -0.207031 1.90625 -1.15625 C 0.914062 -2.113281 0.421875 -3.265625 0.421875 -4.609375 C 0.421875 -5.960938 0.914062 -7.117188 1.90625 -8.078125 C 2.90625 -9.046875 4.109375 -9.53125 5.515625 -9.53125 C 6.984375 -9.53125 8.175781 -9.101562 9.09375 -8.25 C 10.007812 -7.40625 10.46875 -6.195312 10.46875 -4.625 C 10.46875 -4.40625 10.460938 -4.257812 10.453125 -4.1875 Z M 3.828125 -5.953125 L 7.34375 -5.953125 C 7.28125 -6.441406 7.09375 -6.8125 6.78125 -7.0625 C 6.476562 -7.320312 6.082031 -7.453125 5.59375 -7.453125 C 5.0625 -7.453125 4.640625 -7.3125 4.328125 -7.03125 C 4.015625 -6.757812 3.847656 -6.398438 3.828125 -5.953125 Z M 3.828125 -5.953125 "/></g></g><g style="fill:#ac1754;fill-opacity:1;"><g transform="translate(196.948159, 273.014228)"><path style="stroke:none" d="M 1.078125 0 L 1.078125 -9.265625 L 4.28125 -9.265625 L 4.28125 -8.296875 L 4.3125 -8.296875 C 5.144531 -9.117188 6.03125 -9.53125 6.96875 -9.53125 C 7.644531 -9.53125 8.273438 -9.390625 8.859375 -9.109375 C 9.453125 -8.835938 9.898438 -8.414062 10.203125 -7.84375 C 11.140625 -8.96875 12.164062 -9.53125 13.28125 -9.53125 C 14.257812 -9.53125 15.101562 -9.253906 15.8125 -8.703125 C 16.53125 -8.148438 16.890625 -7.285156 16.890625 -6.109375 L 16.890625 0 L 13.6875 0 L 13.6875 -5.234375 C 13.6875 -5.734375 13.550781 -6.144531 13.28125 -6.46875 C 13.007812 -6.800781 12.601562 -6.96875 12.0625 -6.96875 C 11.59375 -6.96875 11.234375 -6.828125 10.984375 -6.546875 C 10.742188 -6.265625 10.609375 -5.925781 10.578125 -5.53125 L 10.578125 0 L 7.390625 0 L 7.390625 -5.234375 C 7.390625 -5.734375 7.253906 -6.144531 6.984375 -6.46875 C 6.710938 -6.800781 6.304688 -6.96875 5.765625 -6.96875 C 5.265625 -6.96875 4.890625 -6.8125 4.640625 -6.5 C 4.398438 -6.195312 4.28125 -5.835938 4.28125 -5.421875 L 4.28125 0 Z M 1.078125 0 "/></g></g><g style="fill:#ac1754;fill-opacity:1;"><g transform="translate(213.838897, 273.014228)"><path style="stroke:none" d="M 4.09375 -9.265625 L 4.09375 -4.859375 C 4.09375 -3.941406 4.234375 -3.289062 4.515625 -2.90625 C 4.796875 -2.519531 5.265625 -2.328125 5.921875 -2.328125 C 6.585938 -2.328125 7.054688 -2.519531 7.328125 -2.90625 C 7.609375 -3.289062 7.75 -3.941406 7.75 -4.859375 L 7.75 -9.265625 L 10.953125 -9.265625 L 10.953125 -4.078125 C 10.953125 -2.535156 10.550781 -1.425781 9.75 -0.75 C 8.945312 -0.0703125 7.671875 0.265625 5.921875 0.265625 C 4.179688 0.265625 2.910156 -0.0703125 2.109375 -0.75 C 1.304688 -1.425781 0.90625 -2.535156 0.90625 -4.078125 L 0.90625 -9.265625 Z M 4.09375 -9.265625 "/></g></g><g style="fill:#ac1754;fill-opacity:1;"><g transform="translate(224.786267, 273.014228)"><path style="stroke:none" d="M 11.671875 -9.265625 L 7.265625 -4.84375 L 12.109375 0 L 7.984375 0 L 4.28125 -3.703125 L 4.28125 0 L 1.078125 0 L 1.078125 -15.53125 L 4.28125 -15.53125 L 4.28125 -6.03125 L 7.515625 -9.265625 Z M 11.671875 -9.265625 "/></g></g><g style="fill:#ac1754;fill-opacity:1;"><g transform="translate(235.552984, 273.014228)"><path style="stroke:none" d="M 1.71875 -1.140625 C 0.851562 -2.085938 0.421875 -3.25 0.421875 -4.625 C 0.421875 -6 0.851562 -7.160156 1.71875 -8.109375 C 2.582031 -9.054688 3.679688 -9.53125 5.015625 -9.53125 C 6.242188 -9.53125 7.257812 -9.144531 8.0625 -8.375 L 8.0625 -9.265625 L 11.25 -9.265625 L 11.25 0 L 8.09375 0 L 8.09375 -1.046875 L 8.0625 -1.046875 C 7.257812 -0.171875 6.242188 0.265625 5.015625 0.265625 C 3.679688 0.265625 2.582031 -0.203125 1.71875 -1.140625 Z M 4.4375 -6.1875 C 4.019531 -5.78125 3.8125 -5.257812 3.8125 -4.625 C 3.8125 -3.988281 4.007812 -3.46875 4.40625 -3.0625 C 4.800781 -2.65625 5.328125 -2.453125 5.984375 -2.453125 C 6.609375 -2.453125 7.117188 -2.65625 7.515625 -3.0625 C 7.921875 -3.476562 8.125 -4 8.125 -4.625 C 8.125 -5.257812 7.914062 -5.78125 7.5 -6.1875 C 7.082031 -6.601562 6.578125 -6.8125 5.984375 -6.8125 C 5.367188 -6.8125 4.851562 -6.601562 4.4375 -6.1875 Z M 4.4375 -6.1875 "/></g></g><g style="fill:#ac1754;fill-opacity:1;"><g transform="translate(246.988104, 273.014228)"><path style="stroke:none" d="M 1.078125 0 L 1.078125 -9.265625 L 4.28125 -9.265625 L 4.28125 -8.296875 L 4.3125 -8.296875 C 5.144531 -9.117188 6.03125 -9.53125 6.96875 -9.53125 C 7.425781 -9.53125 7.878906 -9.46875 8.328125 -9.34375 C 8.785156 -9.226562 9.222656 -9.046875 9.640625 -8.796875 C 10.054688 -8.546875 10.390625 -8.1875 10.640625 -7.71875 C 10.898438 -7.257812 11.03125 -6.722656 11.03125 -6.109375 L 11.03125 0 L 7.84375 0 L 7.84375 -5.234375 C 7.84375 -5.710938 7.6875 -6.132812 7.375 -6.5 C 7.070312 -6.863281 6.671875 -7.046875 6.171875 -7.046875 C 5.691406 -7.046875 5.253906 -6.859375 4.859375 -6.484375 C 4.472656 -6.109375 4.28125 -5.691406 4.28125 -5.234375 L 4.28125 0 Z M 1.078125 0 "/></g></g><g style="fill:#ac1754;fill-opacity:1;"><g transform="translate(258.0258, 273.014228)"><path style="stroke:none" d="M 3.140625 -3.859375 C 3.722656 -3.859375 4.210938 -3.65625 4.609375 -3.25 C 5.015625 -2.851562 5.21875 -2.363281 5.21875 -1.78125 C 5.21875 -1.21875 5.015625 -0.734375 4.609375 -0.328125 C 4.210938 0.0664062 3.722656 0.265625 3.140625 0.265625 C 2.578125 0.265625 2.09375 0.0664062 1.6875 -0.328125 C 1.28125 -0.734375 1.078125 -1.21875 1.078125 -1.78125 C 1.078125 -2.363281 1.28125 -2.851562 1.6875 -3.25 C 2.09375 -3.65625 2.578125 -3.859375 3.140625 -3.859375 Z M 3.140625 -3.859375 "/></g></g></g></svg>