<svg xmlns="http://www.w3.org/2000/svg" xmlns:xlink="http://www.w3.org/1999/xlink" width="500" zoomAndPan="magnify" viewBox="0 0 375 374.999991" height="500" preserveAspectRatio="xMidYMid meet" version="1.0"><defs><clipPath id="28486d3b3e"><path d="M 203 8.378906 L 261 8.378906 L 261 60 L 203 60 Z M 203 8.378906 " clip-rule="nonzero"/></clipPath></defs><path fill="#ffffff" d="M 218.597656 12.613281 C 203.769531 15.824219 189.207031 20.445312 173.984375 22.746094 C 150.113281 26.351562 129.691406 15.265625 106.496094 17.949219 C 84.042969 20.539062 63.734375 36.769531 51.003906 54.867188 C 32.292969 81.46875 26.476562 113.332031 18.523438 144.1875 C 7.316406 187.691406 3.0625 232.699219 10.226562 277.359375 C 13.957031 300.605469 24.296875 321.234375 46.835938 335.402344 C 72.492188 351.527344 201.488281 366.605469 236.15625 364.378906 C 272.566406 362.039062 315.996094 349.527344 341.761719 319.945312 C 362.691406 295.917969 361.339844 273.042969 360.714844 243.867188 C 359.871094 204.441406 361.234375 165.003906 360.378906 125.578125 C 359.609375 89.792969 342.414062 51.914062 311.496094 30.171875 C 291.332031 15.992188 274.535156 10.105469 250 9.242188 C 239.207031 8.863281 228.839844 10.398438 218.597656 12.613281 " fill-opacity="1" fill-rule="nonzero"/><path fill="#ac1754" d="M 354.296875 269.941406 L 142.886719 240.542969 C 137.578125 239.863281 133.597656 235.347656 133.597656 229.996094 L 130.699219 82.535156 C 130.699219 82.535156 135.519531 79.0625 138.25 77.730469 C 139.640625 77.050781 141.242188 76.753906 142.90625 76.96875 L 353.6875 103.847656 C 358.996094 104.527344 362.972656 109.042969 362.972656 114.394531 L 362.972656 259.226562 C 362.972656 261.820312 361.789062 264.105469 359.957031 265.609375 C 358.269531 266.996094 354.296875 269.941406 354.296875 269.941406 " fill-opacity="1" fill-rule="nonzero"/><path fill="#ffffff" d="M 347.84375 271.902344 L 137.0625 245.019531 C 131.753906 244.34375 127.777344 239.828125 127.777344 234.476562 L 127.777344 89.640625 C 127.777344 84.664062 132.144531 80.816406 137.082031 81.445312 L 347.863281 108.328125 C 353.171875 109.003906 357.148438 113.523438 357.148438 118.875 L 357.148438 263.707031 C 357.148438 268.683594 352.78125 272.53125 347.84375 271.902344 " fill-opacity="1" fill-rule="nonzero"/><path fill="#000000" d="M 357.148438 158.996094 C 356.792969 158.996094 356.503906 158.710938 356.503906 158.355469 L 356.503906 118.875 C 356.503906 113.859375 352.753906 109.601562 347.78125 108.96875 L 311.304688 104.316406 C 310.949219 104.269531 310.703125 103.949219 310.75 103.59375 C 310.792969 103.242188 311.109375 102.992188 311.464844 103.039062 L 347.945312 107.691406 C 353.5625 108.40625 357.792969 113.214844 357.792969 118.875 L 357.792969 158.355469 C 357.792969 158.710938 357.503906 158.996094 357.148438 158.996094 " fill-opacity="1" fill-rule="nonzero"/><path fill="#000000" d="M 127.777344 122.320312 C 127.421875 122.320312 127.132812 122.03125 127.132812 121.675781 L 127.132812 89.640625 C 127.132812 87.082031 128.234375 84.648438 130.152344 82.957031 C 132.070312 81.265625 134.628906 80.484375 137.164062 80.808594 L 302.644531 101.914062 C 303 101.957031 303.25 102.277344 303.203125 102.632812 C 303.160156 102.984375 302.832031 103.230469 302.484375 103.1875 L 137.003906 82.085938 C 134.828125 81.808594 132.644531 82.476562 131.003906 83.921875 C 129.363281 85.371094 128.421875 87.453125 128.421875 89.640625 L 128.421875 121.675781 C 128.421875 122.03125 128.132812 122.320312 127.777344 122.320312 " fill-opacity="1" fill-rule="nonzero"/><path fill="#ffffff" d="M 343.363281 265.933594 L 142.097656 240.265625 C 138.238281 239.773438 135.347656 236.488281 135.347656 232.597656 L 135.347656 92.890625 C 135.347656 89.566406 138.265625 87 141.5625 87.417969 L 342.824219 113.085938 C 346.683594 113.578125 349.578125 116.859375 349.578125 120.753906 L 349.578125 260.460938 C 349.578125 263.78125 346.660156 266.351562 343.363281 265.933594 " fill-opacity="1" fill-rule="nonzero"/><path fill="#ac1754" d="M 224.875 357.199219 L 8.09375 329.242188 C 6.398438 329.023438 5.441406 327.605469 5.460938 326.183594 C 5.476562 325.203125 5.554688 318.304688 5.554688 318.304688 L 120.179688 252.773438 C 125.921875 249.496094 133.351562 248.226562 139.914062 249.070312 L 353.953125 276.679688 C 355.246094 276.847656 356.347656 277.683594 356.859375 278.878906 L 357.203125 279.683594 C 357.203125 279.683594 357.019531 285.4375 357.09375 286.78125 C 357.152344 287.832031 356.679688 288.917969 355.578125 289.546875 L 243.832031 353.4375 C 238.089844 356.71875 231.4375 358.039062 224.875 357.199219 " fill-opacity="1" fill-rule="nonzero"/><path fill="#ffffff" d="M 224.875 349.519531 L 8.867188 321.617188 C 6 321.25 5.246094 317.445312 7.757812 316.011719 L 118.902344 252.535156 C 124.644531 249.25 131.300781 247.933594 137.863281 248.773438 L 353.867188 276.675781 C 356.734375 277.042969 357.488281 280.847656 354.976562 282.28125 L 243.832031 345.761719 C 238.089844 349.039062 231.433594 350.359375 224.875 349.519531 " fill-opacity="1" fill-rule="nonzero"/><path fill="#000000" d="M 224.953125 348.882812 C 231.335938 349.699219 237.925781 348.390625 243.511719 345.199219 L 354.660156 281.71875 C 355.753906 281.097656 355.96875 280.011719 355.808594 279.203125 C 355.648438 278.394531 355.03125 277.472656 353.785156 277.3125 L 137.777344 249.410156 C 131.398438 248.59375 124.808594 249.902344 119.222656 253.089844 L 8.078125 316.570312 C 6.988281 317.195312 6.769531 318.28125 6.929688 319.089844 C 7.089844 319.898438 7.703125 320.816406 8.949219 320.976562 L 224.957031 348.882812 Z M 228.691406 350.40625 C 227.390625 350.40625 226.085938 350.324219 224.792969 350.160156 C 224.789062 350.160156 224.789062 350.160156 224.789062 350.160156 L 8.785156 322.253906 C 7.203125 322.050781 5.976562 320.90625 5.664062 319.339844 C 5.355469 317.769531 6.050781 316.246094 7.4375 315.453125 L 118.585938 251.972656 C 124.410156 248.644531 131.289062 247.28125 137.945312 248.132812 L 353.949219 276.035156 C 355.535156 276.238281 356.761719 277.382812 357.070312 278.953125 C 357.382812 280.519531 356.6875 282.046875 355.296875 282.839844 L 244.152344 346.316406 C 239.457031 349 234.085938 350.40625 228.691406 350.40625 " fill-opacity="1" fill-rule="nonzero"/><path fill="#ac1754" d="M 267.164062 314.28125 L 79.859375 289.910156 C 77.269531 289.578125 76.589844 286.144531 78.859375 284.847656 L 122.898438 259.949219 C 128.085938 256.984375 134.097656 255.796875 140.019531 256.554688 L 327.324219 280.925781 C 329.914062 281.257812 330.597656 284.695312 328.328125 285.988281 L 284.285156 310.886719 C 279.101562 313.851562 273.089844 315.042969 267.164062 314.28125 " fill-opacity="1" fill-rule="nonzero"/><path fill="#ffffff" d="M 174.410156 236.324219 L 327.949219 252.988281 C 328.722656 253.074219 329.414062 252.515625 329.5 251.746094 L 330.167969 245.574219 C 330.253906 244.800781 329.695312 244.109375 328.925781 244.027344 L 175.382812 227.359375 C 174.613281 227.277344 173.917969 227.835938 173.835938 228.605469 L 173.164062 234.777344 C 173.082031 235.546875 173.640625 236.242188 174.410156 236.324219 " fill-opacity="1" fill-rule="nonzero"/><path fill="#ffffff" d="M 191.917969 220.445312 L 326.835938 235.089844 C 328.371094 235.257812 329.746094 234.148438 329.914062 232.617188 L 330.285156 229.207031 C 330.449219 227.671875 329.34375 226.292969 327.808594 226.128906 L 192.886719 211.484375 C 191.355469 211.316406 189.976562 212.425781 189.8125 213.960938 L 189.441406 217.367188 C 189.277344 218.902344 190.382812 220.28125 191.917969 220.445312 " fill-opacity="1" fill-rule="nonzero"/><path fill="#ffffff" d="M 154.816406 199.738281 L 328.921875 218.632812 C 329.695312 218.71875 330.386719 218.160156 330.46875 217.390625 L 331.140625 211.21875 C 331.222656 210.445312 330.667969 209.757812 329.894531 209.671875 L 155.789062 190.773438 C 155.019531 190.691406 154.328125 191.246094 154.246094 192.019531 L 153.574219 198.191406 C 153.492188 198.960938 154.046875 199.652344 154.816406 199.738281 " fill-opacity="1" fill-rule="nonzero"/><path fill="#ffffff" d="M 179.03125 170.488281 L 330.046875 184.511719 C 331.582031 184.65625 332.9375 183.527344 333.085938 181.992188 L 333.402344 178.574219 C 333.542969 177.039062 332.414062 175.679688 330.878906 175.535156 L 179.863281 161.511719 C 178.328125 161.367188 176.96875 162.496094 176.824219 164.03125 L 176.507812 167.449219 C 176.363281 168.980469 177.496094 170.34375 179.03125 170.488281 " fill-opacity="1" fill-rule="nonzero"/><path fill="#ffffff" d="M 194.042969 154.234375 L 329.175781 166.785156 C 330.710938 166.925781 332.074219 165.796875 332.21875 164.261719 L 332.53125 160.847656 C 332.675781 159.3125 331.546875 157.949219 330.007812 157.808594 L 194.878906 145.257812 C 193.34375 145.113281 191.984375 146.242188 191.839844 147.78125 L 191.523438 151.191406 C 191.378906 152.730469 192.511719 154.089844 194.042969 154.234375 " fill-opacity="1" fill-rule="nonzero"/><path fill="#ffffff" d="M 156.726562 134.28125 L 328.339844 150.21875 C 329.875 150.363281 331.234375 149.230469 331.378906 147.699219 L 331.695312 144.28125 C 331.839844 142.746094 330.710938 141.386719 329.171875 141.242188 L 157.5625 125.304688 C 156.023438 125.160156 154.664062 126.289062 154.523438 127.824219 L 154.207031 131.242188 C 154.0625 132.777344 155.191406 134.136719 156.726562 134.28125 " fill-opacity="1" fill-rule="nonzero"/><path fill="#000000" d="M 81.621094 198.21875 C 81.800781 207.921875 83.425781 221.023438 90.03125 229.320312 C 93.839844 234.101562 98.804688 236.84375 104.78125 237.472656 C 131.617188 240.285156 146.34375 207.6875 146.957031 206.300781 C 148.066406 203.796875 146.933594 200.875 144.429688 199.769531 C 141.929688 198.664062 139.007812 199.792969 137.898438 202.289062 C 137.777344 202.5625 125.464844 229.679688 105.816406 227.617188 C 102.53125 227.273438 99.902344 225.808594 97.78125 223.148438 C 90.515625 214.027344 91.140625 193.832031 91.992188 186.820312 C 92.320312 184.105469 90.386719 181.632812 87.671875 181.304688 C 84.957031 180.972656 82.488281 182.90625 82.15625 185.625 C 82.097656 186.121094 81.492188 191.308594 81.621094 198.21875 " fill-opacity="1" fill-rule="nonzero"/><path fill="#000000" d="M 76.171875 168.210938 L 76.347656 177.722656 C 76.445312 182.917969 80.425781 187.15625 85.605469 187.578125 L 88.921875 187.847656 C 91.753906 188.078125 94.5625 187.09375 96.632812 185.148438 C 98.703125 183.203125 99.863281 180.460938 99.808594 177.617188 L 99.527344 162.449219 C 99.476562 159.710938 97.21875 157.539062 94.484375 157.589844 C 91.75 157.636719 89.574219 159.894531 89.621094 162.628906 L 89.902344 177.800781 C 89.90625 177.832031 89.90625 177.875 89.851562 177.925781 C 89.796875 177.976562 89.75 177.972656 89.722656 177.972656 L 86.410156 177.703125 C 86.320312 177.695312 86.253906 177.625 86.253906 177.539062 L 86.078125 168.03125 C 86.027344 165.292969 83.769531 163.117188 81.035156 163.167969 C 78.296875 163.21875 76.121094 165.476562 76.171875 168.210938 " fill-opacity="1" fill-rule="nonzero"/><path fill="#000000" d="M 294.566406 208.386719 C 294.382812 218.09375 292.570312 231.191406 285.09375 239.46875 C 280.785156 244.242188 275.164062 246.972656 268.382812 247.585938 C 237.941406 250.332031 221.152344 217.699219 220.453125 216.308594 C 219.1875 213.804688 220.46875 210.878906 223.304688 209.78125 C 226.136719 208.683594 229.457031 209.816406 230.71875 212.320312 C 230.859375 212.59375 244.894531 239.742188 267.1875 237.730469 C 270.910156 237.394531 273.890625 235.9375 276.289062 233.28125 C 284.507812 224.175781 283.75 203.976562 282.769531 196.964844 C 282.386719 194.246094 284.574219 191.785156 287.65625 191.460938 C 290.734375 191.136719 293.542969 193.074219 293.921875 195.792969 C 293.992188 196.292969 294.691406 201.480469 294.566406 208.386719 " fill-opacity="1" fill-rule="nonzero"/><path fill="#000000" d="M 302.542969 177.484375 L 302.367188 186.996094 C 302.265625 192.191406 297.765625 196.417969 291.886719 196.828125 L 288.128906 197.085938 C 284.917969 197.3125 281.722656 196.320312 279.371094 194.371094 C 277.015625 192.417969 275.695312 189.671875 275.746094 186.832031 L 276.027344 171.664062 C 276.078125 168.925781 278.636719 166.757812 281.742188 166.8125 C 284.84375 166.871094 287.320312 169.132812 287.265625 171.871094 L 286.988281 187.042969 C 286.988281 187.066406 286.988281 187.117188 287.046875 187.167969 C 287.109375 187.21875 287.160156 187.214844 287.195312 187.210938 L 290.953125 186.949219 C 291.050781 186.945312 291.125 186.875 291.125 186.789062 L 291.304688 177.277344 C 291.355469 174.539062 293.910156 172.371094 297.015625 172.429688 C 300.121094 172.484375 302.59375 174.75 302.542969 177.484375 " fill-opacity="1" fill-rule="nonzero"/><path fill="#ffffff" d="M 261.167969 138.203125 L 250.699219 138.203125 L 250.699219 108.910156 L 261.167969 108.910156 C 263.683594 108.910156 265.726562 110.953125 265.726562 113.472656 L 265.726562 133.644531 C 265.726562 136.164062 263.683594 138.203125 261.167969 138.203125 " fill-opacity="1" fill-rule="nonzero"/><path fill="#000000" d="M 251.339844 137.558594 L 254.441406 137.558594 C 260.3125 137.558594 265.082031 132.785156 265.082031 126.917969 L 265.082031 120.195312 C 265.082031 114.328125 260.3125 109.554688 254.441406 109.554688 L 251.339844 109.554688 Z M 254.441406 138.84375 L 250.699219 138.84375 C 250.34375 138.84375 250.054688 138.558594 250.054688 138.203125 L 250.054688 108.910156 C 250.054688 108.554688 250.34375 108.265625 250.699219 108.265625 L 254.441406 108.265625 C 261.019531 108.265625 266.371094 113.617188 266.371094 120.195312 L 266.371094 126.917969 C 266.371094 133.492188 261.019531 138.84375 254.441406 138.84375 " fill-opacity="1" fill-rule="nonzero"/><path fill="#ffffff" d="M 107.972656 138.199219 L 118.441406 138.199219 L 118.441406 108.910156 L 107.972656 108.910156 C 105.453125 108.910156 103.414062 110.953125 103.414062 113.46875 L 103.414062 133.644531 C 103.414062 136.160156 105.453125 138.199219 107.972656 138.199219 " fill-opacity="1" fill-rule="nonzero"/><path fill="#000000" d="M 114.699219 109.554688 C 108.832031 109.554688 104.054688 114.328125 104.054688 120.195312 L 104.054688 126.917969 C 104.054688 132.785156 108.832031 137.558594 114.699219 137.558594 L 117.796875 137.558594 L 117.796875 109.554688 Z M 118.441406 138.847656 L 114.699219 138.847656 C 108.121094 138.847656 102.769531 133.496094 102.769531 126.917969 L 102.769531 120.195312 C 102.769531 113.621094 108.121094 108.265625 114.699219 108.265625 L 118.441406 108.265625 C 118.796875 108.265625 119.085938 108.554688 119.085938 108.910156 L 119.085938 138.203125 C 119.085938 138.558594 118.796875 138.847656 118.441406 138.847656 " fill-opacity="1" fill-rule="nonzero"/><path fill="#ffffff" d="M 113.707031 122.34375 C 113.707031 90.871094 145.433594 58.3125 184.570312 58.3125 C 223.707031 58.3125 255.433594 90.871094 255.433594 122.34375 C 255.433594 153.824219 223.707031 172.292969 184.570312 172.292969 C 145.433594 172.292969 113.707031 153.824219 113.707031 122.34375 " fill-opacity="1" fill-rule="nonzero"/><path fill="#000000" d="M 184.570312 58.957031 C 144.378906 58.957031 114.351562 92.425781 114.351562 122.347656 C 114.351562 137.125 121.429688 149.660156 134.820312 158.589844 C 147.449219 167.011719 165.117188 171.648438 184.570312 171.648438 C 204.023438 171.648438 221.6875 167.011719 234.320312 158.589844 C 247.707031 149.660156 254.789062 137.125 254.789062 122.347656 C 254.789062 92.425781 224.757812 58.957031 184.570312 58.957031 Z M 184.570312 172.941406 C 164.867188 172.941406 146.945312 168.222656 134.105469 159.660156 C 120.339844 150.476562 113.0625 137.578125 113.0625 122.347656 C 113.0625 106.742188 120.703125 90.597656 134.019531 78.058594 C 147.984375 64.910156 165.9375 57.667969 184.570312 57.667969 C 203.203125 57.667969 221.15625 64.910156 235.117188 78.058594 C 248.4375 90.597656 256.078125 106.742188 256.078125 122.347656 C 256.078125 137.578125 248.800781 150.476562 235.035156 159.660156 C 222.195312 168.222656 204.273438 172.941406 184.570312 172.941406 " fill-opacity="1" fill-rule="nonzero"/><path fill="#ffffff" d="M 202.320312 181.75 L 166.820312 181.75 C 151.261719 181.75 138.648438 194.363281 138.648438 209.925781 C 138.648438 220.203125 139.652344 230.457031 141.640625 240.542969 L 146.746094 266.390625 C 150.3125 284.457031 166.15625 297.476562 184.570312 297.476562 C 202.984375 297.476562 218.828125 284.457031 222.394531 266.390625 L 227.496094 240.542969 C 229.488281 230.457031 230.492188 220.203125 230.492188 209.925781 C 230.492188 194.363281 217.878906 181.75 202.320312 181.75 " fill-opacity="1" fill-rule="nonzero"/><path fill="#000000" d="M 166.820312 182.394531 C 151.640625 182.394531 139.292969 194.746094 139.292969 209.925781 C 139.292969 220.136719 140.296875 230.398438 142.273438 240.417969 L 147.378906 266.265625 C 150.875 283.976562 166.515625 296.832031 184.570312 296.832031 C 202.621094 296.832031 218.265625 283.976562 221.761719 266.265625 L 226.867188 240.417969 C 228.84375 230.394531 229.847656 220.136719 229.847656 209.925781 C 229.847656 194.746094 217.5 182.394531 202.320312 182.394531 Z M 184.570312 298.121094 C 165.902344 298.121094 149.730469 284.828125 146.113281 266.515625 L 141.011719 240.667969 C 139.015625 230.5625 138.003906 220.21875 138.003906 209.925781 C 138.003906 194.035156 150.929688 181.105469 166.820312 181.105469 L 202.320312 181.105469 C 218.210938 181.105469 231.136719 194.035156 231.136719 209.925781 C 231.136719 220.21875 230.125 230.5625 228.128906 240.667969 L 223.027344 266.515625 C 219.410156 284.828125 203.238281 298.121094 184.570312 298.121094 " fill-opacity="1" fill-rule="nonzero"/><path fill="#ac1754" d="M 189.003906 244.171875 L 180.136719 244.171875 C 171.914062 244.171875 165.246094 237.507812 165.246094 229.285156 L 165.246094 181.75 L 203.894531 181.75 L 203.894531 229.285156 C 203.894531 237.507812 197.226562 244.171875 189.003906 244.171875 " fill-opacity="1" fill-rule="nonzero"/><path fill="#000000" d="M 203.894531 182.394531 L 165.246094 182.394531 C 164.890625 182.394531 164.601562 182.105469 164.601562 181.75 C 164.601562 181.394531 164.890625 181.105469 165.246094 181.105469 L 203.894531 181.105469 C 204.25 181.105469 204.535156 181.394531 204.535156 181.75 C 204.535156 182.105469 204.25 182.394531 203.894531 182.394531 " fill-opacity="1" fill-rule="nonzero"/><path fill="#000000" d="M 226.746094 111.535156 L 158.507812 111.535156 C 151.417969 111.535156 145.671875 117.726562 145.671875 125.367188 L 145.671875 134.390625 C 145.671875 140.214844 148.78125 146.390625 154.144531 147.398438 C 173.054688 150.953125 212.199219 150.953125 231.109375 147.398438 C 236.472656 146.390625 239.582031 140.214844 239.582031 134.390625 L 239.582031 125.367188 C 239.582031 117.726562 233.835938 111.535156 226.746094 111.535156 " fill-opacity="1" fill-rule="nonzero"/><path fill="#ac1754" d="M 176.59375 129.691406 C 176.59375 132.253906 174.667969 134.328125 172.292969 134.328125 C 169.917969 134.328125 167.992188 132.253906 167.992188 129.691406 C 167.992188 127.132812 169.917969 125.0625 172.292969 125.0625 C 174.667969 125.0625 176.59375 127.132812 176.59375 129.691406 " fill-opacity="1" fill-rule="nonzero"/><path fill="#ac1754" d="M 222.347656 129.691406 C 222.347656 132.253906 220.421875 134.328125 218.046875 134.328125 C 215.667969 134.328125 213.746094 132.253906 213.746094 129.691406 C 213.746094 127.132812 215.667969 125.0625 218.046875 125.0625 C 220.421875 125.0625 222.347656 127.132812 222.347656 129.691406 " fill-opacity="1" fill-rule="nonzero"/><g clip-path="url(#28486d3b3e)"><path fill="#ac1754" d="M 253.355469 49.722656 L 238.570312 48.75 C 236.75 48.632812 235.023438 49.585938 234.152344 51.1875 L 229.730469 59.347656 L 225.507812 50.316406 C 224.785156 48.773438 223.28125 47.746094 221.582031 47.632812 L 207.984375 46.738281 C 205.40625 46.570312 203.453125 44.34375 203.625 41.765625 L 205.523438 12.902344 C 205.695312 10.324219 207.921875 8.375 210.496094 8.542969 L 255.871094 11.53125 C 258.445312 11.699219 260.398438 13.929688 260.230469 16.503906 L 258.328125 45.367188 C 258.160156 47.945312 255.933594 49.894531 253.355469 49.722656 " fill-opacity="1" fill-rule="nonzero"/></g><path fill="#000000" d="M 249.703125 23.234375 C 249.691406 23.234375 249.675781 23.234375 249.664062 23.234375 L 217.019531 21.171875 C 216.660156 21.148438 216.394531 20.84375 216.417969 20.488281 C 216.4375 20.132812 216.734375 19.863281 217.101562 19.886719 L 249.742188 21.949219 C 250.097656 21.96875 250.367188 22.277344 250.347656 22.632812 C 250.324219 22.972656 250.042969 23.234375 249.703125 23.234375 " fill-opacity="1" fill-rule="nonzero"/><path fill="#000000" d="M 239.980469 30.296875 C 239.96875 30.296875 239.953125 30.296875 239.941406 30.296875 L 215.746094 28.765625 C 215.390625 28.746094 215.125 28.4375 215.144531 28.082031 C 215.164062 27.730469 215.464844 27.460938 215.828125 27.480469 L 240.023438 29.011719 C 240.375 29.03125 240.644531 29.339844 240.621094 29.691406 C 240.601562 30.035156 240.316406 30.296875 239.980469 30.296875 " fill-opacity="1" fill-rule="nonzero"/><path fill="#000000" d="M 248.824219 38.722656 C 248.808594 38.722656 248.792969 38.722656 248.78125 38.722656 L 216.136719 36.660156 C 215.78125 36.636719 215.511719 36.332031 215.535156 35.976562 C 215.558594 35.621094 215.859375 35.351562 216.21875 35.375 L 248.863281 37.4375 C 249.21875 37.460938 249.488281 37.765625 249.464844 38.121094 C 249.441406 38.460938 249.160156 38.722656 248.824219 38.722656 " fill-opacity="1" fill-rule="nonzero"/><path fill="#ac1754" d="M 36.683594 139.78125 C 22.148438 125.429688 21.933594 101.945312 36.203125 87.328125 C 50.472656 72.710938 73.824219 72.496094 88.359375 86.847656 C 102.890625 101.199219 103.105469 124.683594 88.835938 139.300781 C 74.566406 153.917969 51.21875 154.132812 36.683594 139.78125 " fill-opacity="1" fill-rule="nonzero"/><path fill="#ffffff" d="M 87.507812 111.332031 L 62.453125 136.992188 C 61.128906 138.351562 58.957031 138.371094 57.605469 137.039062 L 39.984375 119.636719 C 38.632812 118.304688 38.613281 116.121094 39.941406 114.761719 L 64.992188 89.097656 C 66.320312 87.742188 68.488281 87.71875 69.839844 89.054688 L 87.464844 106.453125 C 88.8125 107.789062 88.835938 109.972656 87.507812 111.332031 " fill-opacity="1" fill-rule="nonzero"/><path fill="#000000" d="M 67.4375 88.710938 C 67.429688 88.710938 67.421875 88.710938 67.414062 88.710938 C 66.671875 88.71875 65.972656 89.015625 65.453125 89.550781 L 40.398438 115.214844 C 39.324219 116.316406 39.339844 118.097656 40.4375 119.183594 L 58.058594 136.582031 C 58.589844 137.105469 59.28125 137.390625 60.03125 137.382812 C 60.777344 137.378906 61.472656 137.078125 61.992188 136.546875 L 87.046875 110.882812 C 88.125 109.777344 88.105469 107.996094 87.011719 106.914062 L 69.386719 89.515625 C 68.863281 88.996094 68.171875 88.710938 67.4375 88.710938 Z M 60.007812 138.671875 C 58.933594 138.671875 57.921875 138.257812 57.152344 137.5 L 39.53125 120.097656 C 37.929688 118.515625 37.90625 115.921875 39.480469 114.3125 L 64.53125 88.648438 C 65.292969 87.871094 66.3125 87.433594 67.402344 87.425781 C 68.480469 87.414062 69.515625 87.832031 70.292969 88.597656 L 87.914062 105.996094 C 89.515625 107.578125 89.539062 110.171875 87.96875 111.78125 L 62.914062 137.445312 C 62.152344 138.226562 61.132812 138.664062 60.042969 138.671875 C 60.03125 138.671875 60.019531 138.671875 60.007812 138.671875 " fill-opacity="1" fill-rule="nonzero"/><path fill="#000000" d="M 48.847656 118.0625 C 48.550781 118.0625 48.285156 117.855469 48.21875 117.554688 C 48.144531 117.207031 48.363281 116.863281 48.710938 116.789062 L 64.699219 113.289062 C 65.046875 113.210938 65.390625 113.433594 65.46875 113.78125 C 65.542969 114.128906 65.324219 114.472656 64.976562 114.546875 L 48.984375 118.046875 C 48.941406 118.054688 48.894531 118.0625 48.847656 118.0625 " fill-opacity="1" fill-rule="nonzero"/><path fill="#000000" d="M 64.90625 114.492188 C 64.863281 114.492188 64.820312 114.488281 64.78125 114.480469 C 64.429688 114.410156 64.203125 114.074219 64.273438 113.726562 L 67.457031 97.582031 C 67.527344 97.230469 67.871094 97.003906 68.214844 97.074219 C 68.5625 97.144531 68.789062 97.480469 68.722656 97.828125 L 65.535156 113.972656 C 65.476562 114.28125 65.207031 114.492188 64.90625 114.492188 " fill-opacity="1" fill-rule="nonzero"/><path fill="#ac1754" d="M 284.855469 154.691406 C 274.757812 144.71875 274.609375 128.40625 284.523438 118.253906 C 294.433594 108.097656 310.652344 107.949219 320.746094 117.917969 C 330.84375 127.886719 330.996094 144.199219 321.082031 154.351562 C 311.167969 164.507812 294.949219 164.65625 284.855469 154.691406 " fill-opacity="1" fill-rule="nonzero"/><path fill="#ffffff" d="M 297.953125 149.710938 C 297.953125 148.589844 298.359375 147.671875 299.167969 146.949219 C 299.980469 146.230469 300.992188 145.871094 302.203125 145.871094 C 303.417969 145.871094 304.429688 146.230469 305.238281 146.949219 C 306.046875 147.671875 306.453125 148.589844 306.453125 149.710938 C 306.453125 150.832031 306.046875 151.753906 305.238281 152.472656 C 304.429688 153.191406 303.417969 153.550781 302.203125 153.550781 C 300.992188 153.550781 299.980469 153.191406 299.167969 152.472656 C 298.359375 151.753906 297.953125 150.832031 297.953125 149.710938 Z M 298.886719 142.800781 C 298.886719 140.59375 299.136719 138.847656 299.636719 137.566406 C 300.136719 136.285156 300.945312 135.175781 302.066406 134.234375 C 303.1875 133.296875 304.042969 132.4375 304.625 131.65625 C 305.207031 130.875 305.5 130.019531 305.5 129.074219 C 305.5 126.789062 304.515625 125.648438 302.546875 125.648438 C 301.636719 125.648438 300.902344 125.980469 300.339844 126.644531 C 299.777344 127.3125 299.484375 128.214844 299.457031 129.351562 L 291.773438 129.351562 C 291.804688 126.320312 292.757812 123.960938 294.636719 122.273438 C 296.515625 120.582031 299.152344 119.738281 302.546875 119.738281 C 305.921875 119.738281 308.539062 120.515625 310.398438 122.078125 C 312.253906 123.636719 313.179688 125.855469 313.179688 128.738281 C 313.179688 129.996094 312.929688 131.136719 312.429688 132.167969 C 311.929688 133.199219 311.128906 134.25 310.019531 135.328125 L 307.40625 137.757812 C 306.664062 138.472656 306.148438 139.203125 305.863281 139.949219 C 305.578125 140.699219 305.417969 141.648438 305.386719 142.800781 L 298.886719 142.800781 " fill-opacity="1" fill-rule="nonzero"/><path fill="#000000" d="M 299.539062 142.15625 L 304.773438 142.15625 C 304.84375 141.210938 305.003906 140.390625 305.265625 139.71875 C 305.585938 138.886719 306.15625 138.066406 306.964844 137.292969 L 309.582031 134.851562 C 310.621094 133.84375 311.386719 132.84375 311.851562 131.886719 C 312.308594 130.945312 312.539062 129.890625 312.539062 128.734375 C 312.539062 126.03125 311.699219 124.015625 309.984375 122.570312 C 308.257812 121.117188 305.753906 120.378906 302.546875 120.378906 C 299.335938 120.378906 296.816406 121.175781 295.066406 122.746094 C 293.449219 124.203125 292.585938 126.15625 292.441406 128.703125 L 298.855469 128.703125 C 298.972656 127.707031 299.304688 126.875 299.847656 126.230469 C 300.535156 125.414062 301.441406 125 302.546875 125 C 303.890625 125 306.144531 125.527344 306.144531 129.078125 C 306.144531 130.152344 305.808594 131.152344 305.140625 132.042969 C 304.53125 132.859375 303.636719 133.761719 302.480469 134.730469 C 301.449219 135.59375 300.695312 136.625 300.238281 137.796875 C 299.820312 138.871094 299.585938 140.335938 299.539062 142.15625 Z M 305.386719 143.445312 L 298.890625 143.445312 C 298.53125 143.445312 298.246094 143.15625 298.246094 142.800781 C 298.246094 140.519531 298.511719 138.679688 299.039062 137.328125 C 299.574219 135.953125 300.457031 134.746094 301.652344 133.738281 C 302.734375 132.839844 303.558594 132.007812 304.109375 131.269531 C 304.613281 130.597656 304.859375 129.878906 304.859375 129.078125 C 304.859375 126.605469 303.621094 126.289062 302.546875 126.289062 C 301.832031 126.289062 301.269531 126.542969 300.835938 127.058594 C 300.371094 127.609375 300.125 128.382812 300.097656 129.367188 C 300.089844 129.714844 299.804688 129.992188 299.457031 129.992188 L 291.773438 129.992188 C 291.601562 129.992188 291.4375 129.921875 291.316406 129.800781 C 291.195312 129.679688 291.128906 129.515625 291.128906 129.34375 C 291.164062 126.140625 292.199219 123.597656 294.207031 121.789062 C 296.199219 120 299.007812 119.09375 302.546875 119.09375 C 306.066406 119.09375 308.847656 119.929688 310.8125 121.585938 C 312.8125 123.265625 313.828125 125.671875 313.828125 128.734375 C 313.828125 130.085938 313.554688 131.332031 313.011719 132.449219 C 312.480469 133.539062 311.625 134.664062 310.472656 135.785156 L 307.847656 138.226562 C 307.1875 138.863281 306.714844 139.523438 306.464844 140.179688 C 306.203125 140.859375 306.0625 141.746094 306.03125 142.816406 C 306.023438 143.167969 305.734375 143.445312 305.386719 143.445312 Z M 302.203125 146.511719 C 301.148438 146.511719 300.292969 146.8125 299.601562 147.429688 C 298.929688 148.027344 298.601562 148.773438 298.601562 149.710938 C 298.601562 150.644531 298.929688 151.390625 299.601562 151.992188 C 300.292969 152.605469 301.144531 152.90625 302.203125 152.90625 C 303.261719 152.90625 304.117188 152.605469 304.8125 151.992188 C 305.484375 151.390625 305.8125 150.644531 305.8125 149.710938 C 305.8125 148.773438 305.484375 148.027344 304.8125 147.429688 C 304.117188 146.8125 303.261719 146.511719 302.203125 146.511719 Z M 302.203125 154.195312 C 300.835938 154.195312 299.671875 153.777344 298.746094 152.953125 C 297.792969 152.109375 297.3125 151.015625 297.3125 149.710938 C 297.3125 148.402344 297.792969 147.3125 298.746094 146.46875 C 299.671875 145.644531 300.835938 145.226562 302.203125 145.226562 C 303.574219 145.226562 304.738281 145.644531 305.667969 146.46875 C 306.617188 147.3125 307.097656 148.402344 307.097656 149.710938 C 307.097656 151.015625 306.617188 152.109375 305.667969 152.953125 C 304.738281 153.777344 303.574219 154.195312 302.203125 154.195312 " fill-opacity="1" fill-rule="nonzero"/><path fill="#ac1754" d="M 98.738281 36.148438 C 97.925781 25.910156 105.5625 16.898438 115.800781 16.03125 C 126.035156 15.15625 134.992188 22.75 135.808594 32.988281 C 136.621094 43.230469 128.980469 52.238281 118.746094 53.109375 C 108.511719 53.980469 99.550781 46.386719 98.738281 36.148438 " fill-opacity="1" fill-rule="nonzero"/><path fill="#ffffff" d="M 122.195312 25.148438 L 124.699219 24.945312 C 124.988281 24.921875 125.242188 25.136719 125.261719 25.425781 L 126.628906 42.3125 C 126.652344 42.597656 126.4375 42.851562 126.148438 42.871094 L 123.644531 43.078125 C 123.355469 43.101562 123.105469 42.886719 123.082031 42.597656 L 121.71875 25.710938 C 121.695312 25.425781 121.910156 25.171875 122.195312 25.148438 " fill-opacity="1" fill-rule="nonzero"/><path fill="#ffffff" d="M 115.714844 30.917969 L 118.222656 30.71875 C 118.507812 30.691406 118.761719 30.90625 118.78125 31.195312 L 119.726562 42.871094 C 119.75 43.15625 119.535156 43.410156 119.25 43.433594 L 116.742188 43.636719 C 116.457031 43.660156 116.203125 43.445312 116.179688 43.15625 L 115.238281 31.480469 C 115.214844 31.195312 115.429688 30.941406 115.714844 30.917969 " fill-opacity="1" fill-rule="nonzero"/><path fill="#ffffff" d="M 109.351562 38.132812 L 111.859375 37.929688 C 112.144531 37.902344 112.398438 38.117188 112.421875 38.40625 L 112.828125 43.429688 C 112.851562 43.714844 112.636719 43.96875 112.347656 43.988281 L 109.84375 44.191406 C 109.554688 44.214844 109.304688 44.003906 109.28125 43.714844 L 108.875 38.691406 C 108.851562 38.402344 109.066406 38.152344 109.351562 38.132812 " fill-opacity="1" fill-rule="nonzero"/><path fill="#000000" d="M 26.617188 163.269531 C 26.261719 163.269531 25.972656 162.980469 25.972656 162.625 L 25.972656 159.292969 C 25.972656 158.9375 26.261719 158.652344 26.617188 158.652344 C 26.972656 158.652344 27.261719 158.9375 27.261719 159.292969 L 27.261719 162.625 C 27.261719 162.980469 26.972656 163.269531 26.617188 163.269531 " fill-opacity="1" fill-rule="nonzero"/><path fill="#000000" d="M 26.617188 171.027344 C 26.261719 171.027344 25.972656 170.742188 25.972656 170.382812 L 25.972656 167.054688 C 25.972656 166.699219 26.261719 166.410156 26.617188 166.410156 C 26.972656 166.410156 27.261719 166.699219 27.261719 167.054688 L 27.261719 170.382812 C 27.261719 170.742188 26.972656 171.027344 26.617188 171.027344 " fill-opacity="1" fill-rule="nonzero"/><path fill="#000000" d="M 24.402344 165.484375 L 21.074219 165.484375 C 20.71875 165.484375 20.429688 165.195312 20.429688 164.839844 C 20.429688 164.484375 20.71875 164.195312 21.074219 164.195312 L 24.402344 164.195312 C 24.757812 164.195312 25.046875 164.484375 25.046875 164.839844 C 25.046875 165.195312 24.757812 165.484375 24.402344 165.484375 " fill-opacity="1" fill-rule="nonzero"/><path fill="#000000" d="M 32.164062 165.484375 L 28.832031 165.484375 C 28.476562 165.484375 28.1875 165.195312 28.1875 164.839844 C 28.1875 164.484375 28.476562 164.195312 28.832031 164.195312 L 32.164062 164.195312 C 32.515625 164.195312 32.804688 164.484375 32.804688 164.839844 C 32.804688 165.195312 32.515625 165.484375 32.164062 165.484375 " fill-opacity="1" fill-rule="nonzero"/><path fill="#000000" d="M 62.289062 239.535156 C 61.933594 239.535156 61.648438 239.246094 61.648438 238.890625 L 61.648438 235.558594 C 61.648438 235.203125 61.933594 234.914062 62.289062 234.914062 C 62.644531 234.914062 62.933594 235.203125 62.933594 235.558594 L 62.933594 238.890625 C 62.933594 239.246094 62.644531 239.535156 62.289062 239.535156 " fill-opacity="1" fill-rule="nonzero"/><path fill="#000000" d="M 62.289062 247.292969 C 61.933594 247.292969 61.648438 247.003906 61.648438 246.648438 L 61.648438 243.316406 C 61.648438 242.960938 61.933594 242.675781 62.289062 242.675781 C 62.644531 242.675781 62.933594 242.960938 62.933594 243.316406 L 62.933594 246.648438 C 62.933594 247.003906 62.644531 247.292969 62.289062 247.292969 " fill-opacity="1" fill-rule="nonzero"/><path fill="#000000" d="M 60.078125 241.75 L 56.746094 241.75 C 56.390625 241.75 56.101562 241.460938 56.101562 241.105469 C 56.101562 240.75 56.390625 240.460938 56.746094 240.460938 L 60.078125 240.460938 C 60.433594 240.460938 60.71875 240.75 60.71875 241.105469 C 60.71875 241.460938 60.433594 241.75 60.078125 241.75 " fill-opacity="1" fill-rule="nonzero"/><path fill="#000000" d="M 67.835938 241.75 L 64.503906 241.75 C 64.148438 241.75 63.859375 241.460938 63.859375 241.105469 C 63.859375 240.75 64.148438 240.460938 64.503906 240.460938 L 67.835938 240.460938 C 68.191406 240.460938 68.480469 240.75 68.480469 241.105469 C 68.480469 241.460938 68.191406 241.75 67.835938 241.75 " fill-opacity="1" fill-rule="nonzero"/><path fill="#000000" d="M 287.21875 44.417969 C 286.863281 44.417969 286.578125 44.132812 286.578125 43.777344 L 286.578125 40.445312 C 286.578125 40.089844 286.863281 39.800781 287.21875 39.800781 C 287.574219 39.800781 287.863281 40.089844 287.863281 40.445312 L 287.863281 43.777344 C 287.863281 44.132812 287.574219 44.417969 287.21875 44.417969 " fill-opacity="1" fill-rule="nonzero"/><path fill="#000000" d="M 287.21875 52.179688 C 286.863281 52.179688 286.578125 51.886719 286.578125 51.535156 L 286.578125 48.203125 C 286.578125 47.847656 286.863281 47.558594 287.21875 47.558594 C 287.578125 47.558594 287.863281 47.847656 287.863281 48.203125 L 287.863281 51.535156 C 287.863281 51.886719 287.578125 52.179688 287.21875 52.179688 " fill-opacity="1" fill-rule="nonzero"/><path fill="#000000" d="M 285.003906 46.632812 L 281.675781 46.632812 C 281.320312 46.632812 281.03125 46.34375 281.03125 45.988281 C 281.03125 45.632812 281.320312 45.34375 281.675781 45.34375 L 285.003906 45.34375 C 285.359375 45.34375 285.648438 45.632812 285.648438 45.988281 C 285.648438 46.34375 285.359375 46.632812 285.003906 46.632812 " fill-opacity="1" fill-rule="nonzero"/><path fill="#000000" d="M 292.761719 46.632812 L 289.433594 46.632812 C 289.078125 46.632812 288.789062 46.34375 288.789062 45.988281 C 288.789062 45.632812 289.078125 45.34375 289.433594 45.34375 L 292.761719 45.34375 C 293.121094 45.34375 293.410156 45.632812 293.410156 45.988281 C 293.410156 46.34375 293.121094 46.632812 292.761719 46.632812 " fill-opacity="1" fill-rule="nonzero"/><path fill="#ffffff" d="M 32.496094 186.007812 C 32.496094 187.6875 31.132812 189.054688 29.449219 189.054688 C 27.765625 189.054688 26.402344 187.6875 26.402344 186.007812 C 26.402344 184.324219 27.765625 182.960938 29.449219 182.960938 C 31.132812 182.960938 32.496094 184.324219 32.496094 186.007812 " fill-opacity="1" fill-rule="nonzero"/><path fill="#ffffff" d="M 333.414062 84.90625 C 333.414062 86.585938 332.046875 87.953125 330.367188 87.953125 C 328.683594 87.953125 327.320312 86.585938 327.320312 84.90625 C 327.320312 83.222656 328.683594 81.859375 330.367188 81.859375 C 332.046875 81.859375 333.414062 83.222656 333.414062 84.90625 " fill-opacity="1" fill-rule="nonzero"/><path fill="#ffffff" d="M 85.046875 48.457031 C 85.046875 50.140625 83.683594 51.503906 82 51.503906 C 80.316406 51.503906 78.953125 50.140625 78.953125 48.457031 C 78.953125 46.773438 80.316406 45.410156 82 45.410156 C 83.683594 45.410156 85.046875 46.773438 85.046875 48.457031 " fill-opacity="1" fill-rule="nonzero"/><path fill="#ac1754" d="M 29.167969 211.796875 C 28.835938 211.796875 28.558594 211.546875 28.527344 211.214844 C 28.371094 209.503906 28.234375 207.769531 28.121094 206.0625 C 28.097656 205.707031 28.367188 205.398438 28.722656 205.375 C 29.089844 205.355469 29.382812 205.621094 29.40625 205.976562 C 29.519531 207.675781 29.652344 209.398438 29.808594 211.09375 C 29.839844 211.449219 29.582031 211.761719 29.226562 211.792969 C 29.207031 211.796875 29.1875 211.796875 29.167969 211.796875 Z M 30.386719 222.03125 C 30.074219 222.03125 29.796875 221.800781 29.75 221.480469 C 29.503906 219.789062 29.273438 218.066406 29.070312 216.355469 C 29.027344 216 29.28125 215.679688 29.632812 215.636719 C 29.984375 215.597656 30.304688 215.847656 30.347656 216.203125 C 30.550781 217.902344 30.777344 219.613281 31.027344 221.292969 C 31.078125 221.644531 30.832031 221.972656 30.480469 222.023438 C 30.449219 222.027344 30.417969 222.03125 30.386719 222.03125 Z M 309.199219 223.589844 C 308.847656 223.589844 308.5625 223.308594 308.558594 222.953125 C 308.53125 221.167969 308.429688 219.460938 308.257812 217.875 C 308.21875 217.519531 308.472656 217.203125 308.828125 217.164062 C 309.179688 217.125 309.5 217.378906 309.539062 217.734375 C 309.714844 219.363281 309.820312 221.113281 309.84375 222.9375 C 309.847656 223.292969 309.5625 223.585938 309.210938 223.589844 C 309.207031 223.589844 309.199219 223.589844 309.199219 223.589844 Z M 32.175781 232.1875 C 31.875 232.1875 31.609375 231.976562 31.546875 231.671875 C 31.203125 230.003906 30.875 228.292969 30.574219 226.585938 C 30.511719 226.238281 30.746094 225.90625 31.097656 225.84375 C 31.449219 225.78125 31.78125 226.015625 31.84375 226.367188 C 32.140625 228.058594 32.464844 229.757812 32.804688 231.410156 C 32.878906 231.761719 32.65625 232.101562 32.304688 232.171875 C 32.261719 232.183594 32.21875 232.1875 32.175781 232.1875 Z M 308.636719 233.878906 C 308.613281 233.878906 308.589844 233.875 308.5625 233.875 C 308.207031 233.832031 307.953125 233.515625 307.996094 233.160156 C 308.195312 231.410156 308.34375 229.695312 308.4375 228.058594 C 308.457031 227.707031 308.757812 227.433594 309.117188 227.453125 C 309.472656 227.472656 309.742188 227.777344 309.722656 228.132812 C 309.628906 229.792969 309.476562 231.53125 309.273438 233.304688 C 309.238281 233.632812 308.957031 233.878906 308.636719 233.878906 Z M 34.558594 242.222656 C 34.273438 242.222656 34.015625 242.035156 33.9375 241.746094 C 33.492188 240.097656 33.0625 238.410156 32.664062 236.726562 C 32.582031 236.378906 32.796875 236.035156 33.144531 235.949219 C 33.488281 235.871094 33.835938 236.082031 33.917969 236.429688 C 34.3125 238.097656 34.738281 239.777344 35.179688 241.410156 C 35.273438 241.753906 35.070312 242.109375 34.726562 242.199219 C 34.671875 242.214844 34.613281 242.222656 34.558594 242.222656 Z M 307.003906 244.054688 C 306.960938 244.054688 306.917969 244.050781 306.875 244.042969 C 306.523438 243.96875 306.300781 243.632812 306.371094 243.28125 C 306.71875 241.582031 307.027344 239.882812 307.292969 238.238281 C 307.347656 237.886719 307.683594 237.648438 308.03125 237.703125 C 308.382812 237.761719 308.621094 238.089844 308.566406 238.441406 C 308.296875 240.105469 307.984375 241.820312 307.632812 243.539062 C 307.570312 243.84375 307.304688 244.054688 307.003906 244.054688 Z M 37.570312 252.09375 C 37.304688 252.09375 37.054688 251.925781 36.960938 251.65625 C 36.410156 250.039062 35.871094 248.382812 35.367188 246.726562 C 35.265625 246.386719 35.457031 246.027344 35.796875 245.921875 C 36.136719 245.816406 36.496094 246.011719 36.601562 246.351562 C 37.101562 247.992188 37.632812 249.636719 38.179688 251.242188 C 38.296875 251.578125 38.113281 251.945312 37.777344 252.058594 C 37.710938 252.082031 37.640625 252.09375 37.570312 252.09375 Z M 304.582031 254.074219 C 304.527344 254.074219 304.46875 254.070312 304.410156 254.050781 C 304.066406 253.957031 303.867188 253.601562 303.960938 253.261719 C 304.421875 251.605469 304.859375 249.933594 305.257812 248.292969 C 305.339844 247.945312 305.683594 247.734375 306.035156 247.816406 C 306.378906 247.902344 306.59375 248.25 306.507812 248.59375 C 306.105469 250.25 305.667969 251.9375 305.203125 253.605469 C 305.125 253.890625 304.867188 254.074219 304.582031 254.074219 Z M 41.246094 261.738281 C 40.996094 261.738281 40.757812 261.589844 40.652344 261.34375 C 39.988281 259.765625 39.335938 258.148438 38.722656 256.53125 C 38.59375 256.199219 38.761719 255.828125 39.09375 255.699219 C 39.425781 255.574219 39.796875 255.742188 39.925781 256.074219 C 40.535156 257.675781 41.179688 259.277344 41.839844 260.839844 C 41.976562 261.167969 41.824219 261.546875 41.496094 261.6875 C 41.414062 261.71875 41.328125 261.738281 41.246094 261.738281 Z M 301.496094 263.914062 C 301.425781 263.914062 301.355469 263.90625 301.285156 263.878906 C 300.949219 263.765625 300.769531 263.394531 300.890625 263.0625 C 301.453125 261.449219 301.996094 259.808594 302.507812 258.1875 C 302.609375 257.847656 302.972656 257.65625 303.3125 257.765625 C 303.652344 257.871094 303.839844 258.234375 303.734375 258.574219 C 303.21875 260.207031 302.671875 261.863281 302.105469 263.484375 C 302.011719 263.75 301.761719 263.914062 301.496094 263.914062 Z M 45.621094 271.082031 C 45.390625 271.082031 45.164062 270.953125 45.050781 270.734375 C 44.265625 269.210938 43.492188 267.648438 42.761719 266.082031 C 42.609375 265.757812 42.75 265.375 43.070312 265.222656 C 43.390625 265.074219 43.777344 265.210938 43.925781 265.535156 C 44.652344 267.085938 45.414062 268.636719 46.195312 270.140625 C 46.355469 270.457031 46.234375 270.847656 45.917969 271.007812 C 45.824219 271.058594 45.722656 271.082031 45.621094 271.082031 Z M 297.777344 273.527344 C 297.691406 273.527344 297.609375 273.511719 297.523438 273.476562 C 297.199219 273.335938 297.046875 272.957031 297.1875 272.632812 C 297.84375 271.082031 298.496094 269.484375 299.117188 267.875 C 299.246094 267.546875 299.621094 267.382812 299.949219 267.507812 C 300.28125 267.636719 300.449219 268.011719 300.320312 268.339844 C 299.691406 269.960938 299.035156 271.574219 298.371094 273.140625 C 298.265625 273.382812 298.027344 273.527344 297.777344 273.527344 Z M 201.667969 279.070312 C 201.421875 279.070312 201.183594 278.929688 201.078125 278.691406 C 200.933594 278.367188 201.078125 277.984375 201.402344 277.839844 C 202.121094 277.519531 202.890625 277.273438 203.691406 277.117188 C 204.695312 276.917969 205.726562 276.867188 206.75 276.960938 C 207.105469 276.992188 207.367188 277.304688 207.332031 277.65625 C 207.300781 278.011719 206.980469 278.273438 206.632812 278.242188 C 205.730469 278.160156 204.824219 278.207031 203.941406 278.378906 C 203.234375 278.519531 202.558594 278.730469 201.929688 279.015625 C 201.84375 279.050781 201.753906 279.070312 201.667969 279.070312 Z M 50.730469 280.039062 C 50.515625 280.039062 50.308594 279.933594 50.183594 279.738281 C 49.277344 278.292969 48.382812 276.796875 47.523438 275.289062 C 47.347656 274.980469 47.453125 274.585938 47.765625 274.410156 C 48.070312 274.234375 48.464844 274.34375 48.640625 274.652344 C 49.492188 276.144531 50.378906 277.625 51.277344 279.054688 C 51.464844 279.355469 51.375 279.753906 51.074219 279.941406 C 50.96875 280.007812 50.847656 280.039062 50.730469 280.039062 Z M 293.375 282.851562 C 293.273438 282.851562 293.175781 282.828125 293.078125 282.777344 C 292.761719 282.613281 292.640625 282.222656 292.804688 281.910156 C 293.578125 280.433594 294.347656 278.886719 295.085938 277.3125 C 295.238281 276.996094 295.621094 276.855469 295.941406 277.007812 C 296.265625 277.160156 296.402344 277.542969 296.25 277.863281 C 295.503906 279.453125 294.726562 281.015625 293.945312 282.507812 C 293.832031 282.726562 293.609375 282.851562 293.375 282.851562 Z M 215.578125 283.015625 C 215.414062 283.015625 215.246094 282.949219 215.121094 282.820312 C 213.878906 281.550781 212.570312 280.515625 211.226562 279.753906 C 210.917969 279.578125 210.808594 279.183594 210.984375 278.875 C 211.160156 278.566406 211.554688 278.457031 211.863281 278.632812 C 213.3125 279.457031 214.71875 280.5625 216.042969 281.921875 C 216.289062 282.175781 216.285156 282.582031 216.03125 282.832031 C 215.90625 282.953125 215.742188 283.015625 215.578125 283.015625 Z M 195.617188 286.96875 C 195.566406 286.96875 195.511719 286.960938 195.460938 286.949219 C 195.113281 286.859375 194.90625 286.511719 194.996094 286.167969 C 195.464844 284.308594 196.214844 282.667969 197.21875 281.285156 C 197.429688 281 197.828125 280.933594 198.117188 281.144531 C 198.40625 281.355469 198.46875 281.757812 198.257812 282.042969 C 197.351562 283.289062 196.671875 284.785156 196.242188 286.480469 C 196.167969 286.773438 195.90625 286.96875 195.617188 286.96875 Z M 56.597656 288.515625 C 56.40625 288.515625 56.210938 288.425781 56.085938 288.261719 C 55.046875 286.898438 54.023438 285.492188 53.039062 284.066406 C 52.835938 283.773438 52.910156 283.375 53.203125 283.171875 C 53.496094 282.96875 53.894531 283.042969 54.097656 283.335938 C 55.070312 284.742188 56.085938 286.136719 57.109375 287.480469 C 57.324219 287.761719 57.273438 288.167969 56.988281 288.382812 C 56.871094 288.472656 56.734375 288.515625 56.597656 288.515625 Z M 221.074219 291.660156 C 220.820312 291.660156 220.574219 291.5 220.476562 291.242188 C 219.886719 289.710938 219.125 288.203125 218.214844 286.765625 C 218.019531 286.464844 218.113281 286.066406 218.410156 285.875 C 218.710938 285.6875 219.109375 285.773438 219.300781 286.074219 C 220.257812 287.585938 221.054688 289.171875 221.675781 290.785156 C 221.804688 291.113281 221.640625 291.488281 221.304688 291.617188 C 221.230469 291.644531 221.152344 291.660156 221.074219 291.660156 Z M 288.152344 291.738281 C 288.03125 291.738281 287.90625 291.703125 287.796875 291.628906 C 287.5 291.433594 287.421875 291.03125 287.617188 290.734375 C 288.523438 289.375 289.4375 287.914062 290.328125 286.394531 C 290.507812 286.089844 290.902344 285.984375 291.207031 286.164062 C 291.515625 286.34375 291.617188 286.738281 291.4375 287.046875 C 290.535156 288.585938 289.609375 290.070312 288.691406 291.453125 C 288.566406 291.636719 288.359375 291.738281 288.152344 291.738281 Z M 63.230469 296.390625 C 63.054688 296.390625 62.882812 296.320312 62.757812 296.183594 C 61.59375 294.933594 60.441406 293.628906 59.324219 292.304688 C 59.097656 292.03125 59.132812 291.625 59.402344 291.398438 C 59.675781 291.167969 60.082031 291.203125 60.3125 291.472656 C 61.410156 292.78125 62.550781 294.070312 63.699219 295.304688 C 63.941406 295.570312 63.925781 295.976562 63.667969 296.21875 C 63.542969 296.332031 63.386719 296.390625 63.230469 296.390625 Z M 196.039062 297.125 C 195.769531 297.125 195.519531 296.957031 195.429688 296.691406 C 194.871094 295.082031 194.53125 293.269531 194.457031 291.460938 C 194.445312 291.105469 194.722656 290.804688 195.074219 290.789062 C 195.453125 290.78125 195.730469 291.050781 195.746094 291.40625 C 195.816406 293.09375 196.125 294.777344 196.644531 296.269531 C 196.761719 296.605469 196.585938 296.972656 196.25 297.089844 C 196.179688 297.113281 196.105469 297.125 196.039062 297.125 Z M 281.777344 299.820312 C 281.617188 299.820312 281.457031 299.761719 281.332031 299.640625 C 281.074219 299.394531 281.070312 298.984375 281.3125 298.730469 C 282.414062 297.589844 283.53125 296.296875 284.636719 294.878906 C 284.855469 294.601562 285.257812 294.550781 285.539062 294.769531 C 285.820312 294.988281 285.871094 295.394531 285.652344 295.671875 C 284.519531 297.121094 283.371094 298.453125 282.238281 299.625 C 282.113281 299.753906 281.945312 299.820312 281.777344 299.820312 Z M 222.367188 301.789062 C 222.347656 301.789062 222.324219 301.785156 222.304688 301.785156 C 221.949219 301.75 221.691406 301.4375 221.722656 301.082031 C 221.792969 300.363281 221.824219 299.625 221.824219 298.890625 C 221.824219 297.96875 221.773438 297.019531 221.667969 296.074219 C 221.625 295.722656 221.878906 295.402344 222.234375 295.363281 C 222.585938 295.324219 222.910156 295.578125 222.949219 295.933594 C 223.058594 296.925781 223.113281 297.921875 223.113281 298.890625 C 223.113281 299.664062 223.078125 300.445312 223.007812 301.203125 C 222.976562 301.539062 222.695312 301.789062 222.367188 301.789062 Z M 70.605469 303.550781 C 70.457031 303.550781 70.304688 303.496094 70.183594 303.390625 C 68.894531 302.265625 67.613281 301.085938 66.378906 299.886719 C 66.121094 299.636719 66.117188 299.230469 66.363281 298.972656 C 66.613281 298.71875 67.019531 298.714844 67.277344 298.960938 C 68.496094 300.148438 69.757812 301.308594 71.03125 302.421875 C 71.296875 302.65625 71.324219 303.0625 71.089844 303.328125 C 70.964844 303.476562 70.785156 303.550781 70.605469 303.550781 Z M 201.847656 305.503906 C 201.691406 305.503906 201.535156 305.445312 201.414062 305.332031 C 200.054688 304.097656 198.871094 302.773438 197.898438 301.394531 C 197.691406 301.105469 197.761719 300.703125 198.050781 300.5 C 198.34375 300.292969 198.746094 300.359375 198.949219 300.652344 C 199.871094 301.953125 200.988281 303.207031 202.28125 304.382812 C 202.542969 304.621094 202.5625 305.027344 202.324219 305.289062 C 202.195312 305.429688 202.019531 305.503906 201.847656 305.503906 Z M 273.921875 306.464844 C 273.722656 306.464844 273.53125 306.375 273.402344 306.203125 C 273.191406 305.921875 273.25 305.515625 273.53125 305.304688 C 274.828125 304.339844 276.179688 303.277344 277.554688 302.140625 C 277.832031 301.914062 278.238281 301.953125 278.460938 302.226562 C 278.6875 302.5 278.652344 302.90625 278.378906 303.132812 C 276.988281 304.285156 275.613281 305.363281 274.300781 306.335938 C 274.1875 306.421875 274.050781 306.464844 273.921875 306.464844 Z M 78.703125 309.902344 C 78.574219 309.902344 78.449219 309.863281 78.335938 309.785156 C 76.925781 308.800781 75.527344 307.757812 74.171875 306.695312 C 73.894531 306.476562 73.84375 306.070312 74.0625 305.792969 C 74.285156 305.511719 74.6875 305.464844 74.96875 305.683594 C 76.304688 306.730469 77.683594 307.757812 79.074219 308.730469 C 79.367188 308.933594 79.4375 309.335938 79.230469 309.628906 C 79.105469 309.804688 78.90625 309.902344 78.703125 309.902344 Z M 210.429688 311.136719 C 210.335938 311.136719 210.242188 311.113281 210.152344 311.070312 C 208.515625 310.28125 206.980469 309.425781 205.589844 308.523438 C 205.289062 308.328125 205.203125 307.929688 205.394531 307.632812 C 205.589844 307.332031 205.988281 307.246094 206.289062 307.441406 C 207.636719 308.3125 209.128906 309.144531 210.710938 309.914062 C 211.03125 310.066406 211.164062 310.449219 211.007812 310.769531 C 210.898438 311 210.671875 311.136719 210.429688 311.136719 Z M 219.148438 311.472656 C 219.035156 311.472656 218.914062 311.445312 218.8125 311.378906 C 218.507812 311.195312 218.410156 310.796875 218.597656 310.496094 C 219.472656 309.058594 220.179688 307.535156 220.703125 305.96875 C 220.8125 305.632812 221.179688 305.445312 221.515625 305.5625 C 221.851562 305.671875 222.035156 306.035156 221.921875 306.375 C 221.375 308.035156 220.625 309.644531 219.695312 311.164062 C 219.574219 311.363281 219.363281 311.472656 219.148438 311.472656 Z M 265.257812 312.019531 C 265.027344 312.019531 264.804688 311.894531 264.691406 311.675781 C 264.519531 311.363281 264.640625 310.972656 264.957031 310.804688 C 266.394531 310.042969 267.871094 309.175781 269.34375 308.222656 C 269.640625 308.03125 270.042969 308.113281 270.234375 308.414062 C 270.425781 308.710938 270.339844 309.113281 270.042969 309.304688 C 268.539062 310.277344 267.027344 311.164062 265.558594 311.945312 C 265.464844 311.996094 265.363281 312.019531 265.257812 312.019531 Z M 220.082031 314.726562 C 220.023438 314.726562 219.964844 314.722656 219.90625 314.707031 C 218.199219 314.226562 216.53125 313.6875 214.953125 313.101562 C 214.621094 312.980469 214.453125 312.609375 214.574219 312.277344 C 214.695312 311.941406 215.066406 311.773438 215.398438 311.894531 C 216.945312 312.464844 218.578125 312.992188 220.253906 313.464844 C 220.59375 313.5625 220.796875 313.917969 220.699219 314.257812 C 220.621094 314.542969 220.363281 314.726562 220.082031 314.726562 Z M 87.4375 315.34375 C 87.332031 315.34375 87.226562 315.320312 87.128906 315.265625 C 85.621094 314.433594 84.117188 313.554688 82.65625 312.644531 C 82.355469 312.457031 82.261719 312.058594 82.449219 311.757812 C 82.640625 311.453125 83.039062 311.363281 83.339844 311.550781 C 84.777344 312.449219 86.261719 313.320312 87.75 314.136719 C 88.0625 314.308594 88.175781 314.699219 88.003906 315.011719 C 87.886719 315.222656 87.664062 315.34375 87.4375 315.34375 Z M 255.722656 315.863281 C 255.445312 315.863281 255.183594 315.675781 255.105469 315.394531 C 255.011719 315.050781 255.210938 314.695312 255.554688 314.597656 C 257.164062 314.148438 258.78125 313.597656 260.351562 312.960938 C 260.683594 312.828125 261.058594 312.984375 261.191406 313.316406 C 261.324219 313.644531 261.167969 314.019531 260.835938 314.15625 C 259.21875 314.808594 257.558594 315.375 255.898438 315.839844 C 255.84375 315.855469 255.78125 315.863281 255.722656 315.863281 Z M 230.167969 316.816406 C 230.140625 316.816406 230.113281 316.816406 230.082031 316.8125 C 228.386719 316.582031 226.664062 316.285156 224.957031 315.933594 C 224.609375 315.859375 224.386719 315.519531 224.457031 315.171875 C 224.53125 314.820312 224.875 314.597656 225.21875 314.671875 C 226.894531 315.015625 228.589844 315.308594 230.253906 315.535156 C 230.609375 315.582031 230.855469 315.90625 230.808594 316.261719 C 230.765625 316.582031 230.488281 316.816406 230.167969 316.816406 Z M 245.582031 317.53125 C 245.242188 317.53125 244.960938 317.269531 244.9375 316.929688 C 244.917969 316.574219 245.1875 316.269531 245.542969 316.246094 C 247.273438 316.136719 248.976562 315.949219 250.59375 315.6875 C 250.945312 315.628906 251.277344 315.867188 251.335938 316.21875 C 251.390625 316.570312 251.152344 316.902344 250.800781 316.957031 C 249.140625 317.226562 247.394531 317.421875 245.621094 317.53125 C 245.609375 317.53125 245.59375 317.53125 245.582031 317.53125 Z M 240.4375 317.636719 C 240.433594 317.636719 240.425781 317.636719 240.421875 317.636719 C 238.777344 317.605469 237.03125 317.515625 235.238281 317.367188 C 234.882812 317.339844 234.621094 317.027344 234.648438 316.675781 C 234.679688 316.320312 234.996094 316.054688 235.34375 316.085938 C 237.109375 316.230469 238.828125 316.320312 240.449219 316.347656 C 240.800781 316.355469 241.085938 316.648438 241.078125 317.003906 C 241.070312 317.355469 240.785156 317.636719 240.4375 317.636719 Z M 212.183594 318.976562 C 211.988281 318.976562 211.792969 318.890625 211.667969 318.722656 C 211.453125 318.4375 211.511719 318.03125 211.796875 317.820312 C 213.179688 316.789062 214.441406 315.664062 215.558594 314.472656 C 215.800781 314.214844 216.207031 314.203125 216.46875 314.445312 C 216.726562 314.6875 216.742188 315.097656 216.496094 315.355469 C 215.328125 316.601562 214.007812 317.777344 212.570312 318.851562 C 212.453125 318.9375 212.316406 318.976562 212.183594 318.976562 Z M 96.707031 319.816406 C 96.625 319.816406 96.539062 319.804688 96.457031 319.765625 C 94.867188 319.101562 93.277344 318.386719 91.734375 317.640625 C 91.414062 317.484375 91.277344 317.101562 91.433594 316.78125 C 91.585938 316.460938 91.972656 316.324219 92.292969 316.480469 C 93.816406 317.214844 95.386719 317.921875 96.957031 318.582031 C 97.285156 318.71875 97.4375 319.09375 97.300781 319.421875 C 97.199219 319.667969 96.957031 319.816406 96.707031 319.816406 Z M 106.394531 323.300781 C 106.332031 323.300781 106.269531 323.292969 106.207031 323.273438 C 104.554688 322.773438 102.898438 322.222656 101.285156 321.644531 C 100.953125 321.523438 100.777344 321.15625 100.898438 320.820312 C 101.019531 320.484375 101.386719 320.3125 101.722656 320.433594 C 103.3125 321.003906 104.949219 321.546875 106.582031 322.039062 C 106.921875 322.144531 107.113281 322.503906 107.011719 322.84375 C 106.925781 323.121094 106.667969 323.300781 106.394531 323.300781 Z M 203.128906 323.832031 C 202.867188 323.832031 202.621094 323.671875 202.523438 323.410156 C 202.402344 323.078125 202.574219 322.707031 202.90625 322.582031 C 204.511719 321.988281 206.066406 321.292969 207.527344 320.515625 C 207.839844 320.347656 208.230469 320.46875 208.398438 320.78125 C 208.566406 321.09375 208.445312 321.484375 208.132812 321.652344 C 206.621094 322.457031 205.011719 323.179688 203.355469 323.792969 C 203.277344 323.816406 203.203125 323.832031 203.128906 323.832031 Z M 116.359375 325.902344 C 116.3125 325.902344 116.265625 325.898438 116.21875 325.886719 C 114.53125 325.511719 112.839844 325.101562 111.1875 324.671875 C 110.84375 324.582031 110.636719 324.230469 110.726562 323.886719 C 110.816406 323.542969 111.167969 323.335938 111.515625 323.425781 C 113.148438 323.851562 114.828125 324.257812 116.5 324.628906 C 116.84375 324.707031 117.0625 325.050781 116.988281 325.398438 C 116.921875 325.699219 116.652344 325.902344 116.359375 325.902344 Z M 193.140625 326.292969 C 192.835938 326.292969 192.5625 326.074219 192.507812 325.765625 C 192.445312 325.414062 192.679688 325.078125 193.027344 325.015625 C 194.226562 324.800781 195.445312 324.574219 196.644531 324.335938 C 197.113281 324.246094 197.585938 324.148438 198.050781 324.035156 C 198.398438 323.957031 198.746094 324.171875 198.824219 324.519531 C 198.902344 324.863281 198.691406 325.210938 198.34375 325.292969 C 197.863281 325.402344 197.378906 325.507812 196.894531 325.601562 C 195.683594 325.839844 194.460938 326.066406 193.257812 326.285156 C 193.214844 326.292969 193.179688 326.292969 193.140625 326.292969 Z M 126.484375 327.800781 C 126.449219 327.800781 126.417969 327.800781 126.382812 327.792969 C 124.675781 327.53125 122.960938 327.238281 121.285156 326.925781 C 120.933594 326.859375 120.707031 326.523438 120.769531 326.171875 C 120.835938 325.824219 121.171875 325.59375 121.523438 325.65625 C 123.183594 325.96875 124.882812 326.261719 126.578125 326.519531 C 126.929688 326.574219 127.171875 326.902344 127.117188 327.253906 C 127.070312 327.574219 126.792969 327.800781 126.484375 327.800781 Z M 182.960938 327.890625 C 182.644531 327.890625 182.367188 327.652344 182.324219 327.328125 C 182.277344 326.976562 182.523438 326.652344 182.878906 326.605469 C 184.5625 326.378906 186.273438 326.132812 187.960938 325.867188 C 188.3125 325.8125 188.640625 326.054688 188.699219 326.40625 C 188.753906 326.757812 188.511719 327.085938 188.160156 327.140625 C 186.464844 327.40625 184.742188 327.65625 183.046875 327.882812 C 183.015625 327.886719 182.988281 327.890625 182.960938 327.890625 Z M 172.71875 329.019531 C 172.390625 329.019531 172.109375 328.769531 172.078125 328.433594 C 172.050781 328.082031 172.308594 327.769531 172.664062 327.738281 C 174.359375 327.589844 176.078125 327.417969 177.777344 327.230469 C 178.125 327.191406 178.449219 327.445312 178.488281 327.800781 C 178.53125 328.152344 178.273438 328.472656 177.917969 328.507812 C 176.214844 328.699219 174.484375 328.871094 172.777344 329.019531 C 172.761719 329.019531 172.738281 329.019531 172.71875 329.019531 Z M 136.707031 329.054688 C 136.6875 329.054688 136.667969 329.054688 136.648438 329.050781 C 134.925781 328.894531 133.195312 328.707031 131.507812 328.503906 C 131.152344 328.457031 130.902344 328.136719 130.945312 327.785156 C 130.988281 327.429688 131.304688 327.179688 131.664062 327.222656 C 133.339844 327.429688 135.054688 327.613281 136.765625 327.769531 C 137.121094 327.804688 137.382812 328.117188 137.347656 328.472656 C 137.316406 328.804688 137.035156 329.054688 136.707031 329.054688 Z M 162.441406 329.679688 C 162.09375 329.679688 161.808594 329.40625 161.796875 329.058594 C 161.78125 328.703125 162.058594 328.40625 162.414062 328.390625 C 164.109375 328.324219 165.835938 328.234375 167.542969 328.125 C 167.890625 328.097656 168.207031 328.371094 168.226562 328.726562 C 168.25 329.082031 167.980469 329.386719 167.625 329.410156 C 165.910156 329.519531 164.171875 329.609375 162.464844 329.679688 C 162.457031 329.679688 162.445312 329.679688 162.441406 329.679688 Z M 146.988281 329.714844 C 146.980469 329.714844 146.972656 329.714844 146.964844 329.714844 C 145.238281 329.652344 143.503906 329.5625 141.800781 329.453125 C 141.445312 329.433594 141.175781 329.125 141.199219 328.769531 C 141.222656 328.414062 141.527344 328.148438 141.882812 328.171875 C 143.570312 328.277344 145.296875 328.367188 147.011719 328.429688 C 147.367188 328.441406 147.644531 328.738281 147.632812 329.09375 C 147.621094 329.441406 147.332031 329.714844 146.988281 329.714844 Z M 154.183594 329.84375 C 153.5 329.84375 152.816406 329.839844 152.132812 329.835938 C 151.777344 329.832031 151.492188 329.539062 151.496094 329.183594 C 151.5 328.828125 151.785156 328.546875 152.136719 328.546875 C 152.140625 328.546875 152.144531 328.546875 152.144531 328.546875 C 153.855469 328.566406 155.570312 328.558594 157.277344 328.535156 C 157.285156 328.535156 157.289062 328.535156 157.289062 328.535156 C 157.640625 328.535156 157.925781 328.816406 157.933594 329.167969 C 157.9375 329.523438 157.652344 329.816406 157.296875 329.820312 C 156.261719 329.835938 155.222656 329.84375 154.183594 329.84375 " fill-opacity="1" fill-rule="nonzero"/><path fill="#000000" d="M 352.285156 58.378906 C 352.066406 58.378906 351.855469 58.269531 351.734375 58.070312 C 343.40625 44.476562 333.097656 33.460938 321.097656 25.335938 C 320.800781 25.132812 320.722656 24.734375 320.925781 24.4375 C 321.125 24.144531 321.527344 24.070312 321.820312 24.265625 C 333.976562 32.5 344.410156 43.644531 352.832031 57.398438 C 353.019531 57.703125 352.921875 58.101562 352.617188 58.285156 C 352.515625 58.347656 352.398438 58.378906 352.285156 58.378906 " fill-opacity="1" fill-rule="nonzero"/><path fill="#000000" d="M 360.378906 62.324219 C 360.132812 62.324219 359.894531 62.183594 359.789062 61.941406 C 349.246094 38.289062 332.039062 24.226562 319.464844 16.597656 C 319.160156 16.414062 319.066406 16.019531 319.25 15.710938 C 319.433594 15.40625 319.832031 15.3125 320.132812 15.496094 C 332.867188 23.222656 350.285156 37.460938 360.964844 61.417969 C 361.113281 61.742188 360.964844 62.121094 360.640625 62.265625 C 360.554688 62.304688 360.46875 62.324219 360.378906 62.324219 " fill-opacity="1" fill-rule="nonzero"/><path fill="#000000" d="M 29.09375 67.671875 C 29.007812 67.671875 28.917969 67.65625 28.835938 67.617188 C 28.507812 67.472656 28.359375 67.097656 28.503906 66.769531 C 36.867188 47.703125 51.121094 32.0625 70.867188 20.277344 C 71.171875 20.09375 71.570312 20.195312 71.75 20.503906 C 71.933594 20.808594 71.832031 21.199219 71.527344 21.382812 C 52.019531 33.027344 37.9375 48.472656 29.683594 67.289062 C 29.578125 67.53125 29.339844 67.671875 29.09375 67.671875 " fill-opacity="1" fill-rule="nonzero"/><path fill="#000000" d="M 21.605469 68.378906 C 21.535156 68.378906 21.464844 68.367188 21.394531 68.34375 C 21.058594 68.226562 20.878906 67.859375 20.996094 67.523438 C 21.09375 67.242188 31.050781 39.1875 59.816406 20.351562 C 60.113281 20.15625 60.511719 20.238281 60.707031 20.539062 C 60.902344 20.835938 60.820312 21.234375 60.519531 21.425781 C 32.140625 40.015625 22.308594 67.667969 22.214844 67.945312 C 22.121094 68.210938 21.871094 68.378906 21.605469 68.378906 " fill-opacity="1" fill-rule="nonzero"/></svg>