<svg xmlns="http://www.w3.org/2000/svg" xmlns:xlink="http://www.w3.org/1999/xlink" width="500" zoomAndPan="magnify" viewBox="0 0 375 374.999991" height="500" preserveAspectRatio="xMidYMid meet" version="1.2"><defs><clipPath id="9e42236946"><path d="M 28 265 L 133.226562 265 L 133.226562 368.121094 L 28 368.121094 Z M 28 265 "/></clipPath><clipPath id="a171d64e4a"><path d="M 7.136719 153.75 L 224.960938 153.75 L 224.960938 317.726562 L 7.136719 317.726562 Z M 7.136719 153.75 "/></clipPath><clipPath id="680d484919"><path d="M 7.136719 153.15625 L 225.746094 153.15625 L 225.746094 318.316406 L 7.136719 318.316406 Z M 7.136719 153.15625 "/></clipPath></defs><g id="2910745411"><path style=" stroke:none;fill-rule:nonzero;fill:#fbcfe8;fill-opacity:1;" d="M 357.828125 248 C 356.878906 250.632812 355.855469 253.253906 354.761719 255.875 C 352.90625 260.296875 350.890625 264.605469 348.714844 268.789062 C 311.679688 340.070312 229.242188 376.355469 155.242188 364.570312 C 88.867188 354 23.03125 303.71875 10.566406 242.132812 C 9.886719 238.800781 9.371094 235.433594 9.015625 232.039062 C 8.269531 224.871094 5.5625 186.273438 28.6875 152.875 C 47.804688 125.269531 66.167969 128.46875 95.933594 98.515625 C 133.480469 60.738281 122.730469 37.058594 148.421875 19.566406 C 187.960938 -7.355469 261.746094 15.800781 305.273438 52.832031 C 356.722656 96.585938 384.140625 175.230469 357.828125 248 "/><path style=" stroke:none;fill-rule:nonzero;fill:#ac1754;fill-opacity:1;" d="M 357.828125 248 C 356.878906 250.632812 355.855469 253.253906 354.761719 255.875 C 352.90625 260.296875 350.890625 264.605469 348.714844 268.789062 C 311.679688 340.070312 229.242188 376.355469 155.242188 364.570312 C 88.867188 354 23.03125 303.71875 10.566406 242.132812 L 357.828125 248 "/><path style=" stroke:none;fill-rule:nonzero;fill:#ac1754;fill-opacity:1;" d="M 265.15625 177.757812 L 216.988281 178.058594 C 216.679688 178.058594 216.574219 178.347656 216.574219 178.625 L 216.574219 219.605469 C 216.574219 223.527344 189.210938 233.722656 188.941406 233.203125 L 188.90625 237.542969 C 188.90625 238.347656 189.617188 239.066406 190.523438 239.066406 L 191.125 239.066406 C 191.128906 239.066406 191.132812 239.066406 191.136719 239.066406 L 231.519531 239.066406 C 233.394531 239.066406 235.246094 238.648438 236.941406 237.9375 L 259.144531 228.585938 C 263.140625 226.902344 265.664062 223.289062 265.664062 219.34375 L 265.664062 178.324219 C 265.664062 178.046875 265.46875 177.757812 265.15625 177.757812 "/><path style=" stroke:none;fill-rule:nonzero;fill:#ffffff;fill-opacity:1;" d="M 211.699219 175.671875 L 211.699219 216.65625 C 211.699219 220.699219 209.097656 224.378906 205.011719 226.125 L 190.035156 232.519531 C 189.054688 232.9375 189.386719 234.246094 190.472656 234.246094 L 231.628906 234.246094 C 233.476562 234.246094 235.304688 233.882812 236.976562 233.175781 L 253.574219 226.191406 C 257.691406 224.457031 260.316406 220.761719 260.316406 216.699219 L 260.316406 175.671875 C 260.316406 175.503906 260.164062 175.367188 259.976562 175.367188 L 212.039062 175.367188 C 211.847656 175.367188 211.699219 175.503906 211.699219 175.671875 "/><path style=" stroke:none;fill-rule:nonzero;fill:#000000;fill-opacity:1;" d="M 230.085938 234.898438 L 190.472656 234.898438 C 189.660156 234.898438 188.984375 234.378906 188.832031 233.628906 C 188.6875 232.910156 189.066406 232.222656 189.777344 231.921875 L 204.757812 225.527344 C 208.578125 223.894531 211.046875 220.414062 211.046875 216.660156 L 211.046875 201.804688 C 211.046875 201.445312 211.335938 201.152344 211.699219 201.152344 C 212.058594 201.152344 212.347656 201.445312 212.347656 201.804688 L 212.347656 216.660156 C 212.347656 220.9375 209.570312 224.890625 205.265625 226.722656 L 190.289062 233.117188 C 190.148438 233.179688 190.085938 233.261719 190.109375 233.367188 C 190.128906 233.476562 190.238281 233.597656 190.472656 233.597656 L 230.085938 233.597656 C 230.445312 233.597656 230.738281 233.886719 230.738281 234.246094 C 230.738281 234.609375 230.445312 234.898438 230.085938 234.898438 "/><path style=" stroke:none;fill-rule:nonzero;fill:#ac1754;fill-opacity:1;" d="M 121.976562 198.898438 L 320.023438 199.328125 L 323.460938 199.335938 L 329.855469 199.351562 C 331.671875 199.351562 333.164062 197.933594 333.394531 196.125 L 349.953125 66.714844 C 350.359375 63.570312 348.0625 60.59375 344.894531 60.59375 L 139.703125 60.78125 L 121.976562 198.898438 "/><path style=" stroke:none;fill-rule:nonzero;fill:#fbcfe8;fill-opacity:1;" d="M 337.199219 60.5625 C 340.769531 60.5625 343.671875 64.160156 343.214844 67.710938 L 326.539062 196.128906 C 326.308594 197.9375 324.773438 199.289062 322.957031 199.289062 L 321.394531 199.347656 L 119.230469 199.289062 C 117.050781 199.289062 115.367188 197.371094 115.648438 195.203125 L 132.660156 64.171875 C 132.894531 62.367188 134.28125 60.5625 136.097656 60.5625 L 337.199219 60.5625 "/><path style=" stroke:none;fill-rule:nonzero;fill:#000000;fill-opacity:1;" d="M 330.851562 164.453125 C 330.824219 164.453125 330.796875 164.453125 330.765625 164.449219 C 330.410156 164.402344 330.160156 164.074219 330.203125 163.71875 L 342.570312 67.628906 C 342.765625 66.121094 342.300781 64.597656 341.296875 63.457031 C 340.292969 62.316406 338.855469 61.667969 337.34375 61.667969 L 303.476562 61.667969 C 303.117188 61.667969 302.824219 61.375 302.824219 61.015625 C 302.824219 60.65625 303.117188 60.363281 303.476562 60.363281 L 337.34375 60.363281 C 339.230469 60.363281 341.027344 61.175781 342.273438 62.597656 C 343.523438 64.019531 344.105469 65.914062 343.863281 67.792969 L 331.496094 163.886719 C 331.453125 164.214844 331.171875 164.453125 330.851562 164.453125 "/><path style=" stroke:none;fill-rule:nonzero;fill:#000000;fill-opacity:1;" d="M 153.707031 199.878906 C 153.347656 199.878906 153.054688 199.589844 153.054688 199.230469 C 153.054688 198.871094 153.34375 198.578125 153.703125 198.574219 L 233.945312 198.179688 C 233.949219 198.179688 233.949219 198.179688 233.949219 198.179688 C 234.308594 198.179688 234.597656 198.472656 234.597656 198.828125 C 234.601562 199.1875 234.3125 199.480469 233.953125 199.484375 L 153.710938 199.878906 C 153.707031 199.878906 153.707031 199.878906 153.707031 199.878906 "/><path style=" stroke:none;fill-rule:nonzero;fill:#ac1754;fill-opacity:1;" d="M 290.179688 57.847656 C 290.382812 56.269531 289.15625 54.871094 287.566406 54.871094 L 146.496094 54.871094 C 145.6875 54.871094 145.007812 55.472656 144.902344 56.273438 L 133.53125 141.5 C 133.414062 142.367188 134.089844 143.140625 134.96875 143.140625 L 277.394531 143.140625 C 278.203125 143.140625 278.886719 142.542969 278.988281 141.738281 L 290.179688 57.847656 "/><path style=" stroke:none;fill-rule:nonzero;fill:#ac1754;fill-opacity:1;" d="M 287.566406 54.871094 C 289.15625 54.871094 290.382812 56.269531 290.179688 57.847656 L 289.113281 64.890625 L 143.542969 64.867188 L 144.902344 56.273438 C 145.007812 55.472656 145.6875 54.871094 146.496094 54.871094 L 287.566406 54.871094 "/><path style=" stroke:none;fill-rule:nonzero;fill:#ac1754;fill-opacity:1;" d="M 205.738281 60.328125 C 205.863281 59.324219 205.082031 58.4375 204.074219 58.4375 L 151.925781 58.4375 C 151.082031 58.4375 150.367188 59.066406 150.261719 59.902344 C 150.132812 60.90625 150.914062 61.789062 151.925781 61.789062 L 204.074219 61.789062 C 204.917969 61.789062 205.628906 61.164062 205.738281 60.328125 "/><path style=" stroke:none;fill-rule:nonzero;fill:#000000;fill-opacity:1;" d="M 282.671875 114.78125 C 282.644531 114.78125 282.617188 114.777344 282.585938 114.773438 C 282.230469 114.726562 281.976562 114.398438 282.027344 114.042969 L 289.535156 57.761719 C 289.605469 57.195312 289.429688 56.625 289.050781 56.195312 C 288.675781 55.765625 288.136719 55.523438 287.566406 55.523438 L 188.773438 55.523438 C 188.414062 55.523438 188.125 55.230469 188.125 54.871094 C 188.125 54.507812 188.414062 54.21875 188.773438 54.21875 L 287.566406 54.21875 C 288.507812 54.21875 289.40625 54.625 290.03125 55.332031 C 290.65625 56.046875 290.945312 56.992188 290.824219 57.929688 L 283.316406 114.214844 C 283.273438 114.539062 282.992188 114.78125 282.671875 114.78125 "/><path style=" stroke:none;fill-rule:nonzero;fill:#ffffff;fill-opacity:1;" d="M 173.59375 96.308594 L 163.828125 96.308594 L 162.71875 102.921875 L 174.183594 102.921875 L 173.5 107.007812 L 156.949219 107.007812 L 161.078125 82.316406 L 177.597656 82.316406 L 176.90625 86.4375 L 165.476562 86.4375 L 164.492188 92.324219 L 174.261719 92.324219 L 173.59375 96.308594 "/><path style=" stroke:none;fill-rule:nonzero;fill:#ffffff;fill-opacity:1;" d="M 183.773438 93.847656 L 187.878906 93.847656 C 189.15625 93.847656 190.199219 93.523438 191.007812 92.875 C 191.816406 92.222656 192.320312 91.328125 192.511719 90.1875 C 192.703125 89.023438 192.527344 88.105469 191.976562 87.4375 C 191.429688 86.773438 190.46875 86.4375 189.101562 86.4375 L 185.015625 86.4375 Z M 187.136719 97.96875 L 183.085938 97.96875 L 181.574219 107.007812 L 176.484375 107.007812 L 180.613281 82.316406 L 189.789062 82.316406 C 192.707031 82.316406 194.847656 82.96875 196.214844 84.265625 C 197.578125 85.566406 198.0625 87.40625 197.667969 89.777344 C 197.386719 91.460938 196.785156 92.867188 195.867188 93.992188 C 194.949219 95.117188 193.695312 96.015625 192.101562 96.679688 L 195.757812 106.769531 L 195.714844 107.007812 L 190.253906 107.007812 L 187.136719 97.96875 "/><path style=" stroke:none;fill-rule:nonzero;fill:#ffffff;fill-opacity:1;" d="M 205.941406 93.847656 L 210.042969 93.847656 C 211.320312 93.847656 212.363281 93.523438 213.171875 92.875 C 213.984375 92.222656 214.484375 91.328125 214.675781 90.1875 C 214.867188 89.023438 214.691406 88.105469 214.144531 87.4375 C 213.589844 86.773438 212.632812 86.4375 211.265625 86.4375 L 207.179688 86.4375 Z M 209.300781 97.96875 L 205.25 97.96875 L 203.738281 107.007812 L 198.652344 107.007812 L 202.78125 82.316406 L 211.957031 82.316406 C 214.871094 82.316406 217.011719 82.96875 218.375 84.265625 C 219.742188 85.566406 220.226562 87.40625 219.828125 89.777344 C 219.546875 91.460938 218.949219 92.867188 218.03125 93.992188 C 217.113281 95.117188 215.859375 96.015625 214.265625 96.679688 L 217.917969 106.769531 L 217.878906 107.007812 L 212.421875 107.007812 L 209.300781 97.96875 "/><path style=" stroke:none;fill-rule:nonzero;fill:#ffffff;fill-opacity:1;" d="M 238.097656 94.101562 C 238.53125 91.515625 238.398438 89.546875 237.699219 88.203125 C 236.996094 86.855469 235.785156 86.183594 234.066406 86.183594 C 232.359375 86.183594 230.929688 86.847656 229.78125 88.175781 C 228.632812 89.503906 227.835938 91.453125 227.394531 94.019531 L 227.195312 95.222656 C 226.773438 97.742188 226.910156 99.699219 227.605469 101.089844 C 228.296875 102.480469 229.515625 103.175781 231.257812 103.175781 C 232.964844 103.175781 234.386719 102.507812 235.527344 101.167969 C 236.667969 99.828125 237.457031 97.875 237.898438 95.308594 Z M 243.066406 95.222656 C 242.664062 97.652344 241.875 99.785156 240.710938 101.617188 C 239.542969 103.445312 238.078125 104.859375 236.3125 105.855469 C 234.546875 106.851562 232.628906 107.347656 230.558594 107.347656 C 228.511719 107.347656 226.769531 106.855469 225.328125 105.871094 C 223.886719 104.890625 222.878906 103.484375 222.304688 101.65625 C 221.726562 99.832031 221.628906 97.730469 222.015625 95.359375 L 222.222656 94.136719 C 222.628906 91.707031 223.425781 89.566406 224.609375 87.71875 C 225.792969 85.871094 227.269531 84.449219 229.035156 83.460938 C 230.800781 82.472656 232.710938 81.976562 234.769531 81.976562 C 236.828125 81.976562 238.574219 82.472656 240.007812 83.460938 C 241.441406 84.449219 242.441406 85.871094 243.007812 87.71875 C 243.574219 89.566406 243.65625 91.699219 243.253906 94.121094 L 243.066406 95.222656 "/><path style=" stroke:none;fill-rule:nonzero;fill:#ffffff;fill-opacity:1;" d="M 252.082031 93.847656 L 256.1875 93.847656 C 257.464844 93.847656 258.507812 93.523438 259.316406 92.875 C 260.125 92.222656 260.628906 91.328125 260.816406 90.1875 C 261.011719 89.023438 260.835938 88.105469 260.285156 87.4375 C 259.734375 86.773438 258.777344 86.4375 257.410156 86.4375 L 253.320312 86.4375 Z M 255.445312 97.96875 L 251.394531 97.96875 L 249.882812 107.007812 L 244.792969 107.007812 L 248.925781 82.316406 L 258.097656 82.316406 C 261.015625 82.316406 263.15625 82.96875 264.519531 84.265625 C 265.886719 85.566406 266.371094 87.40625 265.972656 89.777344 C 265.691406 91.460938 265.09375 92.867188 264.175781 93.992188 C 263.257812 95.117188 262.003906 96.015625 260.410156 96.679688 L 264.0625 106.769531 L 264.023438 107.007812 L 258.5625 107.007812 L 255.445312 97.96875 "/><path style=" stroke:none;fill-rule:nonzero;fill:#ffffff;fill-opacity:1;" d="M 312.394531 119.285156 C 312.53125 118.042969 311.707031 116.941406 310.640625 116.941406 L 215.929688 116.941406 C 215.386719 116.941406 214.929688 117.414062 214.859375 118.046875 L 207.222656 185.132812 C 207.144531 185.816406 207.597656 186.421875 208.191406 186.421875 L 303.808594 186.421875 C 304.355469 186.421875 304.8125 185.953125 304.882812 185.320312 L 312.394531 119.285156 "/><path style=" stroke:none;fill-rule:nonzero;fill:#000000;fill-opacity:1;" d="M 235.632812 187.074219 L 208.191406 187.074219 C 207.75 187.074219 207.335938 186.886719 207.03125 186.542969 C 206.679688 186.148438 206.511719 185.605469 206.574219 185.054688 L 214.214844 117.972656 C 214.316406 117.015625 215.054688 116.289062 215.929688 116.289062 L 310.640625 116.289062 C 311.28125 116.289062 311.886719 116.570312 312.34375 117.078125 C 312.878906 117.675781 313.132812 118.507812 313.039062 119.355469 L 308.171875 162.148438 C 308.132812 162.503906 307.808594 162.761719 307.453125 162.71875 C 307.09375 162.679688 306.839844 162.359375 306.878906 162 L 311.746094 119.210938 C 311.800781 118.738281 311.660156 118.265625 311.371094 117.945312 C 311.226562 117.785156 310.984375 117.59375 310.640625 117.59375 L 215.929688 117.59375 C 215.726562 117.59375 215.539062 117.824219 215.507812 118.117188 L 207.871094 185.203125 C 207.847656 185.382812 207.898438 185.558594 208.003906 185.675781 C 208.042969 185.71875 208.105469 185.773438 208.191406 185.773438 L 235.632812 185.773438 C 235.992188 185.773438 236.285156 186.066406 236.285156 186.421875 C 236.285156 186.785156 235.992188 187.074219 235.632812 187.074219 "/><path style=" stroke:none;fill-rule:nonzero;fill:#ac1754;fill-opacity:1;" d="M 232.355469 166.34375 L 257.199219 129.023438 C 258.363281 127.273438 260.972656 127.378906 261.988281 129.21875 L 282.585938 166.542969 C 283.617188 168.410156 282.265625 170.703125 280.132812 170.703125 L 234.691406 170.703125 C 232.453125 170.703125 231.117188 168.207031 232.355469 166.34375 "/><path style=" stroke:none;fill-rule:nonzero;fill:#ffffff;fill-opacity:1;" d="M 257.597656 158.382812 L 254.691406 158.320312 C 254.304688 158.261719 254.035156 157.898438 254.082031 157.507812 L 256.5 138.242188 C 256.550781 137.832031 256.929688 137.542969 257.335938 137.605469 L 261.625 137.695312 C 262.035156 137.757812 262.304688 138.152344 262.226562 138.5625 L 258.429688 157.796875 C 258.351562 158.183594 257.988281 158.445312 257.597656 158.382812 "/><path style=" stroke:none;fill-rule:nonzero;fill:#ffffff;fill-opacity:1;" d="M 253.453125 162.777344 C 254.109375 161.613281 255.5 161.207031 256.558594 161.867188 C 257.621094 162.53125 257.945312 164.011719 257.285156 165.175781 C 256.628906 166.339844 255.238281 166.746094 254.179688 166.085938 C 253.121094 165.421875 252.792969 163.941406 253.453125 162.777344 "/><path style=" stroke:none;fill-rule:nonzero;fill:#ffffff;fill-opacity:1;" d="M 85.03125 30.769531 C 85.199219 29.472656 86.300781 28.503906 87.605469 28.503906 L 152.40625 28.503906 C 154.972656 28.503906 156.953125 30.761719 156.625 33.316406 L 149.867188 83.15625 C 149.703125 84.453125 148.601562 85.425781 147.296875 85.425781 L 80.304688 85.425781 C 78.886719 85.425781 77.792969 84.175781 77.980469 82.769531 L 85.03125 30.769531 "/><path style=" stroke:none;fill-rule:nonzero;fill:#000000;fill-opacity:1;" d="M 84.078125 38.457031 C 84.050781 38.457031 84.019531 38.457031 83.992188 38.453125 C 83.632812 38.40625 83.386719 38.078125 83.433594 37.71875 L 84.386719 30.683594 C 84.59375 29.070312 85.980469 27.851562 87.605469 27.851562 L 143.542969 27.851562 C 143.902344 27.851562 144.191406 28.144531 144.191406 28.503906 C 144.191406 28.859375 143.902344 29.152344 143.542969 29.152344 L 87.605469 29.152344 C 86.632812 29.152344 85.804688 29.886719 85.679688 30.855469 L 84.722656 37.894531 C 84.679688 38.222656 84.398438 38.457031 84.078125 38.457031 "/><path style=" stroke:none;fill-rule:nonzero;fill:#000000;fill-opacity:1;" d="M 80.308594 86.078125 C 79.441406 86.078125 78.621094 85.703125 78.050781 85.054688 C 77.480469 84.402344 77.21875 83.539062 77.335938 82.683594 L 82.226562 46.621094 C 82.273438 46.265625 82.605469 46.011719 82.957031 46.0625 C 83.316406 46.113281 83.5625 46.441406 83.515625 46.796875 L 78.625 82.855469 C 78.5625 83.339844 78.707031 83.828125 79.03125 84.195312 C 79.351562 84.5625 79.816406 84.773438 80.304688 84.773438 L 88.945312 84.738281 C 89.304688 84.738281 89.597656 85.027344 89.597656 85.386719 C 89.601562 85.746094 89.308594 86.039062 88.949219 86.042969 L 80.308594 86.078125 "/><path style=" stroke:none;fill-rule:nonzero;fill:#000000;fill-opacity:1;" d="M 147.296875 86.078125 L 94.59375 86.042969 C 94.234375 86.039062 93.941406 85.746094 93.941406 85.390625 C 93.941406 85.03125 94.234375 84.738281 94.59375 84.738281 L 147.296875 84.773438 C 148.269531 84.773438 149.097656 84.042969 149.222656 83.074219 L 155.335938 37.988281 C 155.382812 37.632812 155.714844 37.378906 156.066406 37.429688 C 156.421875 37.480469 156.671875 37.804688 156.625 38.164062 L 150.515625 83.242188 C 150.308594 84.855469 148.921875 86.078125 147.296875 86.078125 "/><path style=" stroke:none;fill-rule:nonzero;fill:#fbcfe8;fill-opacity:1;" d="M 120.597656 43.589844 L 91.109375 43.589844 C 90.269531 43.589844 89.589844 42.910156 89.589844 42.070312 C 89.589844 41.230469 90.269531 40.550781 91.109375 40.550781 L 120.597656 40.550781 C 121.4375 40.550781 122.117188 41.230469 122.117188 42.070312 C 122.117188 42.910156 121.4375 43.589844 120.597656 43.589844 "/><path style=" stroke:none;fill-rule:nonzero;fill:#ac1754;fill-opacity:1;" d="M 106.914062 37.578125 L 92.113281 37.578125 C 91.273438 37.578125 90.59375 36.898438 90.59375 36.058594 C 90.59375 35.21875 91.273438 34.539062 92.113281 34.539062 L 106.914062 34.539062 C 107.75 34.539062 108.429688 35.21875 108.429688 36.058594 C 108.429688 36.898438 107.75 37.578125 106.914062 37.578125 "/><path style=" stroke:none;fill-rule:nonzero;fill:#fbcfe8;fill-opacity:1;" d="M 358.421875 181.769531 C 358.574219 180.601562 357.667969 179.570312 356.496094 179.570312 L 252.449219 179.570312 C 251.855469 179.570312 251.347656 180.015625 251.273438 180.605469 L 242.882812 243.464844 C 242.796875 244.105469 243.296875 244.679688 243.945312 244.679688 L 348.992188 244.679688 C 349.589844 244.679688 350.09375 244.234375 350.167969 243.644531 L 358.421875 181.769531 "/><path style=" stroke:none;fill-rule:nonzero;fill:#ac1754;fill-opacity:1;" d="M 356.496094 179.570312 C 357.667969 179.570312 358.574219 181.558594 358.421875 183.800781 L 356.835938 193.714844 L 249.398438 193.863281 L 251.273438 181.566406 C 251.347656 180.425781 251.855469 179.570312 252.449219 179.570312 L 356.496094 179.570312 "/><path style=" stroke:none;fill-rule:nonzero;fill:#ac1754;fill-opacity:1;" d="M 243.84375 236.46875 L 242.882812 243.757812 C 242.796875 244.398438 243.296875 244.789062 243.945312 244.789062 L 348.992188 244.789062 C 349.589844 244.789062 350.09375 244.523438 350.167969 243.933594 L 351.152344 236.46875 L 243.84375 236.46875 "/><path style=" stroke:none;fill-rule:nonzero;fill:#ffffff;fill-opacity:1;" d="M 347.015625 204.273438 L 280.296875 204.273438 C 279.453125 204.273438 278.773438 203.59375 278.773438 202.753906 C 278.773438 201.914062 279.453125 201.234375 280.296875 201.234375 L 347.015625 201.234375 C 347.855469 201.234375 348.535156 201.914062 348.535156 202.753906 C 348.535156 203.59375 347.855469 204.273438 347.015625 204.273438 "/><path style=" stroke:none;fill-rule:nonzero;fill:#ffffff;fill-opacity:1;" d="M 341.667969 212.597656 L 276.730469 212.597656 C 275.890625 212.597656 275.210938 211.917969 275.210938 211.078125 C 275.210938 210.242188 275.890625 209.558594 276.730469 209.558594 L 341.667969 209.558594 C 342.503906 209.558594 343.1875 210.242188 343.1875 211.078125 C 343.1875 211.917969 342.503906 212.597656 341.667969 212.597656 "/><path style=" stroke:none;fill-rule:nonzero;fill:#ffffff;fill-opacity:1;" d="M 339.882812 220.152344 L 325.113281 220.152344 C 324.273438 220.152344 323.59375 219.472656 323.59375 218.632812 C 323.59375 217.792969 324.273438 217.113281 325.113281 217.113281 L 339.882812 217.113281 C 340.722656 217.113281 341.402344 217.792969 341.402344 218.632812 C 341.402344 219.472656 340.722656 220.152344 339.882812 220.152344 "/><path style=" stroke:none;fill-rule:nonzero;fill:#ffffff;fill-opacity:1;" d="M 337.339844 228.089844 L 256.863281 228.089844 C 256.027344 228.089844 255.34375 227.410156 255.34375 226.570312 C 255.34375 225.734375 256.027344 225.050781 256.863281 225.050781 L 337.339844 225.050781 C 338.175781 225.050781 338.855469 225.734375 338.855469 226.570312 C 338.855469 227.410156 338.175781 228.089844 337.339844 228.089844 "/><path style=" stroke:none;fill-rule:nonzero;fill:#000000;fill-opacity:1;" d="M 339.894531 245.40625 L 243.945312 245.328125 C 243.449219 245.328125 242.976562 245.117188 242.652344 244.742188 C 242.324219 244.367188 242.175781 243.871094 242.238281 243.378906 L 250.628906 180.523438 C 250.746094 179.609375 251.527344 178.921875 252.449219 178.921875 L 356.496094 178.921875 C 357.242188 178.921875 357.949219 179.242188 358.441406 179.800781 C 358.933594 180.363281 359.164062 181.109375 359.070312 181.851562 L 352.230469 233.746094 C 352.183594 234.101562 351.855469 234.351562 351.496094 234.304688 C 351.140625 234.257812 350.890625 233.933594 350.9375 233.574219 L 357.777344 181.683594 C 357.824219 181.316406 357.710938 180.941406 357.464844 180.660156 C 357.214844 180.378906 356.871094 180.222656 356.496094 180.222656 L 252.449219 180.222656 C 252.183594 180.222656 251.953125 180.425781 251.921875 180.691406 L 243.53125 243.550781 C 243.507812 243.714844 243.582031 243.828125 243.632812 243.882812 C 243.675781 243.9375 243.78125 244.027344 243.945312 244.027344 L 339.894531 244.101562 C 340.253906 244.105469 340.546875 244.394531 340.546875 244.753906 C 340.546875 245.117188 340.253906 245.40625 339.894531 245.40625 "/><path style=" stroke:none;fill-rule:nonzero;fill:#ac1754;fill-opacity:1;" d="M 129.929688 63.652344 C 129.929688 56.253906 123.929688 50.253906 116.527344 50.253906 C 109.125 50.253906 103.125 56.253906 103.125 63.652344 C 103.125 71.054688 109.125 77.054688 116.527344 77.054688 C 123.929688 77.054688 129.929688 71.054688 129.929688 63.652344 "/><path style=" stroke:none;fill-rule:nonzero;fill:#ffffff;fill-opacity:1;" d="M 123.570312 68.769531 L 121.261719 71.082031 L 108.722656 58.539062 L 111.03125 56.226562 L 123.570312 68.769531 "/><path style=" stroke:none;fill-rule:nonzero;fill:#ffffff;fill-opacity:1;" d="M 108.722656 68.769531 L 111.03125 71.082031 L 123.570312 58.539062 L 121.261719 56.226562 L 108.722656 68.769531 "/><path style=" stroke:none;fill-rule:nonzero;fill:#000000;fill-opacity:1;" d="M 110.246094 321.019531 C 102.007812 321.019531 96.648438 312.046875 100.332031 304.417969 C 101.175781 302.667969 102.039062 300.90625 102.886719 299.195312 C 109.214844 286.417969 127.335938 289.207031 129.59375 303.378906 C 129.632812 303.625 130.136719 303.878906 130.171875 304.128906 C 131.339844 313.097656 124.441406 321.019531 115.703125 321.019531 L 110.246094 321.019531 "/><g clip-rule="nonzero" clip-path="url(#9e42236946)"><path style=" stroke:none;fill-rule:nonzero;fill:#000000;fill-opacity:1;" d="M 40.441406 275.472656 C 40.441406 275.472656 30.8125 355.558594 29.625 371.007812 C 28.4375 386.457031 26.652344 440.53125 29.625 467.269531 C 31.550781 484.59375 32.882812 496.179688 33.585938 502.191406 C 33.910156 504.980469 36.269531 507.082031 39.078125 507.082031 L 58.707031 507.082031 C 59.710938 507.082031 60.527344 506.277344 60.539062 505.273438 C 60.628906 498.0625 61.269531 470.585938 65.871094 447.066406 C 71.21875 419.734375 77.160156 376.949219 80.132812 359.714844 C 81.125 353.96875 81.957031 347.570312 82.664062 341.316406 C 82.664062 341.316406 82.664062 341.316406 84.886719 347.832031 C 87.109375 354.351562 95.582031 398.339844 97.960938 415.574219 C 100.121094 431.25 103.757812 494.121094 104.398438 505.359375 C 104.453125 506.328125 105.253906 507.082031 106.226562 507.082031 L 131.359375 507.082031 C 132.304688 507.082031 133.089844 506.371094 133.183594 505.433594 C 134.355469 493.78125 108.082031 399.675781 106.992188 368.121094 C 105.804688 333.65625 123.511719 316.339844 120.539062 305.050781 C 117.566406 293.757812 113.582031 265.128906 113.582031 265.128906 C 113.582031 265.128906 53.328125 266.035156 40.441406 275.472656 "/></g><path style=" stroke:none;fill-rule:nonzero;fill:#fbcfe8;fill-opacity:1;" d="M 82.6875 341.75 C 82.664062 341.75 82.640625 341.75 82.617188 341.746094 C 82.257812 341.703125 82 341.382812 82.042969 341.027344 C 82.441406 337.453125 82.835938 333.644531 83.203125 329.710938 C 83.925781 322 89.09375 315.277344 96.367188 312.582031 L 100.703125 310.976562 C 101.039062 310.847656 101.414062 311.023438 101.539062 311.359375 C 101.664062 311.695312 101.492188 312.074219 101.15625 312.195312 L 96.820312 313.804688 C 90.011719 316.324219 85.175781 322.617188 84.5 329.832031 C 84.132812 333.773438 83.738281 337.589844 83.335938 341.171875 C 83.296875 341.503906 83.015625 341.75 82.6875 341.75 "/><g clip-rule="nonzero" clip-path="url(#a171d64e4a)"><path style=" stroke:none;fill-rule:nonzero;fill:#ac1754;fill-opacity:1;" d="M 224.730469 166.851562 C 224.054688 163.34375 222.449219 158.34375 218.695312 156.207031 C 215.558594 154.421875 209.699219 151.386719 204.171875 157.382812 C 204.171875 157.382812 190.308594 179.058594 173.613281 179.585938 C 158.457031 180.066406 141.917969 160.757812 98.648438 160.210938 C 83.082031 158.449219 67.011719 159.710938 56.113281 162.707031 C 13.253906 174.488281 7.136719 189.035156 7.136719 220.539062 C 7.136719 248.007812 35.421875 263.140625 35.421875 263.140625 C 35.421875 263.140625 21.84375 308.460938 29.511719 312.851562 C 37.179688 317.238281 47.679688 319.71875 59.378906 315.273438 C 82.773438 306.382812 119.277344 296.316406 130.175781 304.125 C 130.175781 304.125 115.582031 242.375 124.769531 210.28125 C 137.808594 212.796875 166.417969 220.746094 180.695312 218.617188 C 198.691406 215.941406 218.132812 183.375 223.667969 173.460938 C 224.785156 171.464844 225.167969 169.113281 224.730469 166.851562 "/></g><g clip-rule="nonzero" clip-path="url(#680d484919)"><path style=" stroke:none;fill-rule:nonzero;fill:#000000;fill-opacity:1;" d="M 84.117188 160.0625 C 74.007812 160.0625 64.082031 161.191406 56.285156 163.335938 C 12.570312 175.351562 7.789062 190.71875 7.789062 220.539062 C 7.789062 234.496094 15.363281 245.164062 21.71875 251.65625 C 28.640625 258.726562 35.660156 262.527344 35.730469 262.566406 C 36.003906 262.710938 36.136719 263.027344 36.046875 263.324219 C 36.011719 263.4375 32.628906 274.769531 30.226562 286.488281 C 26.070312 306.75 28.199219 311.347656 29.832031 312.285156 C 36.308594 315.988281 46.652344 319.410156 59.144531 314.664062 C 79.464844 306.941406 116.21875 296.121094 129.203125 302.777344 C 127.0625 293.109375 115.808594 239.203125 124.144531 210.101562 C 124.238281 209.777344 124.5625 209.578125 124.894531 209.640625 C 127.761719 210.195312 131.304688 210.992188 135.40625 211.917969 C 149.824219 215.167969 169.574219 219.617188 180.601562 217.976562 C 198.28125 215.339844 217.597656 182.996094 223.097656 173.144531 C 224.148438 171.269531 224.5 169.078125 224.089844 166.972656 C 223.40625 163.414062 221.855469 158.753906 218.371094 156.773438 C 214.246094 154.425781 209.398438 152.714844 204.691406 157.785156 C 203.765625 159.21875 190.242188 179.710938 173.632812 180.238281 C 167.679688 180.433594 161.59375 177.671875 153.894531 174.1875 C 141.785156 168.707031 125.199219 161.195312 98.640625 160.859375 C 98.617188 160.859375 98.597656 160.859375 98.574219 160.855469 C 93.859375 160.324219 88.964844 160.0625 84.117188 160.0625 Z M 46.949219 318.242188 C 40.847656 318.242188 34.789062 316.621094 29.1875 313.414062 C 25.6875 311.414062 25.609375 302.515625 28.953125 286.21875 C 31.082031 275.847656 33.972656 265.777344 34.652344 263.453125 C 32.949219 262.46875 26.84375 258.746094 20.816406 252.597656 C 14.277344 245.925781 6.484375 234.949219 6.484375 220.539062 C 6.484375 205.25 7.9375 193.152344 15.035156 183.832031 C 22.03125 174.640625 34.648438 167.933594 55.941406 162.078125 C 67.621094 158.867188 84 157.902344 98.691406 159.558594 C 125.5 159.902344 142.222656 167.472656 154.429688 173 C 161.976562 176.414062 167.9375 179.101562 173.59375 178.933594 C 189.75 178.425781 203.488281 157.25 203.625 157.035156 C 203.644531 157.003906 203.667969 156.972656 203.695312 156.945312 C 209.75 150.367188 216.242188 154.0625 219.015625 155.640625 C 222.929688 157.867188 224.628906 162.898438 225.371094 166.726562 C 225.835938 169.132812 225.433594 171.636719 224.238281 173.78125 C 218.664062 183.761719 199.058594 216.542969 180.792969 219.261719 C 169.523438 220.945312 149.640625 216.460938 135.121094 213.191406 C 131.304688 212.328125 127.972656 211.578125 125.234375 211.035156 C 116.53125 242.761719 130.664062 303.363281 130.808594 303.972656 C 130.871094 304.238281 130.765625 304.511719 130.539062 304.664062 C 130.3125 304.816406 130.019531 304.8125 129.796875 304.652344 C 118.675781 296.6875 80.445312 307.960938 59.609375 315.882812 C 55.457031 317.457031 51.191406 318.242188 46.949219 318.242188 "/></g><path style=" stroke:none;fill-rule:nonzero;fill:#000000;fill-opacity:1;" d="M 213.171875 177.949219 C 213.140625 177.949219 213.109375 177.949219 213.074219 177.949219 C 209.320312 177.890625 205.707031 174.683594 202.335938 168.414062 C 202.167969 168.097656 202.285156 167.699219 202.601562 167.53125 C 202.917969 167.359375 203.316406 167.480469 203.484375 167.796875 C 206.613281 173.621094 209.84375 176.597656 213.09375 176.644531 C 217.324219 176.71875 220.261719 171.683594 220.292969 171.632812 C 220.472656 171.320312 220.871094 171.214844 221.183594 171.394531 C 221.492188 171.574219 221.601562 171.972656 221.421875 172.28125 C 221.289062 172.515625 218.105469 177.949219 213.171875 177.949219 "/><path style=" stroke:none;fill-rule:nonzero;fill:#000000;fill-opacity:1;" d="M 74.351562 249.695312 C 74.257812 249.695312 74.164062 249.675781 74.078125 249.632812 C 57.851562 242.128906 49.984375 231.085938 46.242188 223.140625 C 42.179688 214.519531 41.96875 207.769531 41.960938 207.484375 C 41.953125 207.125 42.238281 206.824219 42.597656 206.816406 C 42.957031 206.816406 43.257812 207.09375 43.265625 207.453125 C 43.265625 207.519531 43.484375 214.261719 47.449219 222.648438 C 51.101562 230.371094 58.78125 241.121094 74.625 248.453125 C 74.949219 248.601562 75.09375 248.988281 74.941406 249.316406 C 74.832031 249.554688 74.59375 249.695312 74.351562 249.695312 "/><path style=" stroke:none;fill-rule:nonzero;fill:#000000;fill-opacity:1;" d="M 67.320312 271.792969 C 67.320312 271.792969 67.316406 271.792969 67.3125 271.792969 C 47.511719 271.558594 34.859375 263.582031 34.734375 263.5 C 34.433594 263.304688 34.34375 262.902344 34.539062 262.601562 C 34.730469 262.296875 35.136719 262.210938 35.4375 262.402344 C 35.558594 262.480469 47.921875 270.257812 67.328125 270.488281 C 67.6875 270.492188 67.976562 270.789062 67.972656 271.148438 C 67.96875 271.503906 67.675781 271.792969 67.320312 271.792969 "/><path style=" stroke:none;fill-rule:nonzero;fill:#ffffff;fill-opacity:1;" d="M 85.371094 269.898438 C 85.371094 269.898438 81.378906 270.328125 73.472656 268.347656 C 67.5 266.851562 69.261719 247.457031 76.527344 252.710938 C 82.597656 257.097656 86.148438 257.667969 86.148438 257.667969 L 91.996094 254.753906 C 94.292969 253.609375 96.757812 252.855469 99.289062 252.558594 C 109.375 251.371094 108.769531 253.699219 108.769531 253.699219 C 109.203125 256.054688 108.359375 256.410156 106.507812 257.1875 L 98.617188 260.503906 C 97.523438 260.964844 97.273438 262.453125 98.15625 263.269531 C 99.527344 264.535156 101.105469 265.53125 102.820312 266.210938 C 105.933594 267.4375 111.351562 269.414062 116.9375 270.675781 C 119.566406 271.269531 120.398438 274.523438 117.976562 275.730469 L 100.5625 277.011719 C 96.148438 277.335938 91.796875 275.808594 88.488281 272.761719 L 85.371094 269.898438 "/><path style=" stroke:none;fill-rule:nonzero;fill:#000000;fill-opacity:1;" d="M 108.136719 253.535156 Z M 108.136719 253.539062 Z M 85.371094 269.246094 C 85.535156 269.246094 85.691406 269.308594 85.8125 269.421875 L 88.929688 272.285156 C 92.085938 275.1875 96.308594 276.675781 100.515625 276.363281 L 117.792969 275.089844 C 118.492188 274.699219 118.839844 274.058594 118.75 273.316406 C 118.652344 272.515625 118.011719 271.585938 116.792969 271.3125 C 111.332031 270.074219 106.050781 268.183594 102.582031 266.816406 C 100.789062 266.109375 99.152344 265.074219 97.714844 263.75 C 97.132812 263.210938 96.867188 262.417969 97.007812 261.628906 C 97.144531 260.847656 97.652344 260.203125 98.367188 259.902344 L 106.253906 256.589844 C 108.085938 255.820312 108.46875 255.660156 108.128906 253.820312 C 108.117188 253.757812 108.113281 253.699219 108.121094 253.640625 C 108.03125 253.5 107.011719 252.304688 99.367188 253.207031 C 96.929688 253.492188 94.546875 254.210938 92.289062 255.335938 L 86.4375 258.25 C 86.316406 258.3125 86.179688 258.332031 86.042969 258.3125 C 85.890625 258.285156 82.269531 257.664062 76.148438 253.238281 C 74.980469 252.394531 73.992188 252.238281 73.136719 252.761719 C 71.203125 253.945312 70.0625 258.640625 70.699219 262.8125 C 71.121094 265.566406 72.1875 267.355469 73.632812 267.714844 C 81.300781 269.636719 85.265625 269.253906 85.304688 269.25 C 85.328125 269.25 85.351562 269.246094 85.371094 269.246094 Z M 99.417969 277.707031 C 95.253906 277.707031 91.167969 276.113281 88.046875 273.242188 L 85.140625 270.570312 C 84.054688 270.628906 80.121094 270.683594 73.316406 268.980469 C 71.339844 268.484375 69.917969 266.308594 69.414062 263.007812 C 68.777344 258.828125 69.757812 253.300781 72.457031 251.652344 C 73.375 251.089844 74.894531 250.726562 76.910156 252.183594 C 81.96875 255.839844 85.253906 256.792969 86.058594 256.984375 L 91.707031 254.167969 C 94.101562 252.976562 96.628906 252.21875 99.214844 251.914062 C 104.710938 251.261719 108.027344 251.542969 109.070312 252.742188 C 109.351562 253.0625 109.441406 253.410156 109.425781 253.679688 C 109.90625 256.464844 108.582031 257.019531 106.757812 257.789062 L 98.871094 261.101562 C 98.5625 261.234375 98.351562 261.507812 98.289062 261.851562 C 98.226562 262.203125 98.34375 262.554688 98.597656 262.789062 C 99.917969 264.007812 101.417969 264.957031 103.0625 265.601562 C 105.863281 266.710938 111.414062 268.757812 117.082031 270.042969 C 118.671875 270.398438 119.863281 271.652344 120.042969 273.160156 C 120.203125 274.5 119.539062 275.679688 118.265625 276.3125 C 118.191406 276.347656 118.109375 276.371094 118.023438 276.378906 L 100.609375 277.664062 C 100.210938 277.691406 99.8125 277.707031 99.417969 277.707031 "/><path style=" stroke:none;fill-rule:nonzero;fill:#ffffff;fill-opacity:1;" d="M 252.476562 127.5625 C 252.09375 126.40625 250.949219 125.730469 249.804688 125.980469 C 246.605469 126.6875 230.140625 130.3125 227.070312 131.011719 C 224 131.707031 223.878906 135.128906 222.128906 138.257812 C 220.609375 140.980469 215.375 150.957031 209.667969 157.90625 C 207.953125 160.003906 207.710938 163.007812 209.046875 165.382812 C 209.816406 166.75 210.792969 168.089844 211.949219 168.878906 C 214.925781 170.914062 217.164062 173.339844 223.140625 159.039062 C 223.503906 158.164062 224.117188 157.417969 224.90625 156.898438 C 226.019531 156.164062 227.769531 154.835938 229.476562 152.808594 C 229.476562 152.808594 239.492188 165.03125 242.050781 140.210938 C 242.277344 138.003906 241.292969 135.855469 239.4375 134.769531 C 239.289062 134.683594 239.132812 134.597656 238.96875 134.511719 L 250.964844 130.664062 C 252.21875 130.261719 252.90625 128.855469 252.476562 127.5625 "/><path style=" stroke:none;fill-rule:nonzero;fill:#000000;fill-opacity:1;" d="M 250.28125 126.582031 C 250.171875 126.582031 250.058594 126.59375 249.945312 126.617188 C 249.753906 126.660156 230.613281 130.875 227.21875 131.644531 C 225.410156 132.058594 224.789062 133.644531 224.003906 135.660156 C 223.632812 136.609375 223.25 137.589844 222.699219 138.578125 C 222.53125 138.875 222.320312 139.257812 222.070312 139.710938 C 220.042969 143.414062 215.292969 152.082031 210.175781 158.320312 C 208.628906 160.203125 208.40625 162.910156 209.617188 165.066406 C 210.484375 166.609375 211.390625 167.714844 212.316406 168.34375 C 212.453125 168.433594 212.585938 168.527344 212.71875 168.621094 C 213.9375 169.46875 214.730469 169.976562 215.644531 169.707031 C 217.425781 169.191406 219.683594 165.617188 222.539062 158.789062 C 222.957031 157.785156 223.652344 156.945312 224.546875 156.351562 C 225.664062 155.617188 227.339844 154.332031 228.980469 152.386719 C 229.101562 152.242188 229.285156 152.15625 229.476562 152.15625 C 229.480469 152.15625 229.480469 152.15625 229.480469 152.15625 C 229.675781 152.15625 229.859375 152.246094 229.980469 152.394531 C 230.011719 152.429688 232.875 155.867188 235.625 155.039062 C 237.621094 154.433594 240.246094 151.363281 241.402344 140.144531 C 241.605469 138.152344 240.707031 136.265625 239.109375 135.332031 C 238.96875 135.25 238.820312 135.167969 238.667969 135.085938 C 238.433594 134.960938 238.296875 134.714844 238.320312 134.453125 C 238.34375 134.191406 238.519531 133.96875 238.769531 133.890625 L 250.765625 130.042969 C 251.191406 129.90625 251.542969 129.601562 251.753906 129.1875 C 251.976562 128.746094 252.015625 128.242188 251.859375 127.765625 C 251.621094 127.046875 250.976562 126.582031 250.28125 126.582031 Z M 215.15625 171.085938 C 213.976562 171.085938 212.960938 170.375 211.972656 169.691406 C 211.84375 169.597656 211.714844 169.507812 211.582031 169.417969 C 210.492188 168.671875 209.449219 167.421875 208.480469 165.703125 C 207.011719 163.085938 207.285156 159.789062 209.167969 157.496094 C 214.207031 151.351562 218.917969 142.757812 220.929688 139.085938 C 221.183594 138.625 221.394531 138.238281 221.5625 137.941406 C 222.066406 137.035156 222.4375 136.09375 222.789062 135.183594 C 223.640625 133.003906 224.449219 130.9375 226.929688 130.375 C 230.328125 129.605469 249.472656 125.390625 249.664062 125.347656 C 251.132812 125.023438 252.605469 125.886719 253.09375 127.355469 C 253.359375 128.152344 253.292969 129.035156 252.914062 129.78125 C 252.542969 130.507812 251.921875 131.039062 251.164062 131.285156 L 240.488281 134.707031 C 242.070312 135.992188 242.921875 138.09375 242.699219 140.277344 C 241.710938 149.859375 239.457031 155.25 235.996094 156.285156 C 233.199219 157.125 230.570312 154.886719 229.488281 153.785156 C 227.910156 155.542969 226.339844 156.730469 225.265625 157.441406 C 224.585938 157.886719 224.058594 158.527344 223.738281 159.289062 C 220.597656 166.808594 218.285156 170.296875 216.007812 170.960938 C 215.714844 171.046875 215.429688 171.085938 215.15625 171.085938 "/><path style=" stroke:none;fill-rule:nonzero;fill:#000000;fill-opacity:1;" d="M 227.1875 147.855469 C 226.960938 147.855469 226.742188 147.742188 226.621094 147.535156 C 226.441406 147.222656 226.546875 146.824219 226.855469 146.640625 C 227.625 146.195312 229.160156 145.101562 229.613281 144.777344 C 232.71875 142.554688 234.433594 140.363281 235.179688 139.253906 C 235.601562 138.628906 235.8125 137.941406 235.796875 137.257812 C 235.773438 136.304688 235.355469 136.15625 234.878906 135.988281 C 233.671875 135.570312 231.230469 136.816406 230.472656 137.285156 C 230.164062 137.472656 229.761719 137.378906 229.574219 137.074219 C 229.386719 136.765625 229.480469 136.363281 229.785156 136.175781 C 230.140625 135.957031 233.296875 134.058594 235.308594 134.761719 C 235.828125 134.941406 237.050781 135.367188 237.101562 137.222656 C 237.121094 138.179688 236.832031 139.132812 236.261719 139.984375 C 235.464844 141.164062 233.640625 143.492188 230.375 145.832031 C 229.777344 146.261719 228.308594 147.304688 227.511719 147.769531 C 227.410156 147.828125 227.296875 147.855469 227.1875 147.855469 "/><path style=" stroke:none;fill-rule:nonzero;fill:#000000;fill-opacity:1;" d="M 229.34375 153.601562 C 229.183594 153.601562 229.023438 153.542969 228.898438 153.425781 C 228.636719 153.179688 228.621094 152.765625 228.867188 152.503906 C 231.191406 150.035156 231.054688 147.421875 231.054688 147.394531 C 231.03125 147.039062 231.304688 146.730469 231.664062 146.703125 C 232.015625 146.675781 232.332031 146.953125 232.355469 147.316406 C 232.363281 147.441406 232.523438 150.519531 229.816406 153.394531 C 229.691406 153.535156 229.515625 153.601562 229.34375 153.601562 "/><path style=" stroke:none;fill-rule:nonzero;fill:#ffffff;fill-opacity:1;" d="M 71.683594 161.96875 L 72.765625 132.609375 L 93.363281 143.425781 L 93.136719 161.980469 C 92.988281 166.117188 89.589844 168.425781 89.589844 168.425781 C 85.382812 171.625 79.484375 171.046875 75.195312 167.964844 L 74.199219 167.25 C 72.539062 166.054688 71.585938 164.0625 71.683594 161.96875 "/><path style=" stroke:none;fill-rule:nonzero;fill:#000000;fill-opacity:1;" d="M 71.683594 161.96875 L 71.6875 161.96875 Z M 73.378906 133.667969 L 72.332031 161.996094 C 72.332031 161.996094 72.332031 161.996094 72.332031 162 C 72.246094 163.882812 73.085938 165.648438 74.578125 166.71875 L 75.574219 167.4375 C 79.886719 170.53125 85.488281 170.730469 89.195312 167.90625 C 89.253906 167.867188 92.351562 165.699219 92.488281 161.960938 L 92.707031 143.816406 Z M 83.019531 171.238281 C 80.242188 171.238281 77.355469 170.320312 74.8125 168.492188 L 73.820312 167.777344 C 71.96875 166.449219 70.925781 164.265625 71.03125 161.941406 L 72.117188 132.585938 C 72.125 132.363281 72.246094 132.15625 72.441406 132.046875 C 72.632812 131.933594 72.871094 131.929688 73.070312 132.035156 L 93.667969 142.847656 C 93.882812 142.964844 94.019531 143.1875 94.015625 143.433594 L 93.789062 161.992188 C 93.628906 166.421875 90.105469 168.863281 89.957031 168.964844 C 87.960938 170.484375 85.535156 171.238281 83.019531 171.238281 "/><path style=" stroke:none;fill-rule:nonzero;fill:#000000;fill-opacity:1;" d="M 102.710938 98.984375 C 97.214844 98.65625 104.125 104.476562 83.792969 98.367188 C 75.695312 95.933594 79.792969 105.65625 77.691406 105.03125 C 69.925781 102.722656 70.195312 102.792969 66.40625 103.816406 C 63.894531 104.492188 62.261719 109.253906 62.734375 112.808594 C 63.355469 117.5 67.121094 118.710938 70.453125 128.628906 C 72.792969 135.59375 72.21875 139.824219 74.933594 140.839844 C 77.675781 141.867188 79.703125 138.082031 82.78125 138.96875 C 86.765625 140.121094 85.976562 147.21875 89.855469 150.160156 C 92.300781 152.015625 97.988281 152.878906 107.109375 148.316406 C 108.585938 147.574219 109.34375 145.847656 108.910156 144.210938 C 108.347656 142.113281 107.628906 139.46875 106.734375 137 C 102.472656 125.238281 98.402344 122.578125 99.878906 119.53125 C 102.136719 114.863281 110.722656 117.542969 112.144531 113.707031 C 113.621094 109.722656 110.238281 99.433594 102.710938 98.984375 "/><path style=" stroke:none;fill-rule:nonzero;fill:#ffffff;fill-opacity:1;" d="M 83.523438 119.234375 L 85.097656 122.257812 C 85.835938 123.679688 86.480469 125.152344 87.027344 126.667969 C 88.046875 129.511719 89.980469 134.316406 91.039062 137.03125 C 94.441406 145.765625 104.878906 136.171875 104.878906 136.171875 L 105.605469 133.769531 L 107.007812 133.179688 C 107.28125 133.066406 107.53125 132.894531 107.710938 132.65625 C 108.160156 132.058594 108.164062 131.269531 107.78125 130.683594 C 105.683594 127.496094 101.308594 120.34375 99.738281 113.917969 C 99.738281 113.917969 90.78125 111.539062 83.523438 119.234375 "/><path style=" stroke:none;fill-rule:nonzero;fill:#000000;fill-opacity:1;" d="M 84.316406 119.351562 L 85.675781 121.957031 C 86.425781 123.402344 87.085938 124.910156 87.636719 126.445312 C 88.375 128.5 89.613281 131.636719 90.609375 134.160156 C 90.996094 135.140625 91.355469 136.046875 91.648438 136.796875 C 92.34375 138.589844 93.359375 139.617188 94.753906 139.941406 C 98.402344 140.789062 103.441406 136.566406 104.308594 135.808594 L 104.980469 133.582031 C 105.039062 133.394531 105.175781 133.246094 105.351562 133.167969 L 106.757812 132.582031 C 106.945312 132.5 107.09375 132.390625 107.191406 132.265625 C 107.460938 131.902344 107.480469 131.414062 107.234375 131.042969 C 104.917969 127.523438 100.839844 120.746094 99.207031 114.472656 C 97.523438 114.15625 90.335938 113.265625 84.316406 119.351562 Z M 95.753906 141.351562 C 95.316406 141.351562 94.882812 141.308594 94.460938 141.210938 C 92.644531 140.789062 91.285156 139.460938 90.433594 137.269531 C 90.140625 136.523438 89.785156 135.617188 89.398438 134.636719 C 88.398438 132.105469 87.15625 128.957031 86.414062 126.886719 C 85.882812 125.40625 85.242188 123.949219 84.519531 122.558594 L 82.945312 119.539062 C 82.816406 119.292969 82.859375 118.988281 83.050781 118.789062 C 90.484375 110.898438 99.523438 113.1875 99.90625 113.289062 C 100.136719 113.351562 100.3125 113.535156 100.371094 113.761719 C 101.941406 120.191406 106.457031 127.488281 108.324219 130.328125 C 108.871094 131.15625 108.832031 132.25 108.230469 133.046875 C 107.996094 133.359375 107.660156 133.613281 107.261719 133.78125 L 106.140625 134.25 L 105.5 136.359375 C 105.46875 136.472656 105.40625 136.574219 105.320312 136.652344 C 105.089844 136.863281 100.148438 141.351562 95.753906 141.351562 "/><path style=" stroke:none;fill-rule:nonzero;fill:#ffffff;fill-opacity:1;" d="M 85.746094 129.78125 C 85.746094 129.78125 81.972656 122.511719 79.136719 124.988281 C 76.300781 127.460938 80.652344 135.359375 85.746094 129.78125 "/><path style=" stroke:none;fill-rule:nonzero;fill:#000000;fill-opacity:1;" d="M 99.992188 122.066406 C 99.78125 122.066406 99.574219 122.105469 99.382812 122.183594 C 99.085938 122.308594 98.847656 122.527344 98.761719 122.753906 C 97.667969 125.660156 98.074219 128.007812 98.816406 129.234375 C 99.132812 129.753906 99.398438 129.882812 99.453125 129.890625 C 100.082031 129.949219 100.566406 129.804688 100.933594 129.449219 C 101.4375 128.960938 102.007812 127.785156 101.847656 124.949219 C 101.761719 123.425781 101.40625 122.511719 100.792969 122.242188 C 100.527344 122.125 100.253906 122.066406 99.992188 122.066406 Z M 99.703125 131.203125 C 99.582031 131.203125 99.457031 131.199219 99.332031 131.1875 C 98.765625 131.132812 98.199219 130.703125 97.738281 129.96875 C 96.808594 128.480469 96.269531 125.683594 97.542969 122.296875 C 97.757812 121.726562 98.246094 121.246094 98.878906 120.984375 C 99.636719 120.664062 100.503906 120.691406 101.320312 121.050781 C 102.433594 121.542969 103.03125 122.796875 103.148438 124.878906 C 103.300781 127.585938 102.871094 129.386719 101.835938 130.386719 C 101.28125 130.921875 100.546875 131.203125 99.703125 131.203125 "/><path style=" stroke:none;fill-rule:nonzero;fill:#000000;fill-opacity:1;" d="M 82.335938 124.3125 C 82.015625 124.3125 81.734375 124.070312 81.691406 123.742188 C 81.644531 123.386719 81.898438 123.0625 82.253906 123.015625 L 99.441406 120.769531 C 99.796875 120.722656 100.125 120.976562 100.171875 121.332031 C 100.21875 121.6875 99.96875 122.011719 99.613281 122.058594 L 82.421875 124.304688 C 82.394531 124.308594 82.367188 124.3125 82.335938 124.3125 "/><path style=" stroke:none;fill-rule:nonzero;fill:#000000;fill-opacity:1;" d="M 106.949219 128.125 Z M 107.230469 129.363281 C 106.988281 129.363281 106.757812 129.226562 106.644531 128.996094 C 106.496094 128.683594 106.613281 128.320312 106.902344 128.148438 C 107.378906 127.667969 108.421875 124.332031 107.097656 121.980469 C 106.902344 121.632812 106.660156 121.445312 106.332031 121.382812 C 105.410156 121.207031 104.074219 122.085938 103.636719 122.4375 C 103.359375 122.664062 102.949219 122.621094 102.71875 122.34375 C 102.496094 122.0625 102.535156 121.652344 102.8125 121.425781 C 103.023438 121.257812 104.890625 119.785156 106.574219 120.101562 C 107.273438 120.234375 107.847656 120.664062 108.230469 121.34375 C 109.332031 123.296875 109.15625 125.808594 108.621094 127.507812 C 108.40625 128.183594 108.039062 129.046875 107.511719 129.300781 C 107.421875 129.34375 107.324219 129.363281 107.230469 129.363281 "/><path style=" stroke:none;fill-rule:nonzero;fill:#ac1754;fill-opacity:1;" d="M 280.25 319.410156 L 160.308594 297.703125 L 200.597656 269.066406 L 320.417969 284.175781 C 320.820312 284.226562 320.96875 284.730469 320.660156 284.992188 L 280.25 319.410156 "/><path style=" stroke:none;fill-rule:nonzero;fill:#fbcfe8;fill-opacity:1;" d="M 279.945312 313.867188 L 160.003906 292.160156 L 200.292969 263.523438 L 321.160156 278.765625 L 279.945312 313.867188 "/><path style=" stroke:none;fill-rule:nonzero;fill:#ac1754;fill-opacity:1;" d="M 280.25 319.410156 L 279.945312 313.867188 L 321.160156 278.765625 L 321.363281 282.492188 C 321.429688 283.636719 320.953125 284.742188 320.078125 285.488281 L 280.25 319.410156 "/><path style=" stroke:none;fill-rule:nonzero;fill:#ac1754;fill-opacity:1;" d="M 264.652344 307.421875 C 264.457031 307.421875 264.269531 307.335938 264.140625 307.175781 C 263.917969 306.894531 263.960938 306.484375 264.242188 306.257812 L 294.808594 281.933594 C 295.09375 281.710938 295.5 281.753906 295.722656 282.035156 C 295.949219 282.316406 295.902344 282.726562 295.621094 282.953125 L 265.054688 307.277344 C 264.9375 307.375 264.792969 307.421875 264.652344 307.421875 "/><path style=" stroke:none;fill-rule:nonzero;fill:#ac1754;fill-opacity:1;" d="M 253.640625 305.0625 C 253.445312 305.0625 253.253906 304.972656 253.128906 304.8125 C 252.90625 304.53125 252.953125 304.121094 253.234375 303.898438 L 283.082031 280.390625 C 283.363281 280.167969 283.769531 280.21875 283.992188 280.5 C 284.21875 280.78125 284.167969 281.191406 283.886719 281.414062 L 254.039062 304.921875 C 253.921875 305.015625 253.777344 305.0625 253.640625 305.0625 "/><path style=" stroke:none;fill-rule:nonzero;fill:#ac1754;fill-opacity:1;" d="M 243.550781 303.417969 C 243.363281 303.417969 243.175781 303.335938 243.042969 303.175781 C 242.820312 302.894531 242.863281 302.484375 243.144531 302.257812 L 272.269531 278.855469 C 272.550781 278.632812 272.960938 278.675781 273.183594 278.957031 C 273.410156 279.234375 273.363281 279.644531 273.082031 279.871094 L 243.960938 303.273438 C 243.839844 303.371094 243.695312 303.417969 243.550781 303.417969 "/><path style=" stroke:none;fill-rule:nonzero;fill:#ac1754;fill-opacity:1;" d="M 223.382812 299.3125 C 223.191406 299.3125 223 299.226562 222.871094 299.0625 C 222.648438 298.78125 222.695312 298.371094 222.976562 298.148438 L 250.96875 276.082031 C 251.253906 275.855469 251.664062 275.90625 251.886719 276.1875 C 252.109375 276.472656 252.0625 276.882812 251.777344 277.105469 L 223.785156 299.171875 C 223.664062 299.265625 223.523438 299.3125 223.382812 299.3125 "/><path style=" stroke:none;fill-rule:nonzero;fill:#ac1754;fill-opacity:1;" d="M 233.261719 301.160156 C 233.070312 301.160156 232.878906 301.074219 232.75 300.914062 C 232.527344 300.632812 232.574219 300.222656 232.859375 299.996094 L 261.464844 277.316406 C 261.746094 277.089844 262.15625 277.136719 262.382812 277.417969 C 262.605469 277.699219 262.558594 278.113281 262.273438 278.335938 L 233.667969 301.019531 C 233.546875 301.113281 233.402344 301.160156 233.261719 301.160156 "/><path style=" stroke:none;fill-rule:nonzero;fill:#ac1754;fill-opacity:1;" d="M 211.855469 297.875 C 211.660156 297.875 211.46875 297.789062 211.339844 297.625 C 211.121094 297.339844 211.171875 296.929688 211.453125 296.710938 L 239.859375 274.539062 C 240.140625 274.316406 240.550781 274.371094 240.773438 274.652344 C 240.992188 274.9375 240.945312 275.34375 240.660156 275.566406 L 212.253906 297.738281 C 212.136719 297.832031 211.996094 297.875 211.855469 297.875 "/><path style=" stroke:none;fill-rule:nonzero;fill:#ac1754;fill-opacity:1;" d="M 276.074219 309.578125 C 276.03125 309.578125 275.992188 309.570312 275.953125 309.566406 L 168.511719 289.242188 C 168.15625 289.175781 167.925781 288.835938 167.992188 288.480469 C 168.058594 288.128906 168.398438 287.898438 168.753906 287.960938 L 275.894531 308.226562 L 305.296875 283.789062 C 305.574219 283.558594 305.984375 283.597656 306.210938 283.875 C 306.441406 284.152344 306.40625 284.558594 306.128906 284.792969 L 276.488281 309.425781 C 276.371094 309.523438 276.222656 309.578125 276.074219 309.578125 "/><path style=" stroke:none;fill-rule:nonzero;fill:#ac1754;fill-opacity:1;" d="M 283.074219 303.417969 C 283.035156 303.417969 282.992188 303.414062 282.953125 303.40625 L 184.570312 285.546875 C 184.214844 285.480469 183.980469 285.144531 184.046875 284.792969 C 184.109375 284.4375 184.445312 284.203125 184.800781 284.265625 L 283.1875 302.125 C 283.539062 302.191406 283.777344 302.53125 283.710938 302.882812 C 283.65625 303.195312 283.382812 303.417969 283.074219 303.417969 "/><path style=" stroke:none;fill-rule:nonzero;fill:#ac1754;fill-opacity:1;" d="M 289.246094 298.183594 C 289.207031 298.183594 289.167969 298.179688 289.128906 298.171875 L 190.746094 280.3125 C 190.390625 280.246094 190.15625 279.910156 190.21875 279.554688 C 190.285156 279.203125 190.625 278.964844 190.976562 279.03125 L 289.363281 296.890625 C 289.714844 296.953125 289.949219 297.296875 289.886719 297.648438 C 289.828125 297.960938 289.554688 298.183594 289.246094 298.183594 "/><path style=" stroke:none;fill-rule:nonzero;fill:#ac1754;fill-opacity:1;" d="M 298.921875 290.277344 C 298.886719 290.277344 298.851562 290.273438 298.8125 290.269531 L 198.988281 273.640625 C 198.632812 273.582031 198.390625 273.246094 198.453125 272.894531 C 198.511719 272.535156 198.847656 272.296875 199.199219 272.359375 L 299.027344 288.984375 C 299.382812 289.046875 299.621094 289.378906 299.5625 289.734375 C 299.507812 290.054688 299.234375 290.277344 298.921875 290.277344 "/><path style=" stroke:none;fill-rule:nonzero;fill:#ac1754;fill-opacity:1;" d="M 305.710938 284.121094 C 305.683594 284.121094 305.65625 284.121094 305.625 284.113281 L 196.535156 269.335938 C 196.179688 269.285156 195.929688 268.957031 195.980469 268.601562 C 196.027344 268.246094 196.359375 267.996094 196.710938 268.042969 L 305.800781 282.824219 C 306.15625 282.871094 306.40625 283.199219 306.359375 283.558594 C 306.3125 283.882812 306.035156 284.121094 305.710938 284.121094 "/><path style=" stroke:none;fill-rule:nonzero;fill:#ac1754;fill-opacity:1;" d="M 326.742188 332.949219 C 331.773438 313.375 348.757812 300.050781 366.714844 316.015625 C 373.0625 328.25 354.34375 339.273438 333.035156 340.519531 C 328.921875 340.761719 325.71875 336.929688 326.742188 332.949219 "/><path style=" stroke:none;fill-rule:nonzero;fill:#ffffff;fill-opacity:1;" d="M 349.207031 311.152344 C 346.949219 309.996094 343.609375 308.632812 337.714844 309.527344 C 331.214844 310.515625 329.765625 315.300781 319.578125 317.441406 C 302.0625 321.125 310.6875 331.351562 310.6875 331.351562 L 324.3125 325.199219 C 325.195312 324.804688 326.167969 324.648438 327.132812 324.753906 C 330.105469 325.078125 337.21875 325.609375 343.691406 324.148438 C 348.539062 323.054688 354.921875 327.070312 358.363281 324.046875 C 360.359375 322.292969 354.019531 313.617188 349.207031 311.152344 "/><path style=" stroke:none;fill-rule:nonzero;fill:#000000;fill-opacity:1;" d="M 341.324219 309.890625 C 340.265625 309.890625 339.101562 309.976562 337.8125 310.171875 C 334.96875 310.605469 333.117188 311.8125 330.976562 313.210938 C 328.335938 314.9375 325.339844 316.894531 319.710938 318.078125 C 313.898438 319.300781 310.457031 321.347656 309.492188 324.15625 C 308.566406 326.84375 310.195312 329.558594 310.894531 330.546875 L 324.042969 324.609375 C 325.035156 324.160156 326.128906 323.984375 327.207031 324.105469 C 329.976562 324.410156 337.117188 324.960938 343.550781 323.511719 C 345.753906 323.019531 348.171875 323.496094 350.511719 323.957031 C 353.4375 324.53125 356.199219 325.078125 357.929688 323.558594 C 358.117188 323.394531 358.097656 323 358.070312 322.777344 C 357.730469 320.035156 352.84375 313.746094 348.910156 311.734375 C 347.0625 310.789062 344.75 309.890625 341.324219 309.890625 Z M 310.6875 332.003906 C 310.5 332.003906 310.316406 331.921875 310.1875 331.773438 C 310.050781 331.609375 306.871094 327.773438 308.257812 323.734375 C 309.386719 320.457031 313.148438 318.128906 319.445312 316.804688 C 324.832031 315.671875 327.71875 313.785156 330.265625 312.121094 C 332.4375 310.699219 334.492188 309.359375 337.617188 308.882812 C 343.449219 307.996094 346.898438 309.238281 349.503906 310.574219 C 353.59375 312.667969 358.9375 319.191406 359.363281 322.617188 C 359.492188 323.671875 359.125 324.242188 358.792969 324.539062 C 356.578125 326.480469 353.367188 325.847656 350.261719 325.234375 C 348.054688 324.800781 345.769531 324.351562 343.835938 324.785156 C 337.210938 326.277344 329.898438 325.710938 327.0625 325.398438 C 326.214844 325.308594 325.359375 325.441406 324.578125 325.792969 L 310.953125 331.945312 C 310.867188 331.988281 310.777344 332.003906 310.6875 332.003906 "/><path style=" stroke:none;fill-rule:nonzero;fill:#ac1754;fill-opacity:1;" d="M 227.113281 368.101562 C 220.050781 368.308594 192.980469 366.867188 192.980469 366.867188 C 177.171875 365.265625 148.429688 354.84375 136.363281 344.421875 C 129.8125 338.765625 124.746094 333.472656 122.558594 327.042969 C 118.847656 316.125 119.1875 313.015625 118.148438 299.769531 C 117.4375 290.753906 120.695312 278.234375 126.304688 271.175781 C 134.546875 260.796875 149.78125 253.425781 179.394531 257.214844 C 179.394531 257.214844 205.40625 260.691406 214.046875 271.308594 C 216.527344 274.355469 227.148438 282.128906 235.679688 294.703125 C 243.75 306.601562 251.09375 323.261719 260.441406 322.765625 C 293.257812 321.035156 313.34375 311.777344 317.96875 313.433594 C 322.363281 315.003906 325.53125 320.722656 325.179688 326.136719 C 324.832031 331.546875 276.082031 364.46875 255.179688 365.058594 C 230.253906 365.765625 213.875 348.84375 213.875 348.84375 L 227.113281 368.101562 "/><path style=" stroke:none;fill-rule:nonzero;fill:#fbcfe8;fill-opacity:1;" d="M 237.078125 295.878906 C 236.871094 295.878906 236.671875 295.785156 236.542969 295.601562 C 228.992188 284.84375 220.921875 276.261719 212.5625 270.089844 C 207.902344 266.652344 201.929688 263.695312 195.742188 261.761719 C 195.398438 261.65625 195.210938 261.289062 195.316406 260.945312 C 195.421875 260.605469 195.789062 260.410156 196.128906 260.519531 C 202.453125 262.492188 208.5625 265.519531 213.332031 269.042969 C 221.808594 275.296875 229.976562 283.980469 237.609375 294.855469 C 237.816406 295.148438 237.746094 295.554688 237.453125 295.761719 C 237.335938 295.839844 237.207031 295.878906 237.078125 295.878906 "/><path style=" stroke:none;fill-rule:nonzero;fill:#fbcfe8;fill-opacity:1;" d="M 263.878906 323.457031 C 263.5625 323.457031 263.285156 323.230469 263.234375 322.910156 C 263.179688 322.554688 263.421875 322.222656 263.773438 322.164062 C 264.078125 322.117188 264.792969 322.03125 265.886719 321.90625 C 269.777344 321.453125 277.871094 320.511719 285.203125 319.078125 C 287.351562 318.65625 289.796875 318.089844 292.390625 317.488281 C 299.875 315.75 309.1875 313.585938 318.753906 313.242188 C 319.113281 313.226562 319.414062 313.511719 319.425781 313.871094 C 319.441406 314.230469 319.160156 314.535156 318.800781 314.546875 C 309.359375 314.882812 300.113281 317.03125 292.683594 318.753906 C 290.082031 319.359375 287.625 319.929688 285.453125 320.355469 C 278.070312 321.800781 269.941406 322.746094 266.035156 323.199219 C 265 323.320312 264.253906 323.40625 263.980469 323.449219 C 263.945312 323.457031 263.910156 323.457031 263.878906 323.457031 "/><path style=" stroke:none;fill-rule:nonzero;fill:#fbcfe8;fill-opacity:1;" d="M 246.753906 365.746094 C 246.71875 365.746094 246.683594 365.742188 246.648438 365.738281 C 240.867188 364.765625 235.96875 363.4375 230.269531 361.296875 C 214.371094 355.320312 191.238281 325.734375 180.414062 302.914062 C 180.261719 302.589844 180.398438 302.199219 180.726562 302.046875 C 181.050781 301.890625 181.4375 302.03125 181.589844 302.355469 C 192.308594 324.949219 215.121094 354.210938 230.726562 360.074219 C 236.34375 362.1875 241.171875 363.496094 246.863281 364.453125 C 247.21875 364.511719 247.457031 364.847656 247.398438 365.203125 C 247.34375 365.519531 247.066406 365.746094 246.753906 365.746094 "/><path style=" stroke:none;fill-rule:nonzero;fill:#000000;fill-opacity:1;" d="M 183.496094 205.09375 C 191.03125 200.671875 192.054688 187.371094 186.460938 184.480469 C 181.417969 181.871094 175.191406 184.714844 167.386719 188.433594 C 163.675781 190.203125 158.277344 190.117188 152.558594 191.238281 C 126.171875 196.402344 127.40625 228.488281 153.304688 249.261719 C 171.953125 264.222656 182.917969 212.101562 182.917969 212.101562 L 183.496094 205.09375 "/><path style=" stroke:none;fill-rule:nonzero;fill:#ffffff;fill-opacity:1;" d="M 177.632812 208.226562 C 178.109375 203.90625 182.695312 203.679688 183.496094 205.09375 C 185.433594 208.53125 186.359375 210.921875 186.671875 212.382812 C 187.089844 214.34375 185.28125 216.308594 186.253906 218.410156 C 187.230469 220.515625 188.757812 222.898438 188.894531 226.6875 C 189.03125 230.382812 192.753906 247.339844 179.691406 246.804688 C 179.175781 246.78125 178.75 247.191406 178.757812 247.707031 C 178.789062 250.285156 178.925781 257.386719 179.492188 261.230469 C 179.800781 263.320312 178.507812 265.3125 176.488281 265.890625 C 171.261719 267.378906 161.523438 269.476562 154.238281 267.085938 C 152.34375 266.464844 151.351562 264.371094 152.027344 262.480469 C 152.886719 260.070312 154.089844 253.292969 153.304688 249.261719 C 153.304688 249.261719 157.664062 248.828125 162.523438 246.578125 C 169.988281 243.125 173.664062 234.714844 171.601562 226.695312 C 171.15625 224.96875 170.195312 222.515625 171.199219 219.917969 C 172.769531 215.839844 174.8125 216.742188 176.171875 218.070312 C 176.71875 218.605469 177.632812 218.21875 177.632812 217.449219 L 177.632812 208.226562 "/><path style=" stroke:none;fill-rule:nonzero;fill:#000000;fill-opacity:1;" d="M 154.054688 249.820312 C 154.636719 254.050781 153.484375 260.335938 152.640625 262.703125 C 152.367188 263.460938 152.414062 264.277344 152.769531 265 C 153.113281 265.707031 153.707031 266.226562 154.441406 266.46875 C 161.574219 268.804688 171.207031 266.71875 176.308594 265.261719 C 178.019531 264.777344 179.109375 263.085938 178.847656 261.324219 C 178.28125 257.480469 178.136719 250.527344 178.105469 247.714844 C 178.097656 247.285156 178.265625 246.886719 178.570312 246.589844 C 178.875 246.292969 179.296875 246.136719 179.71875 246.152344 C 182.539062 246.269531 184.726562 245.519531 186.214844 243.929688 C 189.683594 240.214844 188.867188 232.734375 188.429688 228.71875 C 188.335938 227.867188 188.265625 227.199219 188.246094 226.710938 C 188.132812 223.695312 187.105469 221.617188 186.195312 219.78125 C 186.007812 219.40625 185.828125 219.042969 185.664062 218.6875 C 185.019531 217.289062 185.394531 215.972656 185.730469 214.8125 C 185.960938 213.996094 186.1875 213.226562 186.035156 212.519531 C 185.832031 211.558594 185.15625 209.363281 182.929688 205.414062 C 182.761719 205.125 182.003906 204.828125 181 205.035156 C 180.277344 205.183594 178.570312 205.792969 178.285156 208.265625 L 178.285156 217.449219 C 178.285156 218.0625 177.921875 218.613281 177.355469 218.851562 C 176.789062 219.089844 176.160156 218.972656 175.71875 218.539062 C 175.207031 218.039062 174.457031 217.480469 173.761719 217.628906 C 173.058594 217.78125 172.382812 218.65625 171.804688 220.15625 C 171.015625 222.199219 171.578125 224.1875 172.027344 225.78125 C 172.097656 226.042969 172.167969 226.292969 172.230469 226.53125 C 174.398438 234.957031 170.429688 243.640625 162.796875 247.171875 C 158.976562 248.941406 155.492188 249.605469 154.054688 249.820312 Z M 161.921875 268.816406 C 159.195312 268.816406 156.484375 268.507812 154.035156 267.707031 C 152.964844 267.355469 152.097656 266.597656 151.597656 265.574219 C 151.089844 264.53125 151.023438 263.355469 151.414062 262.261719 C 152.238281 259.949219 153.429688 253.308594 152.664062 249.382812 C 152.628906 249.207031 152.671875 249.019531 152.78125 248.875 C 152.890625 248.726562 153.054688 248.632812 153.238281 248.613281 C 153.28125 248.609375 157.558594 248.160156 162.25 245.988281 C 169.3125 242.71875 172.980469 234.675781 170.96875 226.855469 C 170.914062 226.628906 170.84375 226.390625 170.773438 226.132812 C 170.296875 224.449219 169.644531 222.132812 170.589844 219.6875 C 171.351562 217.703125 172.300781 216.613281 173.484375 216.355469 C 174.496094 216.136719 175.554688 216.554688 176.628906 217.605469 C 176.710938 217.6875 176.792969 217.675781 176.851562 217.652344 C 176.898438 217.628906 176.984375 217.578125 176.984375 217.449219 L 176.980469 208.226562 C 176.980469 208.203125 176.984375 208.179688 176.984375 208.15625 C 177.242188 205.832031 178.644531 204.1875 180.738281 203.757812 C 182.191406 203.460938 183.554688 203.878906 184.0625 204.773438 C 186.261719 208.667969 187.042969 210.988281 187.308594 212.246094 C 187.527344 213.273438 187.25 214.238281 186.980469 215.171875 C 186.683594 216.207031 186.402344 217.183594 186.84375 218.140625 C 187.007812 218.484375 187.179688 218.835938 187.363281 219.203125 C 188.28125 221.058594 189.425781 223.367188 189.546875 226.660156 C 189.5625 227.101562 189.636719 227.785156 189.726562 228.574219 C 190.1875 232.800781 191.046875 240.667969 187.164062 244.820312 C 185.40625 246.699219 182.882812 247.582031 179.664062 247.453125 C 179.570312 247.441406 179.507812 247.496094 179.480469 247.523438 C 179.445312 247.554688 179.40625 247.613281 179.40625 247.699219 C 179.441406 250.484375 179.582031 257.371094 180.136719 261.132812 C 180.492188 263.539062 179 265.851562 176.667969 266.515625 C 173.140625 267.519531 167.503906 268.816406 161.921875 268.816406 "/><path style=" stroke:none;fill-rule:nonzero;fill:#000000;fill-opacity:1;" d="M 188.933594 225.253906 C 188.714844 225.253906 188.496094 225.144531 188.375 224.941406 C 188.191406 224.632812 188.289062 224.234375 188.59375 224.046875 C 192.480469 221.695312 190.152344 215.097656 189.316406 213.0625 L 177.671875 218.753906 C 177.351562 218.914062 176.960938 218.78125 176.804688 218.457031 C 176.644531 218.132812 176.78125 217.742188 177.101562 217.585938 L 189.355469 211.59375 C 189.511719 211.519531 189.691406 211.507812 189.855469 211.566406 C 190.019531 211.621094 190.15625 211.742188 190.230469 211.898438 C 190.421875 212.300781 194.867188 221.773438 189.269531 225.160156 C 189.164062 225.226562 189.046875 225.253906 188.933594 225.253906 "/><path style=" stroke:none;fill-rule:nonzero;fill:#000000;fill-opacity:1;" d="M 189.269531 230.15625 C 189.105469 230.15625 188.9375 230.09375 188.808594 229.964844 C 188.554688 229.710938 188.554688 229.300781 188.808594 229.046875 L 190.480469 227.375 C 190.914062 226.945312 190.96875 226.265625 190.613281 225.769531 L 189.464844 224.152344 C 189.257812 223.859375 189.324219 223.453125 189.617188 223.242188 C 189.914062 223.035156 190.320312 223.105469 190.527344 223.394531 L 191.675781 225.015625 C 192.402344 226.03125 192.285156 227.414062 191.402344 228.296875 L 189.730469 229.964844 C 189.605469 230.09375 189.4375 230.15625 189.269531 230.15625 "/><path style=" stroke:none;fill-rule:nonzero;fill:#000000;fill-opacity:1;" d="M 175.820312 231.625 C 175.535156 231.625 175.230469 231.59375 174.914062 231.511719 C 173.390625 231.136719 172.097656 229.847656 171.0625 227.683594 C 170.90625 227.355469 171.042969 226.96875 171.367188 226.8125 C 171.691406 226.660156 172.082031 226.792969 172.234375 227.117188 C 173.09375 228.917969 174.101562 229.972656 175.226562 230.25 C 176.378906 230.535156 177.3125 229.878906 177.320312 229.871094 C 177.609375 229.65625 178.019531 229.714844 178.234375 230.003906 C 178.445312 230.292969 178.386719 230.703125 178.097656 230.914062 C 178.050781 230.949219 177.125 231.625 175.820312 231.625 "/><path style=" stroke:none;fill-rule:nonzero;fill:#ffffff;fill-opacity:1;" d="M 200.683594 325.417969 L 200.683594 359.660156 C 200.683594 359.660156 200.707031 367.148438 200.691406 367.554688 C 199.121094 367.996094 180.335938 367.839844 172.113281 368.113281 C 172.113281 368.113281 162.277344 366.664062 160.292969 366.816406 C 158.0625 365.585938 161.757812 364.257812 160.59375 363.765625 C 136.480469 353.5625 120.660156 336.207031 110.277344 315.339844 L 107.945312 302.167969 C 107.945312 302.105469 108.117188 301.898438 108.386719 301.621094 C 109.550781 300.433594 110.988281 299.546875 112.535156 299.023438 L 114.96875 298.210938 L 114.996094 298.203125 C 117.523438 297.355469 120.195312 297.558594 122.386719 298.773438 C 122.496094 298.832031 122.601562 298.898438 122.714844 298.957031 C 136.664062 306.78125 152.679688 310.800781 169.285156 310.671875 L 187.402344 310.535156 L 187.464844 310.535156 C 195.148438 311.410156 200.683594 317.632812 200.683594 325.417969 "/><path style=" stroke:none;fill-rule:nonzero;fill:#ffffff;fill-opacity:1;" d="M 196.523438 326.550781 C 196.523438 326.550781 196.324219 346.515625 195.992188 361.90625 C 187.945312 363.921875 173.476562 366.902344 166.324219 367.332031 C 145.960938 368.554688 121.238281 367.554688 106.992188 368.121094 C 106.59375 365.734375 106.207031 303.65625 106.207031 303.65625 C 106.207031 299.359375 110.886719 296.253906 114.648438 298.054688 L 114.96875 298.210938 C 116.242188 298.828125 117.464844 299.476562 118.648438 300.140625 C 132.53125 307.953125 148.484375 311.933594 165.019531 311.808594 L 183.273438 311.664062 C 190.976562 312.527344 196.523438 318.757812 196.523438 326.550781 "/><path style=" stroke:none;fill-rule:nonzero;fill:#000000;fill-opacity:1;" d="M 195.992188 362.558594 C 195.988281 362.558594 195.984375 362.558594 195.980469 362.558594 C 195.617188 362.550781 195.332031 362.253906 195.339844 361.890625 C 195.667969 346.683594 195.871094 326.742188 195.871094 326.542969 C 195.871094 319.136719 190.5625 313.15625 183.242188 312.316406 L 165.023438 312.457031 C 148.351562 312.585938 132.21875 308.523438 118.328125 300.710938 C 117.0625 299.996094 115.871094 299.371094 114.683594 298.792969 L 114.367188 298.644531 C 112.265625 297.695312 110.207031 297.742188 108.582031 298.789062 C 107.035156 299.792969 106.109375 301.558594 106.109375 303.515625 C 106.109375 303.878906 105.820312 304.167969 105.457031 304.167969 C 105.097656 304.167969 104.808594 303.878906 104.808594 303.515625 C 104.808594 301.113281 105.957031 298.9375 107.878906 297.695312 C 109.886719 296.402344 112.386719 296.320312 114.917969 297.464844 L 115.25 297.625 C 116.464844 298.210938 117.679688 298.851562 118.96875 299.574219 C 132.660156 307.277344 148.582031 311.28125 165.011719 311.15625 L 183.308594 311.011719 L 183.347656 311.019531 C 191.359375 311.914062 197.175781 318.449219 197.175781 326.550781 C 197.175781 326.757812 196.972656 346.703125 196.644531 361.921875 C 196.636719 362.277344 196.347656 362.558594 195.992188 362.558594 "/><path style=" stroke:none;fill-rule:nonzero;fill:#000000;fill-opacity:1;" d="M 321.007812 43.804688 C 320.832031 43.804688 320.65625 43.734375 320.527344 43.597656 C 308.824219 30.996094 301.964844 26.402344 287.292969 18.992188 C 286.972656 18.832031 286.84375 18.441406 287.003906 18.121094 C 287.167969 17.796875 287.558594 17.671875 287.878906 17.832031 C 302.707031 25.316406 309.640625 29.960938 321.484375 42.710938 C 321.726562 42.972656 321.714844 43.386719 321.449219 43.628906 C 321.324219 43.746094 321.164062 43.804688 321.007812 43.804688 "/><path style=" stroke:none;fill-rule:nonzero;fill:#000000;fill-opacity:1;" d="M 280.546875 15.734375 C 280.460938 15.734375 280.371094 15.71875 280.285156 15.679688 C 278.203125 14.757812 276.066406 13.875 273.941406 13.042969 C 273.605469 12.914062 273.441406 12.535156 273.570312 12.203125 C 273.699219 11.863281 274.078125 11.699219 274.414062 11.828125 C 276.558594 12.667969 278.710938 13.558594 280.8125 14.488281 C 281.140625 14.632812 281.289062 15.019531 281.144531 15.347656 C 281.039062 15.59375 280.796875 15.734375 280.546875 15.734375 "/><path style=" stroke:none;fill-rule:nonzero;fill:#000000;fill-opacity:1;" d="M 306.101562 40.078125 C 305.953125 40.078125 305.804688 40.027344 305.683594 39.925781 C 290.496094 27.242188 279.605469 23.753906 260.089844 18.207031 C 259.742188 18.109375 259.542969 17.75 259.640625 17.402344 C 259.738281 17.054688 260.101562 16.855469 260.445312 16.957031 C 280.136719 22.550781 291.128906 26.070312 306.519531 38.925781 C 306.792969 39.15625 306.832031 39.566406 306.601562 39.839844 C 306.472656 39.996094 306.289062 40.078125 306.101562 40.078125 "/><path style=" stroke:none;fill-rule:nonzero;fill:#000000;fill-opacity:1;" d="M 161.441406 30.746094 L 161.445312 30.746094 Z M 161.453125 31.398438 C 160.652344 31.410156 159.910156 31.734375 159.355469 32.3125 C 158.800781 32.882812 158.503906 33.640625 158.515625 34.4375 C 158.546875 36.085938 159.894531 37.40625 161.558594 37.375 C 162.355469 37.363281 163.101562 37.035156 163.65625 36.460938 C 164.210938 35.886719 164.507812 35.132812 164.496094 34.332031 C 164.480469 33.535156 164.15625 32.789062 163.582031 32.234375 C 163.007812 31.679688 162.246094 31.378906 161.453125 31.398438 Z M 161.503906 38.679688 C 159.171875 38.679688 157.257812 36.804688 157.214844 34.460938 C 157.191406 33.3125 157.621094 32.230469 158.417969 31.40625 C 159.214844 30.578125 160.285156 30.113281 161.429688 30.09375 C 162.585938 30.085938 163.660156 30.5 164.488281 31.296875 C 165.3125 32.09375 165.777344 33.164062 165.796875 34.3125 C 165.839844 36.675781 163.945312 38.636719 161.582031 38.675781 C 161.554688 38.679688 161.53125 38.679688 161.503906 38.679688 "/><path style=" stroke:none;fill-rule:nonzero;fill:#000000;fill-opacity:1;" d="M 185.492188 19.28125 C 185.378906 19.28125 185.265625 19.25 185.164062 19.191406 C 184.851562 19.011719 184.746094 18.613281 184.929688 18.300781 L 185.984375 16.484375 C 186.160156 16.175781 186.558594 16.066406 186.871094 16.25 C 187.183594 16.429688 187.289062 16.828125 187.109375 17.140625 L 186.054688 18.957031 C 185.933594 19.164062 185.714844 19.28125 185.492188 19.28125 "/><path style=" stroke:none;fill-rule:nonzero;fill:#000000;fill-opacity:1;" d="M 180.441406 27.984375 C 180.328125 27.984375 180.21875 27.957031 180.113281 27.898438 C 179.800781 27.71875 179.695312 27.320312 179.875 27.007812 L 180.929688 25.191406 C 181.109375 24.878906 181.511719 24.773438 181.820312 24.953125 C 182.132812 25.132812 182.238281 25.53125 182.058594 25.84375 L 181.003906 27.664062 C 180.882812 27.871094 180.664062 27.984375 180.441406 27.984375 "/><path style=" stroke:none;fill-rule:nonzero;fill:#000000;fill-opacity:1;" d="M 180.011719 20.757812 C 179.902344 20.757812 179.792969 20.730469 179.691406 20.675781 L 177.855469 19.636719 C 177.542969 19.460938 177.429688 19.0625 177.609375 18.75 C 177.785156 18.4375 178.183594 18.324219 178.496094 18.503906 L 180.332031 19.539062 C 180.644531 19.71875 180.757812 20.113281 180.578125 20.429688 C 180.460938 20.640625 180.238281 20.757812 180.011719 20.757812 "/><path style=" stroke:none;fill-rule:nonzero;fill:#000000;fill-opacity:1;" d="M 188.808594 25.726562 C 188.699219 25.726562 188.589844 25.699219 188.488281 25.644531 L 186.652344 24.605469 C 186.339844 24.429688 186.230469 24.03125 186.40625 23.71875 C 186.582031 23.40625 186.980469 23.296875 187.292969 23.472656 L 189.128906 24.507812 C 189.441406 24.6875 189.554688 25.085938 189.375 25.398438 C 189.257812 25.609375 189.035156 25.726562 188.808594 25.726562 "/><g style="fill:#ac1754;fill-opacity:1;"><g transform="translate(196.361843, 32.999998)"><path style="stroke:none" d="M 12.296875 -7.046875 L 12.296875 -4.3125 C 11.960938 -2.820312 11.25 -1.691406 10.15625 -0.921875 C 9.0625 -0.148438 7.835938 0.234375 6.484375 0.234375 C 4.785156 0.234375 3.335938 -0.398438 2.140625 -1.671875 C 0.941406 -2.941406 0.34375 -4.476562 0.34375 -6.28125 C 0.34375 -8.113281 0.925781 -9.660156 2.09375 -10.921875 C 3.269531 -12.179688 4.734375 -12.8125 6.484375 -12.8125 C 8.523438 -12.8125 10.140625 -12.09375 11.328125 -10.65625 L 9.453125 -8.59375 C 8.785156 -9.675781 7.851562 -10.21875 6.65625 -10.21875 C 5.769531 -10.21875 5.015625 -9.832031 4.390625 -9.0625 C 3.765625 -8.300781 3.453125 -7.375 3.453125 -6.28125 C 3.453125 -5.21875 3.765625 -4.304688 4.390625 -3.546875 C 5.015625 -2.785156 5.769531 -2.40625 6.65625 -2.40625 C 7.382812 -2.40625 8.019531 -2.625 8.5625 -3.0625 C 9.101562 -3.507812 9.375 -4.097656 9.375 -4.828125 L 6.484375 -4.828125 L 6.484375 -7.046875 Z M 12.296875 -7.046875 "/></g></g><g style="fill:#ac1754;fill-opacity:1;"><g transform="translate(208.238189, 32.999998)"><path style="stroke:none" d="M 1.4375 -0.96875 C 0.707031 -1.769531 0.34375 -2.75 0.34375 -3.90625 C 0.34375 -5.0625 0.707031 -6.039062 1.4375 -6.84375 C 2.175781 -7.644531 3.109375 -8.046875 4.234375 -8.046875 C 5.273438 -8.046875 6.128906 -7.722656 6.796875 -7.078125 L 6.796875 -7.828125 L 9.5 -7.828125 L 9.5 0 L 6.828125 0 L 6.828125 -0.890625 L 6.796875 -0.890625 C 6.128906 -0.140625 5.273438 0.234375 4.234375 0.234375 C 3.109375 0.234375 2.175781 -0.164062 1.4375 -0.96875 Z M 3.734375 -5.234375 C 3.390625 -4.890625 3.21875 -4.445312 3.21875 -3.90625 C 3.21875 -3.363281 3.382812 -2.921875 3.71875 -2.578125 C 4.050781 -2.242188 4.492188 -2.078125 5.046875 -2.078125 C 5.578125 -2.078125 6.007812 -2.25 6.34375 -2.59375 C 6.6875 -2.9375 6.859375 -3.375 6.859375 -3.90625 C 6.859375 -4.445312 6.679688 -4.890625 6.328125 -5.234375 C 5.984375 -5.578125 5.554688 -5.75 5.046875 -5.75 C 4.523438 -5.75 4.085938 -5.578125 3.734375 -5.234375 Z M 3.734375 -5.234375 "/></g></g><g style="fill:#ac1754;fill-opacity:1;"><g transform="translate(217.888613, 32.999998)"><path style="stroke:none" d="M 0.5625 1.921875 L 2.78125 0.84375 C 3.1875 1.507812 3.890625 1.84375 4.890625 1.84375 C 5.359375 1.84375 5.789062 1.691406 6.1875 1.390625 C 6.59375 1.097656 6.796875 0.640625 6.796875 0.015625 L 6.796875 -0.5625 C 6.316406 -0.03125 5.460938 0.234375 4.234375 0.234375 C 3.109375 0.234375 2.175781 -0.164062 1.4375 -0.96875 C 0.707031 -1.769531 0.34375 -2.75 0.34375 -3.90625 C 0.34375 -5.0625 0.707031 -6.039062 1.4375 -6.84375 C 2.175781 -7.644531 3.109375 -8.046875 4.234375 -8.046875 C 5.242188 -8.046875 6.082031 -7.738281 6.75 -7.125 L 6.796875 -7.125 L 6.796875 -7.828125 L 9.5 -7.828125 L 9.5 0.21875 C 9.5 1.488281 9.078125 2.46875 8.234375 3.15625 C 7.390625 3.84375 6.273438 4.1875 4.890625 4.1875 C 2.660156 4.1875 1.21875 3.429688 0.5625 1.921875 Z M 3.734375 -5.234375 C 3.390625 -4.890625 3.21875 -4.445312 3.21875 -3.90625 C 3.21875 -3.363281 3.382812 -2.921875 3.71875 -2.578125 C 4.050781 -2.242188 4.492188 -2.078125 5.046875 -2.078125 C 5.578125 -2.078125 6.007812 -2.25 6.34375 -2.59375 C 6.6875 -2.9375 6.859375 -3.375 6.859375 -3.90625 C 6.859375 -4.445312 6.679688 -4.890625 6.328125 -5.234375 C 5.984375 -5.578125 5.554688 -5.75 5.046875 -5.75 C 4.523438 -5.75 4.085938 -5.578125 3.734375 -5.234375 Z M 3.734375 -5.234375 "/></g></g><g style="fill:#ac1754;fill-opacity:1;"><g transform="translate(227.539037, 32.999998)"><path style="stroke:none" d="M 1.4375 -0.96875 C 0.707031 -1.769531 0.34375 -2.75 0.34375 -3.90625 C 0.34375 -5.0625 0.707031 -6.039062 1.4375 -6.84375 C 2.175781 -7.644531 3.109375 -8.046875 4.234375 -8.046875 C 5.273438 -8.046875 6.128906 -7.722656 6.796875 -7.078125 L 6.796875 -7.828125 L 9.5 -7.828125 L 9.5 0 L 6.828125 0 L 6.828125 -0.890625 L 6.796875 -0.890625 C 6.128906 -0.140625 5.273438 0.234375 4.234375 0.234375 C 3.109375 0.234375 2.175781 -0.164062 1.4375 -0.96875 Z M 3.734375 -5.234375 C 3.390625 -4.890625 3.21875 -4.445312 3.21875 -3.90625 C 3.21875 -3.363281 3.382812 -2.921875 3.71875 -2.578125 C 4.050781 -2.242188 4.492188 -2.078125 5.046875 -2.078125 C 5.578125 -2.078125 6.007812 -2.25 6.34375 -2.59375 C 6.6875 -2.9375 6.859375 -3.375 6.859375 -3.90625 C 6.859375 -4.445312 6.679688 -4.890625 6.328125 -5.234375 C 5.984375 -5.578125 5.554688 -5.75 5.046875 -5.75 C 4.523438 -5.75 4.085938 -5.578125 3.734375 -5.234375 Z M 3.734375 -5.234375 "/></g></g><g style="fill:#ac1754;fill-opacity:1;"><g transform="translate(237.189462, 32.999998)"><path style="stroke:none" d="M 0.921875 0 L 0.921875 -13.109375 L 3.609375 -13.109375 L 3.609375 0 Z M 0.921875 0 "/></g></g><g style="fill:#ac1754;fill-opacity:1;"><g transform="translate(196.361843, 47.249997)"><path style="stroke:none" d="M 0.921875 0 L 0.921875 -7.828125 L 3.609375 -7.828125 L 3.609375 -7 L 3.640625 -7 C 4.347656 -7.695312 5.097656 -8.046875 5.890625 -8.046875 C 6.453125 -8.046875 6.984375 -7.925781 7.484375 -7.6875 C 7.984375 -7.457031 8.359375 -7.101562 8.609375 -6.625 C 9.410156 -7.570312 10.273438 -8.046875 11.203125 -8.046875 C 12.035156 -8.046875 12.753906 -7.8125 13.359375 -7.34375 C 13.960938 -6.882812 14.265625 -6.15625 14.265625 -5.15625 L 14.265625 0 L 11.5625 0 L 11.5625 -4.421875 C 11.5625 -4.835938 11.445312 -5.1875 11.21875 -5.46875 C 10.988281 -5.75 10.644531 -5.890625 10.1875 -5.890625 C 9.789062 -5.890625 9.488281 -5.769531 9.28125 -5.53125 C 9.070312 -5.289062 8.957031 -5.003906 8.9375 -4.671875 L 8.9375 0 L 6.234375 0 L 6.234375 -4.421875 C 6.234375 -4.835938 6.117188 -5.1875 5.890625 -5.46875 C 5.660156 -5.75 5.316406 -5.890625 4.859375 -5.890625 C 4.441406 -5.890625 4.128906 -5.757812 3.921875 -5.5 C 3.710938 -5.238281 3.609375 -4.929688 3.609375 -4.578125 L 3.609375 0 Z M 0.921875 0 "/></g></g><g style="fill:#ac1754;fill-opacity:1;"><g transform="translate(210.616568, 47.249997)"><path style="stroke:none" d="M 8.828125 -3.53125 L 3.15625 -3.53125 C 3.15625 -2.988281 3.332031 -2.582031 3.6875 -2.3125 C 4.039062 -2.050781 4.425781 -1.921875 4.84375 -1.921875 C 5.28125 -1.921875 5.625 -1.976562 5.875 -2.09375 C 6.132812 -2.207031 6.425781 -2.441406 6.75 -2.796875 L 8.703125 -1.8125 C 7.890625 -0.445312 6.539062 0.234375 4.65625 0.234375 C 3.46875 0.234375 2.453125 -0.171875 1.609375 -0.984375 C 0.765625 -1.796875 0.34375 -2.769531 0.34375 -3.90625 C 0.34375 -5.039062 0.765625 -6.015625 1.609375 -6.828125 C 2.453125 -7.640625 3.46875 -8.046875 4.65625 -8.046875 C 5.894531 -8.046875 6.898438 -7.6875 7.671875 -6.96875 C 8.453125 -6.257812 8.84375 -5.238281 8.84375 -3.90625 C 8.84375 -3.71875 8.835938 -3.59375 8.828125 -3.53125 Z M 3.234375 -5.03125 L 6.203125 -5.03125 C 6.140625 -5.4375 5.976562 -5.75 5.71875 -5.96875 C 5.46875 -6.1875 5.140625 -6.296875 4.734375 -6.296875 C 4.285156 -6.296875 3.925781 -6.175781 3.65625 -5.9375 C 3.394531 -5.707031 3.253906 -5.40625 3.234375 -5.03125 Z M 3.234375 -5.03125 "/></g></g><g style="fill:#ac1754;fill-opacity:1;"><g transform="translate(219.047316, 47.249997)"><path style="stroke:none" d="M 0.921875 0 L 0.921875 -7.828125 L 3.609375 -7.828125 L 3.609375 -7 L 3.640625 -7 C 4.347656 -7.695312 5.097656 -8.046875 5.890625 -8.046875 C 6.453125 -8.046875 6.984375 -7.925781 7.484375 -7.6875 C 7.984375 -7.457031 8.359375 -7.101562 8.609375 -6.625 C 9.410156 -7.570312 10.273438 -8.046875 11.203125 -8.046875 C 12.035156 -8.046875 12.753906 -7.8125 13.359375 -7.34375 C 13.960938 -6.882812 14.265625 -6.15625 14.265625 -5.15625 L 14.265625 0 L 11.5625 0 L 11.5625 -4.421875 C 11.5625 -4.835938 11.445312 -5.1875 11.21875 -5.46875 C 10.988281 -5.75 10.644531 -5.890625 10.1875 -5.890625 C 9.789062 -5.890625 9.488281 -5.769531 9.28125 -5.53125 C 9.070312 -5.289062 8.957031 -5.003906 8.9375 -4.671875 L 8.9375 0 L 6.234375 0 L 6.234375 -4.421875 C 6.234375 -4.835938 6.117188 -5.1875 5.890625 -5.46875 C 5.660156 -5.75 5.316406 -5.890625 4.859375 -5.890625 C 4.441406 -5.890625 4.128906 -5.757812 3.921875 -5.5 C 3.710938 -5.238281 3.609375 -4.929688 3.609375 -4.578125 L 3.609375 0 Z M 0.921875 0 "/></g></g><g style="fill:#ac1754;fill-opacity:1;"><g transform="translate(233.302041, 47.249997)"><path style="stroke:none" d="M 3.46875 -7.828125 L 3.46875 -4.109375 C 3.46875 -3.328125 3.582031 -2.773438 3.8125 -2.453125 C 4.039062 -2.128906 4.4375 -1.96875 5 -1.96875 C 5.5625 -1.96875 5.957031 -2.128906 6.1875 -2.453125 C 6.425781 -2.773438 6.546875 -3.328125 6.546875 -4.109375 L 6.546875 -7.828125 L 9.234375 -7.828125 L 9.234375 -3.453125 C 9.234375 -2.148438 8.894531 -1.207031 8.21875 -0.625 C 7.550781 -0.0507812 6.476562 0.234375 5 0.234375 C 3.53125 0.234375 2.457031 -0.0507812 1.78125 -0.625 C 1.101562 -1.207031 0.765625 -2.148438 0.765625 -3.453125 L 0.765625 -7.828125 Z M 3.46875 -7.828125 "/></g></g><g style="fill:#ac1754;fill-opacity:1;"><g transform="translate(242.540833, 47.249997)"><path style="stroke:none" d="M 1.4375 -0.96875 C 0.707031 -1.769531 0.34375 -2.75 0.34375 -3.90625 C 0.34375 -5.0625 0.707031 -6.039062 1.4375 -6.84375 C 2.175781 -7.644531 3.109375 -8.046875 4.234375 -8.046875 C 5.273438 -8.046875 6.128906 -7.722656 6.796875 -7.078125 L 6.796875 -7.828125 L 9.5 -7.828125 L 9.5 0 L 6.828125 0 L 6.828125 -0.890625 L 6.796875 -0.890625 C 6.128906 -0.140625 5.273438 0.234375 4.234375 0.234375 C 3.109375 0.234375 2.175781 -0.164062 1.4375 -0.96875 Z M 3.734375 -5.234375 C 3.390625 -4.890625 3.21875 -4.445312 3.21875 -3.90625 C 3.21875 -3.363281 3.382812 -2.921875 3.71875 -2.578125 C 4.050781 -2.242188 4.492188 -2.078125 5.046875 -2.078125 C 5.578125 -2.078125 6.007812 -2.25 6.34375 -2.59375 C 6.6875 -2.9375 6.859375 -3.375 6.859375 -3.90625 C 6.859375 -4.445312 6.679688 -4.890625 6.328125 -5.234375 C 5.984375 -5.578125 5.554688 -5.75 5.046875 -5.75 C 4.523438 -5.75 4.085938 -5.578125 3.734375 -5.234375 Z M 3.734375 -5.234375 "/></g></g><g style="fill:#ac1754;fill-opacity:1;"><g transform="translate(252.191258, 47.249997)"><path style="stroke:none" d="M 1.375 -7.828125 L 1.375 -10.734375 L 4.078125 -10.734375 L 4.078125 -7.828125 L 5.71875 -7.828125 L 5.71875 -5.765625 L 4.078125 -5.765625 L 4.078125 -3.28125 C 4.078125 -2.5625 4.28125 -2.203125 4.6875 -2.203125 C 4.78125 -2.203125 4.882812 -2.21875 5 -2.25 C 5.113281 -2.289062 5.203125 -2.332031 5.265625 -2.375 L 5.359375 -2.4375 L 6.03125 -0.265625 C 5.445312 0.0664062 4.785156 0.234375 4.046875 0.234375 C 3.535156 0.234375 3.097656 0.144531 2.734375 -0.03125 C 2.367188 -0.21875 2.085938 -0.457031 1.890625 -0.75 C 1.703125 -1.050781 1.566406 -1.367188 1.484375 -1.703125 C 1.410156 -2.035156 1.375 -2.390625 1.375 -2.765625 L 1.375 -5.765625 L 0.25 -5.765625 L 0.25 -7.828125 Z M 1.375 -7.828125 "/></g></g><g style="fill:#ac1754;fill-opacity:1;"><g transform="translate(257.450824, 47.249997)"><path style="stroke:none" d="M 2.65625 -3.265625 C 3.144531 -3.265625 3.554688 -3.09375 3.890625 -2.75 C 4.234375 -2.40625 4.40625 -1.992188 4.40625 -1.515625 C 4.40625 -1.035156 4.234375 -0.625 3.890625 -0.28125 C 3.554688 0.0625 3.144531 0.234375 2.65625 0.234375 C 2.175781 0.234375 1.765625 0.0625 1.421875 -0.28125 C 1.085938 -0.625 0.921875 -1.035156 0.921875 -1.515625 C 0.921875 -1.992188 1.085938 -2.40625 1.421875 -2.75 C 1.765625 -3.09375 2.175781 -3.265625 2.65625 -3.265625 Z M 2.65625 -3.265625 "/></g></g><g style="fill:#ac1754;fill-opacity:1;"><g transform="translate(262.009074, 47.249997)"><path style="stroke:none" d="M 2.65625 -3.265625 C 3.144531 -3.265625 3.554688 -3.09375 3.890625 -2.75 C 4.234375 -2.40625 4.40625 -1.992188 4.40625 -1.515625 C 4.40625 -1.035156 4.234375 -0.625 3.890625 -0.28125 C 3.554688 0.0625 3.144531 0.234375 2.65625 0.234375 C 2.175781 0.234375 1.765625 0.0625 1.421875 -0.28125 C 1.085938 -0.625 0.921875 -1.035156 0.921875 -1.515625 C 0.921875 -1.992188 1.085938 -2.40625 1.421875 -2.75 C 1.765625 -3.09375 2.175781 -3.265625 2.65625 -3.265625 Z M 2.65625 -3.265625 "/></g></g></g></svg>