<svg xmlns="http://www.w3.org/2000/svg" xmlns:xlink="http://www.w3.org/1999/xlink" width="500" zoomAndPan="magnify" viewBox="0 0 375 374.999991" height="500" preserveAspectRatio="xMidYMid meet" version="1.0"><defs><clipPath id="480ead1c34"><path d="M 74 37.5 L 282 37.5 L 282 309 L 74 309 Z M 74 37.5 " clip-rule="nonzero"/></clipPath><clipPath id="05377a133a"><path d="M 73 77 L 316.375 77 L 316.375 312 L 73 312 Z M 73 77 " clip-rule="nonzero"/></clipPath><clipPath id="3a1e315dce"><path d="M 58.375 138 L 306 138 L 306 327 L 58.375 327 Z M 58.375 138 " clip-rule="nonzero"/></clipPath></defs><path fill="#ac1754" d="M 233.546875 276.210938 L 82.222656 307.726562 C 80.3125 297.628906 78.800781 287.476562 77.691406 277.261719 C 76.582031 267.046875 75.875 256.800781 75.570312 246.53125 C 75.265625 236.261719 75.367188 225.996094 75.871094 215.730469 C 76.375 205.46875 77.28125 195.242188 78.59375 185.050781 C 79.902344 174.859375 81.609375 164.734375 83.714844 154.679688 C 85.824219 144.621094 88.320312 134.664062 91.210938 124.800781 C 94.101562 114.941406 97.375 105.210938 101.03125 95.609375 C 104.6875 86.007812 108.714844 76.5625 113.117188 67.277344 L 280.058594 38.535156 C 275.5625 47.703125 271.375 57.011719 267.492188 66.457031 C 263.609375 75.898438 260.039062 85.460938 256.78125 95.140625 C 253.527344 104.820312 250.59375 114.59375 247.976562 124.464844 C 245.363281 134.335938 243.078125 144.28125 241.117188 154.304688 C 239.15625 164.324219 237.523438 174.398438 236.226562 184.527344 C 234.925781 194.65625 233.960938 204.816406 233.328125 215.007812 C 232.695312 225.199219 232.394531 235.402344 232.433594 245.613281 C 232.46875 255.824219 232.84375 266.023438 233.546875 276.210938 Z M 233.546875 276.210938 " fill-opacity="1" fill-rule="nonzero"/><g clip-path="url(#480ead1c34)"><path fill="#000000" d="M 233.714844 277.226562 L 200.4375 284.164062 L 82.386719 308.761719 C 82.253906 308.78125 82.121094 308.777344 81.988281 308.746094 C 81.855469 308.714844 81.734375 308.660156 81.625 308.578125 C 81.511719 308.5 81.421875 308.402344 81.347656 308.289062 C 81.277344 308.171875 81.230469 308.046875 81.207031 307.914062 C 76.550781 283.101562 74.277344 258.074219 74.394531 232.828125 C 74.46875 219.390625 75.230469 205.992188 76.679688 192.632812 C 78.125 179.273438 80.253906 166.023438 83.0625 152.878906 C 85.867188 139.738281 89.339844 126.773438 93.476562 113.988281 C 97.613281 101.203125 102.394531 88.664062 107.816406 76.367188 C 108.851562 74.070312 109.886719 71.769531 110.941406 69.492188 C 111.273438 68.496094 111.738281 67.5625 112.328125 66.695312 C 113.199219 65.847656 114.917969 65.929688 116.058594 65.746094 L 139.476562 61.601562 L 186.253906 53.652344 L 279.933594 37.5 C 280.019531 37.484375 280.109375 37.484375 280.199219 37.492188 C 280.289062 37.5 280.375 37.523438 280.457031 37.554688 C 280.542969 37.585938 280.621094 37.625 280.695312 37.679688 C 280.769531 37.730469 280.832031 37.789062 280.890625 37.859375 C 280.949219 37.929688 280.996094 38.003906 281.035156 38.085938 C 281.070312 38.167969 281.097656 38.25 281.113281 38.339844 C 281.128906 38.425781 281.132812 38.515625 281.125 38.605469 C 281.121094 38.695312 281.101562 38.78125 281.070312 38.867188 C 274.5 52.3125 268.578125 66.042969 263.304688 80.054688 C 257.433594 95.632812 252.410156 111.484375 248.242188 127.605469 C 244.070312 143.726562 240.773438 160.023438 238.355469 176.5 C 235.933594 192.972656 234.398438 209.53125 233.757812 226.167969 C 233.113281 242.808594 233.359375 259.433594 234.5 276.046875 C 234.5 277.351562 232.554688 277.722656 232.429688 276.398438 C 231.726562 266.183594 231.359375 255.960938 231.328125 245.726562 C 231.296875 235.488281 231.597656 225.261719 232.238281 215.046875 C 232.875 204.832031 233.847656 194.644531 235.15625 184.492188 C 236.460938 174.339844 238.101562 164.242188 240.070312 154.199219 C 242.039062 144.152344 244.335938 134.183594 246.960938 124.289062 C 249.585938 114.394531 252.53125 104.597656 255.796875 94.898438 C 259.0625 85.195312 262.644531 75.613281 266.539062 66.148438 C 270.4375 56.679688 274.636719 47.351562 279.144531 38.164062 L 280.285156 39.550781 L 176.523438 57.441406 L 130.613281 65.332031 L 119.410156 67.257812 L 116.347656 67.773438 C 115.808594 67.878906 114.277344 67.773438 113.820312 68.207031 C 113.363281 68.644531 112.828125 70.277344 112.476562 71.085938 C 110.292969 75.835938 108.222656 80.605469 106.261719 85.394531 C 102.648438 94.117188 99.351562 102.960938 96.378906 111.921875 C 93.402344 120.882812 90.757812 129.941406 88.441406 139.09375 C 86.125 148.246094 84.140625 157.472656 82.496094 166.769531 C 80.847656 176.066406 79.539062 185.410156 78.570312 194.804688 C 77.601562 204.195312 76.972656 213.609375 76.6875 223.046875 C 76.402344 232.488281 76.457031 241.921875 76.859375 251.355469 C 77.257812 260.789062 77.996094 270.195312 79.078125 279.574219 C 80.160156 288.957031 81.582031 298.285156 83.339844 307.5625 L 82.140625 306.710938 L 115.4375 299.773438 L 233.464844 275.195312 C 234.667969 274.925781 235.019531 276.957031 233.714844 277.226562 Z M 233.714844 277.226562 " fill-opacity="1" fill-rule="nonzero"/></g><path fill="#ffffff" d="M 229.199219 305.34375 L 74.726562 310.832031 C 74.554688 300.554688 74.785156 290.285156 75.421875 280.027344 C 76.058594 269.765625 77.097656 259.546875 78.539062 249.371094 C 79.980469 239.191406 81.820312 229.085938 84.054688 219.054688 C 86.292969 209.023438 88.921875 199.09375 91.941406 189.265625 C 94.964844 179.441406 98.363281 169.75 102.148438 160.191406 C 105.933594 150.632812 110.085938 141.242188 114.609375 132.011719 C 119.132812 122.78125 124.015625 113.742188 129.25 104.894531 C 134.488281 96.050781 140.0625 87.425781 145.980469 79.019531 L 315.425781 79.019531 C 309.4375 87.289062 303.726562 95.75 298.296875 104.398438 C 292.863281 113.046875 287.722656 121.863281 282.871094 130.847656 C 278.015625 139.832031 273.464844 148.96875 269.210938 158.25 C 264.957031 167.535156 261.011719 176.949219 257.375 186.492188 C 253.742188 196.035156 250.421875 205.6875 247.417969 215.445312 C 244.417969 225.207031 241.738281 235.054688 239.382812 244.992188 C 237.027344 254.929688 235 264.933594 233.300781 275.003906 C 231.601562 285.070312 230.234375 295.1875 229.199219 305.34375 Z M 229.199219 305.34375 " fill-opacity="1" fill-rule="nonzero"/><g clip-path="url(#05377a133a)"><path fill="#000000" d="M 229.199219 306.382812 L 195.15625 307.5625 L 74.664062 311.703125 C 74.527344 311.703125 74.394531 311.675781 74.265625 311.625 C 74.140625 311.570312 74.027344 311.496094 73.929688 311.398438 C 73.835938 311.300781 73.757812 311.191406 73.707031 311.0625 C 73.65625 310.9375 73.628906 310.804688 73.628906 310.667969 C 73.476562 300.804688 73.695312 290.953125 74.28125 281.109375 C 74.871094 271.265625 75.828125 261.457031 77.15625 251.683594 C 78.484375 241.910156 80.175781 232.203125 82.234375 222.558594 C 84.292969 212.910156 86.710938 203.359375 89.488281 193.894531 C 92.265625 184.433594 95.394531 175.085938 98.875 165.859375 C 102.355469 156.632812 106.175781 147.546875 110.339844 138.609375 C 114.507812 129.667969 119 120.898438 123.824219 112.296875 C 128.648438 103.695312 133.792969 95.285156 139.25 87.074219 C 140.65625 85 142.066406 82.929688 143.492188 80.859375 C 143.96875 79.921875 144.570312 79.074219 145.296875 78.3125 C 146.289062 77.628906 147.964844 78.023438 149.125 78.023438 L 315.464844 78.023438 C 315.554688 78.023438 315.644531 78.035156 315.734375 78.058594 C 315.820312 78.085938 315.902344 78.117188 315.980469 78.164062 C 316.058594 78.210938 316.128906 78.265625 316.195312 78.328125 C 316.257812 78.394531 316.3125 78.464844 316.359375 78.542969 C 316.402344 78.621094 316.4375 78.707031 316.460938 78.792969 C 316.484375 78.882812 316.496094 78.96875 316.496094 79.0625 C 316.496094 79.152344 316.484375 79.242188 316.460938 79.328125 C 316.4375 79.414062 316.402344 79.5 316.355469 79.578125 C 307.589844 91.710938 299.417969 104.230469 291.839844 117.140625 C 283.421875 131.503906 275.796875 146.273438 268.960938 161.453125 C 262.128906 176.632812 256.125 192.132812 250.949219 207.957031 C 245.773438 223.78125 241.460938 239.832031 238.003906 256.117188 C 234.550781 272.402344 231.972656 288.828125 230.277344 305.386719 C 230.152344 306.691406 228.082031 306.710938 228.207031 305.386719 C 229.894531 288.921875 232.433594 272.59375 235.828125 256.394531 C 239.1875 240.402344 243.375 224.628906 248.390625 209.074219 C 253.402344 193.519531 259.214844 178.269531 265.828125 163.324219 C 272.4375 148.378906 279.8125 133.820312 287.949219 119.648438 C 296.085938 105.472656 304.941406 91.765625 314.511719 78.519531 L 315.402344 80.09375 L 149.085938 80.09375 C 148.527344 80.09375 147.015625 79.804688 146.515625 80.09375 C 146.019531 80.382812 145.148438 82.019531 144.695312 82.703125 C 141.753906 86.988281 138.875 91.339844 136.101562 95.726562 C 131.054688 103.710938 126.300781 111.867188 121.84375 120.195312 C 117.386719 128.519531 113.238281 137 109.398438 145.628906 C 105.558594 154.257812 102.039062 163.015625 98.832031 171.898438 C 95.628906 180.785156 92.75 189.773438 90.199219 198.867188 C 87.648438 207.960938 85.433594 217.136719 83.546875 226.390625 C 81.664062 235.648438 80.117188 244.957031 78.910156 254.324219 C 77.699219 263.691406 76.832031 273.089844 76.308594 282.523438 C 75.785156 291.953125 75.601562 301.390625 75.761719 310.832031 L 74.726562 309.796875 L 108.707031 308.617188 L 229.199219 304.476562 C 230.546875 304.269531 230.527344 306.339844 229.199219 306.382812 Z M 229.199219 306.382812 " fill-opacity="1" fill-rule="nonzero"/></g><path fill="#ac1754" d="M 304.347656 325.636719 L 59.527344 325.636719 L 59.527344 172.902344 L 204.101562 172.902344 L 222.324219 139.152344 L 303.910156 139.648438 Z M 304.347656 325.636719 " fill-opacity="1" fill-rule="nonzero"/><g clip-path="url(#3a1e315dce)"><path fill="#000000" d="M 305.113281 326.300781 C 305.300781 326.121094 305.386719 325.898438 305.382812 325.636719 L 305.03125 180.980469 C 305.03125 167.175781 305.03125 153.371094 305.03125 139.566406 C 305.023438 139.28125 304.921875 139.039062 304.71875 138.839844 C 304.519531 138.636719 304.277344 138.535156 303.992188 138.53125 L 222.410156 138.03125 C 222.015625 138.042969 221.722656 138.214844 221.519531 138.550781 C 215.996094 148.753906 210.472656 158.96875 204.953125 169.195312 C 204.042969 170.875 204 171.640625 202.117188 171.785156 C 200.75 171.910156 199.339844 171.785156 197.972656 171.785156 L 59.527344 171.785156 C 59.242188 171.789062 59 171.894531 58.800781 172.09375 C 58.601562 172.292969 58.496094 172.535156 58.492188 172.820312 L 58.492188 325.554688 C 58.496094 325.839844 58.601562 326.082031 58.800781 326.28125 C 59 326.480469 59.242188 326.585938 59.527344 326.589844 L 294.324219 326.589844 C 297.527344 326.765625 300.730469 326.765625 303.933594 326.589844 C 304.070312 326.582031 304.207031 326.582031 304.347656 326.589844 C 304.597656 326.601562 304.808594 326.515625 304.988281 326.34375 Z M 279.871094 324.601562 L 63.273438 324.601562 C 62.527344 324.601562 61.433594 324.417969 60.5625 324.5 L 60.5625 173.9375 L 204.101562 173.9375 C 204.507812 173.945312 204.8125 173.773438 205.015625 173.421875 L 218.910156 147.683594 C 219.910156 145.546875 221.027344 143.476562 222.261719 141.46875 C 223.277344 140.042969 223.652344 140.226562 225.429688 140.226562 L 244.066406 140.226562 L 302.917969 140.578125 C 303.027344 188.480469 303.136719 236.363281 303.25 284.222656 L 303.25 324.519531 Z M 279.871094 324.601562 " fill-opacity="1" fill-rule="nonzero"/></g><path fill="#ffffff" d="M 212.613281 255.296875 C 212.613281 256.4375 212.558594 257.578125 212.449219 258.714844 C 212.335938 259.847656 212.171875 260.976562 211.949219 262.097656 C 211.726562 263.214844 211.449219 264.324219 211.117188 265.414062 C 210.789062 266.507812 210.40625 267.582031 209.96875 268.636719 C 209.53125 269.691406 209.046875 270.722656 208.507812 271.730469 C 207.96875 272.734375 207.382812 273.714844 206.75 274.664062 C 206.117188 275.613281 205.4375 276.53125 204.714844 277.414062 C 203.992188 278.296875 203.226562 279.140625 202.417969 279.949219 C 201.613281 280.753906 200.769531 281.519531 199.886719 282.246094 C 199.003906 282.96875 198.089844 283.648438 197.140625 284.285156 C 196.191406 284.917969 195.210938 285.507812 194.207031 286.042969 C 193.199219 286.582031 192.167969 287.070312 191.113281 287.507812 C 190.058594 287.945312 188.988281 288.332031 187.894531 288.664062 C 186.800781 288.992188 185.695312 289.273438 184.578125 289.496094 C 183.457031 289.71875 182.328125 289.886719 181.195312 290 C 180.058594 290.109375 178.917969 290.167969 177.777344 290.167969 C 176.636719 290.167969 175.496094 290.113281 174.363281 290 C 173.226562 289.890625 172.097656 289.722656 170.976562 289.5 C 169.859375 289.277344 168.753906 289 167.660156 288.671875 C 166.566406 288.339844 165.492188 287.957031 164.4375 287.519531 C 163.382812 287.082031 162.351562 286.59375 161.347656 286.058594 C 160.339844 285.519531 159.359375 284.933594 158.410156 284.300781 C 157.460938 283.667969 156.546875 282.988281 155.664062 282.261719 C 154.78125 281.539062 153.9375 280.773438 153.128906 279.96875 C 152.320312 279.160156 151.554688 278.316406 150.832031 277.433594 C 150.105469 276.550781 149.425781 275.636719 148.792969 274.6875 C 148.15625 273.738281 147.570312 272.761719 147.035156 271.753906 C 146.496094 270.746094 146.007812 269.714844 145.570312 268.660156 C 145.132812 267.605469 144.75 266.535156 144.417969 265.441406 C 144.085938 264.347656 143.808594 263.242188 143.585938 262.125 C 143.363281 261.003906 143.195312 259.875 143.082031 258.742188 C 142.96875 257.605469 142.914062 256.464844 142.914062 255.324219 C 142.914062 254.183594 142.96875 253.042969 143.082031 251.90625 C 143.191406 250.773438 143.359375 249.644531 143.582031 248.523438 C 143.804688 247.40625 144.082031 246.296875 144.414062 245.207031 C 144.746094 244.113281 145.128906 243.039062 145.566406 241.984375 C 146 240.929688 146.488281 239.898438 147.027344 238.894531 C 147.566406 237.886719 148.152344 236.910156 148.785156 235.960938 C 149.417969 235.011719 150.097656 234.09375 150.820312 233.210938 C 151.546875 232.328125 152.3125 231.484375 153.117188 230.675781 C 153.925781 229.871094 154.769531 229.105469 155.652344 228.378906 C 156.535156 227.65625 157.449219 226.976562 158.398438 226.34375 C 159.347656 225.707031 160.328125 225.121094 161.332031 224.582031 C 162.339844 224.046875 163.371094 223.558594 164.425781 223.121094 C 165.480469 222.683594 166.554688 222.300781 167.644531 221.96875 C 168.738281 221.636719 169.84375 221.359375 170.964844 221.136719 C 172.082031 220.914062 173.210938 220.746094 174.347656 220.636719 C 175.484375 220.523438 176.621094 220.46875 177.765625 220.46875 C 178.90625 220.46875 180.042969 220.523438 181.179688 220.636719 C 182.3125 220.746094 183.441406 220.914062 184.558594 221.136719 C 185.679688 221.359375 186.785156 221.636719 187.875 221.96875 C 188.96875 222.296875 190.042969 222.683594 191.09375 223.117188 C 192.148438 223.554688 193.179688 224.042969 194.1875 224.578125 C 195.191406 225.117188 196.171875 225.703125 197.117188 226.335938 C 198.066406 226.96875 198.984375 227.648438 199.867188 228.371094 C 200.746094 229.097656 201.59375 229.859375 202.398438 230.667969 C 203.207031 231.472656 203.972656 232.316406 204.695312 233.199219 C 205.421875 234.082031 206.097656 234.996094 206.734375 235.945312 C 207.367188 236.894531 207.953125 237.871094 208.492188 238.875 C 209.03125 239.882812 209.519531 240.914062 209.957031 241.964844 C 210.390625 243.019531 210.777344 244.09375 211.109375 245.183594 C 211.441406 246.277344 211.71875 247.382812 211.941406 248.5 C 212.164062 249.621094 212.332031 250.746094 212.445312 251.882812 C 212.558594 253.015625 212.613281 254.15625 212.613281 255.296875 Z M 212.613281 255.296875 " fill-opacity="1" fill-rule="nonzero"/><path fill="#000000" d="M 190.167969 221.628906 C 188.984375 221.191406 187.777344 220.820312 186.554688 220.511719 C 185.328125 220.203125 184.09375 219.957031 182.84375 219.78125 C 181.59375 219.601562 180.335938 219.488281 179.074219 219.445312 C 177.8125 219.398438 176.550781 219.421875 175.292969 219.507812 C 174.035156 219.597656 172.78125 219.75 171.539062 219.96875 C 170.296875 220.1875 169.066406 220.472656 167.855469 220.824219 C 166.640625 221.171875 165.449219 221.585938 164.28125 222.0625 C 163.109375 222.535156 161.96875 223.074219 160.855469 223.667969 C 159.742188 224.265625 158.664062 224.917969 157.621094 225.628906 C 156.574219 226.335938 155.570312 227.101562 154.609375 227.914062 C 153.644531 228.730469 152.726562 229.597656 151.855469 230.507812 C 150.984375 231.421875 150.160156 232.378906 149.390625 233.378906 C 148.617188 234.378906 147.902344 235.414062 147.238281 236.488281 C 146.578125 237.566406 145.976562 238.671875 145.429688 239.8125 C 144.886719 240.949219 144.402344 242.113281 143.980469 243.304688 C 143.558594 244.496094 143.199219 245.703125 142.90625 246.929688 C 142.613281 248.160156 142.382812 249.398438 142.222656 250.652344 C 142.058594 251.902344 141.960938 253.160156 141.929688 254.421875 C 141.898438 255.683594 141.9375 256.945312 142.039062 258.203125 C 142.140625 259.460938 142.308594 260.710938 142.542969 261.953125 C 142.78125 263.191406 143.078125 264.417969 143.441406 265.625 C 143.808594 266.835938 144.234375 268.019531 144.722656 269.183594 C 145.210938 270.347656 145.761719 271.484375 146.371094 272.589844 C 146.980469 273.695312 147.644531 274.765625 148.367188 275.800781 C 149.089844 276.835938 149.863281 277.832031 150.691406 278.785156 C 151.519531 279.738281 152.394531 280.648438 153.316406 281.507812 C 154.242188 282.371094 155.207031 283.179688 156.214844 283.941406 C 157.222656 284.699219 158.269531 285.402344 159.351562 286.050781 C 160.4375 286.699219 161.550781 287.289062 162.695312 287.820312 C 163.839844 288.351562 165.011719 288.824219 166.207031 289.230469 C 167.402344 289.636719 168.613281 289.980469 169.84375 290.261719 C 171.078125 290.539062 172.320312 290.753906 173.574219 290.902344 C 174.828125 291.050781 176.085938 291.132812 177.347656 291.148438 C 178.609375 291.164062 179.871094 291.113281 181.125 290.996094 C 182.382812 290.878906 183.632812 290.695312 184.867188 290.445312 C 186.105469 290.195312 187.328125 289.878906 188.53125 289.503906 C 189.738281 289.125 190.917969 288.683594 192.074219 288.179688 C 193.234375 287.675781 194.363281 287.113281 195.460938 286.492188 C 196.558594 285.871094 197.621094 285.191406 198.648438 284.457031 C 199.675781 283.722656 200.660156 282.9375 201.605469 282.097656 C 202.550781 281.257812 203.445312 280.371094 204.296875 279.441406 C 205.148438 278.507812 205.945312 277.53125 206.691406 276.511719 C 207.441406 275.496094 208.132812 274.441406 208.769531 273.351562 C 209.402344 272.261719 209.980469 271.136719 210.496094 269.988281 C 211.015625 268.835938 211.472656 267.660156 211.863281 266.460938 C 212.257812 265.261719 212.585938 264.042969 212.851562 262.808594 C 213.117188 261.574219 213.316406 260.328125 213.449219 259.074219 C 213.582031 257.816406 213.648438 256.558594 213.648438 255.296875 C 213.640625 253.472656 213.492188 251.664062 213.210938 249.863281 C 212.925781 248.0625 212.507812 246.292969 211.957031 244.558594 C 211.40625 242.820312 210.726562 241.132812 209.921875 239.5 C 209.117188 237.867188 208.191406 236.300781 207.148438 234.804688 C 206.109375 233.3125 204.957031 231.902344 203.703125 230.582031 C 202.449219 229.261719 201.101562 228.042969 199.660156 226.925781 C 198.222656 225.808594 196.707031 224.804688 195.113281 223.917969 C 193.523438 223.027344 191.875 222.265625 190.167969 221.628906 Z M 189.296875 287.082031 C 188.179688 287.488281 187.042969 287.832031 185.890625 288.121094 C 184.734375 288.40625 183.566406 288.628906 182.390625 288.792969 C 181.210938 288.953125 180.027344 289.054688 178.839844 289.09375 C 177.648438 289.128906 176.460938 289.105469 175.277344 289.019531 C 174.089844 288.929688 172.910156 288.78125 171.742188 288.570312 C 170.570312 288.355469 169.414062 288.085938 168.273438 287.75 C 167.132812 287.417969 166.011719 287.023438 164.910156 286.570312 C 163.8125 286.121094 162.738281 285.609375 161.691406 285.046875 C 160.644531 284.480469 159.628906 283.859375 158.648438 283.1875 C 157.667969 282.515625 156.726562 281.792969 155.820312 281.023438 C 154.914062 280.25 154.054688 279.433594 153.234375 278.570312 C 152.414062 277.707031 151.644531 276.804688 150.921875 275.859375 C 150.199219 274.914062 149.527344 273.9375 148.90625 272.921875 C 148.285156 271.90625 147.722656 270.859375 147.210938 269.785156 C 146.703125 268.710938 146.25 267.613281 145.855469 266.492188 C 145.460938 265.367188 145.128906 264.230469 144.855469 263.070312 C 144.582031 261.914062 144.371094 260.746094 144.21875 259.566406 C 144.070312 258.386719 143.980469 257.199219 143.957031 256.011719 C 143.933594 254.820312 143.96875 253.636719 144.070312 252.449219 C 144.167969 251.265625 144.332031 250.089844 144.554688 248.917969 C 144.78125 247.75 145.066406 246.597656 145.410156 245.460938 C 145.757812 244.324219 146.160156 243.207031 146.625 242.109375 C 147.089844 241.015625 147.609375 239.949219 148.1875 238.90625 C 148.761719 237.867188 149.390625 236.859375 150.074219 235.886719 C 150.757812 234.910156 151.488281 233.976562 152.269531 233.078125 C 153.050781 232.183594 153.878906 231.328125 154.75 230.519531 C 155.621094 229.710938 156.535156 228.949219 157.484375 228.234375 C 158.4375 227.523438 159.421875 226.863281 160.445312 226.253906 C 161.46875 225.644531 162.519531 225.089844 163.597656 224.589844 C 164.675781 224.09375 165.78125 223.652344 166.90625 223.269531 C 168.035156 222.890625 169.175781 222.566406 170.335938 222.304688 C 171.496094 222.042969 172.667969 221.84375 173.851562 221.707031 C 175.03125 221.570312 176.21875 221.496094 177.40625 221.484375 C 178.597656 221.46875 179.78125 221.519531 180.964844 221.632812 C 182.152344 221.746094 183.324219 221.917969 184.492188 222.15625 C 185.65625 222.394531 186.808594 222.691406 187.941406 223.046875 C 189.074219 223.40625 190.1875 223.824219 191.277344 224.296875 C 192.367188 224.773438 193.429688 225.304688 194.464844 225.894531 C 195.5 226.480469 196.5 227.121094 197.464844 227.8125 C 198.433594 228.507812 199.359375 229.25 200.25 230.039062 C 201.136719 230.832031 201.980469 231.664062 202.78125 232.546875 C 203.582031 233.425781 204.332031 234.34375 205.035156 235.304688 C 205.738281 236.265625 206.390625 237.257812 206.988281 238.285156 C 207.585938 239.3125 208.128906 240.371094 208.617188 241.457031 C 209.101562 242.539062 209.53125 243.648438 209.902344 244.777344 C 210.273438 245.910156 210.582031 247.054688 210.828125 248.21875 C 211.078125 249.382812 211.265625 250.554688 211.390625 251.738281 C 211.515625 252.921875 211.578125 254.105469 211.578125 255.296875 C 211.566406 257.019531 211.425781 258.734375 211.15625 260.4375 C 210.886719 262.136719 210.488281 263.808594 209.964844 265.453125 C 209.441406 267.09375 208.796875 268.6875 208.03125 270.230469 C 207.265625 271.777344 206.386719 273.253906 205.398438 274.664062 C 204.410156 276.078125 203.316406 277.40625 202.128906 278.652344 C 200.9375 279.898438 199.660156 281.046875 198.292969 282.101562 C 196.929688 283.152344 195.492188 284.097656 193.984375 284.933594 C 192.476562 285.765625 190.914062 286.484375 189.296875 287.082031 Z M 189.296875 287.082031 " fill-opacity="1" fill-rule="nonzero"/><path fill="#ac1754" d="M 290.039062 173.214844 L 174.179688 269.855469 L 173.351562 270.496094 L 138.523438 224.484375 L 152.066406 214.132812 L 176.644531 246.640625 L 279.789062 159.671875 Z M 290.039062 173.214844 " fill-opacity="1" fill-rule="nonzero"/><path fill="#000000" d="M 291.113281 173.277344 C 291.136719 173.164062 291.136719 173.054688 291.113281 172.945312 C 291.113281 172.945312 291.113281 172.820312 291.113281 172.757812 L 280.761719 159.214844 C 280.679688 159.078125 280.570312 158.96875 280.4375 158.878906 C 280.304688 158.792969 280.160156 158.738281 280.003906 158.71875 C 279.847656 158.699219 279.691406 158.714844 279.542969 158.765625 C 279.390625 158.816406 279.257812 158.898438 279.144531 159.007812 L 244.171875 188.371094 L 188.613281 235.230469 L 176.789062 245.210938 L 152.957031 213.71875 C 152.890625 213.597656 152.800781 213.496094 152.695312 213.410156 C 152.585938 213.328125 152.464844 213.269531 152.332031 213.234375 C 152.199219 213.199219 152.066406 213.191406 151.929688 213.207031 C 151.792969 213.226562 151.667969 213.273438 151.550781 213.34375 L 138.007812 223.699219 C 137.890625 223.765625 137.789062 223.855469 137.707031 223.964844 C 137.625 224.074219 137.566406 224.191406 137.53125 224.324219 C 137.496094 224.457031 137.488281 224.589844 137.503906 224.726562 C 137.523438 224.859375 137.566406 224.988281 137.632812 225.105469 L 168.09375 265.277344 L 172.378906 270.972656 C 172.671875 271.367188 173.3125 271.71875 173.789062 271.34375 L 174.511719 270.785156 C 174.640625 270.742188 174.757812 270.683594 174.863281 270.597656 L 214.105469 237.902344 L 276.515625 185.84375 L 290.761719 173.960938 L 290.886719 173.8125 C 290.890625 173.757812 290.890625 173.703125 290.886719 173.648438 C 291.007812 173.550781 291.082031 173.429688 291.113281 173.277344 Z M 250.113281 205.226562 L 187.703125 257.242188 L 173.765625 268.859375 C 173.765625 268.859375 173.664062 268.859375 173.621094 268.859375 L 173.5 268.859375 L 143.742188 229.515625 L 139.972656 224.546875 L 151.878906 215.539062 L 175.734375 247.074219 C 175.816406 247.210938 175.925781 247.324219 176.0625 247.410156 C 176.195312 247.5 176.34375 247.550781 176.503906 247.574219 C 176.660156 247.59375 176.816406 247.578125 176.96875 247.527344 C 177.121094 247.476562 177.253906 247.394531 177.371094 247.28125 L 212.242188 218.003906 L 267.796875 171.121094 L 279.621094 161.164062 L 288.628906 173.046875 Z M 250.113281 205.226562 " fill-opacity="1" fill-rule="nonzero"/></svg>