<svg xmlns="http://www.w3.org/2000/svg" xmlns:xlink="http://www.w3.org/1999/xlink" width="500" zoomAndPan="magnify" viewBox="0 0 375 374.999991" height="500" preserveAspectRatio="xMidYMid meet" version="1.0"><defs><clipPath id="d0e9c921e9"><path d="M 67 67 L 308 67 L 308 308 L 67 308 Z M 67 67 " clip-rule="nonzero"/></clipPath><clipPath id="20648a9e56"><path d="M 142.078125 184.441406 L 72.90625 115.140625 C 66.109375 108.347656 66.109375 97.226562 72.90625 90.429688 L 90.429688 72.90625 C 97.226562 66.113281 108.34375 66.109375 115.140625 72.90625 L 184.359375 142.433594 Z M 302.027344 259.78125 L 233.019531 190.359375 L 190.8125 232.691406 L 259.777344 302.027344 C 266.570312 308.820312 277.691406 308.820312 284.484375 302.027344 L 302.027344 284.488281 C 308.820312 277.695312 308.820312 266.574219 302.027344 259.78125 Z M 295.773438 90.441406 L 284.414062 79.082031 C 277.621094 72.289062 266.5 72.289062 259.707031 79.082031 L 79.082031 259.707031 C 72.289062 266.503906 72.289062 277.621094 79.082031 284.417969 L 90.441406 295.773438 C 97.238281 302.570312 108.359375 302.570312 115.152344 295.773438 L 295.773438 115.152344 C 302.570312 108.359375 302.570312 97.238281 295.773438 90.441406 Z M 295.773438 90.441406 " clip-rule="nonzero"/></clipPath></defs><g clip-path="url(#d0e9c921e9)"><g clip-path="url(#20648a9e56)"><path fill="#ac1754" d="M 66.125 66.125 L 66.125 308.820312 L 308.820312 308.820312 L 308.820312 66.125 Z M 66.125 66.125 " fill-opacity="1" fill-rule="nonzero"/></g></g></svg>